<?xml version="1.0" encoding="UTF-8" standalone="no"?><svg xmlns="http://www.w3.org/2000/svg" xmlns:xlink="http://www.w3.org/1999/xlink" contentScriptType="application/ecmascript" contentStyleType="text/css" height="581px" preserveAspectRatio="none" style="width:665px;height:581px;" version="1.1" viewBox="0 0 665 581" width="665px" zoomAndPan="magnify"><defs><filter height="300%" id="f1938j2t4od9vm" width="300%" x="-1" y="-1"><feGaussianBlur result="blurOut" stdDeviation="2.0"/><feColorMatrix in="blurOut" result="blurOut2" type="matrix" values="0 0 0 0 0 0 0 0 0 0 0 0 0 0 0 0 0 0 .4 0"/><feOffset dx="4.0" dy="4.0" in="blurOut2" result="blurOut3"/><feBlend in="SourceGraphic" in2="blurOut3" mode="normal"/></filter></defs><g><text fill="#000000" font-family="sans-serif" font-size="18" lengthAdjust="spacingAndGlyphs" textLength="319" x="176" y="19.2419">Basit Shape Factory - Class Diyagramı</text><!--MD5=[426e75666daf533f17226ff4c87e20fd]
class Shape--><rect fill="#E8F4F8" filter="url(#f1938j2t4od9vm)" height="88.652" id="Shape" style="stroke: #2C5F7C; stroke-width: 1.5;" width="87" x="453.5" y="192.5158"/><ellipse cx="468.5" cy="213.86" fill="#A9DCDF" rx="11" ry="11" style="stroke: #2C5F7C; stroke-width: 1.0;"/><path d="M468.6094,209.2037 L467.4531,214.2818 L469.7813,214.2818 L468.6094,209.2037 Z M467.125,206.9693 L470.1094,206.9693 L473.4688,219.36 L471.0156,219.36 L470.25,216.2975 L466.9688,216.2975 L466.2188,219.36 L463.7813,219.36 L467.125,206.9693 Z "/><text fill="#000000" font-family="sans-serif" font-size="12" font-style="italic" lengthAdjust="spacingAndGlyphs" textLength="59" x="480.5" y="210.3439">«interface»</text><text fill="#000000" font-family="sans-serif" font-size="12" font-style="italic" lengthAdjust="spacingAndGlyphs" textLength="33" x="493.5" y="226.6881">Shape</text><line style="stroke: #2C5F7C; stroke-width: 1.5;" x1="454.5" x2="539.5" y1="235.2041" y2="235.2041"/><line style="stroke: #2C5F7C; stroke-width: 1.5;" x1="454.5" x2="539.5" y1="243.2041" y2="243.2041"/><text fill="#000000" font-family="sans-serif" font-size="11" font-style="italic" lengthAdjust="spacingAndGlyphs" textLength="62" x="459.5" y="258.963">+draw(): void</text><text fill="#000000" font-family="sans-serif" font-size="11" lengthAdjust="spacingAndGlyphs" textLength="50" x="459.5" y="273.9449">+~Shape()</text><!--MD5=[a7f9118cae7621dd25d25149752faef0]
class Circle--><rect fill="#E8F4F8" filter="url(#f1938j2t4od9vm)" height="62.9819" id="Circle" style="stroke: #2C5F7C; stroke-width: 1.5;" width="80" x="116" y="360.5158"/><ellipse cx="138.2" cy="376.5158" fill="#ADD1B2" rx="11" ry="11" style="stroke: #2C5F7C; stroke-width: 1.0;"/><path d="M141.1688,382.1565 Q140.5906,382.4533 139.95,382.594 Q139.3094,382.7502 138.6063,382.7502 Q136.1063,382.7502 134.7781,381.1096 Q133.4656,379.4533 133.4656,376.3283 Q133.4656,373.2033 134.7781,371.5471 Q136.1063,369.8908 138.6063,369.8908 Q139.3094,369.8908 139.95,370.0471 Q140.6063,370.2033 141.1688,370.5002 L141.1688,373.219 Q140.5438,372.6408 139.95,372.3752 Q139.3563,372.094 138.7313,372.094 Q137.3875,372.094 136.7,373.1721 Q136.0125,374.2346 136.0125,376.3283 Q136.0125,378.4221 136.7,379.5002 Q137.3875,380.5627 138.7313,380.5627 Q139.3563,380.5627 139.95,380.2971 Q140.5438,380.0158 141.1688,379.4377 L141.1688,382.1565 Z "/><text fill="#000000" font-family="sans-serif" font-size="12" lengthAdjust="spacingAndGlyphs" textLength="32" x="153.8" y="381.1719">Circle</text><line style="stroke: #2C5F7C; stroke-width: 1.5;" x1="117" x2="195" y1="392.5158" y2="392.5158"/><line style="stroke: #2C5F7C; stroke-width: 1.5;" x1="117" x2="195" y1="400.5158" y2="400.5158"/><text fill="#000000" font-family="sans-serif" font-size="11" lengthAdjust="spacingAndGlyphs" textLength="68" x="122" y="416.2748">+draw(): void</text><!--MD5=[b5313cd49da22b0744b541f414f8445e]
class Rectangle--><rect fill="#E8F4F8" filter="url(#f1938j2t4od9vm)" height="62.9819" id="Rectangle" style="stroke: #2C5F7C; stroke-width: 1.5;" width="87" x="514.5" y="360.5158"/><ellipse cx="529.5" cy="376.5158" fill="#ADD1B2" rx="11" ry="11" style="stroke: #2C5F7C; stroke-width: 1.0;"/><path d="M532.4688,382.1565 Q531.8906,382.4533 531.25,382.594 Q530.6094,382.7502 529.9063,382.7502 Q527.4063,382.7502 526.0781,381.1096 Q524.7656,379.4533 524.7656,376.3283 Q524.7656,373.2033 526.0781,371.5471 Q527.4063,369.8908 529.9063,369.8908 Q530.6094,369.8908 531.25,370.0471 Q531.9063,370.2033 532.4688,370.5002 L532.4688,373.219 Q531.8438,372.6408 531.25,372.3752 Q530.6563,372.094 530.0313,372.094 Q528.6875,372.094 528,373.1721 Q527.3125,374.2346 527.3125,376.3283 Q527.3125,378.4221 528,379.5002 Q528.6875,380.5627 530.0313,380.5627 Q530.6563,380.5627 531.25,380.2971 Q531.8438,380.0158 532.4688,379.4377 L532.4688,382.1565 Z "/><text fill="#000000" font-family="sans-serif" font-size="12" lengthAdjust="spacingAndGlyphs" textLength="55" x="543.5" y="381.1719">Rectangle</text><line style="stroke: #2C5F7C; stroke-width: 1.5;" x1="515.5" x2="600.5" y1="392.5158" y2="392.5158"/><line style="stroke: #2C5F7C; stroke-width: 1.5;" x1="515.5" x2="600.5" y1="400.5158" y2="400.5158"/><text fill="#000000" font-family="sans-serif" font-size="11" lengthAdjust="spacingAndGlyphs" textLength="68" x="520.5" y="416.2748">+draw(): void</text><!--MD5=[40b067e448d061f8c1f714bff454de58]
class Triangle--><rect fill="#E8F4F8" filter="url(#f1938j2t4od9vm)" height="62.9819" id="Triangle" style="stroke: #2C5F7C; stroke-width: 1.5;" width="80" x="231" y="360.5158"/><ellipse cx="246.9" cy="376.5158" fill="#ADD1B2" rx="11" ry="11" style="stroke: #2C5F7C; stroke-width: 1.0;"/><path d="M249.8688,382.1565 Q249.2906,382.4533 248.65,382.594 Q248.0094,382.7502 247.3063,382.7502 Q244.8063,382.7502 243.4781,381.1096 Q242.1656,379.4533 242.1656,376.3283 Q242.1656,373.2033 243.4781,371.5471 Q244.8063,369.8908 247.3063,369.8908 Q248.0094,369.8908 248.65,370.0471 Q249.3063,370.2033 249.8688,370.5002 L249.8688,373.219 Q249.2438,372.6408 248.65,372.3752 Q248.0563,372.094 247.4313,372.094 Q246.0875,372.094 245.4,373.1721 Q244.7125,374.2346 244.7125,376.3283 Q244.7125,378.4221 245.4,379.5002 Q246.0875,380.5627 247.4313,380.5627 Q248.0563,380.5627 248.65,380.2971 Q249.2438,380.0158 249.8688,379.4377 L249.8688,382.1565 Z "/><text fill="#000000" font-family="sans-serif" font-size="12" lengthAdjust="spacingAndGlyphs" textLength="46" x="261.1" y="381.1719">Triangle</text><line style="stroke: #2C5F7C; stroke-width: 1.5;" x1="232" x2="310" y1="392.5158" y2="392.5158"/><line style="stroke: #2C5F7C; stroke-width: 1.5;" x1="232" x2="310" y1="400.5158" y2="400.5158"/><text fill="#000000" font-family="sans-serif" font-size="11" lengthAdjust="spacingAndGlyphs" textLength="68" x="237" y="416.2748">+draw(): void</text><!--MD5=[1c573188985f4c75505740d1b2f472b4]
class ShapeFactory--><rect fill="#E8F4F8" filter="url(#f1938j2t4od9vm)" height="73.6701" id="ShapeFactory" style="stroke: #2C5F7C; stroke-width: 1.5;" width="192" x="234" y="36.0158"/><ellipse cx="287.75" cy="57.36" fill="#ADD1B2" rx="11" ry="11" style="stroke: #2C5F7C; stroke-width: 1.0;"/><path d="M290.7188,63.0006 Q290.1406,63.2975 289.5,63.4381 Q288.8594,63.5943 288.1563,63.5943 Q285.6563,63.5943 284.3281,61.9537 Q283.0156,60.2975 283.0156,57.1725 Q283.0156,54.0475 284.3281,52.3912 Q285.6563,50.735 288.1563,50.735 Q288.8594,50.735 289.5,50.8912 Q290.1563,51.0475 290.7188,51.3443 L290.7188,54.0631 Q290.0938,53.485 289.5,53.2193 Q288.9063,52.9381 288.2813,52.9381 Q286.9375,52.9381 286.25,54.0162 Q285.5625,55.0787 285.5625,57.1725 Q285.5625,59.2662 286.25,60.3443 Q286.9375,61.4068 288.2813,61.4068 Q288.9063,61.4068 289.5,61.1412 Q290.0938,60.86 290.7188,60.2818 L290.7188,63.0006 Z "/><text fill="#000000" font-family="sans-serif" font-size="12" font-style="italic" lengthAdjust="spacingAndGlyphs" textLength="52" x="320.25" y="53.8439">«Factory»</text><text fill="#000000" font-family="sans-serif" font-size="12" lengthAdjust="spacingAndGlyphs" textLength="76" x="308.25" y="70.1881">ShapeFactory</text><line style="stroke: #2C5F7C; stroke-width: 1.5;" x1="235" x2="425" y1="78.7041" y2="78.7041"/><line style="stroke: #2C5F7C; stroke-width: 1.5;" x1="235" x2="425" y1="86.7041" y2="86.7041"/><text fill="#000000" font-family="sans-serif" font-size="11" lengthAdjust="spacingAndGlyphs" text-decoration="underline" textLength="180" x="240" y="102.463">+createShape(type: string): Shape*</text><path d="M461,32.5158 L461,69.0158 L426.21,73.0158 L461,77.0158 L461,113.3399 A0,0 0 0 0 461,113.3399 L653,113.3399 A0,0 0 0 0 653,113.3399 L653,42.5158 L643,32.5158 L461,32.5158 A0,0 0 0 0 461,32.5158 " fill="#FBFB77" filter="url(#f1938j2t4od9vm)" style="stroke: #A80036; stroke-width: 1.0;"/><path d="M643,32.5158 L643,42.5158 L653,42.5158 L643,32.5158 " fill="#FBFB77" style="stroke: #A80036; stroke-width: 1.0;"/><ellipse cx="472.5" cy="47.7219" fill="#000000" rx="2.5" ry="2.5" style="stroke: #000000; stroke-width: 0.0;"/><text fill="#000000" font-family="sans-serif" font-size="13" font-weight="bold" lengthAdjust="spacingAndGlyphs" textLength="139" x="479" y="51.4129">Basit Factory Pattern</text><ellipse cx="472.5" cy="65.4279" fill="#000000" rx="2.5" ry="2.5" style="stroke: #000000; stroke-width: 0.0;"/><text fill="#000000" font-family="sans-serif" font-size="13" lengthAdjust="spacingAndGlyphs" textLength="159" x="479" y="69.1189">String tabanlı tür belirleme</text><ellipse cx="472.5" cy="83.1339" fill="#000000" rx="2.5" ry="2.5" style="stroke: #000000; stroke-width: 0.0;"/><text fill="#000000" font-family="sans-serif" font-size="13" lengthAdjust="spacingAndGlyphs" textLength="137" x="479" y="86.8249">Ham pointer döndürür</text><ellipse cx="472.5" cy="100.8399" fill="#000000" rx="2.5" ry="2.5" style="stroke: #000000; stroke-width: 0.0;"/><text fill="#000000" font-family="sans-serif" font-size="13" lengthAdjust="spacingAndGlyphs" textLength="118" x="479" y="104.5309">if-else zinciri kullanır</text><path d="M244,205.5158 L244,268.6339 A0,0 0 0 0 244,268.6339 L418,268.6339 A0,0 0 0 0 418,268.6339 L418,241.0158 L453.3,237.0158 L418,233.0158 L418,215.5158 L408,205.5158 L244,205.5158 A0,0 0 0 0 244,205.5158 " fill="#FBFB77" filter="url(#f1938j2t4od9vm)" style="stroke: #A80036; stroke-width: 1.0;"/><path d="M408,205.5158 L408,215.5158 L418,215.5158 L408,205.5158 " fill="#FBFB77" style="stroke: #A80036; stroke-width: 1.0;"/><ellipse cx="255.5" cy="220.7219" fill="#000000" rx="2.5" ry="2.5" style="stroke: #000000; stroke-width: 0.0;"/><text fill="#000000" font-family="sans-serif" font-size="13" lengthAdjust="spacingAndGlyphs" textLength="118" x="262" y="224.4129">Soyut ürün arayüzü</text><ellipse cx="255.5" cy="238.4279" fill="#000000" rx="2.5" ry="2.5" style="stroke: #000000; stroke-width: 0.0;"/><text fill="#000000" font-family="sans-serif" font-size="13" lengthAdjust="spacingAndGlyphs" textLength="141" x="262" y="242.1189">Tüm şekiller bu arayüzü</text><text fill="#000000" font-family="sans-serif" font-size="13" lengthAdjust="spacingAndGlyphs" textLength="95" x="256" y="259.8249">implement eder</text><path d="M6,484.5158 L6,547.6339 A0,0 0 0 0 6,547.6339 L306,547.6339 A0,0 0 0 0 306,547.6339 L306,494.5158 L296,484.5158 L160,484.5158 L156,423.8058 L152,484.5158 L6,484.5158 A0,0 0 0 0 6,484.5158 " fill="#FBFB77" filter="url(#f1938j2t4od9vm)" style="stroke: #A80036; stroke-width: 1.0;"/><path d="M296,484.5158 L296,494.5158 L306,494.5158 L296,484.5158 " fill="#FBFB77" style="stroke: #A80036; stroke-width: 1.0;"/><text fill="#000000" font-family="sans-serif" font-size="13" font-weight="bold" lengthAdjust="spacingAndGlyphs" textLength="64" x="12" y="503.4129">Kullanım:</text><text fill="#000000" font-family="sans-serif" font-size="13" lengthAdjust="spacingAndGlyphs" textLength="279" x="12" y="521.1189">Shape* s = ShapeFactory::createShape("circle");</text><text fill="#000000" font-family="sans-serif" font-size="13" lengthAdjust="spacingAndGlyphs" textLength="58" x="12" y="538.8249">s-&gt;draw();</text><!--MD5=[d637a7d0c5b779627461b5a6979d5756]
reverse link Shape to Circle--><path d="M434.81,280.1158 C367.66,305.6458 341.63,287.8658 282,311.5158 C251.23,323.7258 219.73,343.5958 195.92,360.4258 " fill="none" id="Shape&lt;-Circle" style="stroke: #2C5F7C; stroke-width: 1.0;"/><polygon fill="none" points="432.18,273.6258,453.33,272.4058,437.56,286.5558,432.18,273.6258" style="stroke: #2C5F7C; stroke-width: 1.0;"/><text fill="#000000" font-family="sans-serif" font-size="13" lengthAdjust="spacingAndGlyphs" textLength="71" x="283" y="326.4129">implements</text><!--MD5=[793668fe740f4b06a80dd095381d024c]
reverse link Shape to Rectangle--><path d="M503.08,301.6058 C505.23,311.5158 508.11,321.4658 512,330.5158 C516.48,340.9458 523.14,351.1958 530.01,360.2058 " fill="none" id="Shape&lt;-Rectangle" style="stroke: #2C5F7C; stroke-width: 1.0;"/><polygon fill="none" points="496.14,302.5058,499.65,281.6058,509.93,300.1358,496.14,302.5058" style="stroke: #2C5F7C; stroke-width: 1.0;"/><text fill="#000000" font-family="sans-serif" font-size="13" lengthAdjust="spacingAndGlyphs" textLength="71" x="513" y="326.4129">implements</text><!--MD5=[c0c2beb63eebe7551e7e17172f8efeb7]
reverse link Shape to Triangle--><path d="M437.07,280.7758 C436.71,281.0258 436.35,281.2758 436,281.5158 C393.8,310.5558 344.83,342.8858 311.26,364.8358 " fill="none" id="Shape&lt;-Triangle" style="stroke: #2C5F7C; stroke-width: 1.0;"/><polygon fill="none" points="433.07,275.0358,453.47,269.3258,441.09,286.5158,433.07,275.0358" style="stroke: #2C5F7C; stroke-width: 1.0;"/><text fill="#000000" font-family="sans-serif" font-size="13" lengthAdjust="spacingAndGlyphs" textLength="71" x="391" y="326.4129">implements</text><!--MD5=[5f58626e056fcdede51d6d649b920b9a]
link ShapeFactory to Shape--><path d="M367.48,110.3758 C391.77,133.9358 423.61,164.8258 449.65,190.0858 " fill="none" id="ShapeFactory-&gt;Shape" style="stroke: #2C5F7C; stroke-width: 1.0; stroke-dasharray: 7.0,7.0;"/><polygon fill="#2C5F7C" points="453.45,193.7658,449.7848,184.6244,449.8648,190.2807,444.2085,190.3606,453.45,193.7658" style="stroke: #2C5F7C; stroke-width: 1.0;"/><text fill="#000000" font-family="sans-serif" font-size="13" lengthAdjust="spacingAndGlyphs" textLength="43" x="419" y="158.4129">creates</text><!--MD5=[b3220ba2d72890c8dc68803d4b8c69da]
link ShapeFactory to Circle--><path d="M233.83,101.1758 C189.42,119.2258 141.25,148.0258 117,192.5158 C88.68,244.4758 114.54,314.0358 135.52,355.5158 " fill="none" id="ShapeFactory-&gt;Circle" style="stroke: #2C5F7C; stroke-width: 1.0; stroke-dasharray: 7.0,7.0;"/><polygon fill="#2C5F7C" points="137.92,360.1858,137.3596,350.3529,135.6326,355.7397,130.2458,354.0128,137.92,360.1858" style="stroke: #2C5F7C; stroke-width: 1.0;"/><text fill="#000000" font-family="sans-serif" font-size="13" lengthAdjust="spacingAndGlyphs" textLength="43" x="118" y="242.4129">creates</text><!--MD5=[3407d648fcd2872ff8f9c7467aaf3afc]
link ShapeFactory to Rectangle--><path d="M417.18,110.1258 C473.25,135.0058 539.05,167.9058 558,192.5158 C596.36,242.3158 603.74,269.4058 589,330.5158 C586.96,338.9758 583.52,347.5758 579.67,355.5358 " fill="none" id="ShapeFactory-&gt;Rectangle" style="stroke: #2C5F7C; stroke-width: 1.0; stroke-dasharray: 7.0,7.0;"/><polygon fill="#2C5F7C" points="577.22,360.4058,584.8306,354.1546,579.4618,355.9366,577.6798,350.5677,577.22,360.4058" style="stroke: #2C5F7C; stroke-width: 1.0;"/><text fill="#000000" font-family="sans-serif" font-size="13" lengthAdjust="spacingAndGlyphs" textLength="43" x="597" y="242.4129">creates</text><!--MD5=[59d7505b87e16455d56a0f646fa1e908]
link ShapeFactory to Triangle--><path d="M261.23,110.1858 C231.02,130.0658 198.68,157.8058 182,192.5158 C164.87,228.1758 168.76,244.2458 182,281.5158 C192.15,310.0858 213.28,336.6158 232.41,356.4158 " fill="none" id="ShapeFactory-&gt;Triangle" style="stroke: #2C5F7C; stroke-width: 1.0; stroke-dasharray: 7.0,7.0;"/><polygon fill="#2C5F7C" points="236.2,360.2758,232.7575,351.0482,232.7004,356.7048,227.0438,356.6476,236.2,360.2758" style="stroke: #2C5F7C; stroke-width: 1.0;"/><text fill="#000000" font-family="sans-serif" font-size="13" lengthAdjust="spacingAndGlyphs" textLength="43" x="183" y="242.4129">creates</text><text fill="#888888" font-family="sans-serif" font-size="10" lengthAdjust="spacingAndGlyphs" textLength="316" x="177.5" y="568.2058">Oluşturulma: 15.10.2025 | Sürüm: 1.0.0 | Pattern: Simple Factory</text><!--MD5=[ccc51f9677d846bc0f4fd0547e24042e]
@startuml

title Basit Shape Factory - Class Diyagramı

skinparam classAttributeIconSize 0
skinparam class {
    BackgroundColor #E8F4F8
    BorderColor #2C5F7C
    ArrowColor #2C5F7C
}

abstract class Shape <<interface>> {
    + {abstract} draw(): void
    + ~Shape()
}

class Circle {
    + draw(): void
}

class Rectangle {
    + draw(): void
}

class Triangle {
    + draw(): void
}

class ShapeFactory <<Factory>> {
    + {static} createShape(type: string): Shape*
}

Shape <|- - Circle : implements
Shape <|- - Rectangle : implements
Shape <|- - Triangle : implements

ShapeFactory ..> Shape : creates
ShapeFactory ..> Circle : creates
ShapeFactory ..> Rectangle : creates
ShapeFactory ..> Triangle : creates

note right of ShapeFactory
  * **Basit Factory Pattern**
  * String tabanlı tür belirleme
  * Ham pointer döndürür
  * if-else zinciri kullanır
end note

note left of Shape
  * Soyut ürün arayüzü
  * Tüm şekiller bu arayüzü
    implement eder
end note

note bottom of Circle
  **Kullanım:**
  Shape* s = ShapeFactory::createShape("circle");
  s->draw();
end note

footer Oluşturulma: 15.10.2025 | Sürüm: 1.0.0 | Pattern: Simple Factory

@enduml

PlantUML version 1.2020.02(Sun Mar 01 13:22:07 TRT 2020)
(GPL source distribution)
Java Runtime: OpenJDK Runtime Environment
JVM: OpenJDK 64-Bit Server VM
Java Version: 21.0.8+9-Ubuntu-0ubuntu124.04.1
Operating System: Linux
Default Encoding: UTF-8
Language: en
Country: US
--></g></svg>