<?xml version="1.0" encoding="UTF-8" standalone="no"?><svg xmlns="http://www.w3.org/2000/svg" xmlns:xlink="http://www.w3.org/1999/xlink" contentScriptType="application/ecmascript" contentStyleType="text/css" height="613px" preserveAspectRatio="none" style="width:879px;height:613px;" version="1.1" viewBox="0 0 879 613" width="879px" zoomAndPan="magnify"><defs/><g><text fill="#000000" font-family="sans-serif" font-size="18" lengthAdjust="spacingAndGlyphs" textLength="388" x="251.5" y="19.2419">Decorator Pattern - Coffee Shop vs Secure I/O</text><!--MD5=[a1b3366fe3298e88a58a48e38b667883]
cluster Coffee Shop--><polygon fill="#E8F4F8" points="425,48.5158,514,48.5158,521,73.5838,857,73.5838,857,366.5158,425,366.5158,425,48.5158" style="stroke: #000000; stroke-width: 1.5;"/><line style="stroke: #000000; stroke-width: 1.5;" x1="425" x2="521" y1="73.5838" y2="73.5838"/><text fill="#000000" font-family="sans-serif" font-size="14" font-weight="bold" lengthAdjust="spacingAndGlyphs" textLength="83" x="429" y="65.4818">Coffee Shop</text><!--MD5=[fb5401d3acf796bb02f8cdb181f7a547]
cluster Secure I/O--><polygon fill="#FFE8CC" points="22,48.5158,100,48.5158,107,73.5838,401,73.5838,401,366.5158,22,366.5158,22,48.5158" style="stroke: #000000; stroke-width: 1.5;"/><line style="stroke: #000000; stroke-width: 1.5;" x1="22" x2="107" y1="73.5838" y2="73.5838"/><text fill="#000000" font-family="sans-serif" font-size="14" font-weight="bold" lengthAdjust="spacingAndGlyphs" textLength="72" x="26" y="65.4818">Secure I/O</text><!--MD5=[f45f2220b0b110c1551a8318691639c0]
class Beverage--><rect fill="#FEFECE" height="48" id="Beverage" style="stroke: #A80036; stroke-width: 1.5;" width="82" x="569" y="86.5158"/><ellipse cx="584" cy="102.5158" fill="#A9DCDF" rx="11" ry="11" style="stroke: #A80036; stroke-width: 1.0;"/><path d="M584.1094,97.8596 L582.9531,102.9377 L585.2813,102.9377 L584.1094,97.8596 Z M582.625,95.6252 L585.6094,95.6252 L588.9688,108.0158 L586.5156,108.0158 L585.75,104.9533 L582.4688,104.9533 L581.7188,108.0158 L579.2813,108.0158 L582.625,95.6252 Z "/><text fill="#000000" font-family="sans-serif" font-size="12" font-style="italic" lengthAdjust="spacingAndGlyphs" textLength="50" x="598" y="107.1719">Beverage</text><line style="stroke: #A80036; stroke-width: 1.5;" x1="570" x2="650" y1="118.5158" y2="118.5158"/><line style="stroke: #A80036; stroke-width: 1.5;" x1="570" x2="650" y1="126.5158" y2="126.5158"/><!--MD5=[f5ea9ff06fc8109cace2c9440d07df67]
class Espresso--><rect fill="#FEFECE" height="48" id="Espresso" style="stroke: #A80036; stroke-width: 1.5;" width="83" x="441.5" y="194.5158"/><ellipse cx="456.5" cy="210.5158" fill="#ADD1B2" rx="11" ry="11" style="stroke: #A80036; stroke-width: 1.0;"/><path d="M459.4688,216.1565 Q458.8906,216.4533 458.25,216.594 Q457.6094,216.7502 456.9063,216.7502 Q454.4063,216.7502 453.0781,215.1096 Q451.7656,213.4533 451.7656,210.3283 Q451.7656,207.2033 453.0781,205.5471 Q454.4063,203.8908 456.9063,203.8908 Q457.6094,203.8908 458.25,204.0471 Q458.9063,204.2033 459.4688,204.5002 L459.4688,207.219 Q458.8438,206.6408 458.25,206.3752 Q457.6563,206.094 457.0313,206.094 Q455.6875,206.094 455,207.1721 Q454.3125,208.2346 454.3125,210.3283 Q454.3125,212.4221 455,213.5002 Q455.6875,214.5627 457.0313,214.5627 Q457.6563,214.5627 458.25,214.2971 Q458.8438,214.0158 459.4688,213.4377 L459.4688,216.1565 Z "/><text fill="#000000" font-family="sans-serif" font-size="12" lengthAdjust="spacingAndGlyphs" textLength="51" x="470.5" y="215.1719">Espresso</text><line style="stroke: #A80036; stroke-width: 1.5;" x1="442.5" x2="523.5" y1="226.5158" y2="226.5158"/><line style="stroke: #A80036; stroke-width: 1.5;" x1="442.5" x2="523.5" y1="234.5158" y2="234.5158"/><!--MD5=[bd7e272a4a95bdce642fcc687eddedc1]
class HouseBlend--><rect fill="#FEFECE" height="48" id="HouseBlend" style="stroke: #A80036; stroke-width: 1.5;" width="100" x="560" y="194.5158"/><ellipse cx="575" cy="210.5158" fill="#ADD1B2" rx="11" ry="11" style="stroke: #A80036; stroke-width: 1.0;"/><path d="M577.9688,216.1565 Q577.3906,216.4533 576.75,216.594 Q576.1094,216.7502 575.4063,216.7502 Q572.9063,216.7502 571.5781,215.1096 Q570.2656,213.4533 570.2656,210.3283 Q570.2656,207.2033 571.5781,205.5471 Q572.9063,203.8908 575.4063,203.8908 Q576.1094,203.8908 576.75,204.0471 Q577.4063,204.2033 577.9688,204.5002 L577.9688,207.219 Q577.3438,206.6408 576.75,206.3752 Q576.1563,206.094 575.5313,206.094 Q574.1875,206.094 573.5,207.1721 Q572.8125,208.2346 572.8125,210.3283 Q572.8125,212.4221 573.5,213.5002 Q574.1875,214.5627 575.5313,214.5627 Q576.1563,214.5627 576.75,214.2971 Q577.3438,214.0158 577.9688,213.4377 L577.9688,216.1565 Z "/><text fill="#000000" font-family="sans-serif" font-size="12" lengthAdjust="spacingAndGlyphs" textLength="68" x="589" y="215.1719">HouseBlend</text><line style="stroke: #A80036; stroke-width: 1.5;" x1="561" x2="659" y1="226.5158" y2="226.5158"/><line style="stroke: #A80036; stroke-width: 1.5;" x1="561" x2="659" y1="234.5158" y2="234.5158"/><!--MD5=[8db1e71afe3fc67a239e81af71b3e2c9]
class CondimentDecorator--><rect fill="#FEFECE" height="48" id="CondimentDecorator" style="stroke: #A80036; stroke-width: 1.5;" width="145" x="695.5" y="194.5158"/><ellipse cx="710.5" cy="210.5158" fill="#A9DCDF" rx="11" ry="11" style="stroke: #A80036; stroke-width: 1.0;"/><path d="M710.6094,205.8596 L709.4531,210.9377 L711.7813,210.9377 L710.6094,205.8596 Z M709.125,203.6252 L712.1094,203.6252 L715.4688,216.0158 L713.0156,216.0158 L712.25,212.9533 L708.9688,212.9533 L708.2188,216.0158 L705.7813,216.0158 L709.125,203.6252 Z "/><text fill="#000000" font-family="sans-serif" font-size="12" font-style="italic" lengthAdjust="spacingAndGlyphs" textLength="113" x="724.5" y="215.1719">CondimentDecorator</text><line style="stroke: #A80036; stroke-width: 1.5;" x1="696.5" x2="839.5" y1="226.5158" y2="226.5158"/><line style="stroke: #A80036; stroke-width: 1.5;" x1="696.5" x2="839.5" y1="234.5158" y2="234.5158"/><!--MD5=[100525086f0e815ee31f4f59acfdddec]
class Milk--><rect fill="#FEFECE" height="48" id="Milk" style="stroke: #A80036; stroke-width: 1.5;" width="55" x="585.5" y="302.5158"/><ellipse cx="600.5" cy="318.5158" fill="#ADD1B2" rx="11" ry="11" style="stroke: #A80036; stroke-width: 1.0;"/><path d="M603.4688,324.1565 Q602.8906,324.4533 602.25,324.594 Q601.6094,324.7502 600.9063,324.7502 Q598.4063,324.7502 597.0781,323.1096 Q595.7656,321.4533 595.7656,318.3283 Q595.7656,315.2033 597.0781,313.5471 Q598.4063,311.8908 600.9063,311.8908 Q601.6094,311.8908 602.25,312.0471 Q602.9063,312.2033 603.4688,312.5002 L603.4688,315.219 Q602.8438,314.6408 602.25,314.3752 Q601.6563,314.094 601.0313,314.094 Q599.6875,314.094 599,315.1721 Q598.3125,316.2346 598.3125,318.3283 Q598.3125,320.4221 599,321.5002 Q599.6875,322.5627 601.0313,322.5627 Q601.6563,322.5627 602.25,322.2971 Q602.8438,322.0158 603.4688,321.4377 L603.4688,324.1565 Z "/><text fill="#000000" font-family="sans-serif" font-size="12" lengthAdjust="spacingAndGlyphs" textLength="23" x="614.5" y="323.1719">Milk</text><line style="stroke: #A80036; stroke-width: 1.5;" x1="586.5" x2="639.5" y1="334.5158" y2="334.5158"/><line style="stroke: #A80036; stroke-width: 1.5;" x1="586.5" x2="639.5" y1="342.5158" y2="342.5158"/><!--MD5=[826a7f68534f7bc14c11c5eacbfd79df]
class Mocha--><rect fill="#FEFECE" height="48" id="Mocha" style="stroke: #A80036; stroke-width: 1.5;" width="70" x="676" y="302.5158"/><ellipse cx="691" cy="318.5158" fill="#ADD1B2" rx="11" ry="11" style="stroke: #A80036; stroke-width: 1.0;"/><path d="M693.9688,324.1565 Q693.3906,324.4533 692.75,324.594 Q692.1094,324.7502 691.4063,324.7502 Q688.9063,324.7502 687.5781,323.1096 Q686.2656,321.4533 686.2656,318.3283 Q686.2656,315.2033 687.5781,313.5471 Q688.9063,311.8908 691.4063,311.8908 Q692.1094,311.8908 692.75,312.0471 Q693.4063,312.2033 693.9688,312.5002 L693.9688,315.219 Q693.3438,314.6408 692.75,314.3752 Q692.1563,314.094 691.5313,314.094 Q690.1875,314.094 689.5,315.1721 Q688.8125,316.2346 688.8125,318.3283 Q688.8125,320.4221 689.5,321.5002 Q690.1875,322.5627 691.5313,322.5627 Q692.1563,322.5627 692.75,322.2971 Q693.3438,322.0158 693.9688,321.4377 L693.9688,324.1565 Z "/><text fill="#000000" font-family="sans-serif" font-size="12" lengthAdjust="spacingAndGlyphs" textLength="38" x="705" y="323.1719">Mocha</text><line style="stroke: #A80036; stroke-width: 1.5;" x1="677" x2="745" y1="334.5158" y2="334.5158"/><line style="stroke: #A80036; stroke-width: 1.5;" x1="677" x2="745" y1="342.5158" y2="342.5158"/><!--MD5=[855bfe7603ce1fa68f47ee6242167d19]
class Whip--><rect fill="#FEFECE" height="48" id="Whip" style="stroke: #A80036; stroke-width: 1.5;" width="60" x="781" y="302.5158"/><ellipse cx="796" cy="318.5158" fill="#ADD1B2" rx="11" ry="11" style="stroke: #A80036; stroke-width: 1.0;"/><path d="M798.9688,324.1565 Q798.3906,324.4533 797.75,324.594 Q797.1094,324.7502 796.4063,324.7502 Q793.9063,324.7502 792.5781,323.1096 Q791.2656,321.4533 791.2656,318.3283 Q791.2656,315.2033 792.5781,313.5471 Q793.9063,311.8908 796.4063,311.8908 Q797.1094,311.8908 797.75,312.0471 Q798.4063,312.2033 798.9688,312.5002 L798.9688,315.219 Q798.3438,314.6408 797.75,314.3752 Q797.1563,314.094 796.5313,314.094 Q795.1875,314.094 794.5,315.1721 Q793.8125,316.2346 793.8125,318.3283 Q793.8125,320.4221 794.5,321.5002 Q795.1875,322.5627 796.5313,322.5627 Q797.1563,322.5627 797.75,322.2971 Q798.3438,322.0158 798.9688,321.4377 L798.9688,324.1565 Z "/><text fill="#000000" font-family="sans-serif" font-size="12" lengthAdjust="spacingAndGlyphs" textLength="28" x="810" y="323.1719">Whip</text><line style="stroke: #A80036; stroke-width: 1.5;" x1="782" x2="840" y1="334.5158" y2="334.5158"/><line style="stroke: #A80036; stroke-width: 1.5;" x1="782" x2="840" y1="342.5158" y2="342.5158"/><!--MD5=[81c1678f3b146417d42d9549aee5a5c0]
class DataSource--><rect fill="#FEFECE" height="48" id="DataSource" style="stroke: #A80036; stroke-width: 1.5;" width="94" x="164" y="86.5158"/><ellipse cx="179" cy="102.5158" fill="#A9DCDF" rx="11" ry="11" style="stroke: #A80036; stroke-width: 1.0;"/><path d="M179.1094,97.8596 L177.9531,102.9377 L180.2813,102.9377 L179.1094,97.8596 Z M177.625,95.6252 L180.6094,95.6252 L183.9688,108.0158 L181.5156,108.0158 L180.75,104.9533 L177.4688,104.9533 L176.7188,108.0158 L174.2813,108.0158 L177.625,95.6252 Z "/><text fill="#000000" font-family="sans-serif" font-size="12" font-style="italic" lengthAdjust="spacingAndGlyphs" textLength="62" x="193" y="107.1719">DataSource</text><line style="stroke: #A80036; stroke-width: 1.5;" x1="165" x2="257" y1="118.5158" y2="118.5158"/><line style="stroke: #A80036; stroke-width: 1.5;" x1="165" x2="257" y1="126.5158" y2="126.5158"/><!--MD5=[f54f6edd286d0694ee2349cf874a97fd]
class MemoryDataSource--><rect fill="#FEFECE" height="48" id="MemoryDataSource" style="stroke: #A80036; stroke-width: 1.5;" width="145" x="47.5" y="194.5158"/><ellipse cx="62.5" cy="210.5158" fill="#ADD1B2" rx="11" ry="11" style="stroke: #A80036; stroke-width: 1.0;"/><path d="M65.4688,216.1565 Q64.8906,216.4533 64.25,216.594 Q63.6094,216.7502 62.9063,216.7502 Q60.4063,216.7502 59.0781,215.1096 Q57.7656,213.4533 57.7656,210.3283 Q57.7656,207.2033 59.0781,205.5471 Q60.4063,203.8908 62.9063,203.8908 Q63.6094,203.8908 64.25,204.0471 Q64.9063,204.2033 65.4688,204.5002 L65.4688,207.219 Q64.8438,206.6408 64.25,206.3752 Q63.6563,206.094 63.0313,206.094 Q61.6875,206.094 61,207.1721 Q60.3125,208.2346 60.3125,210.3283 Q60.3125,212.4221 61,213.5002 Q61.6875,214.5627 63.0313,214.5627 Q63.6563,214.5627 64.25,214.2971 Q64.8438,214.0158 65.4688,213.4377 L65.4688,216.1565 Z "/><text fill="#000000" font-family="sans-serif" font-size="12" lengthAdjust="spacingAndGlyphs" textLength="113" x="76.5" y="215.1719">MemoryDataSource</text><line style="stroke: #A80036; stroke-width: 1.5;" x1="48.5" x2="191.5" y1="226.5158" y2="226.5158"/><line style="stroke: #A80036; stroke-width: 1.5;" x1="48.5" x2="191.5" y1="234.5158" y2="234.5158"/><!--MD5=[ddac42190244e95aa64aeb1c395b2925]
class DataSourceDecorator--><rect fill="#FEFECE" height="48" id="DataSourceDecorator" style="stroke: #A80036; stroke-width: 1.5;" width="148" x="228" y="194.5158"/><ellipse cx="243" cy="210.5158" fill="#A9DCDF" rx="11" ry="11" style="stroke: #A80036; stroke-width: 1.0;"/><path d="M243.1094,205.8596 L241.9531,210.9377 L244.2813,210.9377 L243.1094,205.8596 Z M241.625,203.6252 L244.6094,203.6252 L247.9688,216.0158 L245.5156,216.0158 L244.75,212.9533 L241.4688,212.9533 L240.7188,216.0158 L238.2813,216.0158 L241.625,203.6252 Z "/><text fill="#000000" font-family="sans-serif" font-size="12" font-style="italic" lengthAdjust="spacingAndGlyphs" textLength="116" x="257" y="215.1719">DataSourceDecorator</text><line style="stroke: #A80036; stroke-width: 1.5;" x1="229" x2="375" y1="226.5158" y2="226.5158"/><line style="stroke: #A80036; stroke-width: 1.5;" x1="229" x2="375" y1="234.5158" y2="234.5158"/><!--MD5=[8594eb18153218124ed6c468ec8228c2]
class CompressionDecorator--><rect fill="#FEFECE" height="48" id="CompressionDecorator" style="stroke: #A80036; stroke-width: 1.5;" width="163" x="38.5" y="302.5158"/><ellipse cx="53.5" cy="318.5158" fill="#ADD1B2" rx="11" ry="11" style="stroke: #A80036; stroke-width: 1.0;"/><path d="M56.4688,324.1565 Q55.8906,324.4533 55.25,324.594 Q54.6094,324.7502 53.9063,324.7502 Q51.4063,324.7502 50.0781,323.1096 Q48.7656,321.4533 48.7656,318.3283 Q48.7656,315.2033 50.0781,313.5471 Q51.4063,311.8908 53.9063,311.8908 Q54.6094,311.8908 55.25,312.0471 Q55.9063,312.2033 56.4688,312.5002 L56.4688,315.219 Q55.8438,314.6408 55.25,314.3752 Q54.6563,314.094 54.0313,314.094 Q52.6875,314.094 52,315.1721 Q51.3125,316.2346 51.3125,318.3283 Q51.3125,320.4221 52,321.5002 Q52.6875,322.5627 54.0313,322.5627 Q54.6563,322.5627 55.25,322.2971 Q55.8438,322.0158 56.4688,321.4377 L56.4688,324.1565 Z "/><text fill="#000000" font-family="sans-serif" font-size="12" lengthAdjust="spacingAndGlyphs" textLength="131" x="67.5" y="323.1719">CompressionDecorator</text><line style="stroke: #A80036; stroke-width: 1.5;" x1="39.5" x2="200.5" y1="334.5158" y2="334.5158"/><line style="stroke: #A80036; stroke-width: 1.5;" x1="39.5" x2="200.5" y1="342.5158" y2="342.5158"/><!--MD5=[fb5187f5baa158895e6974f1d35304c9]
class EncryptionDecorator--><rect fill="#FEFECE" height="48" id="EncryptionDecorator" style="stroke: #A80036; stroke-width: 1.5;" width="148" x="237" y="302.5158"/><ellipse cx="252" cy="318.5158" fill="#ADD1B2" rx="11" ry="11" style="stroke: #A80036; stroke-width: 1.0;"/><path d="M254.9688,324.1565 Q254.3906,324.4533 253.75,324.594 Q253.1094,324.7502 252.4063,324.7502 Q249.9063,324.7502 248.5781,323.1096 Q247.2656,321.4533 247.2656,318.3283 Q247.2656,315.2033 248.5781,313.5471 Q249.9063,311.8908 252.4063,311.8908 Q253.1094,311.8908 253.75,312.0471 Q254.4063,312.2033 254.9688,312.5002 L254.9688,315.219 Q254.3438,314.6408 253.75,314.3752 Q253.1563,314.094 252.5313,314.094 Q251.1875,314.094 250.5,315.1721 Q249.8125,316.2346 249.8125,318.3283 Q249.8125,320.4221 250.5,321.5002 Q251.1875,322.5627 252.5313,322.5627 Q253.1563,322.5627 253.75,322.2971 Q254.3438,322.0158 254.9688,321.4377 L254.9688,324.1565 Z "/><text fill="#000000" font-family="sans-serif" font-size="12" lengthAdjust="spacingAndGlyphs" textLength="116" x="266" y="323.1719">EncryptionDecorator</text><line style="stroke: #A80036; stroke-width: 1.5;" x1="238" x2="384" y1="334.5158" y2="334.5158"/><line style="stroke: #A80036; stroke-width: 1.5;" x1="238" x2="384" y1="342.5158" y2="342.5158"/><path d="M156,410.5158 L156,579.87 A0,0 0 0 0 156,579.87 L466,579.87 A0,0 0 0 0 466,579.87 L466,420.5158 L456,410.5158 L315,410.5158 L311,350.6658 L307,410.5158 L156,410.5158 A0,0 0 0 0 156,410.5158 " fill="#FBFB77" style="stroke: #A80036; stroke-width: 1.0;"/><path d="M456,410.5158 L456,420.5158 L466,420.5158 L456,410.5158 " fill="#FBFB77" style="stroke: #A80036; stroke-width: 1.0;"/><text fill="#000000" font-family="sans-serif" font-size="13" lengthAdjust="spacingAndGlyphs" textLength="92" x="162" y="429.4129">Ortak Noktalar:</text><text fill="#000000" font-family="sans-serif" font-size="13" lengthAdjust="spacingAndGlyphs" textLength="289" x="162" y="447.1189">• Soyut bir temel arayüz (Beverage / DataSource)</text><text fill="#000000" font-family="sans-serif" font-size="13" lengthAdjust="spacingAndGlyphs" textLength="219" x="162" y="464.8249">• Temel sınıfa sarılan decorator zinciri</text><text fill="#000000" font-family="sans-serif" font-size="13" lengthAdjust="spacingAndGlyphs" textLength="258" x="162" y="482.5309">• Çalışma zamanında genişletilebilirlik (OCP)</text><text fill="#000000" font-family="sans-serif" font-size="13" lengthAdjust="spacingAndGlyphs" textLength="0" x="165" y="500.2369"/><text fill="#000000" font-family="sans-serif" font-size="13" lengthAdjust="spacingAndGlyphs" textLength="63" x="162" y="517.9429">Farklılıklar:</text><text fill="#000000" font-family="sans-serif" font-size="13" lengthAdjust="spacingAndGlyphs" textLength="276" x="162" y="535.649">• Coffee Shop: fiyat ve açıklama kompozisyonu</text><text fill="#000000" font-family="sans-serif" font-size="13" lengthAdjust="spacingAndGlyphs" textLength="275" x="162" y="553.355">• Secure I/O: yazma/okuma akışında dönüşüm</text><text fill="#000000" font-family="sans-serif" font-size="13" lengthAdjust="spacingAndGlyphs" textLength="244" x="162" y="571.061">• Secure I/O'da işlem sırası önem arz eder</text><!--MD5=[9ab9d4bf547d7982b0339bff1cafba9c]
reverse link Beverage to Espresso--><path d="M567.02,147.3858 C548.51,162.8458 527.38,180.4758 510.94,194.1958 " fill="none" id="Beverage&lt;-Espresso" style="stroke: #A80036; stroke-width: 1.0;"/><polygon fill="none" points="562.6,141.9558,582.44,134.5158,571.57,152.7058,562.6,141.9558" style="stroke: #A80036; stroke-width: 1.0;"/><!--MD5=[45d306746d61aae6853d584fda6d9989]
reverse link Beverage to HouseBlend--><path d="M610,154.5358 C610,168.0958 610,182.5558 610,194.1958 " fill="none" id="Beverage&lt;-HouseBlend" style="stroke: #A80036; stroke-width: 1.0;"/><polygon fill="none" points="603,154.5158,610,134.5158,617,154.5158,603,154.5158" style="stroke: #A80036; stroke-width: 1.0;"/><!--MD5=[520e3a59fb10c3c044ab0f1ed697dfb8]
reverse link Beverage to CondimentDecorator--><path d="M661.1,145.7958 C684.79,161.6858 712.32,180.1658 733.51,194.3758 " fill="none" id="Beverage&lt;-CondimentDecorator" style="stroke: #A80036; stroke-width: 1.0;"/><polygon fill="none" points="656.99,151.4758,644.28,134.5158,664.79,139.8458,656.99,151.4758" style="stroke: #A80036; stroke-width: 1.0;"/><!--MD5=[e0b40310d863662c60be0a585fc86e22]
reverse link CondimentDecorator to Milk--><path d="M717.6,253.9758 C692.13,271.4058 662.18,291.8858 640.87,306.4558 " fill="none" id="CondimentDecorator&lt;-Milk" style="stroke: #A80036; stroke-width: 1.0;"/><polygon fill="none" points="713.91,248.0258,734.37,242.5158,721.81,259.5858,713.91,248.0258" style="stroke: #A80036; stroke-width: 1.0;"/><!--MD5=[a8ddc1e494c296992a933b761d3c2a93]
reverse link CondimentDecorator to Mocha--><path d="M745.9,260.6058 C738.32,274.7158 730.1,289.9958 723.54,302.1958 " fill="none" id="CondimentDecorator&lt;-Mocha" style="stroke: #A80036; stroke-width: 1.0;"/><polygon fill="none" points="739.99,256.8158,755.63,242.5158,752.32,263.4458,739.99,256.8158" style="stroke: #A80036; stroke-width: 1.0;"/><!--MD5=[4f2329419c5f4da4a439c67d0b584d15]
reverse link CondimentDecorator to Whip--><path d="M784.87,261.0858 C790.53,275.0558 796.65,290.1358 801.54,302.1958 " fill="none" id="CondimentDecorator&lt;-Whip" style="stroke: #A80036; stroke-width: 1.0;"/><polygon fill="none" points="778.36,263.6758,777.33,242.5158,791.34,258.4158,778.36,263.6758" style="stroke: #A80036; stroke-width: 1.0;"/><!--MD5=[d6417fe66d268ead751a97c0a51a0d59]
reverse link DataSource to MemoryDataSource--><path d="M178.18,149.7458 C165.42,164.6158 151.2,181.1658 140.02,194.1958 " fill="none" id="DataSource&lt;-MemoryDataSource" style="stroke: #A80036; stroke-width: 1.0;"/><polygon fill="none" points="172.92,145.1358,191.25,134.5158,183.54,154.2558,172.92,145.1358" style="stroke: #A80036; stroke-width: 1.0;"/><!--MD5=[737405c2675ff40c8f5df14d7a48e30b]
reverse link DataSource to DataSourceDecorator--><path d="M243.82,149.7458 C256.58,164.6158 270.8,181.1658 281.98,194.1958 " fill="none" id="DataSource&lt;-DataSourceDecorator" style="stroke: #A80036; stroke-width: 1.0;"/><polygon fill="none" points="238.46,154.2558,230.75,134.5158,249.08,145.1358,238.46,154.2558" style="stroke: #A80036; stroke-width: 1.0;"/><!--MD5=[ffccd973fd03dfd6f5e70799a6b78aea]
reverse link DataSourceDecorator to CompressionDecorator--><path d="M245.13,252.6358 C217.4,268.7858 184.73,287.8158 159.73,302.3758 " fill="none" id="DataSourceDecorator&lt;-CompressionDecorator" style="stroke: #A80036; stroke-width: 1.0;"/><polygon fill="none" points="241.7,246.5358,262.51,242.5158,248.75,258.6258,241.7,246.5358" style="stroke: #A80036; stroke-width: 1.0;"/><!--MD5=[14236522c5e6f85e64da50e4f0d14691]
reverse link DataSourceDecorator to EncryptionDecorator--><path d="M305.65,262.5358 C306.8,276.0958 308.03,290.5558 309.02,302.1958 " fill="none" id="DataSourceDecorator&lt;-EncryptionDecorator" style="stroke: #A80036; stroke-width: 1.0;"/><polygon fill="none" points="298.67,263.0358,303.95,242.5158,312.62,261.8558,298.67,263.0358" style="stroke: #A80036; stroke-width: 1.0;"/><text fill="#888888" font-family="sans-serif" font-size="10" lengthAdjust="spacingAndGlyphs" textLength="268" x="311.5" y="600.2058">Oluşturulma: 21.10.2025 | Sürüm: 1.0.0 | Karşılaştırma</text><!--MD5=[eff6f87adf84991b92fe76db5d99145a]
@startuml

title Decorator Pattern - Coffee Shop vs Secure I/O

skinparam backgroundColor #FFFFFF
skinparam shadowing false

package "Coffee Shop" #E8F4F8 {
  abstract class Beverage
  class Espresso
  class HouseBlend
  abstract class CondimentDecorator
  class Milk
  class Mocha
  class Whip

  Beverage <|- - Espresso
  Beverage <|- - HouseBlend
  Beverage <|- - CondimentDecorator
  CondimentDecorator <|- - Milk
  CondimentDecorator <|- - Mocha
  CondimentDecorator <|- - Whip
}

package "Secure I/O" #FFE8CC {
  abstract class DataSource
  class MemoryDataSource
  abstract class DataSourceDecorator
  class CompressionDecorator
  class EncryptionDecorator

  DataSource <|- - MemoryDataSource
  DataSource <|- - DataSourceDecorator
  DataSourceDecorator <|- - CompressionDecorator
  DataSourceDecorator <|- - EncryptionDecorator
}

note bottom
  Ortak Noktalar:
  • Soyut bir temel arayüz (Beverage / DataSource)
  • Temel sınıfa sarılan decorator zinciri
  • Çalışma zamanında genişletilebilirlik (OCP)

  Farklılıklar:
  • Coffee Shop: fiyat ve açıklama kompozisyonu
  • Secure I/O: yazma/okuma akışında dönüşüm
  • Secure I/O'da işlem sırası önem arz eder
end note

footer Oluşturulma: 21.10.2025 | Sürüm: 1.0.0 | Karşılaştırma

@enduml

PlantUML version 1.2020.02(Sun Mar 01 13:22:07 TRT 2020)
(GPL source distribution)
Java Runtime: OpenJDK Runtime Environment
JVM: OpenJDK 64-Bit Server VM
Java Version: 21.0.8+9-Ubuntu-0ubuntu124.04.1
Operating System: Linux
Default Encoding: UTF-8
Language: en
Country: US
--></g></svg>