<?xml version="1.0" encoding="UTF-8" standalone="no"?><svg xmlns="http://www.w3.org/2000/svg" xmlns:xlink="http://www.w3.org/1999/xlink" contentScriptType="application/ecmascript" contentStyleType="text/css" height="872px" preserveAspectRatio="none" style="width:1032px;height:872px;" version="1.1" viewBox="0 0 1032 872" width="1032px" zoomAndPan="magnify"><defs/><g><text fill="#000000" font-family="sans-serif" font-size="18" lengthAdjust="spacingAndGlyphs" textLength="371" x="334" y="19.2419">Mobilya Fabrikası - Abstract Factory Pattern</text><!--MD5=[ce3737bb2c423b67154105e2d759bed7]
cluster Modern Ürünler--><polygon fill="#E8F5E9" points="22,487.5158,139,487.5158,146,512.5838,302,512.5838,302,604.5158,22,604.5158,22,487.5158" style="stroke: #000000; stroke-width: 1.5;"/><line style="stroke: #000000; stroke-width: 1.5;" x1="22" x2="146" y1="512.5838" y2="512.5838"/><text fill="#000000" font-family="sans-serif" font-size="14" font-weight="bold" lengthAdjust="spacingAndGlyphs" textLength="111" x="26" y="504.4818">Modern Ürünler</text><!--MD5=[c75a3b6ac7c76edff98b563b64ca5b6d]
cluster Klasik Ürünler--><polygon fill="#FFF3E0" points="437,487.5158,541,487.5158,548,512.5838,708,512.5838,708,604.5158,437,604.5158,437,487.5158" style="stroke: #000000; stroke-width: 1.5;"/><line style="stroke: #000000; stroke-width: 1.5;" x1="437" x2="548" y1="512.5838" y2="512.5838"/><text fill="#000000" font-family="sans-serif" font-size="14" font-weight="bold" lengthAdjust="spacingAndGlyphs" textLength="98" x="441" y="504.4818">Klasik Ürünler</text><!--MD5=[4ea9d1ec6611d1d82b3acef61e3edcfd]
class ModernChair--><rect fill="#E8F4F8" height="62.9819" id="ModernChair" style="stroke: #2C5F7C; stroke-width: 1.5;" width="106" x="180" y="525.5158"/><ellipse cx="195" cy="541.5158" fill="#ADD1B2" rx="11" ry="11" style="stroke: #2C5F7C; stroke-width: 1.0;"/><path d="M197.9688,547.1565 Q197.3906,547.4533 196.75,547.594 Q196.1094,547.7502 195.4063,547.7502 Q192.9063,547.7502 191.5781,546.1096 Q190.2656,544.4533 190.2656,541.3283 Q190.2656,538.2033 191.5781,536.5471 Q192.9063,534.8908 195.4063,534.8908 Q196.1094,534.8908 196.75,535.0471 Q197.4063,535.2033 197.9688,535.5002 L197.9688,538.219 Q197.3438,537.6408 196.75,537.3752 Q196.1563,537.094 195.5313,537.094 Q194.1875,537.094 193.5,538.1721 Q192.8125,539.2346 192.8125,541.3283 Q192.8125,543.4221 193.5,544.5002 Q194.1875,545.5627 195.5313,545.5627 Q196.1563,545.5627 196.75,545.2971 Q197.3438,545.0158 197.9688,544.4377 L197.9688,547.1565 Z "/><text fill="#000000" font-family="sans-serif" font-size="12" lengthAdjust="spacingAndGlyphs" textLength="74" x="209" y="546.1719">ModernChair</text><line style="stroke: #2C5F7C; stroke-width: 1.5;" x1="181" x2="285" y1="557.5158" y2="557.5158"/><line style="stroke: #2C5F7C; stroke-width: 1.5;" x1="181" x2="285" y1="565.5158" y2="565.5158"/><text fill="#000000" font-family="sans-serif" font-size="11" lengthAdjust="spacingAndGlyphs" textLength="69" x="186" y="581.2748">+sitOn(): void</text><!--MD5=[ed3420a3f1b644c0d9eb7cf10361c9a3]
class ModernTable--><rect fill="#E8F4F8" height="62.9819" id="ModernTable" style="stroke: #2C5F7C; stroke-width: 1.5;" width="107" x="37.5" y="525.5158"/><ellipse cx="52.5" cy="541.5158" fill="#ADD1B2" rx="11" ry="11" style="stroke: #2C5F7C; stroke-width: 1.0;"/><path d="M55.4688,547.1565 Q54.8906,547.4533 54.25,547.594 Q53.6094,547.7502 52.9063,547.7502 Q50.4063,547.7502 49.0781,546.1096 Q47.7656,544.4533 47.7656,541.3283 Q47.7656,538.2033 49.0781,536.5471 Q50.4063,534.8908 52.9063,534.8908 Q53.6094,534.8908 54.25,535.0471 Q54.9063,535.2033 55.4688,535.5002 L55.4688,538.219 Q54.8438,537.6408 54.25,537.3752 Q53.6563,537.094 53.0313,537.094 Q51.6875,537.094 51,538.1721 Q50.3125,539.2346 50.3125,541.3283 Q50.3125,543.4221 51,544.5002 Q51.6875,545.5627 53.0313,545.5627 Q53.6563,545.5627 54.25,545.2971 Q54.8438,545.0158 55.4688,544.4377 L55.4688,547.1565 Z "/><text fill="#000000" font-family="sans-serif" font-size="12" lengthAdjust="spacingAndGlyphs" textLength="75" x="66.5" y="546.1719">ModernTable</text><line style="stroke: #2C5F7C; stroke-width: 1.5;" x1="38.5" x2="143.5" y1="557.5158" y2="557.5158"/><line style="stroke: #2C5F7C; stroke-width: 1.5;" x1="38.5" x2="143.5" y1="565.5158" y2="565.5158"/><text fill="#000000" font-family="sans-serif" font-size="11" lengthAdjust="spacingAndGlyphs" textLength="59" x="43.5" y="581.2748">+use(): void</text><!--MD5=[3d09935f4ea3761de7986542287117df]
class ClassicChair--><rect fill="#E8F4F8" height="62.9819" id="ClassicChair" style="stroke: #2C5F7C; stroke-width: 1.5;" width="101" x="590.5" y="525.5158"/><ellipse cx="605.5" cy="541.5158" fill="#ADD1B2" rx="11" ry="11" style="stroke: #2C5F7C; stroke-width: 1.0;"/><path d="M608.4688,547.1565 Q607.8906,547.4533 607.25,547.594 Q606.6094,547.7502 605.9063,547.7502 Q603.4063,547.7502 602.0781,546.1096 Q600.7656,544.4533 600.7656,541.3283 Q600.7656,538.2033 602.0781,536.5471 Q603.4063,534.8908 605.9063,534.8908 Q606.6094,534.8908 607.25,535.0471 Q607.9063,535.2033 608.4688,535.5002 L608.4688,538.219 Q607.8438,537.6408 607.25,537.3752 Q606.6563,537.094 606.0313,537.094 Q604.6875,537.094 604,538.1721 Q603.3125,539.2346 603.3125,541.3283 Q603.3125,543.4221 604,544.5002 Q604.6875,545.5627 606.0313,545.5627 Q606.6563,545.5627 607.25,545.2971 Q607.8438,545.0158 608.4688,544.4377 L608.4688,547.1565 Z "/><text fill="#000000" font-family="sans-serif" font-size="12" lengthAdjust="spacingAndGlyphs" textLength="69" x="619.5" y="546.1719">ClassicChair</text><line style="stroke: #2C5F7C; stroke-width: 1.5;" x1="591.5" x2="690.5" y1="557.5158" y2="557.5158"/><line style="stroke: #2C5F7C; stroke-width: 1.5;" x1="591.5" x2="690.5" y1="565.5158" y2="565.5158"/><text fill="#000000" font-family="sans-serif" font-size="11" lengthAdjust="spacingAndGlyphs" textLength="69" x="596.5" y="581.2748">+sitOn(): void</text><!--MD5=[fb5ae976a8008ccfdcdcd4d107172d54]
class ClassicTable--><rect fill="#E8F4F8" height="62.9819" id="ClassicTable" style="stroke: #2C5F7C; stroke-width: 1.5;" width="102" x="453" y="525.5158"/><ellipse cx="468" cy="541.5158" fill="#ADD1B2" rx="11" ry="11" style="stroke: #2C5F7C; stroke-width: 1.0;"/><path d="M470.9688,547.1565 Q470.3906,547.4533 469.75,547.594 Q469.1094,547.7502 468.4063,547.7502 Q465.9063,547.7502 464.5781,546.1096 Q463.2656,544.4533 463.2656,541.3283 Q463.2656,538.2033 464.5781,536.5471 Q465.9063,534.8908 468.4063,534.8908 Q469.1094,534.8908 469.75,535.0471 Q470.4063,535.2033 470.9688,535.5002 L470.9688,538.219 Q470.3438,537.6408 469.75,537.3752 Q469.1563,537.094 468.5313,537.094 Q467.1875,537.094 466.5,538.1721 Q465.8125,539.2346 465.8125,541.3283 Q465.8125,543.4221 466.5,544.5002 Q467.1875,545.5627 468.5313,545.5627 Q469.1563,545.5627 469.75,545.2971 Q470.3438,545.0158 470.9688,544.4377 L470.9688,547.1565 Z "/><text fill="#000000" font-family="sans-serif" font-size="12" lengthAdjust="spacingAndGlyphs" textLength="70" x="482" y="546.1719">ClassicTable</text><line style="stroke: #2C5F7C; stroke-width: 1.5;" x1="454" x2="554" y1="557.5158" y2="557.5158"/><line style="stroke: #2C5F7C; stroke-width: 1.5;" x1="454" x2="554" y1="565.5158" y2="565.5158"/><text fill="#000000" font-family="sans-serif" font-size="11" lengthAdjust="spacingAndGlyphs" textLength="59" x="459" y="581.2748">+use(): void</text><!--MD5=[d29c9a6f599273240dc5c7dc802fb3eb]
class Chair--><rect fill="#E8F4F8" height="88.652" id="Chair" style="stroke: #2C5F7C; stroke-width: 1.5;" width="87" x="396.5" y="333.5158"/><ellipse cx="411.5" cy="354.86" fill="#A9DCDF" rx="11" ry="11" style="stroke: #2C5F7C; stroke-width: 1.0;"/><path d="M411.6094,350.2037 L410.4531,355.2818 L412.7813,355.2818 L411.6094,350.2037 Z M410.125,347.9693 L413.1094,347.9693 L416.4688,360.36 L414.0156,360.36 L413.25,357.2975 L409.9688,357.2975 L409.2188,360.36 L406.7813,360.36 L410.125,347.9693 Z "/><text fill="#000000" font-family="sans-serif" font-size="12" font-style="italic" lengthAdjust="spacingAndGlyphs" textLength="59" x="423.5" y="351.3439">«interface»</text><text fill="#000000" font-family="sans-serif" font-size="12" font-style="italic" lengthAdjust="spacingAndGlyphs" textLength="29" x="438.5" y="367.6881">Chair</text><line style="stroke: #2C5F7C; stroke-width: 1.5;" x1="397.5" x2="482.5" y1="376.2041" y2="376.2041"/><line style="stroke: #2C5F7C; stroke-width: 1.5;" x1="397.5" x2="482.5" y1="384.2041" y2="384.2041"/><text fill="#000000" font-family="sans-serif" font-size="11" lengthAdjust="spacingAndGlyphs" textLength="46" x="402.5" y="399.963">+~Chair()</text><text fill="#000000" font-family="sans-serif" font-size="11" font-style="italic" lengthAdjust="spacingAndGlyphs" textLength="64" x="402.5" y="414.9449">+sitOn(): void</text><!--MD5=[c0b936abb008b3271898d4186b5531e4]
class Table--><rect fill="#E8F4F8" height="88.652" id="Table" style="stroke: #2C5F7C; stroke-width: 1.5;" width="87" x="254.5" y="333.5158"/><ellipse cx="269.5" cy="354.86" fill="#A9DCDF" rx="11" ry="11" style="stroke: #2C5F7C; stroke-width: 1.0;"/><path d="M269.6094,350.2037 L268.4531,355.2818 L270.7813,355.2818 L269.6094,350.2037 Z M268.125,347.9693 L271.1094,347.9693 L274.4688,360.36 L272.0156,360.36 L271.25,357.2975 L267.9688,357.2975 L267.2188,360.36 L264.7813,360.36 L268.125,347.9693 Z "/><text fill="#000000" font-family="sans-serif" font-size="12" font-style="italic" lengthAdjust="spacingAndGlyphs" textLength="59" x="281.5" y="351.3439">«interface»</text><text fill="#000000" font-family="sans-serif" font-size="12" font-style="italic" lengthAdjust="spacingAndGlyphs" textLength="29" x="296.5" y="367.6881">Table</text><line style="stroke: #2C5F7C; stroke-width: 1.5;" x1="255.5" x2="340.5" y1="376.2041" y2="376.2041"/><line style="stroke: #2C5F7C; stroke-width: 1.5;" x1="255.5" x2="340.5" y1="384.2041" y2="384.2041"/><text fill="#000000" font-family="sans-serif" font-size="11" lengthAdjust="spacingAndGlyphs" textLength="46" x="260.5" y="399.963">+~Table()</text><text fill="#000000" font-family="sans-serif" font-size="11" font-style="italic" lengthAdjust="spacingAndGlyphs" textLength="54" x="260.5" y="414.9449">+use(): void</text><!--MD5=[086f7c7a070c36f92c4da32e24a93304]
class FurnitureFactory--><rect fill="#E8F4F8" height="103.6339" id="FurnitureFactory" style="stroke: #2C5F7C; stroke-width: 1.5;" width="173" x="109.5" y="91.5158"/><ellipse cx="145.2" cy="112.86" fill="#A9DCDF" rx="11" ry="11" style="stroke: #2C5F7C; stroke-width: 1.0;"/><path d="M145.3094,108.2037 L144.1531,113.2818 L146.4813,113.2818 L145.3094,108.2037 Z M143.825,105.9693 L146.8094,105.9693 L150.1688,118.36 L147.7156,118.36 L146.95,115.2975 L143.6688,115.2975 L142.9188,118.36 L140.4813,118.36 L143.825,105.9693 Z "/><text fill="#000000" font-family="sans-serif" font-size="12" font-style="italic" lengthAdjust="spacingAndGlyphs" textLength="99" x="161.8" y="109.3439">«Abstract Factory»</text><text fill="#000000" font-family="sans-serif" font-size="12" font-style="italic" lengthAdjust="spacingAndGlyphs" textLength="90" x="166.3" y="125.6881">FurnitureFactory</text><line style="stroke: #2C5F7C; stroke-width: 1.5;" x1="110.5" x2="281.5" y1="134.2041" y2="134.2041"/><line style="stroke: #2C5F7C; stroke-width: 1.5;" x1="110.5" x2="281.5" y1="142.2041" y2="142.2041"/><text fill="#000000" font-family="sans-serif" font-size="11" lengthAdjust="spacingAndGlyphs" textLength="107" x="115.5" y="157.963">+~FurnitureFactory()</text><text fill="#000000" font-family="sans-serif" font-size="11" font-style="italic" lengthAdjust="spacingAndGlyphs" textLength="159" x="115.5" y="172.9449">+createChair(): unique_ptr&lt;Chair&gt;</text><text fill="#000000" font-family="sans-serif" font-size="11" font-style="italic" lengthAdjust="spacingAndGlyphs" textLength="161" x="115.5" y="187.9268">+createTable(): unique_ptr&lt;Table&gt;</text><!--MD5=[a9cb816f64f806186a61ef766fedfaba]
class ModernFurnitureFactory--><rect fill="#E8F4F8" height="88.652" id="ModernFurnitureFactory" style="stroke: #2C5F7C; stroke-width: 1.5;" width="188" x="31" y="333.5158"/><ellipse cx="55" cy="354.86" fill="#ADD1B2" rx="11" ry="11" style="stroke: #2C5F7C; stroke-width: 1.0;"/><path d="M57.9688,360.5006 Q57.3906,360.7975 56.75,360.9381 Q56.1094,361.0943 55.4063,361.0943 Q52.9063,361.0943 51.5781,359.4537 Q50.2656,357.7975 50.2656,354.6725 Q50.2656,351.5475 51.5781,349.8912 Q52.9063,348.235 55.4063,348.235 Q56.1094,348.235 56.75,348.3912 Q57.4063,348.5475 57.9688,348.8443 L57.9688,351.5631 Q57.3438,350.985 56.75,350.7193 Q56.1563,350.4381 55.5313,350.4381 Q54.1875,350.4381 53.5,351.5162 Q52.8125,352.5787 52.8125,354.6725 Q52.8125,356.7662 53.5,357.8443 Q54.1875,358.9068 55.5313,358.9068 Q56.1563,358.9068 56.75,358.6412 Q57.3438,358.36 57.9688,357.7818 L57.9688,360.5006 Z "/><text fill="#000000" font-family="sans-serif" font-size="12" font-style="italic" lengthAdjust="spacingAndGlyphs" textLength="102" x="88" y="351.3439">«Concrete Factory»</text><text fill="#000000" font-family="sans-serif" font-size="12" lengthAdjust="spacingAndGlyphs" textLength="136" x="71" y="367.6881">ModernFurnitureFactory</text><line style="stroke: #2C5F7C; stroke-width: 1.5;" x1="32" x2="218" y1="376.2041" y2="376.2041"/><line style="stroke: #2C5F7C; stroke-width: 1.5;" x1="32" x2="218" y1="384.2041" y2="384.2041"/><text fill="#000000" font-family="sans-serif" font-size="11" lengthAdjust="spacingAndGlyphs" textLength="176" x="37" y="399.963">+createChair(): unique_ptr&lt;Chair&gt;</text><text fill="#000000" font-family="sans-serif" font-size="11" lengthAdjust="spacingAndGlyphs" textLength="176" x="37" y="414.9449">+createTable(): unique_ptr&lt;Table&gt;</text><!--MD5=[7bc4d8b7587bcfbcde352a87c408c2db]
class ClassicFurnitureFactory--><rect fill="#E8F4F8" height="88.652" id="ClassicFurnitureFactory" style="stroke: #2C5F7C; stroke-width: 1.5;" width="188" x="529" y="333.5158"/><ellipse cx="555.25" cy="354.86" fill="#ADD1B2" rx="11" ry="11" style="stroke: #2C5F7C; stroke-width: 1.0;"/><path d="M558.2188,360.5006 Q557.6406,360.7975 557,360.9381 Q556.3594,361.0943 555.6563,361.0943 Q553.1563,361.0943 551.8281,359.4537 Q550.5156,357.7975 550.5156,354.6725 Q550.5156,351.5475 551.8281,349.8912 Q553.1563,348.235 555.6563,348.235 Q556.3594,348.235 557,348.3912 Q557.6563,348.5475 558.2188,348.8443 L558.2188,351.5631 Q557.5938,350.985 557,350.7193 Q556.4063,350.4381 555.7813,350.4381 Q554.4375,350.4381 553.75,351.5162 Q553.0625,352.5787 553.0625,354.6725 Q553.0625,356.7662 553.75,357.8443 Q554.4375,358.9068 555.7813,358.9068 Q556.4063,358.9068 557,358.6412 Q557.5938,358.36 558.2188,357.7818 L558.2188,360.5006 Z "/><text fill="#000000" font-family="sans-serif" font-size="12" font-style="italic" lengthAdjust="spacingAndGlyphs" textLength="102" x="586.25" y="351.3439">«Concrete Factory»</text><text fill="#000000" font-family="sans-serif" font-size="12" lengthAdjust="spacingAndGlyphs" textLength="131" x="571.75" y="367.6881">ClassicFurnitureFactory</text><line style="stroke: #2C5F7C; stroke-width: 1.5;" x1="530" x2="716" y1="376.2041" y2="376.2041"/><line style="stroke: #2C5F7C; stroke-width: 1.5;" x1="530" x2="716" y1="384.2041" y2="384.2041"/><text fill="#000000" font-family="sans-serif" font-size="11" lengthAdjust="spacingAndGlyphs" textLength="176" x="535" y="399.963">+createChair(): unique_ptr&lt;Chair&gt;</text><text fill="#000000" font-family="sans-serif" font-size="11" lengthAdjust="spacingAndGlyphs" textLength="176" x="535" y="414.9449">+createTable(): unique_ptr&lt;Table&gt;</text><path d="M318,94.0158 L318,139.5158 L282.8,143.5158 L318,147.5158 L318,192.5459 A0,0 0 0 0 318,192.5459 L514,192.5459 A0,0 0 0 0 514,192.5459 L514,104.0158 L504,94.0158 L318,94.0158 A0,0 0 0 0 318,94.0158 " fill="#FBFB77" style="stroke: #A80036; stroke-width: 1.0;"/><path d="M504,94.0158 L504,104.0158 L514,104.0158 L504,94.0158 " fill="#FBFB77" style="stroke: #A80036; stroke-width: 1.0;"/><text fill="#000000" font-family="sans-serif" font-size="13" font-weight="bold" lengthAdjust="spacingAndGlyphs" textLength="108" x="324" y="112.9129">Abstract Factory</text><ellipse cx="329.5" cy="126.9279" fill="#000000" rx="2.5" ry="2.5" style="stroke: #000000; stroke-width: 0.0;"/><text fill="#000000" font-family="sans-serif" font-size="13" lengthAdjust="spacingAndGlyphs" textLength="142" x="336" y="130.6189">Ürün ailelerini oluşturur</text><ellipse cx="329.5" cy="144.6339" fill="#000000" rx="2.5" ry="2.5" style="stroke: #000000; stroke-width: 0.0;"/><text fill="#000000" font-family="sans-serif" font-size="13" lengthAdjust="spacingAndGlyphs" textLength="154" x="336" y="148.3249">Her fabrika kendi tarzında</text><text fill="#000000" font-family="sans-serif" font-size="13" lengthAdjust="spacingAndGlyphs" textLength="84" x="330" y="166.0309">mobilya üretir</text><ellipse cx="329.5" cy="180.0459" fill="#000000" rx="2.5" ry="2.5" style="stroke: #000000; stroke-width: 0.0;"/><text fill="#000000" font-family="sans-serif" font-size="13" lengthAdjust="spacingAndGlyphs" textLength="163" x="336" y="183.7369">Client somut sınıfları bilmez</text><path d="M67.5,651.5158 L67.5,838.576 A0,0 0 0 0 67.5,838.576 L398.5,838.576 A0,0 0 0 0 398.5,838.576 L398.5,661.5158 L388.5,651.5158 L237,651.5158 L233,588.7258 L229,651.5158 L67.5,651.5158 A0,0 0 0 0 67.5,651.5158 " fill="#FBFB77" style="stroke: #A80036; stroke-width: 1.0;"/><path d="M388.5,651.5158 L388.5,661.5158 L398.5,661.5158 L388.5,651.5158 " fill="#FBFB77" style="stroke: #A80036; stroke-width: 1.0;"/><text fill="#000000" font-family="sans-serif" font-size="13" font-weight="bold" lengthAdjust="spacingAndGlyphs" textLength="112" x="73.5" y="670.4129">Kullanım Örneği:</text><text fill="#000000" font-family="sans-serif" font-size="13" lengthAdjust="spacingAndGlyphs" textLength="0" x="76.5" y="688.1189"/><text fill="#000000" font-family="sans-serif" font-size="13" lengthAdjust="spacingAndGlyphs" textLength="229" x="73.5" y="705.8249">unique_ptr&lt;FurnitureFactory&gt; factory;</text><text fill="#000000" font-family="sans-serif" font-size="13" lengthAdjust="spacingAndGlyphs" textLength="310" x="73.5" y="723.5309">factory = make_unique&lt;ModernFurnitureFactory&gt;();</text><text fill="#000000" font-family="sans-serif" font-size="13" lengthAdjust="spacingAndGlyphs" textLength="0" x="76.5" y="741.2369"/><text fill="#000000" font-family="sans-serif" font-size="13" lengthAdjust="spacingAndGlyphs" textLength="205" x="73.5" y="758.9429">auto chair = factory-&gt;createChair();</text><text fill="#000000" font-family="sans-serif" font-size="13" lengthAdjust="spacingAndGlyphs" textLength="207" x="73.5" y="776.649">auto table = factory-&gt;createTable();</text><text fill="#000000" font-family="sans-serif" font-size="13" lengthAdjust="spacingAndGlyphs" textLength="0" x="76.5" y="794.355"/><text fill="#000000" font-family="sans-serif" font-size="13" lengthAdjust="spacingAndGlyphs" textLength="83" x="73.5" y="812.061">chair-&gt;sitOn();</text><text fill="#000000" font-family="sans-serif" font-size="13" lengthAdjust="spacingAndGlyphs" textLength="73" x="73.5" y="829.767">table-&gt;use();</text><path d="M549.5,85.5158 L549.5,201.7519 A0,0 0 0 0 549.5,201.7519 L580.03,201.7519 L475.98,333.2158 L588.03,201.7519 L712.5,201.7519 A0,0 0 0 0 712.5,201.7519 L712.5,95.5158 L702.5,85.5158 L549.5,85.5158 A0,0 0 0 0 549.5,85.5158 " fill="#FBFB77" style="stroke: #A80036; stroke-width: 1.0;"/><path d="M702.5,85.5158 L702.5,95.5158 L712.5,95.5158 L702.5,85.5158 " fill="#FBFB77" style="stroke: #A80036; stroke-width: 1.0;"/><text fill="#000000" font-family="sans-serif" font-size="13" font-weight="bold" lengthAdjust="spacingAndGlyphs" textLength="112" x="555.5" y="104.4129">Soyut Ürün Ailesi</text><ellipse cx="561" cy="118.4279" fill="#000000" rx="2.5" ry="2.5" style="stroke: #000000; stroke-width: 0.0;"/><text fill="#000000" font-family="sans-serif" font-size="13" lengthAdjust="spacingAndGlyphs" textLength="96" x="567.5" y="122.1189">Chair (Sandalye)</text><ellipse cx="561" cy="136.1339" fill="#000000" rx="2.5" ry="2.5" style="stroke: #000000; stroke-width: 0.0;"/><text fill="#000000" font-family="sans-serif" font-size="13" lengthAdjust="spacingAndGlyphs" textLength="75" x="567.5" y="139.8249">Table (Masa)</text><text fill="#000000" font-family="sans-serif" font-size="13" lengthAdjust="spacingAndGlyphs" textLength="0" x="558.5" y="157.5309"/><text fill="#000000" font-family="sans-serif" font-size="13" lengthAdjust="spacingAndGlyphs" textLength="142" x="555.5" y="175.2369">Her ürün farklı tarzlarda</text><text fill="#000000" font-family="sans-serif" font-size="13" lengthAdjust="spacingAndGlyphs" textLength="60" x="555.5" y="192.9429">üretilebilir</text><path d="M747.5,32.5158 L747.5,254.988 L1020.5,254.988 L1020.5,42.5158 L1010.5,32.5158 L747.5,32.5158 " fill="#FBFB77" style="stroke: #A80036; stroke-width: 1.0;"/><path d="M1010.5,32.5158 L1010.5,42.5158 L1020.5,42.5158 L1010.5,32.5158 " fill="#FBFB77" style="stroke: #A80036; stroke-width: 1.0;"/><text fill="#000000" font-family="sans-serif" font-size="13" font-weight="bold" lengthAdjust="spacingAndGlyphs" textLength="229" x="753.5" y="51.4129">Abstract Factory Pattern Faydaları:</text><text fill="#000000" font-family="sans-serif" font-size="13" lengthAdjust="spacingAndGlyphs" textLength="0" x="756.5" y="69.1189"/><text fill="#000000" font-family="sans-serif" font-size="13" lengthAdjust="spacingAndGlyphs" textLength="239" x="753.5" y="86.8249">✓ Ürün ailelerini tutarlı şekilde oluşturur</text><text fill="#000000" font-family="sans-serif" font-size="13" lengthAdjust="spacingAndGlyphs" textLength="233" x="753.5" y="104.5309">✓ Yeni tarz eklemek kolay (yeni fabrika)</text><text fill="#000000" font-family="sans-serif" font-size="13" lengthAdjust="spacingAndGlyphs" textLength="252" x="753.5" y="122.2369">✓ Client kodu somut sınıflara bağımlı değil</text><text fill="#000000" font-family="sans-serif" font-size="13" lengthAdjust="spacingAndGlyphs" textLength="190" x="753.5" y="139.9429">✓ Single Responsibility Principle</text><text fill="#000000" font-family="sans-serif" font-size="13" lengthAdjust="spacingAndGlyphs" textLength="146" x="753.5" y="157.649">✓ Open/Closed Principle</text><text fill="#000000" font-family="sans-serif" font-size="13" lengthAdjust="spacingAndGlyphs" textLength="0" x="756.5" y="175.355"/><text fill="#000000" font-family="sans-serif" font-size="13" font-weight="bold" lengthAdjust="spacingAndGlyphs" textLength="136" x="753.5" y="193.061">Ne Zaman Kullanılır:</text><text fill="#000000" font-family="sans-serif" font-size="13" lengthAdjust="spacingAndGlyphs" textLength="167" x="753.5" y="210.767">• Birbiriyle ilişkili ürün aileleri</text><text fill="#000000" font-family="sans-serif" font-size="13" lengthAdjust="spacingAndGlyphs" textLength="208" x="753.5" y="228.473">• Ürünlerin birlikte çalışması gerekli</text><text fill="#000000" font-family="sans-serif" font-size="13" lengthAdjust="spacingAndGlyphs" textLength="155" x="753.5" y="246.179">• Farklı varyantlar/temalar</text><!--MD5=[f4cd26c08fa7fca5b581cc37601f931f]
reverse link Chair to ModernChair--><path d="M378.45,412.5258 C345.59,430.5458 311.21,449.6658 308,452.5158 C284.43,473.4358 263.93,502.9858 250.35,525.1658 " fill="none" id="Chair&lt;-ModernChair" style="stroke: #2C5F7C; stroke-width: 1.0;"/><polygon fill="none" points="375.44,406.1958,396.35,402.7358,382.16,418.4758,375.44,406.1958" style="stroke: #2C5F7C; stroke-width: 1.0;"/><text fill="#000000" font-family="sans-serif" font-size="13" lengthAdjust="spacingAndGlyphs" textLength="71" x="309" y="467.4129">implements</text><!--MD5=[9cbcc37be3d19bf86f4a5b9f9c8380ed]
reverse link Chair to ClassicChair--><path d="M501.42,416.7058 C504.98,418.7058 508.52,420.6558 512,422.5158 C539.7,437.3258 552.47,431.7058 576,452.5158 C598.73,472.6158 616.35,502.5558 627.47,525.0758 " fill="none" id="Chair&lt;-ClassicChair" style="stroke: #2C5F7C; stroke-width: 1.0;"/><polygon fill="none" points="497.53,422.5358,483.75,406.4458,504.56,410.4358,497.53,422.5358" style="stroke: #2C5F7C; stroke-width: 1.0;"/><text fill="#000000" font-family="sans-serif" font-size="13" lengthAdjust="spacingAndGlyphs" textLength="71" x="593" y="467.4129">implements</text><!--MD5=[0b584c8749d3d6f32a1016369eda7b1a]
reverse link Table to ModernTable--><path d="M236.29,422.3858 C236.19,422.4358 236.1,422.4758 236,422.5158 C178.93,447.5758 139.92,405.4958 99,452.5158 C81.96,472.0958 81.56,502.3958 84.47,525.1558 " fill="none" id="Table&lt;-ModernTable" style="stroke: #2C5F7C; stroke-width: 1.0;"/><polygon fill="none" points="233.27,416.0658,254.21,412.8358,239.85,428.4158,233.27,416.0658" style="stroke: #2C5F7C; stroke-width: 1.0;"/><text fill="#000000" font-family="sans-serif" font-size="13" lengthAdjust="spacingAndGlyphs" textLength="71" x="100" y="467.4129">implements</text><!--MD5=[9f2e20f7616c713a7b098d4456ff2d66]
reverse link Table to ClassicTable--><path d="M356.98,429.6958 C392.91,460.5658 437.63,498.9858 468.26,525.3058 " fill="none" id="Table&lt;-ClassicTable" style="stroke: #2C5F7C; stroke-width: 1.0;"/><polygon fill="none" points="352.29,434.8958,341.69,416.5558,361.42,424.2758,352.29,434.8958" style="stroke: #2C5F7C; stroke-width: 1.0;"/><text fill="#000000" font-family="sans-serif" font-size="13" lengthAdjust="spacingAndGlyphs" textLength="71" x="402" y="467.4129">implements</text><!--MD5=[6a991800bd1ac299c61554a96edc39d2]
reverse link FurnitureFactory to ModernFurnitureFactory--><path d="M174.53,214.8258 C162.77,253.3258 148.57,299.8258 138.39,333.1558 " fill="none" id="FurnitureFactory&lt;-ModernFurnitureFactory" style="stroke: #2C5F7C; stroke-width: 1.0;"/><polygon fill="none" points="167.88,212.6258,180.42,195.5358,181.27,216.7158,167.88,212.6258" style="stroke: #2C5F7C; stroke-width: 1.0;"/><text fill="#000000" font-family="sans-serif" font-size="13" lengthAdjust="spacingAndGlyphs" textLength="71" x="154" y="299.4129">implements</text><!--MD5=[2b1a9f0ca0f1d8459091ed89c4b170fb]
reverse link FurnitureFactory to ClassicFurnitureFactory--><path d="M247.44,210.4858 C262.85,226.7858 280.81,242.8958 300,254.5158 C341.88,279.8858 359.83,268.2158 406,284.5158 C446.93,298.9658 491.17,317.3058 528.96,333.8458 " fill="none" id="FurnitureFactory&lt;-ClassicFurnitureFactory" style="stroke: #2C5F7C; stroke-width: 1.0;"/><polygon fill="none" points="242.21,215.1358,234.04,195.5758,252.62,205.7758,242.21,215.1358" style="stroke: #2C5F7C; stroke-width: 1.0;"/><text fill="#000000" font-family="sans-serif" font-size="13" lengthAdjust="spacingAndGlyphs" textLength="71" x="456" y="299.4129">implements</text><!--MD5=[0c0e4d19a7c239a297d33e2591b3e2bf]
link FurnitureFactory to Chair--><path d="M242.4,195.5858 C260.05,214.4858 280.59,235.8358 300,254.5158 C329.83,283.2258 364.9,313.8958 392.47,337.3658 " fill="none" id="FurnitureFactory-&gt;Chair" style="stroke: #2C5F7C; stroke-width: 1.0; stroke-dasharray: 7.0,7.0;"/><polygon fill="#2C5F7C" points="396.48,340.7758,392.1948,331.9081,392.6636,337.5455,387.0262,338.0143,396.48,340.7758" style="stroke: #2C5F7C; stroke-width: 1.0;"/><text fill="#000000" font-family="sans-serif" font-size="13" lengthAdjust="spacingAndGlyphs" textLength="43" x="354" y="299.4129">creates</text><!--MD5=[b4bf5421ae5e8990e75d655390e6f7ce]
link FurnitureFactory to Table--><path d="M218.38,195.5358 C235.74,235.1058 259.64,289.5658 276.71,328.4858 " fill="none" id="FurnitureFactory-&gt;Table" style="stroke: #2C5F7C; stroke-width: 1.0; stroke-dasharray: 7.0,7.0;"/><polygon fill="#2C5F7C" points="278.76,333.1558,278.7915,323.307,276.7439,328.5803,271.4706,326.5328,278.76,333.1558" style="stroke: #2C5F7C; stroke-width: 1.0;"/><text fill="#000000" font-family="sans-serif" font-size="13" lengthAdjust="spacingAndGlyphs" textLength="43" x="267" y="299.4129">creates</text><!--MD5=[be4b0cfca21fc7975085f5a3e6a92c4b]
link ModernFurnitureFactory to ModernChair--><path d="M159.69,422.8658 C166.72,432.4258 173.84,442.6458 180,452.5158 C193.71,474.4858 206.99,500.4358 216.83,520.8458 " fill="none" id="ModernFurnitureFactory-&gt;ModernChair" style="stroke: #2C5F7C; stroke-width: 1.0; stroke-dasharray: 7.0,7.0;"/><polygon fill="#2C5F7C" points="219,525.3858,218.7287,515.5407,216.8442,520.8745,211.5105,518.9899,219,525.3858" style="stroke: #2C5F7C; stroke-width: 1.0;"/><text fill="#000000" font-family="sans-serif" font-size="13" lengthAdjust="spacingAndGlyphs" textLength="43" x="191" y="467.4129">creates</text><!--MD5=[bb96fbb16fc32c8965b70916c43f27f7]
link ModernFurnitureFactory to ModernTable--><path d="M42.4,422.5958 C32.61,431.1958 23.98,441.1458 18,452.5158 C5.13,476.9658 22.49,502.3558 43.5,521.8658 " fill="none" id="ModernFurnitureFactory-&gt;ModernTable" style="stroke: #2C5F7C; stroke-width: 1.0; stroke-dasharray: 7.0,7.0;"/><polygon fill="#2C5F7C" points="47.46,525.4458,43.4462,516.452,43.7435,522.101,38.0945,522.3983,47.46,525.4458" style="stroke: #2C5F7C; stroke-width: 1.0;"/><text fill="#000000" font-family="sans-serif" font-size="13" lengthAdjust="spacingAndGlyphs" textLength="43" x="19" y="467.4129">creates</text><!--MD5=[9fa52b87ea1a5970c1ae8f6d9413c433]
link ClassicFurnitureFactory to ClassicChair--><path d="M671.41,422.9158 C678.6,431.9358 684.95,441.9458 689,452.5158 C697.93,475.8258 686.43,501.2758 672.46,521.0958 " fill="none" id="ClassicFurnitureFactory-&gt;ClassicChair" style="stroke: #2C5F7C; stroke-width: 1.0; stroke-dasharray: 7.0,7.0;"/><polygon fill="#2C5F7C" points="669.44,525.2458,677.9706,520.3235,672.3826,521.2034,671.5026,515.6154,669.44,525.2458" style="stroke: #2C5F7C; stroke-width: 1.0;"/><text fill="#000000" font-family="sans-serif" font-size="13" lengthAdjust="spacingAndGlyphs" textLength="43" x="693" y="467.4129">creates</text><!--MD5=[80823f18fe04dcc9cde2141a812b9735]
link ClassicFurnitureFactory to ClassicTable--><path d="M553.23,422.7658 C543.24,431.5758 534,441.5458 527,452.5158 C514.13,472.6858 508.4,499.0558 505.88,520.1258 " fill="none" id="ClassicFurnitureFactory-&gt;ClassicTable" style="stroke: #2C5F7C; stroke-width: 1.0; stroke-dasharray: 7.0,7.0;"/><polygon fill="#2C5F7C" points="505.3,525.3658,510.2533,516.8532,505.8428,520.3954,502.3006,515.9848,505.3,525.3658" style="stroke: #2C5F7C; stroke-width: 1.0;"/><text fill="#000000" font-family="sans-serif" font-size="13" lengthAdjust="spacingAndGlyphs" textLength="43" x="528" y="467.4129">creates</text><text fill="#888888" font-family="sans-serif" font-size="10" lengthAdjust="spacingAndGlyphs" textLength="324" x="357.5" y="859.2058">Oluşturulma: 15.10.2025 | Sürüm: 1.0.0 | Pattern: Abstract Factory</text><!--MD5=[4582fd7109a90ba42ca974adbfe2f98f]
@startuml

title Mobilya Fabrikası - Abstract Factory Pattern

skinparam classAttributeIconSize 0
skinparam backgroundColor #FFFFFF
skinparam shadowing false

skinparam class {
    BackgroundColor #E8F4F8
    BorderColor #2C5F7C
    ArrowColor #2C5F7C
}


abstract class Chair <<interface>> {
    + ~Chair()
    + {abstract} sitOn(): void
}

abstract class Table <<interface>> {
    + ~Table()
    + {abstract} use(): void
}


package "Modern Ürünler" #E8F5E9 {
    class ModernChair {
        + sitOn(): void
    }
    
    class ModernTable {
        + use(): void
    }
}


package "Klasik Ürünler" #FFF3E0 {
    class ClassicChair {
        + sitOn(): void
    }
    
    class ClassicTable {
        + use(): void
    }
}


abstract class FurnitureFactory <<Abstract Factory>> {
    + ~FurnitureFactory()
    + {abstract} createChair(): unique_ptr<Chair>
    + {abstract} createTable(): unique_ptr<Table>
}


class ModernFurnitureFactory <<Concrete Factory>> {
    + createChair(): unique_ptr<Chair>
    + createTable(): unique_ptr<Table>
}

class ClassicFurnitureFactory <<Concrete Factory>> {
    + createChair(): unique_ptr<Chair>
    + createTable(): unique_ptr<Table>
}


Chair <|- - ModernChair : implements
Chair <|- - ClassicChair : implements

Table <|- - ModernTable : implements
Table <|- - ClassicTable : implements

FurnitureFactory <|- - ModernFurnitureFactory : implements
FurnitureFactory <|- - ClassicFurnitureFactory : implements


FurnitureFactory ..> Chair : creates
FurnitureFactory ..> Table : creates

ModernFurnitureFactory ..> ModernChair : creates
ModernFurnitureFactory ..> ModernTable : creates

ClassicFurnitureFactory ..> ClassicChair : creates
ClassicFurnitureFactory ..> ClassicTable : creates


note right of FurnitureFactory
  **Abstract Factory**
  * Ürün ailelerini oluşturur
  * Her fabrika kendi tarzında
    mobilya üretir
  * Client somut sınıfları bilmez
end note

note bottom of ModernChair
  **Kullanım Örneği:**
  
  unique_ptr<FurnitureFactory> factory;
  factory = make_unique<ModernFurnitureFactory>();
  
  auto chair = factory->createChair();
  auto table = factory->createTable();
  
  chair->sitOn();
  table->use();
end note

note top of Chair
  **Soyut Ürün Ailesi**
  * Chair (Sandalye)
  * Table (Masa)
  
  Her ürün farklı tarzlarda
  üretilebilir
end note

note as PatternInfo
  **Abstract Factory Pattern Faydaları:**
  
  ✓ Ürün ailelerini tutarlı şekilde oluşturur
  ✓ Yeni tarz eklemek kolay (yeni fabrika)
  ✓ Client kodu somut sınıflara bağımlı değil
  ✓ Single Responsibility Principle
  ✓ Open/Closed Principle
  
  **Ne Zaman Kullanılır:**
  • Birbiriyle ilişkili ürün aileleri
  • Ürünlerin birlikte çalışması gerekli
  • Farklı varyantlar/temalar
end note

footer Oluşturulma: 15.10.2025 | Sürüm: 1.0.0 | Pattern: Abstract Factory

@enduml

PlantUML version 1.2020.02(Sun Mar 01 13:22:07 TRT 2020)
(GPL source distribution)
Java Runtime: OpenJDK Runtime Environment
JVM: OpenJDK 64-Bit Server VM
Java Version: 21.0.8+9-Ubuntu-0ubuntu124.04.1
Operating System: Linux
Default Encoding: UTF-8
Language: en
Country: US
--></g></svg>