<?xml version="1.0" encoding="UTF-8" standalone="no"?><svg xmlns="http://www.w3.org/2000/svg" xmlns:xlink="http://www.w3.org/1999/xlink" contentScriptType="application/ecmascript" contentStyleType="text/css" height="779px" preserveAspectRatio="none" style="width:1213px;height:779px;" version="1.1" viewBox="0 0 1213 779" width="1213px" zoomAndPan="magnify"><defs/><g><text fill="#000000" font-family="sans-serif" font-size="18" lengthAdjust="spacingAndGlyphs" textLength="244" x="483.5" y="19.2419">Bulut Akışı - Adapter Pattern</text><!--MD5=[182f9cea4751fde61072272cc24143b0]
cluster Yerel Oynatıcı--><polygon fill="#EFF5F9" points="22,48.5158,124,48.5158,131,73.5838,184,73.5838,184,367.0158,22,367.0158,22,48.5158" style="stroke: #3B6A99; stroke-width: 1.5;"/><line style="stroke: #3B6A99; stroke-width: 1.5;" x1="22" x2="131" y1="73.5838" y2="73.5838"/><text fill="#000000" font-family="sans-serif" font-size="14" font-weight="bold" lengthAdjust="spacingAndGlyphs" textLength="96" x="26" y="65.4818">Yerel Oynatıcı</text><!--MD5=[b5664927e8d38e642051c811197a5ef9]
cluster Bulut Servisi--><polygon fill="#F7F1FF" points="465,453.5158,557,453.5158,564,478.5838,661,478.5838,661,626.5158,465,626.5158,465,453.5158" style="stroke: #3B6A99; stroke-width: 1.5;"/><line style="stroke: #3B6A99; stroke-width: 1.5;" x1="465" x2="564" y1="478.5838" y2="478.5838"/><text fill="#000000" font-family="sans-serif" font-size="14" font-weight="bold" lengthAdjust="spacingAndGlyphs" textLength="86" x="469" y="470.4818">Bulut Servisi</text><!--MD5=[d1f247606e25a773fe1415c0390605b8]
class MediaPlayer--><rect fill="#F4F8FB" height="73.6701" id="MediaPlayer" style="stroke: #245B8E; stroke-width: 1.5;" width="129" x="38.5" y="86.5158"/><ellipse cx="67" cy="107.86" fill="#B4A7E5" rx="11" ry="11" style="stroke: #245B8E; stroke-width: 1.0;"/><path d="M62.9219,103.6256 L62.9219,101.4693 L70.3125,101.4693 L70.3125,103.6256 L67.8438,103.6256 L67.8438,111.7037 L70.3125,111.7037 L70.3125,113.86 L62.9219,113.86 L62.9219,111.7037 L65.3906,111.7037 L65.3906,103.6256 L62.9219,103.6256 Z "/><text fill="#000000" font-family="sans-serif" font-size="12" font-style="italic" lengthAdjust="spacingAndGlyphs" textLength="47" x="94" y="104.3439">«Target»</text><text fill="#000000" font-family="sans-serif" font-size="12" font-style="italic" lengthAdjust="spacingAndGlyphs" textLength="67" x="84" y="120.6881">MediaPlayer</text><line style="stroke: #245B8E; stroke-width: 1.5;" x1="39.5" x2="166.5" y1="129.2041" y2="129.2041"/><line style="stroke: #245B8E; stroke-width: 1.5;" x1="39.5" x2="166.5" y1="137.2041" y2="137.2041"/><text fill="#000000" font-family="sans-serif" font-size="11" lengthAdjust="spacingAndGlyphs" textLength="117" x="44.5" y="152.963">+play(resource: string)</text><!--MD5=[843b2aefe58c8e8717d871acf3483ce7]
class LocalAudioPlayer--><rect fill="#F4F8FB" height="73.6701" id="LocalAudioPlayer" style="stroke: #245B8E; stroke-width: 1.5;" width="129" x="38.5" y="277.0158"/><ellipse cx="53.95" cy="298.36" fill="#ADD1B2" rx="11" ry="11" style="stroke: #245B8E; stroke-width: 1.0;"/><path d="M56.9188,304.0006 Q56.3406,304.2975 55.7,304.4381 Q55.0594,304.5943 54.3563,304.5943 Q51.8563,304.5943 50.5281,302.9537 Q49.2156,301.2975 49.2156,298.1725 Q49.2156,295.0475 50.5281,293.3912 Q51.8563,291.735 54.3563,291.735 Q55.0594,291.735 55.7,291.8912 Q56.3563,292.0475 56.9188,292.3443 L56.9188,295.0631 Q56.2938,294.485 55.7,294.2193 Q55.1063,293.9381 54.4813,293.9381 Q53.1375,293.9381 52.45,295.0162 Q51.7625,296.0787 51.7625,298.1725 Q51.7625,300.2662 52.45,301.3443 Q53.1375,302.4068 54.4813,302.4068 Q55.1063,302.4068 55.7,302.1412 Q56.2938,301.86 56.9188,301.2818 L56.9188,304.0006 Z "/><text fill="#000000" font-family="sans-serif" font-size="12" font-style="italic" lengthAdjust="spacingAndGlyphs" textLength="97" x="67.55" y="294.8439">«Concrete Target»</text><text fill="#000000" font-family="sans-serif" font-size="12" lengthAdjust="spacingAndGlyphs" textLength="96" x="68.05" y="311.1881">LocalAudioPlayer</text><line style="stroke: #245B8E; stroke-width: 1.5;" x1="39.5" x2="166.5" y1="319.7041" y2="319.7041"/><line style="stroke: #245B8E; stroke-width: 1.5;" x1="39.5" x2="166.5" y1="327.7041" y2="327.7041"/><text fill="#000000" font-family="sans-serif" font-size="11" lengthAdjust="spacingAndGlyphs" textLength="117" x="44.5" y="343.463">+play(resource: string)</text><!--MD5=[9a9440a6654fe5c96532af07f58f2a8a]
class CloudStreamingService--><rect fill="#F4F8FB" height="118.6158" id="CloudStreamingService" style="stroke: #245B8E; stroke-width: 1.5;" width="163" x="481.5" y="491.5158"/><ellipse cx="496.5" cy="512.86" fill="#ADD1B2" rx="11" ry="11" style="stroke: #245B8E; stroke-width: 1.0;"/><path d="M499.4688,518.5006 Q498.8906,518.7975 498.25,518.9381 Q497.6094,519.0943 496.9063,519.0943 Q494.4063,519.0943 493.0781,517.4537 Q491.7656,515.7975 491.7656,512.6725 Q491.7656,509.5475 493.0781,507.8912 Q494.4063,506.235 496.9063,506.235 Q497.6094,506.235 498.25,506.3912 Q498.9063,506.5475 499.4688,506.8443 L499.4688,509.5631 Q498.8438,508.985 498.25,508.7193 Q497.6563,508.4381 497.0313,508.4381 Q495.6875,508.4381 495,509.5162 Q494.3125,510.5787 494.3125,512.6725 Q494.3125,514.7662 495,515.8443 Q495.6875,516.9068 497.0313,516.9068 Q497.6563,516.9068 498.25,516.6412 Q498.8438,516.36 499.4688,515.7818 L499.4688,518.5006 Z "/><text fill="#000000" font-family="sans-serif" font-size="12" font-style="italic" lengthAdjust="spacingAndGlyphs" textLength="56" x="548" y="509.3439">«Adaptee»</text><text fill="#000000" font-family="sans-serif" font-size="12" lengthAdjust="spacingAndGlyphs" textLength="131" x="510.5" y="525.6881">CloudStreamingService</text><line style="stroke: #245B8E; stroke-width: 1.5;" x1="482.5" x2="643.5" y1="534.2041" y2="534.2041"/><line style="stroke: #245B8E; stroke-width: 1.5;" x1="482.5" x2="643.5" y1="542.2041" y2="542.2041"/><text fill="#000000" font-family="sans-serif" font-size="11" lengthAdjust="spacingAndGlyphs" textLength="125" x="487.5" y="557.963">+connect(region: string)</text><text fill="#000000" font-family="sans-serif" font-size="11" lengthAdjust="spacingAndGlyphs" textLength="144" x="487.5" y="572.9449">+authenticate(token: string)</text><text fill="#000000" font-family="sans-serif" font-size="11" lengthAdjust="spacingAndGlyphs" textLength="147" x="487.5" y="587.9268">+startStream(trackId: string)</text><text fill="#000000" font-family="sans-serif" font-size="11" lengthAdjust="spacingAndGlyphs" textLength="72" x="487.5" y="602.9087">+stopStream()</text><!--MD5=[066904f1b295e232033ee39b7e0366f4]
class StreamingAdapter--><rect fill="#F4F8FB" height="148.5796" id="StreamingAdapter" style="stroke: #245B8E; stroke-width: 1.5;" width="265" x="430.5" y="239.5158"/><ellipse cx="507.25" cy="260.86" fill="#ADD1B2" rx="11" ry="11" style="stroke: #245B8E; stroke-width: 1.0;"/><path d="M510.2188,266.5006 Q509.6406,266.7975 509,266.9381 Q508.3594,267.0943 507.6563,267.0943 Q505.1563,267.0943 503.8281,265.4537 Q502.5156,263.7975 502.5156,260.6725 Q502.5156,257.5475 503.8281,255.8912 Q505.1563,254.235 507.6563,254.235 Q508.3594,254.235 509,254.3912 Q509.6563,254.5475 510.2188,254.8443 L510.2188,257.5631 Q509.5938,256.985 509,256.7193 Q508.4063,256.4381 507.7813,256.4381 Q506.4375,256.4381 505.75,257.5162 Q505.0625,258.5787 505.0625,260.6725 Q505.0625,262.7662 505.75,263.8443 Q506.4375,264.9068 507.7813,264.9068 Q508.4063,264.9068 509,264.6412 Q509.5938,264.36 510.2188,263.7818 L510.2188,266.5006 Z "/><text fill="#000000" font-family="sans-serif" font-size="12" font-style="italic" lengthAdjust="spacingAndGlyphs" textLength="55" x="551.75" y="257.3439">«Adapter»</text><text fill="#000000" font-family="sans-serif" font-size="12" lengthAdjust="spacingAndGlyphs" textLength="103" x="527.75" y="273.6881">StreamingAdapter</text><line style="stroke: #245B8E; stroke-width: 1.5;" x1="431.5" x2="694.5" y1="282.2041" y2="282.2041"/><text fill="#000000" font-family="sans-serif" font-size="11" lengthAdjust="spacingAndGlyphs" textLength="238" x="436.5" y="297.963">-service: unique_ptr&lt;CloudStreamingService&gt;</text><text fill="#000000" font-family="sans-serif" font-size="11" lengthAdjust="spacingAndGlyphs" textLength="124" x="436.5" y="312.9449">-regionEndpoint: string</text><text fill="#000000" font-family="sans-serif" font-size="11" lengthAdjust="spacingAndGlyphs" textLength="97" x="436.5" y="327.9268">-authToken: string</text><line style="stroke: #245B8E; stroke-width: 1.5;" x1="431.5" x2="694.5" y1="335.1497" y2="335.1497"/><text fill="#000000" font-family="sans-serif" font-size="11" lengthAdjust="spacingAndGlyphs" textLength="253" x="436.5" y="350.9087">+StreamingAdapter(region: string, token: string)</text><text fill="#000000" font-family="sans-serif" font-size="11" lengthAdjust="spacingAndGlyphs" textLength="117" x="436.5" y="365.8905">+play(resource: string)</text><text fill="#000000" font-family="sans-serif" font-size="11" lengthAdjust="spacingAndGlyphs" textLength="201" x="436.5" y="380.8724">-prepareStream(resource: string): void</text><path d="M202.5,264.5158 L202.5,363.0459 A0,0 0 0 0 202.5,363.0459 L395.5,363.0459 A0,0 0 0 0 395.5,363.0459 L395.5,318.0158 L430.32,314.0158 L395.5,310.0158 L395.5,274.5158 L385.5,264.5158 L202.5,264.5158 A0,0 0 0 0 202.5,264.5158 " fill="#FBFB77" style="stroke: #A80036; stroke-width: 1.0;"/><path d="M385.5,264.5158 L385.5,274.5158 L395.5,274.5158 L385.5,264.5158 " fill="#FBFB77" style="stroke: #A80036; stroke-width: 1.0;"/><text fill="#000000" font-family="sans-serif" font-size="13" font-weight="bold" lengthAdjust="spacingAndGlyphs" textLength="155" x="208.5" y="283.4129">Adapter Sorumlulukları</text><ellipse cx="214" cy="297.4279" fill="#000000" rx="2.5" ry="2.5" style="stroke: #000000; stroke-width: 0.0;"/><text fill="#000000" font-family="sans-serif" font-size="13" lengthAdjust="spacingAndGlyphs" textLength="107" x="220.5" y="301.1189">Bağlantı başlatma</text><ellipse cx="214" cy="315.1339" fill="#000000" rx="2.5" ry="2.5" style="stroke: #000000; stroke-width: 0.0;"/><text fill="#000000" font-family="sans-serif" font-size="13" lengthAdjust="spacingAndGlyphs" textLength="105" x="220.5" y="318.8249">Kimlik doğrulama</text><ellipse cx="214" cy="332.8399" fill="#000000" rx="2.5" ry="2.5" style="stroke: #000000; stroke-width: 0.0;"/><text fill="#000000" font-family="sans-serif" font-size="13" lengthAdjust="spacingAndGlyphs" textLength="130" x="220.5" y="336.5309">Yayın akışını başlatma</text><ellipse cx="214" cy="350.5459" fill="#000000" rx="2.5" ry="2.5" style="stroke: #000000; stroke-width: 0.0;"/><text fill="#000000" font-family="sans-serif" font-size="13" lengthAdjust="spacingAndGlyphs" textLength="160" x="220.5" y="354.2369">İstemci arayüzünü koruma</text><path d="M679.5,510.5158 L679.5,547.0158 L644.64,551.0158 L679.5,555.0158 L679.5,591.3399 A0,0 0 0 0 679.5,591.3399 L886.5,591.3399 A0,0 0 0 0 886.5,591.3399 L886.5,520.5158 L876.5,510.5158 L679.5,510.5158 A0,0 0 0 0 679.5,510.5158 " fill="#FBFB77" style="stroke: #A80036; stroke-width: 1.0;"/><path d="M876.5,510.5158 L876.5,520.5158 L886.5,520.5158 L876.5,510.5158 " fill="#FBFB77" style="stroke: #A80036; stroke-width: 1.0;"/><text fill="#000000" font-family="sans-serif" font-size="13" font-weight="bold" lengthAdjust="spacingAndGlyphs" textLength="119" x="685.5" y="529.4129">Adaptee Detayları</text><ellipse cx="691" cy="543.4279" fill="#000000" rx="2.5" ry="2.5" style="stroke: #000000; stroke-width: 0.0;"/><text fill="#000000" font-family="sans-serif" font-size="13" lengthAdjust="spacingAndGlyphs" textLength="120" x="697.5" y="547.1189">Bölgesel uç noktalar</text><ellipse cx="691" cy="561.1339" fill="#000000" rx="2.5" ry="2.5" style="stroke: #000000; stroke-width: 0.0;"/><text fill="#000000" font-family="sans-serif" font-size="13" lengthAdjust="spacingAndGlyphs" textLength="174" x="697.5" y="564.8249">Token bazlı kimlik doğrulama</text><ellipse cx="691" cy="578.8399" fill="#000000" rx="2.5" ry="2.5" style="stroke: #000000; stroke-width: 0.0;"/><text fill="#000000" font-family="sans-serif" font-size="13" lengthAdjust="spacingAndGlyphs" textLength="137" x="697.5" y="582.5309">Yayın kontrol metotları</text><path d="M731,273.5158 L731,354.3399 L1193,354.3399 L1193,283.5158 L1183,273.5158 L731,273.5158 " fill="#FBFB77" style="stroke: #A80036; stroke-width: 1.0;"/><path d="M1183,273.5158 L1183,283.5158 L1193,283.5158 L1183,273.5158 " fill="#FBFB77" style="stroke: #A80036; stroke-width: 1.0;"/><text fill="#000000" font-family="sans-serif" font-size="13" font-weight="bold" lengthAdjust="spacingAndGlyphs" textLength="108" x="737" y="292.4129">Kullanım Örneği</text><text fill="#000000" font-family="sans-serif" font-size="13" lengthAdjust="spacingAndGlyphs" textLength="222" x="737" y="310.1189">std::unique_ptr&lt;MediaPlayer&gt; player;</text><text fill="#000000" font-family="sans-serif" font-size="13" lengthAdjust="spacingAndGlyphs" textLength="441" x="737" y="327.8249">player = std::make_unique&lt;StreamingAdapter&gt;("eu-central-1", "token-42");</text><text fill="#000000" font-family="sans-serif" font-size="13" lengthAdjust="spacingAndGlyphs" textLength="179" x="737" y="345.5309">player-&gt;play("lofi-beats.mp3");</text><!--MD5=[1fed6834fff64a12996a8e2a6aa5f537]
reverse link MediaPlayer to LocalAudioPlayer--><path d="M103,181.0958 C103,212.1358 103,249.6958 103,276.7858 " fill="none" id="MediaPlayer&lt;-LocalAudioPlayer" style="stroke: #245B8E; stroke-width: 1.0; stroke-dasharray: 7.0,7.0;"/><polygon fill="none" points="96,180.8558,103,160.8558,110,180.8558,96,180.8558" style="stroke: #245B8E; stroke-width: 1.0;"/><text fill="#000000" font-family="sans-serif" font-size="13" lengthAdjust="spacingAndGlyphs" textLength="71" x="104" y="205.4129">implements</text><!--MD5=[1dccfa93bbc02455c4edd003e7c8b634]
reverse link MediaPlayer to StreamingAdapter--><path d="M186.65,152.9858 C249.55,175.0058 337.51,207.1158 413,239.5158 C418.73,241.9758 424.55,244.5358 430.42,247.1758 " fill="none" id="MediaPlayer&lt;-StreamingAdapter" style="stroke: #245B8E; stroke-width: 1.0; stroke-dasharray: 7.0,7.0;"/><polygon fill="none" points="184.15,159.5258,167.56,146.3458,188.75,146.3058,184.15,159.5258" style="stroke: #245B8E; stroke-width: 1.0;"/><text fill="#000000" font-family="sans-serif" font-size="13" lengthAdjust="spacingAndGlyphs" textLength="71" x="339" y="205.4129">implements</text><!--MD5=[2e12126de447958dcfe9d3bdb54adb74]
reverse link StreamingAdapter to CloudStreamingService--><path d="M563,401.7758 C563,431.6458 563,464.3758 563,491.4658 " fill="none" id="StreamingAdapter&lt;-CloudStreamingService" style="stroke: #245B8E; stroke-width: 1.0;"/><polygon fill="#245B8E" points="563,388.7258,559,394.7258,563,400.7258,567,394.7258,563,388.7258" style="stroke: #245B8E; stroke-width: 1.0;"/><text fill="#000000" font-family="sans-serif" font-size="13" lengthAdjust="spacingAndGlyphs" textLength="27" x="564" y="433.4129">uses</text><!--MD5=[1378c04108e5e7c1f5f934696a329ab2]
link MediaPlayer to GMN17--><path d="M167.56,134.4958 C279.39,152.2558 516.04,192.0058 713,239.5158 C753.64,249.3158 797.52,261.6658 836.95,273.4258 " fill="none" id="MediaPlayer-GMN17" style="stroke: #245B8E; stroke-width: 1.0; stroke-dasharray: 7.0,7.0;"/><rect fill="#DDDDDD" height="86.2717" rx="5" ry="5" style="stroke: #000000; stroke-width: 1.0;" width="318" x="884" y="660.5158"/><line style="stroke: none; stroke-width: 1.0;" x1="890" x2="999.5" y1="675.0498" y2="675.0498"/><line style="stroke: none; stroke-width: 1.0;" x1="890" x2="999.5" y1="677.0498" y2="677.0498"/><text fill="#000000" font-family="sans-serif" font-size="14" lengthAdjust="spacingAndGlyphs" textLength="79" x="1003.5" y="679.9818">Stereotipler</text><line style="stroke: none; stroke-width: 1.0;" x1="1086.5" x2="1196" y1="675.0498" y2="675.0498"/><line style="stroke: none; stroke-width: 1.0;" x1="1086.5" x2="1196" y1="677.0498" y2="677.0498"/><text fill="#000000" font-family="sans-serif" font-size="14" font-weight="bold" lengthAdjust="spacingAndGlyphs" textLength="77" x="890" y="699.5497">&lt;&lt;Target&gt;&gt;</text><text fill="#000000" font-family="sans-serif" font-size="14" lengthAdjust="spacingAndGlyphs" textLength="194" x="971" y="699.5497">: İstemcinin beklediği arayüz</text><text fill="#000000" font-family="sans-serif" font-size="14" font-weight="bold" lengthAdjust="spacingAndGlyphs" textLength="88" x="890" y="718.6176">&lt;&lt;Adapter&gt;&gt;</text><text fill="#000000" font-family="sans-serif" font-size="14" lengthAdjust="spacingAndGlyphs" textLength="137" x="982" y="718.6176">: Çevirim yapan sınıf</text><text fill="#000000" font-family="sans-serif" font-size="14" font-weight="bold" lengthAdjust="spacingAndGlyphs" textLength="90" x="890" y="737.6855">&lt;&lt;Adaptee&gt;&gt;</text><text fill="#000000" font-family="sans-serif" font-size="14" lengthAdjust="spacingAndGlyphs" textLength="212" x="984" y="737.6855">: Uyum sağlanacak mevcut sınıf</text><text fill="#888888" font-family="sans-serif" font-size="10" lengthAdjust="spacingAndGlyphs" textLength="284" x="463.5" y="766.4775">Oluşturulma: 20.10.2025 | Sürüm: 1.0.0 | Pattern: Adapter</text><!--MD5=[ff5a7641d77b7871472b81a85da58d21]
@startuml

title Bulut Akışı - Adapter Pattern

skinparam backgroundColor #FFFFFF
skinparam shadowing false
skinparam classAttributeIconSize 0

skinparam class {
    BackgroundColor #F4F8FB
    BorderColor #245B8E
    ArrowColor #245B8E
}

skinparam package {
    BackgroundColor #EFF5F9
    BorderColor #3B6A99
}


package "Yerel Oynatıcı" {
    interface MediaPlayer <<Target>> {
        + play(resource: string)
    }

    class LocalAudioPlayer <<Concrete Target>> {
        + play(resource: string)
    }
}


package "Bulut Servisi" #F7F1FF {
    class CloudStreamingService <<Adaptee>> {
        + connect(region: string)
        + authenticate(token: string)
        + startStream(trackId: string)
        + stopStream()
    }
}


class StreamingAdapter <<Adapter>> {
    - service: unique_ptr<CloudStreamingService>
    - regionEndpoint: string
    - authToken: string
    + StreamingAdapter(region: string, token: string)
    + play(resource: string)
    - prepareStream(resource: string): void
}


MediaPlayer <|.. LocalAudioPlayer : implements
MediaPlayer <|.. StreamingAdapter : implements
StreamingAdapter *- - CloudStreamingService : uses


note left of StreamingAdapter
  **Adapter Sorumlulukları**
  * Bağlantı başlatma
  * Kimlik doğrulama
  * Yayın akışını başlatma
  * İstemci arayüzünü koruma
end note

note right of CloudStreamingService
  **Adaptee Detayları**
  * Bölgesel uç noktalar
  * Token bazlı kimlik doğrulama
  * Yayın kontrol metotları
end note

note bottom of MediaPlayer
  **Kullanım Örneği**
  std::unique_ptr<MediaPlayer> player;
  player = std::make_unique<StreamingAdapter>("eu-central-1", "token-42");
  player->play("lofi-beats.mp3");
end note

legend right
  == Stereotipler ==
  <b><<Target>></b> : İstemcinin beklediği arayüz
  <b><<Adapter>></b> : Çevirim yapan sınıf
  <b><<Adaptee>></b> : Uyum sağlanacak mevcut sınıf
end legend

footer Oluşturulma: 20.10.2025 | Sürüm: 1.0.0 | Pattern: Adapter

@enduml

PlantUML version 1.2020.02(Sun Mar 01 13:22:07 TRT 2020)
(GPL source distribution)
Java Runtime: OpenJDK Runtime Environment
JVM: OpenJDK 64-Bit Server VM
Java Version: 21.0.8+9-Ubuntu-0ubuntu124.04.1
Operating System: Linux
Default Encoding: UTF-8
Language: en
Country: US
--></g></svg>