<?xml version="1.0" encoding="UTF-8" standalone="no"?><svg xmlns="http://www.w3.org/2000/svg" xmlns:xlink="http://www.w3.org/1999/xlink" contentScriptType="application/ecmascript" contentStyleType="text/css" height="1049px" preserveAspectRatio="none" style="width:1062px;height:1049px;" version="1.1" viewBox="0 0 1062 1049" width="1062px" zoomAndPan="magnify"><defs/><g><text fill="#000000" font-family="sans-serif" font-size="18" lengthAdjust="spacingAndGlyphs" textLength="385" x="337.5" y="19.2419">Bulut Akışı - Adapter Pattern Class Diyagramı</text><!--MD5=[3d9f8724ae9baf0690131975a358f238]
cluster Yerel Oynatıcı Katmanı--><polygon fill="#F0F7FA" points="22,49.0158,186,49.0158,193,74.0838,212,74.0838,212,454.0158,22,454.0158,22,49.0158" style="stroke: #2C5F7C; stroke-width: 1.5;"/><line style="stroke: #2C5F7C; stroke-width: 1.5;" x1="22" x2="193" y1="74.0838" y2="74.0838"/><text fill="#000000" font-family="sans-serif" font-size="14" font-weight="bold" lengthAdjust="spacingAndGlyphs" textLength="158" x="26" y="65.9818">Yerel Oynatıcı Katmanı</text><!--MD5=[25bd8367dabaf977224f20c63c20b856]
cluster Bulut Servisi Katmanı--><polygon fill="#F7F1FF" points="617,548.5158,771,548.5158,778,573.5838,855,573.5838,855,796.5158,617,796.5158,617,548.5158" style="stroke: #2C5F7C; stroke-width: 1.5;"/><line style="stroke: #2C5F7C; stroke-width: 1.5;" x1="617" x2="778" y1="573.5838" y2="573.5838"/><text fill="#000000" font-family="sans-serif" font-size="14" font-weight="bold" lengthAdjust="spacingAndGlyphs" textLength="148" x="621" y="565.4818">Bulut Servisi Katmanı</text><!--MD5=[d1f247606e25a773fe1415c0390605b8]
class MediaPlayer--><rect fill="#E8F4F8" height="73.6701" id="MediaPlayer" style="stroke: #2C5F7C; stroke-width: 1.5;" width="159" x="37.5" y="87.0158"/><ellipse cx="79.5" cy="108.36" fill="#B4A7E5" rx="11" ry="11" style="stroke: #2C5F7C; stroke-width: 1.0;"/><path d="M75.4219,104.1256 L75.4219,101.9693 L82.8125,101.9693 L82.8125,104.1256 L80.3438,104.1256 L80.3438,112.2037 L82.8125,112.2037 L82.8125,114.36 L75.4219,114.36 L75.4219,112.2037 L77.8906,112.2037 L77.8906,104.1256 L75.4219,104.1256 Z "/><text fill="#000000" font-family="sans-serif" font-size="12" font-style="italic" lengthAdjust="spacingAndGlyphs" textLength="47" x="109.5" y="104.8439">«Target»</text><text fill="#000000" font-family="Arial" font-size="12" font-style="italic" lengthAdjust="spacingAndGlyphs" textLength="67" x="99.5" y="121.1881">MediaPlayer</text><line style="stroke: #2C5F7C; stroke-width: 1.5;" x1="38.5" x2="195.5" y1="129.7041" y2="129.7041"/><text fill="#000000" font-family="sans-serif" font-size="11" lengthAdjust="spacingAndGlyphs" textLength="147" x="43.5" y="145.463">+play(resource: String): void</text><line style="stroke: #2C5F7C; stroke-width: 1.5;" x1="38.5" x2="195.5" y1="152.686" y2="152.686"/><!--MD5=[843b2aefe58c8e8717d871acf3483ce7]
class LocalAudioPlayer--><rect fill="#E8F4F8" height="148.5796" id="LocalAudioPlayer" style="stroke: #2C5F7C; stroke-width: 1.5;" width="159" x="37.5" y="289.0158"/><ellipse cx="66.45" cy="310.36" fill="#ADD1B2" rx="11" ry="11" style="stroke: #2C5F7C; stroke-width: 1.0;"/><path d="M69.4188,316.0006 Q68.8406,316.2975 68.2,316.4381 Q67.5594,316.5943 66.8563,316.5943 Q64.3563,316.5943 63.0281,314.9537 Q61.7156,313.2975 61.7156,310.1725 Q61.7156,307.0475 63.0281,305.3912 Q64.3563,303.735 66.8563,303.735 Q67.5594,303.735 68.2,303.8912 Q68.8563,304.0475 69.4188,304.3443 L69.4188,307.0631 Q68.7938,306.485 68.2,306.2193 Q67.6063,305.9381 66.9813,305.9381 Q65.6375,305.9381 64.95,307.0162 Q64.2625,308.0787 64.2625,310.1725 Q64.2625,312.2662 64.95,313.3443 Q65.6375,314.4068 66.9813,314.4068 Q67.6063,314.4068 68.2,314.1412 Q68.7938,313.86 69.4188,313.2818 L69.4188,316.0006 Z "/><text fill="#000000" font-family="sans-serif" font-size="12" font-style="italic" lengthAdjust="spacingAndGlyphs" textLength="97" x="83.05" y="306.8439">«Concrete Target»</text><text fill="#000000" font-family="Arial" font-size="12" lengthAdjust="spacingAndGlyphs" textLength="96" x="83.55" y="323.1881">LocalAudioPlayer</text><line style="stroke: #2C5F7C; stroke-width: 1.5;" x1="38.5" x2="195.5" y1="331.7041" y2="331.7041"/><text fill="#000000" font-family="sans-serif" font-size="11" lengthAdjust="spacingAndGlyphs" textLength="63" x="43.5" y="347.463">-volume: int</text><text fill="#000000" font-family="sans-serif" font-size="11" lengthAdjust="spacingAndGlyphs" textLength="100" x="43.5" y="362.4449">-isPlaying: boolean</text><line style="stroke: #2C5F7C; stroke-width: 1.5;" x1="38.5" x2="195.5" y1="369.6679" y2="369.6679"/><text fill="#000000" font-family="sans-serif" font-size="11" lengthAdjust="spacingAndGlyphs" textLength="103" x="43.5" y="385.4268">+LocalAudioPlayer()</text><text fill="#000000" font-family="sans-serif" font-size="11" lengthAdjust="spacingAndGlyphs" textLength="147" x="43.5" y="400.4087">+play(resource: String): void</text><text fill="#000000" font-family="sans-serif" font-size="11" lengthAdjust="spacingAndGlyphs" textLength="64" x="43.5" y="415.3905">+stop(): void</text><text fill="#000000" font-family="sans-serif" font-size="11" lengthAdjust="spacingAndGlyphs" textLength="140" x="43.5" y="430.3724">+setVolume(level: int): void</text><!--MD5=[9a9440a6654fe5c96532af07f58f2a8a]
class CloudStreamingService--><rect fill="#E8F4F8" height="193.5252" id="CloudStreamingService" style="stroke: #2C5F7C; stroke-width: 1.5;" width="206" x="633" y="586.5158"/><ellipse cx="667.35" cy="607.86" fill="#ADD1B2" rx="11" ry="11" style="stroke: #2C5F7C; stroke-width: 1.0;"/><path d="M670.3188,613.5006 Q669.7406,613.7975 669.1,613.9381 Q668.4594,614.0943 667.7563,614.0943 Q665.2563,614.0943 663.9281,612.4537 Q662.6156,610.7975 662.6156,607.6725 Q662.6156,604.5475 663.9281,602.8912 Q665.2563,601.235 667.7563,601.235 Q668.4594,601.235 669.1,601.3912 Q669.7563,601.5475 670.3188,601.8443 L670.3188,604.5631 Q669.6938,603.985 669.1,603.7193 Q668.5063,603.4381 667.8813,603.4381 Q666.5375,603.4381 665.85,604.5162 Q665.1625,605.5787 665.1625,607.6725 Q665.1625,609.7662 665.85,610.8443 Q666.5375,611.9068 667.8813,611.9068 Q668.5063,611.9068 669.1,611.6412 Q669.6938,611.36 670.3188,610.7818 L670.3188,613.5006 Z "/><text fill="#000000" font-family="sans-serif" font-size="12" font-style="italic" lengthAdjust="spacingAndGlyphs" textLength="56" x="723.15" y="604.3439">«Adaptee»</text><text fill="#000000" font-family="Arial" font-size="12" lengthAdjust="spacingAndGlyphs" textLength="131" x="685.65" y="620.6881">CloudStreamingService</text><line style="stroke: #2C5F7C; stroke-width: 1.5;" x1="634" x2="838" y1="629.2041" y2="629.2041"/><text fill="#000000" font-family="sans-serif" font-size="11" lengthAdjust="spacingAndGlyphs" textLength="143" x="639" y="644.963">-connectionStatus: boolean</text><text fill="#000000" font-family="sans-serif" font-size="11" lengthAdjust="spacingAndGlyphs" textLength="118" x="639" y="659.9449">-currentRegion: String</text><text fill="#000000" font-family="sans-serif" font-size="11" lengthAdjust="spacingAndGlyphs" textLength="134" x="639" y="674.9268">-isAuthenticated: boolean</text><line style="stroke: #2C5F7C; stroke-width: 1.5;" x1="634" x2="838" y1="682.1497" y2="682.1497"/><text fill="#000000" font-family="sans-serif" font-size="11" lengthAdjust="spacingAndGlyphs" textLength="134" x="639" y="697.9087">+CloudStreamingService()</text><text fill="#000000" font-family="sans-serif" font-size="11" lengthAdjust="spacingAndGlyphs" textLength="175" x="639" y="712.8905">+connect(region: String): boolean</text><text fill="#000000" font-family="sans-serif" font-size="11" lengthAdjust="spacingAndGlyphs" textLength="194" x="639" y="727.8724">+authenticate(token: String): boolean</text><text fill="#000000" font-family="sans-serif" font-size="11" lengthAdjust="spacingAndGlyphs" textLength="177" x="639" y="742.8543">+startStream(trackId: String): void</text><text fill="#000000" font-family="sans-serif" font-size="11" lengthAdjust="spacingAndGlyphs" textLength="101" x="639" y="757.8362">+stopStream(): void</text><text fill="#000000" font-family="sans-serif" font-size="11" lengthAdjust="spacingAndGlyphs" textLength="136" x="639" y="772.8181">+getStreamStatus(): String</text><!--MD5=[066904f1b295e232033ee39b7e0366f4]
class StreamingAdapter--><rect fill="#E8F4F8" height="208.5071" id="StreamingAdapter" style="stroke: #2C5F7C; stroke-width: 1.5;" width="267" x="602.5" y="259.0158"/><ellipse cx="680.25" cy="280.36" fill="#ADD1B2" rx="11" ry="11" style="stroke: #2C5F7C; stroke-width: 1.0;"/><path d="M683.2188,286.0006 Q682.6406,286.2975 682,286.4381 Q681.3594,286.5943 680.6563,286.5943 Q678.1563,286.5943 676.8281,284.9537 Q675.5156,283.2975 675.5156,280.1725 Q675.5156,277.0475 676.8281,275.3912 Q678.1563,273.735 680.6563,273.735 Q681.3594,273.735 682,273.8912 Q682.6563,274.0475 683.2188,274.3443 L683.2188,277.0631 Q682.5938,276.485 682,276.2193 Q681.4063,275.9381 680.7813,275.9381 Q679.4375,275.9381 678.75,277.0162 Q678.0625,278.0787 678.0625,280.1725 Q678.0625,282.2662 678.75,283.3443 Q679.4375,284.4068 680.7813,284.4068 Q681.4063,284.4068 682,284.1412 Q682.5938,283.86 683.2188,283.2818 L683.2188,286.0006 Z "/><text fill="#000000" font-family="sans-serif" font-size="12" font-style="italic" lengthAdjust="spacingAndGlyphs" textLength="55" x="724.75" y="276.8439">«Adapter»</text><text fill="#000000" font-family="Arial" font-size="12" lengthAdjust="spacingAndGlyphs" textLength="103" x="700.75" y="293.1881">StreamingAdapter</text><line style="stroke: #2C5F7C; stroke-width: 1.5;" x1="603.5" x2="868.5" y1="301.7041" y2="301.7041"/><text fill="#000000" font-family="sans-serif" font-size="11" lengthAdjust="spacingAndGlyphs" textLength="238" x="608.5" y="317.463">-service: unique_ptr&lt;CloudStreamingService&gt;</text><text fill="#000000" font-family="sans-serif" font-size="11" lengthAdjust="spacingAndGlyphs" textLength="125" x="608.5" y="332.4449">-regionEndpoint: String</text><text fill="#000000" font-family="sans-serif" font-size="11" lengthAdjust="spacingAndGlyphs" textLength="98" x="608.5" y="347.4268">-authToken: String</text><text fill="#000000" font-family="sans-serif" font-size="11" lengthAdjust="spacingAndGlyphs" textLength="117" x="608.5" y="362.4087">-isConnected: boolean</text><line style="stroke: #2C5F7C; stroke-width: 1.5;" x1="603.5" x2="868.5" y1="369.6316" y2="369.6316"/><text fill="#000000" font-family="sans-serif" font-size="11" lengthAdjust="spacingAndGlyphs" textLength="255" x="608.5" y="385.3905">+StreamingAdapter(region: String, token: String)</text><text fill="#000000" font-family="sans-serif" font-size="11" lengthAdjust="spacingAndGlyphs" textLength="114" x="608.5" y="400.3724">+~StreamingAdapter()</text><text fill="#000000" font-family="sans-serif" font-size="11" lengthAdjust="spacingAndGlyphs" textLength="147" x="608.5" y="415.3543">+play(resource: String): void</text><text fill="#000000" font-family="sans-serif" font-size="11" lengthAdjust="spacingAndGlyphs" textLength="202" x="608.5" y="430.3362">-prepareStream(resource: String): void</text><text fill="#000000" font-family="sans-serif" font-size="11" lengthAdjust="spacingAndGlyphs" textLength="155" x="608.5" y="445.3181">-ensureConnection(): boolean</text><text fill="#000000" font-family="sans-serif" font-size="11" lengthAdjust="spacingAndGlyphs" textLength="220" x="608.5" y="460.3">-parseResourceId(resource: String): String</text><path d="M231,83.5158 L231,120.0158 L196.95,124.0158 L231,128.0158 L231,164.3399 A0,0 0 0 0 231,164.3399 L479,164.3399 A0,0 0 0 0 479,164.3399 L479,93.5158 L469,83.5158 L231,83.5158 A0,0 0 0 0 231,83.5158 " fill="#FFF9E6" style="stroke: #CC8800; stroke-width: 1.0;"/><path d="M469,83.5158 L469,93.5158 L479,93.5158 L469,83.5158 " fill="#FFF9E6" style="stroke: #CC8800; stroke-width: 1.0;"/><text fill="#000000" font-family="sans-serif" font-size="13" font-weight="bold" lengthAdjust="spacingAndGlyphs" textLength="109" x="237" y="102.4129">Target Interface</text><ellipse cx="242.5" cy="116.4279" fill="#000000" rx="2.5" ry="2.5" style="stroke: #000000; stroke-width: 0.0;"/><text fill="#000000" font-family="sans-serif" font-size="13" lengthAdjust="spacingAndGlyphs" textLength="215" x="249" y="120.1189">istemcinin beklediği standart arayüz</text><ellipse cx="242.5" cy="134.1339" fill="#000000" rx="2.5" ry="2.5" style="stroke: #000000; stroke-width: 0.0;"/><text fill="#000000" font-family="sans-serif" font-size="13" lengthAdjust="spacingAndGlyphs" textLength="209" x="249" y="137.8249">tüm oynatıcılar bu arayüzü uygular</text><ellipse cx="242.5" cy="151.8399" fill="#000000" rx="2.5" ry="2.5" style="stroke: #000000; stroke-width: 0.0;"/><text fill="#000000" font-family="sans-serif" font-size="13" lengthAdjust="spacingAndGlyphs" textLength="147" x="249" y="155.5309">basit ve tutarlı API sağlar</text><path d="M231,243.5158 L231,483.6941 A0,0 0 0 0 231,483.6941 L567,483.6941 A0,0 0 0 0 567,483.6941 L567,367.5158 L602.45,363.5158 L567,359.5158 L567,253.5158 L557,243.5158 L231,243.5158 A0,0 0 0 0 231,243.5158 " fill="#FFF9E6" style="stroke: #CC8800; stroke-width: 1.0;"/><path d="M557,243.5158 L557,253.5158 L567,253.5158 L557,243.5158 " fill="#FFF9E6" style="stroke: #CC8800; stroke-width: 1.0;"/><text fill="#000000" font-family="sans-serif" font-size="13" font-weight="bold" lengthAdjust="spacingAndGlyphs" textLength="155" x="237" y="262.4129">Adapter Sorumlulukları</text><text fill="#000000" font-family="sans-serif" font-size="13" lengthAdjust="spacingAndGlyphs" textLength="118" x="237" y="280.1189">1. Bağlantı yönetimi</text><text fill="#000000" font-family="sans-serif" font-size="13" lengthAdjust="spacingAndGlyphs" textLength="118" x="237" y="297.8249">2. Kimlik doğrulama</text><text fill="#000000" font-family="sans-serif" font-size="13" lengthAdjust="spacingAndGlyphs" textLength="122" x="237" y="315.5309">3. Kaynak ID çevirimi</text><text fill="#000000" font-family="sans-serif" font-size="13" lengthAdjust="spacingAndGlyphs" textLength="98" x="237" y="333.2369">4. Hata yönetimi</text><text fill="#000000" font-family="sans-serif" font-size="13" lengthAdjust="spacingAndGlyphs" textLength="173" x="237" y="350.9429">5. İstemci arayüzünü koruma</text><text fill="#000000" font-family="sans-serif" font-size="13" lengthAdjust="spacingAndGlyphs" textLength="0" x="240" y="368.649"/><text fill="#000000" font-family="sans-serif" font-size="13" font-weight="bold" lengthAdjust="spacingAndGlyphs" textLength="108" x="237" y="386.355">Örnek Kullanım:</text><text fill="#000000" font-family="sans-serif" font-size="13" lengthAdjust="spacingAndGlyphs" textLength="315" x="237" y="404.061">auto player = std::make_unique&lt;StreamingAdapter&gt;(</text><text fill="#000000" font-family="sans-serif" font-size="13" lengthAdjust="spacingAndGlyphs" textLength="84" x="249" y="421.767">"eu-central-1",</text><text fill="#000000" font-family="sans-serif" font-size="13" lengthAdjust="spacingAndGlyphs" textLength="63" x="249" y="439.473">"token-42"</text><text fill="#000000" font-family="sans-serif" font-size="13" lengthAdjust="spacingAndGlyphs" textLength="7" x="237" y="457.179">);</text><text fill="#000000" font-family="sans-serif" font-size="13" lengthAdjust="spacingAndGlyphs" textLength="179" x="237" y="474.8851">player-&gt;play("lofi-beats.mp3");</text><path d="M874.5,590.0158 L874.5,679.5158 L839.2,683.5158 L874.5,687.5158 L874.5,777.076 A0,0 0 0 0 874.5,777.076 L1041.5,777.076 A0,0 0 0 0 1041.5,777.076 L1041.5,600.0158 L1031.5,590.0158 L874.5,590.0158 A0,0 0 0 0 874.5,590.0158 " fill="#FFF9E6" style="stroke: #CC8800; stroke-width: 1.0;"/><path d="M1031.5,590.0158 L1031.5,600.0158 L1041.5,600.0158 L1031.5,590.0158 " fill="#FFF9E6" style="stroke: #CC8800; stroke-width: 1.0;"/><text fill="#000000" font-family="sans-serif" font-size="13" font-weight="bold" lengthAdjust="spacingAndGlyphs" textLength="124" x="880.5" y="608.9129">Adaptee Özellikleri</text><ellipse cx="886" cy="622.9279" fill="#000000" rx="2.5" ry="2.5" style="stroke: #000000; stroke-width: 0.0;"/><text fill="#000000" font-family="sans-serif" font-size="13" lengthAdjust="spacingAndGlyphs" textLength="120" x="892.5" y="626.6189">Bölgesel uç noktalar</text><ellipse cx="886" cy="640.6339" fill="#000000" rx="2.5" ry="2.5" style="stroke: #000000; stroke-width: 0.0;"/><text fill="#000000" font-family="sans-serif" font-size="13" lengthAdjust="spacingAndGlyphs" textLength="98" x="892.5" y="644.3249">Token bazlı auth</text><ellipse cx="886" cy="658.3399" fill="#000000" rx="2.5" ry="2.5" style="stroke: #000000; stroke-width: 0.0;"/><text fill="#000000" font-family="sans-serif" font-size="13" lengthAdjust="spacingAndGlyphs" textLength="78" x="892.5" y="662.0309">Karmaşık API</text><ellipse cx="886" cy="676.0459" fill="#000000" rx="2.5" ry="2.5" style="stroke: #000000; stroke-width: 0.0;"/><text fill="#000000" font-family="sans-serif" font-size="13" lengthAdjust="spacingAndGlyphs" textLength="117" x="892.5" y="679.7369">Farklı metot isimleri</text><text fill="#000000" font-family="sans-serif" font-size="13" lengthAdjust="spacingAndGlyphs" textLength="0" x="883.5" y="697.4429"/><text fill="#000000" font-family="sans-serif" font-size="13" font-weight="bold" lengthAdjust="spacingAndGlyphs" textLength="146" x="880.5" y="715.149">Desteklenen Bölgeler:</text><text fill="#000000" font-family="sans-serif" font-size="13" lengthAdjust="spacingAndGlyphs" textLength="78" x="880.5" y="732.855">- eu-central-1</text><text fill="#000000" font-family="sans-serif" font-size="13" lengthAdjust="spacingAndGlyphs" textLength="61" x="880.5" y="750.561">- us-east-1</text><text fill="#000000" font-family="sans-serif" font-size="13" lengthAdjust="spacingAndGlyphs" textLength="97" x="880.5" y="768.267">- ap-southeast-1</text><path d="M15,643.0158 L15,723.8399 A0,0 0 0 0 15,723.8399 L219,723.8399 A0,0 0 0 0 219,723.8399 L219,653.0158 L209,643.0158 L121,643.0158 L117,438.2658 L113,643.0158 L15,643.0158 A0,0 0 0 0 15,643.0158 " fill="#FFF9E6" style="stroke: #CC8800; stroke-width: 1.0;"/><path d="M209,643.0158 L209,653.0158 L219,653.0158 L209,643.0158 " fill="#FFF9E6" style="stroke: #CC8800; stroke-width: 1.0;"/><text fill="#000000" font-family="sans-serif" font-size="13" font-weight="bold" lengthAdjust="spacingAndGlyphs" textLength="92" x="21" y="661.9129">Yerel Oynatıcı</text><ellipse cx="26.5" cy="675.9279" fill="#000000" rx="2.5" ry="2.5" style="stroke: #000000; stroke-width: 0.0;"/><text fill="#000000" font-family="sans-serif" font-size="13" lengthAdjust="spacingAndGlyphs" textLength="159" x="33" y="679.6189">Dosya sisteminden oynatır</text><ellipse cx="26.5" cy="693.6339" fill="#000000" rx="2.5" ry="2.5" style="stroke: #000000; stroke-width: 0.0;"/><text fill="#000000" font-family="sans-serif" font-size="13" lengthAdjust="spacingAndGlyphs" textLength="171" x="33" y="697.3249">Adapter pattern gerektirmez</text><ellipse cx="26.5" cy="711.3399" fill="#000000" rx="2.5" ry="2.5" style="stroke: #000000; stroke-width: 0.0;"/><text fill="#000000" font-family="sans-serif" font-size="13" lengthAdjust="spacingAndGlyphs" textLength="92" x="33" y="715.0309">Basit uygulama</text><!--MD5=[1fed6834fff64a12996a8e2a6aa5f537]
reverse link MediaPlayer to LocalAudioPlayer--><path d="M117,181.2958 C117,213.4058 117,254.0358 117,288.6858 " fill="none" id="MediaPlayer&lt;-LocalAudioPlayer" style="stroke: #2C5F7C; stroke-width: 1.0; stroke-dasharray: 7.0,7.0;"/><polygon fill="none" points="110,181.0858,117,161.0858,124,181.0858,110,181.0858" style="stroke: #2C5F7C; stroke-width: 1.0;"/><text fill="#000000" font-family="sans-serif" font-size="13" lengthAdjust="spacingAndGlyphs" textLength="46" x="118" y="209.4129">uygular</text><!--MD5=[1dccfa93bbc02455c4edd003e7c8b634]
reverse link MediaPlayer to StreamingAdapter--><path d="M216,164.8558 C378.43,211.3758 436.93,174.8158 584,243.5158 C593.56,247.9858 603.08,253.1558 612.41,258.7858 " fill="none" id="MediaPlayer&lt;-StreamingAdapter" style="stroke: #2C5F7C; stroke-width: 1.0; stroke-dasharray: 7.0,7.0;"/><polygon fill="none" points="213.9,171.5258,196.75,159.0958,217.92,158.1158,213.9,171.5258" style="stroke: #2C5F7C; stroke-width: 1.0;"/><text fill="#000000" font-family="sans-serif" font-size="13" lengthAdjust="spacingAndGlyphs" textLength="46" x="504" y="209.4129">uygular</text><!--MD5=[2e12126de447958dcfe9d3bdb54adb74]
reverse link StreamingAdapter to CloudStreamingService--><path d="M736,481.3058 C736,515.9058 736,553.3858 736,586.5158 " fill="none" id="StreamingAdapter&lt;-CloudStreamingService" style="stroke: #2C5F7C; stroke-width: 1.0;"/><polygon fill="#FFFFFF" points="736,468.2058,732,474.2058,736,480.2058,740,474.2058,736,468.2058" style="stroke: #2C5F7C; stroke-width: 1.0;"/><text fill="#000000" font-family="sans-serif" font-size="13" lengthAdjust="spacingAndGlyphs" textLength="44" x="737" y="528.4129">kullanır</text><rect fill="#DDDDDD" height="185.6113" rx="5" ry="5" style="stroke: #000000; stroke-width: 1.0;" width="381" x="670" y="830.5158"/><text fill="#000000" font-family="sans-serif" font-size="14" font-weight="bold" lengthAdjust="spacingAndGlyphs" textLength="64" x="680" y="852.4818">Stereotip</text><text fill="#000000" font-family="sans-serif" font-size="14" font-weight="bold" lengthAdjust="spacingAndGlyphs" textLength="64" x="828" y="852.4818">Açıklama</text><text fill="#000000" font-family="sans-serif" font-size="14" lengthAdjust="spacingAndGlyphs" textLength="76" x="680" y="871.5497">&lt;&lt;Target&gt;&gt;</text><text fill="#000000" font-family="sans-serif" font-size="14" lengthAdjust="spacingAndGlyphs" textLength="186" x="828" y="871.5497">İstemcinin beklediği arayüz</text><text fill="#000000" font-family="sans-serif" font-size="14" lengthAdjust="spacingAndGlyphs" textLength="86" x="680" y="890.6176">&lt;&lt;Adapter&gt;&gt;</text><text fill="#000000" font-family="sans-serif" font-size="14" lengthAdjust="spacingAndGlyphs" textLength="129" x="828" y="890.6176">Çevirim yapan sınıf</text><text fill="#000000" font-family="sans-serif" font-size="14" lengthAdjust="spacingAndGlyphs" textLength="88" x="680" y="909.6855">&lt;&lt;Adaptee&gt;&gt;</text><text fill="#000000" font-family="sans-serif" font-size="14" lengthAdjust="spacingAndGlyphs" textLength="204" x="828" y="909.6855">Uyum sağlanacak mevcut sınıf</text><text fill="#000000" font-family="sans-serif" font-size="14" lengthAdjust="spacingAndGlyphs" textLength="140" x="680" y="928.7534">&lt;&lt;Concrete Target&gt;&gt;</text><text fill="#000000" font-family="sans-serif" font-size="14" lengthAdjust="spacingAndGlyphs" textLength="213" x="828" y="928.7534">Target'ın doğrudan uygulaması</text><line style="stroke: #000000; stroke-width: 1.0;" x1="676" x2="1045" y1="837.5158" y2="837.5158"/><line style="stroke: #000000; stroke-width: 1.0;" x1="676" x2="1045" y1="856.5838" y2="856.5838"/><line style="stroke: #000000; stroke-width: 1.0;" x1="676" x2="1045" y1="875.6517" y2="875.6517"/><line style="stroke: #000000; stroke-width: 1.0;" x1="676" x2="1045" y1="894.7196" y2="894.7196"/><line style="stroke: #000000; stroke-width: 1.0;" x1="676" x2="1045" y1="913.7875" y2="913.7875"/><line style="stroke: #000000; stroke-width: 1.0;" x1="676" x2="1045" y1="932.8554" y2="932.8554"/><line style="stroke: #000000; stroke-width: 1.0;" x1="676" x2="676" y1="837.5158" y2="932.8554"/><line style="stroke: #000000; stroke-width: 1.0;" x1="824" x2="824" y1="837.5158" y2="932.8554"/><line style="stroke: #000000; stroke-width: 1.0;" x1="1045" x2="1045" y1="837.5158" y2="932.8554"/><text fill="#000000" font-family="sans-serif" font-size="14" lengthAdjust="spacingAndGlyphs" textLength="0" x="680" y="949.8214"/><text fill="#000000" font-family="sans-serif" font-size="14" font-weight="bold" lengthAdjust="spacingAndGlyphs" textLength="86" x="676" y="968.8893">İlişki Türleri:</text><text fill="#000000" font-family="sans-serif" font-size="14" lengthAdjust="spacingAndGlyphs" textLength="164" x="676" y="987.9572">&lt;|.. : Arayüz uygulaması</text><text fill="#000000" font-family="sans-serif" font-size="14" lengthAdjust="spacingAndGlyphs" textLength="143" x="676" y="1007.0251">o-- : Bileşim (sahiplik)</text><text fill="#888888" font-family="sans-serif" font-size="10" lengthAdjust="spacingAndGlyphs" textLength="448" x="306" y="1035.8171">Oluşturulma: 20.10.2025 | Sürüm: 1.0.0 | Pattern: Adapter (Structural) | Modül: MediaPlayer</text><!--MD5=[7a9210cb7954534d1f2e635bbf3b0bf2]
@startuml

title Bulut Akışı - Adapter Pattern Class Diyagramı

skinparam backgroundColor #FFFFFF
skinparam shadowing false
skinparam classAttributeIconSize 0

skinparam class {
    BackgroundColor #E8F4F8
    BorderColor #2C5F7C
    ArrowColor #2C5F7C
    FontName Arial
    FontSize 12
}

skinparam package {
    BackgroundColor #F0F7FA
    BorderColor #2C5F7C
    FontStyle bold
}

skinparam note {
    BackgroundColor #FFF9E6
    BorderColor #CC8800
}


package "Yerel Oynatıcı Katmanı" {
    interface MediaPlayer <<Target>> {
        +play(resource: String): void
        __
    }

    class LocalAudioPlayer <<Concrete Target>> {
        -volume: int
        -isPlaying: boolean
        __
        +LocalAudioPlayer()
        +play(resource: String): void
        +stop(): void
        +setVolume(level: int): void
    }
}


package "Bulut Servisi Katmanı" #F7F1FF {
    class CloudStreamingService <<Adaptee>> {
        -connectionStatus: boolean
        -currentRegion: String
        -isAuthenticated: boolean
        __
        +CloudStreamingService()
        +connect(region: String): boolean
        +authenticate(token: String): boolean
        +startStream(trackId: String): void
        +stopStream(): void
        +getStreamStatus(): String
    }
}


class StreamingAdapter <<Adapter>> {
    -service: unique_ptr<CloudStreamingService>
    -regionEndpoint: String
    -authToken: String
    -isConnected: boolean
    __
    +StreamingAdapter(region: String, token: String)
    +~StreamingAdapter()
    +play(resource: String): void
    -prepareStream(resource: String): void
    -ensureConnection(): boolean
    -parseResourceId(resource: String): String
}


MediaPlayer <|.. LocalAudioPlayer : uygular
MediaPlayer <|.. StreamingAdapter : uygular
StreamingAdapter o- - CloudStreamingService : kullanır

note right of MediaPlayer
  **Target Interface**
  * istemcinin beklediği standart arayüz
  * tüm oynatıcılar bu arayüzü uygular
  * basit ve tutarlı API sağlar
end note

note left of StreamingAdapter
  **Adapter Sorumlulukları**
  1. Bağlantı yönetimi
  2. Kimlik doğrulama
  3. Kaynak ID çevirimi
  4. Hata yönetimi
  5. İstemci arayüzünü koruma
  
  **Örnek Kullanım:**
  auto player = std::make_unique<StreamingAdapter>(
      "eu-central-1", 
      "token-42"
  );
  player->play("lofi-beats.mp3");
end note

note right of CloudStreamingService
  **Adaptee Özellikleri**
  * Bölgesel uç noktalar
  * Token bazlı auth
  * Karmaşık API
  * Farklı metot isimleri
  
  **Desteklenen Bölgeler:**
  - eu-central-1
  - us-east-1
  - ap-southeast-1
end note

note bottom of LocalAudioPlayer
  **Yerel Oynatıcı**
  * Dosya sisteminden oynatır
  * Adapter pattern gerektirmez
  * Basit uygulama
end note

legend right
  |= Stereotip |= Açıklama |
  | <<Target>> | İstemcinin beklediği arayüz |
  | <<Adapter>> | Çevirim yapan sınıf |
  | <<Adaptee>> | Uyum sağlanacak mevcut sınıf |
  | <<Concrete Target>> | Target'ın doğrudan uygulaması |
  
  **İlişki Türleri:**
  <|.. : Arayüz uygulaması
  o- - : Bileşim (sahiplik)
endlegend

footer Oluşturulma: 20.10.2025 | Sürüm: 1.0.0 | Pattern: Adapter (Structural) | Modül: MediaPlayer

@enduml

PlantUML version 1.2020.02(Sun Mar 01 13:22:07 TRT 2020)
(GPL source distribution)
Java Runtime: OpenJDK Runtime Environment
JVM: OpenJDK 64-Bit Server VM
Java Version: 21.0.8+9-Ubuntu-0ubuntu124.04.1
Operating System: Linux
Default Encoding: UTF-8
Language: en
Country: US
--></g></svg>