<?xml version="1.0" encoding="UTF-8" standalone="no"?><svg xmlns="http://www.w3.org/2000/svg" xmlns:xlink="http://www.w3.org/1999/xlink" contentScriptType="application/ecmascript" contentStyleType="text/css" height="656px" preserveAspectRatio="none" style="width:1184px;height:656px;" version="1.1" viewBox="0 0 1184 656" width="1184px" zoomAndPan="magnify"><defs/><g><text fill="#000000" font-family="sans-serif" font-size="18" lengthAdjust="spacingAndGlyphs" textLength="394" x="401.5" y="19.2419">Builder Pattern - İki Yaklaşımın Karşılaştırması</text><!--MD5=[dabbd6c4c0f25846d12a76c089dc2731]
cluster Basit Yaklaşım (Yönlendirici Yok)--><polygon fill="#E8F4F8" points="273.5,63.5158,507.5,63.5158,514.5,88.5838,753.5,88.5838,753.5,480.5158,273.5,480.5158,273.5,63.5158" style="stroke: #000000; stroke-width: 1.5;"/><line style="stroke: #000000; stroke-width: 1.5;" x1="273.5" x2="514.5" y1="88.5838" y2="88.5838"/><text fill="#000000" font-family="sans-serif" font-size="14" font-weight="bold" lengthAdjust="spacingAndGlyphs" textLength="228" x="277.5" y="80.4818">Basit Yaklaşım (Yönlendirici Yok)</text><!--MD5=[647f92f70e3e3ae9a64480d378a93f7b]
cluster Klasik Yaklaşım (Yönlendirici Var)--><polygon fill="#FFE8CC" points="777.5,48.5158,1014.5,48.5158,1021.5,73.5838,1162.5,73.5838,1162.5,606.5158,777.5,606.5158,777.5,48.5158" style="stroke: #000000; stroke-width: 1.5;"/><line style="stroke: #000000; stroke-width: 1.5;" x1="777.5" x2="1021.5" y1="73.5838" y2="73.5838"/><text fill="#000000" font-family="sans-serif" font-size="14" font-weight="bold" lengthAdjust="spacingAndGlyphs" textLength="231" x="781.5" y="65.4818">Klasik Yaklaşım (Yönlendirici Var)</text><!--MD5=[d0db63e1e01278479bf88ebb80954370]
class CB1--><rect fill="#FEFECE" height="62.9819" id="CB1" style="stroke: #A80036; stroke-width: 1.5;" width="128" x="429.5" y="101.5158"/><ellipse cx="444.5" cy="117.5158" fill="#ADD1B2" rx="11" ry="11" style="stroke: #A80036; stroke-width: 1.0;"/><path d="M447.4688,123.1565 Q446.8906,123.4533 446.25,123.594 Q445.6094,123.7502 444.9063,123.7502 Q442.4063,123.7502 441.0781,122.1096 Q439.7656,120.4533 439.7656,117.3283 Q439.7656,114.2033 441.0781,112.5471 Q442.4063,110.8908 444.9063,110.8908 Q445.6094,110.8908 446.25,111.0471 Q446.9063,111.2033 447.4688,111.5002 L447.4688,114.219 Q446.8438,113.6408 446.25,113.3752 Q445.6563,113.094 445.0313,113.094 Q443.6875,113.094 443,114.1721 Q442.3125,115.2346 442.3125,117.3283 Q442.3125,119.4221 443,120.5002 Q443.6875,121.5627 445.0313,121.5627 Q445.6563,121.5627 446.25,121.2971 Q446.8438,121.0158 447.4688,120.4377 L447.4688,123.1565 Z "/><text fill="#000000" font-family="sans-serif" font-size="12" lengthAdjust="spacingAndGlyphs" textLength="96" x="458.5" y="122.1719">ComputerBuilder</text><line style="stroke: #A80036; stroke-width: 1.5;" x1="430.5" x2="556.5" y1="133.5158" y2="133.5158"/><line style="stroke: #A80036; stroke-width: 1.5;" x1="430.5" x2="556.5" y1="141.5158" y2="141.5158"/><ellipse cx="440.5" cy="152.5158" fill="#84BE84" rx="3" ry="3" style="stroke: #038048; stroke-width: 1.0;"/><text fill="#000000" font-family="sans-serif" font-size="11" lengthAdjust="spacingAndGlyphs" textLength="92" x="449.5" y="157.2748">build(): Computer</text><!--MD5=[491028eadc339fc13e38d488f5eb8f8c]
class GB1--><rect fill="#FEFECE" height="48" id="GB1" style="stroke: #A80036; stroke-width: 1.5;" width="116" x="289.5" y="356.0158"/><ellipse cx="304.5" cy="372.0158" fill="#ADD1B2" rx="11" ry="11" style="stroke: #A80036; stroke-width: 1.0;"/><path d="M307.4688,377.6565 Q306.8906,377.9533 306.25,378.094 Q305.6094,378.2502 304.9063,378.2502 Q302.4063,378.2502 301.0781,376.6096 Q299.7656,374.9533 299.7656,371.8283 Q299.7656,368.7033 301.0781,367.0471 Q302.4063,365.3908 304.9063,365.3908 Q305.6094,365.3908 306.25,365.5471 Q306.9063,365.7033 307.4688,366.0002 L307.4688,368.719 Q306.8438,368.1408 306.25,367.8752 Q305.6563,367.594 305.0313,367.594 Q303.6875,367.594 303,368.6721 Q302.3125,369.7346 302.3125,371.8283 Q302.3125,373.9221 303,375.0002 Q303.6875,376.0627 305.0313,376.0627 Q305.6563,376.0627 306.25,375.7971 Q306.8438,375.5158 307.4688,374.9377 L307.4688,377.6565 Z "/><text fill="#000000" font-family="sans-serif" font-size="12" lengthAdjust="spacingAndGlyphs" textLength="84" x="318.5" y="376.6719">GamingBuilder</text><line style="stroke: #A80036; stroke-width: 1.5;" x1="290.5" x2="404.5" y1="388.0158" y2="388.0158"/><line style="stroke: #A80036; stroke-width: 1.5;" x1="290.5" x2="404.5" y1="396.0158" y2="396.0158"/><!--MD5=[81cce4954babbc82417e281193a9d0a5]
class OB1--><rect fill="#FEFECE" height="48" id="OB1" style="stroke: #A80036; stroke-width: 1.5;" width="105" x="441" y="356.0158"/><ellipse cx="456" cy="372.0158" fill="#ADD1B2" rx="11" ry="11" style="stroke: #A80036; stroke-width: 1.0;"/><path d="M458.9688,377.6565 Q458.3906,377.9533 457.75,378.094 Q457.1094,378.2502 456.4063,378.2502 Q453.9063,378.2502 452.5781,376.6096 Q451.2656,374.9533 451.2656,371.8283 Q451.2656,368.7033 452.5781,367.0471 Q453.9063,365.3908 456.4063,365.3908 Q457.1094,365.3908 457.75,365.5471 Q458.4063,365.7033 458.9688,366.0002 L458.9688,368.719 Q458.3438,368.1408 457.75,367.8752 Q457.1563,367.594 456.5313,367.594 Q455.1875,367.594 454.5,368.6721 Q453.8125,369.7346 453.8125,371.8283 Q453.8125,373.9221 454.5,375.0002 Q455.1875,376.0627 456.5313,376.0627 Q457.1563,376.0627 457.75,375.7971 Q458.3438,375.5158 458.9688,374.9377 L458.9688,377.6565 Z "/><text fill="#000000" font-family="sans-serif" font-size="12" lengthAdjust="spacingAndGlyphs" textLength="73" x="470" y="376.6719">OfficeBuilder</text><line style="stroke: #A80036; stroke-width: 1.5;" x1="442" x2="545" y1="388.0158" y2="388.0158"/><line style="stroke: #A80036; stroke-width: 1.5;" x1="442" x2="545" y1="396.0158" y2="396.0158"/><path d="M581.5,295.5158 L581.5,464.87 A0,0 0 0 0 581.5,464.87 L737.5,464.87 A0,0 0 0 0 737.5,464.87 L737.5,305.5158 L727.5,295.5158 L606.81,295.5158 L514.19,164.5458 L598.81,295.5158 L581.5,295.5158 A0,0 0 0 0 581.5,295.5158 " fill="#FBFB77" style="stroke: #A80036; stroke-width: 1.0;"/><path d="M727.5,295.5158 L727.5,305.5158 L737.5,305.5158 L727.5,295.5158 " fill="#FBFB77" style="stroke: #A80036; stroke-width: 1.0;"/><text fill="#000000" font-family="sans-serif" font-size="13" lengthAdjust="spacingAndGlyphs" textLength="11" x="587.5" y="314.4129">✅</text><text fill="#000000" font-family="sans-serif" font-size="13" font-weight="bold" lengthAdjust="spacingAndGlyphs" textLength="60" x="601.5" y="314.4129">Faydalar:</text><text fill="#000000" font-family="sans-serif" font-size="13" lengthAdjust="spacingAndGlyphs" textLength="102" x="587.5" y="332.1189">• Basit ve anlaşılır</text><text fill="#000000" font-family="sans-serif" font-size="13" lengthAdjust="spacingAndGlyphs" textLength="48" x="587.5" y="349.8249">• Az kod</text><text fill="#000000" font-family="sans-serif" font-size="13" lengthAdjust="spacingAndGlyphs" textLength="111" x="587.5" y="367.5309">• Modern yaklaşım</text><text fill="#000000" font-family="sans-serif" font-size="13" lengthAdjust="spacingAndGlyphs" textLength="100" x="587.5" y="385.2369">• Client için kolay</text><text fill="#000000" font-family="sans-serif" font-size="13" lengthAdjust="spacingAndGlyphs" textLength="0" x="590.5" y="402.9429"/><text fill="#000000" font-family="sans-serif" font-size="13" lengthAdjust="spacingAndGlyphs" textLength="10" x="587.5" y="420.649">❌</text><text fill="#000000" font-family="sans-serif" font-size="13" font-weight="bold" lengthAdjust="spacingAndGlyphs" textLength="58" x="600.5" y="420.649">Zararlar:</text><text fill="#000000" font-family="sans-serif" font-size="13" lengthAdjust="spacingAndGlyphs" textLength="135" x="587.5" y="438.355">• Construction mantığı</text><text fill="#000000" font-family="sans-serif" font-size="13" lengthAdjust="spacingAndGlyphs" textLength="92" x="593.5" y="456.061">builder'da sabit</text><!--MD5=[79701eec1e24f578bb2f28ac95edf455]
class CB2--><rect fill="#FEFECE" height="62.9819" id="CB2" style="stroke: #A80036; stroke-width: 1.5;" width="161" x="794" y="348.5158"/><ellipse cx="823.85" cy="364.5158" fill="#ADD1B2" rx="11" ry="11" style="stroke: #A80036; stroke-width: 1.0;"/><path d="M826.8188,370.1565 Q826.2406,370.4533 825.6,370.594 Q824.9594,370.7502 824.2563,370.7502 Q821.7563,370.7502 820.4281,369.1096 Q819.1156,367.4533 819.1156,364.3283 Q819.1156,361.2033 820.4281,359.5471 Q821.7563,357.8908 824.2563,357.8908 Q824.9594,357.8908 825.6,358.0471 Q826.2563,358.2033 826.8188,358.5002 L826.8188,361.219 Q826.1938,360.6408 825.6,360.3752 Q825.0063,360.094 824.3813,360.094 Q823.0375,360.094 822.35,361.1721 Q821.6625,362.2346 821.6625,364.3283 Q821.6625,366.4221 822.35,367.5002 Q823.0375,368.5627 824.3813,368.5627 Q825.0063,368.5627 825.6,368.2971 Q826.1938,368.0158 826.8188,367.4377 L826.8188,370.1565 Z "/><text fill="#000000" font-family="sans-serif" font-size="12" lengthAdjust="spacingAndGlyphs" textLength="96" x="841.15" y="369.1719">ComputerBuilder</text><line style="stroke: #A80036; stroke-width: 1.5;" x1="795" x2="954" y1="380.5158" y2="380.5158"/><line style="stroke: #A80036; stroke-width: 1.5;" x1="795" x2="954" y1="388.5158" y2="388.5158"/><ellipse cx="805" cy="399.5158" fill="#84BE84" rx="3" ry="3" style="stroke: #038048; stroke-width: 1.0;"/><text fill="#000000" font-family="sans-serif" font-size="11" lengthAdjust="spacingAndGlyphs" textLength="135" x="814" y="404.2748">getComputer(): Computer</text><!--MD5=[05c29be3e4bc929e97cb0719effadc4e]
class GB2--><rect fill="#FEFECE" height="48" id="GB2" style="stroke: #A80036; stroke-width: 1.5;" width="116" x="804.5" y="542.5158"/><ellipse cx="819.5" cy="558.5158" fill="#ADD1B2" rx="11" ry="11" style="stroke: #A80036; stroke-width: 1.0;"/><path d="M822.4688,564.1565 Q821.8906,564.4533 821.25,564.594 Q820.6094,564.7502 819.9063,564.7502 Q817.4063,564.7502 816.0781,563.1096 Q814.7656,561.4533 814.7656,558.3283 Q814.7656,555.2033 816.0781,553.5471 Q817.4063,551.8908 819.9063,551.8908 Q820.6094,551.8908 821.25,552.0471 Q821.9063,552.2033 822.4688,552.5002 L822.4688,555.219 Q821.8438,554.6408 821.25,554.3752 Q820.6563,554.094 820.0313,554.094 Q818.6875,554.094 818,555.1721 Q817.3125,556.2346 817.3125,558.3283 Q817.3125,560.4221 818,561.5002 Q818.6875,562.5627 820.0313,562.5627 Q820.6563,562.5627 821.25,562.2971 Q821.8438,562.0158 822.4688,561.4377 L822.4688,564.1565 Z "/><text fill="#000000" font-family="sans-serif" font-size="12" lengthAdjust="spacingAndGlyphs" textLength="84" x="833.5" y="563.1719">GamingBuilder</text><line style="stroke: #A80036; stroke-width: 1.5;" x1="805.5" x2="919.5" y1="574.5158" y2="574.5158"/><line style="stroke: #A80036; stroke-width: 1.5;" x1="805.5" x2="919.5" y1="582.5158" y2="582.5158"/><!--MD5=[18a298af8c1fbc6433ee7fa0b3577e49]
class OB2--><rect fill="#FEFECE" height="48" id="OB2" style="stroke: #A80036; stroke-width: 1.5;" width="105" x="956" y="542.5158"/><ellipse cx="971" cy="558.5158" fill="#ADD1B2" rx="11" ry="11" style="stroke: #A80036; stroke-width: 1.0;"/><path d="M973.9688,564.1565 Q973.3906,564.4533 972.75,564.594 Q972.1094,564.7502 971.4063,564.7502 Q968.9063,564.7502 967.5781,563.1096 Q966.2656,561.4533 966.2656,558.3283 Q966.2656,555.2033 967.5781,553.5471 Q968.9063,551.8908 971.4063,551.8908 Q972.1094,551.8908 972.75,552.0471 Q973.4063,552.2033 973.9688,552.5002 L973.9688,555.219 Q973.3438,554.6408 972.75,554.3752 Q972.1563,554.094 971.5313,554.094 Q970.1875,554.094 969.5,555.1721 Q968.8125,556.2346 968.8125,558.3283 Q968.8125,560.4221 969.5,561.5002 Q970.1875,562.5627 971.5313,562.5627 Q972.1563,562.5627 972.75,562.2971 Q973.3438,562.0158 973.9688,561.4377 L973.9688,564.1565 Z "/><text fill="#000000" font-family="sans-serif" font-size="12" lengthAdjust="spacingAndGlyphs" textLength="73" x="985" y="563.1719">OfficeBuilder</text><line style="stroke: #A80036; stroke-width: 1.5;" x1="957" x2="1060" y1="574.5158" y2="574.5158"/><line style="stroke: #A80036; stroke-width: 1.5;" x1="957" x2="1060" y1="582.5158" y2="582.5158"/><!--MD5=[9a48bce266f66813c6b5e1756f391b41]
class DIR--><rect fill="#FEFECE" height="92.9457" id="DIR" style="stroke: #A80036; stroke-width: 1.5;" width="154" x="894.5" y="86.5158"/><ellipse cx="944.25" cy="102.5158" fill="#ADD1B2" rx="11" ry="11" style="stroke: #A80036; stroke-width: 1.0;"/><path d="M947.2188,108.1565 Q946.6406,108.4533 946,108.594 Q945.3594,108.7502 944.6563,108.7502 Q942.1563,108.7502 940.8281,107.1096 Q939.5156,105.4533 939.5156,102.3283 Q939.5156,99.2033 940.8281,97.5471 Q942.1563,95.8908 944.6563,95.8908 Q945.3594,95.8908 946,96.0471 Q946.6563,96.2033 947.2188,96.5002 L947.2188,99.219 Q946.5938,98.6408 946,98.3752 Q945.4063,98.094 944.7813,98.094 Q943.4375,98.094 942.75,99.1721 Q942.0625,100.2346 942.0625,102.3283 Q942.0625,104.4221 942.75,105.5002 Q943.4375,106.5627 944.7813,106.5627 Q945.4063,106.5627 946,106.2971 Q946.5938,106.0158 947.2188,105.4377 L947.2188,108.1565 Z "/><text fill="#000000" font-family="sans-serif" font-size="12" lengthAdjust="spacingAndGlyphs" textLength="46" x="964.75" y="107.1719">Director</text><line style="stroke: #A80036; stroke-width: 1.5;" x1="895.5" x2="1047.5" y1="118.5158" y2="118.5158"/><line style="stroke: #A80036; stroke-width: 1.5;" x1="895.5" x2="1047.5" y1="126.5158" y2="126.5158"/><ellipse cx="905.5" cy="137.5158" fill="#84BE84" rx="3" ry="3" style="stroke: #038048; stroke-width: 1.0;"/><text fill="#000000" font-family="sans-serif" font-size="11" lengthAdjust="spacingAndGlyphs" textLength="105" x="914.5" y="142.2748">buildFullComputer()</text><ellipse cx="905.5" cy="152.4977" fill="#84BE84" rx="3" ry="3" style="stroke: #038048; stroke-width: 1.0;"/><text fill="#000000" font-family="sans-serif" font-size="11" lengthAdjust="spacingAndGlyphs" textLength="128" x="914.5" y="157.2566">buildMinimalComputer()</text><ellipse cx="905.5" cy="167.4796" fill="#84BE84" rx="3" ry="3" style="stroke: #038048; stroke-width: 1.0;"/><text fill="#000000" font-family="sans-serif" font-size="11" lengthAdjust="spacingAndGlyphs" textLength="128" x="914.5" y="172.2385">buildStorageOptimized()</text><path d="M990.5,277.5158 L990.5,482.282 A0,0 0 0 0 990.5,482.282 L1146.5,482.282 A0,0 0 0 0 1146.5,482.282 L1146.5,287.5158 L1136.5,277.5158 L1032.26,277.5158 L989.52,179.5258 L1024.26,277.5158 L990.5,277.5158 A0,0 0 0 0 990.5,277.5158 " fill="#FBFB77" style="stroke: #A80036; stroke-width: 1.0;"/><path d="M1136.5,277.5158 L1136.5,287.5158 L1146.5,287.5158 L1136.5,277.5158 " fill="#FBFB77" style="stroke: #A80036; stroke-width: 1.0;"/><text fill="#000000" font-family="sans-serif" font-size="13" lengthAdjust="spacingAndGlyphs" textLength="11" x="996.5" y="296.4129">✅</text><text fill="#000000" font-family="sans-serif" font-size="13" font-weight="bold" lengthAdjust="spacingAndGlyphs" textLength="60" x="1010.5" y="296.4129">Faydalar:</text><text fill="#000000" font-family="sans-serif" font-size="13" lengthAdjust="spacingAndGlyphs" textLength="119" x="996.5" y="314.1189">• Farklı construction</text><text fill="#000000" font-family="sans-serif" font-size="13" lengthAdjust="spacingAndGlyphs" textLength="59" x="1002.5" y="331.8249">stratejileri</text><text fill="#000000" font-family="sans-serif" font-size="13" lengthAdjust="spacingAndGlyphs" textLength="135" x="996.5" y="349.5309">• Construction mantığı</text><text fill="#000000" font-family="sans-serif" font-size="13" lengthAdjust="spacingAndGlyphs" textLength="122" x="1002.5" y="367.2369">yeniden kullanılabilir</text><text fill="#000000" font-family="sans-serif" font-size="13" lengthAdjust="spacingAndGlyphs" textLength="92" x="996.5" y="384.9429">• GoF standardı</text><text fill="#000000" font-family="sans-serif" font-size="13" lengthAdjust="spacingAndGlyphs" textLength="0" x="999.5" y="402.649"/><text fill="#000000" font-family="sans-serif" font-size="13" lengthAdjust="spacingAndGlyphs" textLength="10" x="996.5" y="420.355">❌</text><text fill="#000000" font-family="sans-serif" font-size="13" font-weight="bold" lengthAdjust="spacingAndGlyphs" textLength="58" x="1009.5" y="420.355">Zararlar:</text><text fill="#000000" font-family="sans-serif" font-size="13" lengthAdjust="spacingAndGlyphs" textLength="115" x="996.5" y="438.061">• Ekstra karmaşıklık</text><text fill="#000000" font-family="sans-serif" font-size="13" lengthAdjust="spacingAndGlyphs" textLength="135" x="996.5" y="455.767">• Çoğu zaman gereksiz</text><text fill="#000000" font-family="sans-serif" font-size="13" lengthAdjust="spacingAndGlyphs" textLength="95" x="996.5" y="473.473">• Daha fazla kod</text><path d="M6,48.5158 L6,217.87 L257,217.87 L257,58.5158 L247,48.5158 L6,48.5158 " fill="#FBFB77" style="stroke: #A80036; stroke-width: 1.0;"/><path d="M247,48.5158 L247,58.5158 L257,58.5158 L247,48.5158 " fill="#FBFB77" style="stroke: #A80036; stroke-width: 1.0;"/><text fill="#000000" font-family="sans-serif" font-size="13" font-weight="bold" lengthAdjust="spacingAndGlyphs" textLength="44" x="12" y="67.4129">Sonuç:</text><text fill="#000000" font-family="sans-serif" font-size="13" lengthAdjust="spacingAndGlyphs" textLength="0" x="15" y="85.1189"/><text fill="#000000" font-family="sans-serif" font-size="13" font-weight="bold" lengthAdjust="spacingAndGlyphs" textLength="90" x="12" y="102.8249">%90 durumda</text><text fill="#000000" font-family="sans-serif" font-size="13" lengthAdjust="spacingAndGlyphs" textLength="137" x="105" y="102.8249">→ Basit yaklaşım yeterli</text><text fill="#000000" font-family="sans-serif" font-size="13" font-weight="bold" lengthAdjust="spacingAndGlyphs" textLength="90" x="12" y="120.5309">%10 durumda</text><text fill="#000000" font-family="sans-serif" font-size="13" lengthAdjust="spacingAndGlyphs" textLength="104" x="105" y="120.5309">→ Director gerekli</text><text fill="#000000" font-family="sans-serif" font-size="13" lengthAdjust="spacingAndGlyphs" textLength="0" x="15" y="138.2369"/><text fill="#000000" font-family="sans-serif" font-size="13" font-weight="bold" lengthAdjust="spacingAndGlyphs" textLength="182" x="12" y="155.9429">Director gerekli olduğunda:</text><text fill="#000000" font-family="sans-serif" font-size="13" lengthAdjust="spacingAndGlyphs" textLength="167" x="12" y="173.649">• Çok karmaşık construction</text><text fill="#000000" font-family="sans-serif" font-size="13" lengthAdjust="spacingAndGlyphs" textLength="209" x="12" y="191.355">• Birden fazla construction stratejisi</text><text fill="#000000" font-family="sans-serif" font-size="13" lengthAdjust="spacingAndGlyphs" textLength="206" x="12" y="209.061">• Construction mantığını paylaşma</text><!--MD5=[6eed9d99f92657acca72067e1f76b067]
reverse link CB1 to GB1--><path d="M464.87,182.0658 C433.65,234.4558 385,316.0958 361.34,355.7858 " fill="none" id="CB1&lt;-GB1" style="stroke: #A80036; stroke-width: 1.0;"/><polygon fill="none" points="459.05,178.1458,475.3,164.5458,471.08,185.3158,459.05,178.1458" style="stroke: #A80036; stroke-width: 1.0;"/><!--MD5=[feba4b4818a42d5052f8c7fb4e5f5565]
reverse link CB1 to OB1--><path d="M493.5,184.8458 C493.5,237.2958 493.5,316.7858 493.5,355.7858 " fill="none" id="CB1&lt;-OB1" style="stroke: #A80036; stroke-width: 1.0;"/><polygon fill="none" points="486.5,184.5458,493.5,164.5458,500.5,184.5458,486.5,184.5458" style="stroke: #A80036; stroke-width: 1.0;"/><!--MD5=[fcba55d8557659a924da5d789c31d943]
reverse link CB2 to GB2--><path d="M871.19,431.9758 C868.83,468.1158 865.79,514.9058 864,542.4258 " fill="none" id="CB2&lt;-GB2" style="stroke: #A80036; stroke-width: 1.0;"/><polygon fill="none" points="864.21,431.3958,872.49,411.8958,878.18,432.3058,864.21,431.3958" style="stroke: #A80036; stroke-width: 1.0;"/><!--MD5=[bb30a0b8d44bfec5da4c408c2b1468be]
reverse link CB2 to OB2--><path d="M908.78,428.2058 C935.36,464.8058 971.04,513.9458 991.73,542.4258 " fill="none" id="CB2&lt;-OB2" style="stroke: #A80036; stroke-width: 1.0;"/><polygon fill="none" points="903.02,432.1958,896.93,411.8958,914.35,423.9658,903.02,432.1958" style="stroke: #A80036; stroke-width: 1.0;"/><!--MD5=[21134e673b61b5db82228b6d7039bee8]
link DIR to CB2--><path d="M949.062,190.683 C949.062,190.683 907.29,296.2058 891.44,336.2158 " fill="none" id="DIR-CB2" style="stroke: #A80036; stroke-width: 1.0;"/><polygon fill="#A80036" points="886.6,348.4658,893.6325,341.5707,888.4408,343.817,886.1945,338.6253,886.6,348.4658" style="stroke: #A80036; stroke-width: 1.0;"/><line style="stroke: #A80036; stroke-width: 1.0;" x1="888.4408" x2="891.38" y1="343.817" y2="336.3708"/><polygon fill="#FFFFFF" points="953.48,179.5258,947.552,183.6317,949.062,190.683,954.99,186.5771,953.48,179.5258" style="stroke: #A80036; stroke-width: 1.0;"/><text fill="#888888" font-family="sans-serif" font-size="10" lengthAdjust="spacingAndGlyphs" textLength="268" x="464.5" y="643.2058">Oluşturulma: 15.10.2025 | Sürüm: 1.0.0 | Karşılaştırma</text><!--MD5=[881f0a442f59a224efbe6635341e8240]
@startuml

title Builder Pattern - İki Yaklaşımın Karşılaştırması

skinparam backgroundColor #FFFFFF
skinparam shadowing false

package "Basit Yaklaşım (Yönlendirici Yok)" #E8F4F8 {
    class "ComputerBuilder" as CB1 {
        +build(): Computer
    }
    
    class "GamingBuilder" as GB1 {
    }
    
    class "OfficeBuilder" as OB1 {
    }
    
    CB1 <|- - GB1
    CB1 <|- - OB1
    
    note bottom of CB1
      ✅ **Faydalar:**
      • Basit ve anlaşılır
      • Az kod
      • Modern yaklaşım
      • Client için kolay
      
      ❌ **Zararlar:**
      • Construction mantığı
        builder'da sabit
    end note
}

package "Klasik Yaklaşım (Yönlendirici Var)" #FFE8CC {
    class "ComputerBuilder" as CB2 {
        +getComputer(): Computer
    }
    
    class "GamingBuilder" as GB2 {
    }
    
    class "OfficeBuilder" as OB2 {
    }
    
    class "Director" as DIR {
        +buildFullComputer()
        +buildMinimalComputer()
        +buildStorageOptimized()
    }
    
    CB2 <|- - GB2
    CB2 <|- - OB2
    DIR o- -> CB2
    
    note bottom of DIR
      ✅ **Faydalar:**
      • Farklı construction
        stratejileri
      • Construction mantığı
        yeniden kullanılabilir
      • GoF standardı

      ❌ **Zararlar:**
      • Ekstra karmaşıklık
      • Çoğu zaman gereksiz
      • Daha fazla kod
    end note
}

note "**Sonuç:**\n\n**%90 durumda** → Basit yaklaşım yeterli\n**%10 durumda** → Director gerekli\n\n**Director gerekli olduğunda:**\n• Çok karmaşık construction\n• Birden fazla construction stratejisi\n• Construction mantığını paylaşma" as CONCLUSION

footer Oluşturulma: 15.10.2025 | Sürüm: 1.0.0 | Karşılaştırma

@enduml

PlantUML version 1.2020.02(Sun Mar 01 13:22:07 TRT 2020)
(GPL source distribution)
Java Runtime: OpenJDK Runtime Environment
JVM: OpenJDK 64-Bit Server VM
Java Version: 21.0.8+9-Ubuntu-0ubuntu124.04.1
Operating System: Linux
Default Encoding: UTF-8
Language: en
Country: US
--></g></svg>