<svg xmlns="http://www.w3.org/2000/svg" xmlns:xlink="http://www.w3.org/1999/xlink" contentStyleType="text/css" data-diagram-type="CLASS" height="585px" preserveAspectRatio="none" style="width:1313px;height:585px;background:#FFFFFF;" version="1.1" viewBox="0 0 1313 585" width="1313px" zoomAndPan="magnify"><title>Builder Pattern - &#304;ki Yakla&#351;&#305;m&#305;n Kar&#351;&#305;la&#351;t&#305;rmas&#305;</title><defs/><g><g class="title" data-source-line="9"><text fill="#000000" font-family="sans-serif" font-size="14" font-weight="bold" lengthAdjust="spacing" textLength="369.7148" x="464.8926" y="22.9951">Builder Pattern - &#304;ki Yakla&#351;&#305;m&#305;n Kar&#351;&#305;la&#351;t&#305;rmas&#305;</text></g><!--cluster Basit Yakla??m (Director Yok)--><g class="cluster" data-entity="Basit Yakla&#351;&#305;m (Director Yok)" data-source-line="14" data-uid="ent0002" id="cluster_Basit Yakla&#351;&#305;m (Director Yok)"><path d="M306,59.7969 L538.6221,59.7969 A3.75,3.75 0 0 1 541.1221,62.2969 L548.1221,82.0938 L831,82.0938 A2.5,2.5 0 0 1 833.5,84.5938 L833.5,434.2969 A2.5,2.5 0 0 1 831,436.7969 L306,436.7969 A2.5,2.5 0 0 1 303.5,434.2969 L303.5,62.2969 A2.5,2.5 0 0 1 306,59.7969" fill="#E8F4F8" style="stroke:#000000;stroke-width:1.5;"/><line style="stroke:#000000;stroke-width:1.5;" x1="303.5" x2="548.1221" y1="82.0938" y2="82.0938"/><text fill="#000000" font-family="sans-serif" font-size="14" font-weight="bold" lengthAdjust="spacing" textLength="231.6221" x="307.5" y="74.792">Basit Yakla&#351;&#305;m (Director Yok)</text></g><!--cluster Klasik Yakla??m (Director Var)--><g class="cluster" data-entity="Klasik Yakla&#351;&#305;m (Director Var)" data-source-line="41" data-uid="ent0011" id="cluster_Klasik Yakla&#351;&#305;m (Director Var)"><path d="M860,43.2969 L1098.3369,43.2969 A3.75,3.75 0 0 1 1100.8369,45.7969 L1107.8369,65.5938 L1304,65.5938 A2.5,2.5 0 0 1 1306.5,68.0938 L1306.5,557.2969 A2.5,2.5 0 0 1 1304,559.7969 L860,559.7969 A2.5,2.5 0 0 1 857.5,557.2969 L857.5,45.7969 A2.5,2.5 0 0 1 860,43.2969" fill="#FFE8CC" style="stroke:#000000;stroke-width:1.5;"/><line style="stroke:#000000;stroke-width:1.5;" x1="857.5" x2="1107.8369" y1="65.5938" y2="65.5938"/><text fill="#000000" font-family="sans-serif" font-size="14" font-weight="bold" lengthAdjust="spacing" textLength="237.3369" x="861.5" y="58.292">Klasik Yakla&#351;&#305;m (Director Var)</text></g><!--class CB1--><g class="entity" data-entity="CB1" data-source-line="15" data-uid="ent0003" id="entity_CB1"><rect fill="#F1F1F1" height="64.2969" rx="2.5" ry="2.5" style="stroke:#181818;stroke-width:0.5;" width="151.1094" x="477" y="94.7969"/><ellipse cx="492" cy="110.7969" fill="#ADD1B2" rx="11" ry="11" style="stroke:#181818;stroke-width:1;"/><path d="M494.9688,116.4375 Q494.3906,116.7344 493.75,116.875 Q493.1094,117.0313 492.4063,117.0313 Q489.9063,117.0313 488.5781,115.3906 Q487.2656,113.7344 487.2656,110.6094 Q487.2656,107.4844 488.5781,105.8281 Q489.9063,104.1719 492.4063,104.1719 Q493.1094,104.1719 493.75,104.3281 Q494.4063,104.4844 494.9688,104.7813 L494.9688,107.5 Q494.3438,106.9219 493.75,106.6563 Q493.1563,106.375 492.5313,106.375 Q491.1875,106.375 490.5,107.4531 Q489.8125,108.5156 489.8125,110.6094 Q489.8125,112.7031 490.5,113.7813 Q491.1875,114.8438 492.5313,114.8438 Q493.1563,114.8438 493.75,114.5781 Q494.3438,114.2969 494.9688,113.7188 L494.9688,116.4375 Z " fill="#000000"/><text fill="#000000" font-family="sans-serif" font-size="14" lengthAdjust="spacing" textLength="119.1094" x="506" y="115.6436">ComputerBuilder</text><line style="stroke:#181818;stroke-width:0.5;" x1="478" x2="627.1094" y1="126.7969" y2="126.7969"/><line style="stroke:#181818;stroke-width:0.5;" x1="478" x2="627.1094" y1="134.7969" y2="134.7969"/><ellipse cx="488" cy="148.4453" fill="#84BE84" rx="3" ry="3" style="stroke:#038048;stroke-width:1;"/><text fill="#000000" font-family="sans-serif" font-size="14" lengthAdjust="spacing" textLength="124.1133" x="497" y="151.792">build(): Computer</text></g><!--class GB1--><g class="entity" data-entity="GB1" data-source-line="19" data-uid="ent0004" id="entity_GB1"><rect fill="#F1F1F1" height="48" rx="2.5" ry="2.5" style="stroke:#181818;stroke-width:0.5;" width="136.2275" x="319.5" y="323.7969"/><ellipse cx="334.5" cy="339.7969" fill="#ADD1B2" rx="11" ry="11" style="stroke:#181818;stroke-width:1;"/><path d="M337.4688,345.4375 Q336.8906,345.7344 336.25,345.875 Q335.6094,346.0313 334.9063,346.0313 Q332.4063,346.0313 331.0781,344.3906 Q329.7656,342.7344 329.7656,339.6094 Q329.7656,336.4844 331.0781,334.8281 Q332.4063,333.1719 334.9063,333.1719 Q335.6094,333.1719 336.25,333.3281 Q336.9063,333.4844 337.4688,333.7813 L337.4688,336.5 Q336.8438,335.9219 336.25,335.6563 Q335.6563,335.375 335.0313,335.375 Q333.6875,335.375 333,336.4531 Q332.3125,337.5156 332.3125,339.6094 Q332.3125,341.7031 333,342.7813 Q333.6875,343.8438 335.0313,343.8438 Q335.6563,343.8438 336.25,343.5781 Q336.8438,343.2969 337.4688,342.7188 L337.4688,345.4375 Z " fill="#000000"/><text fill="#000000" font-family="sans-serif" font-size="14" lengthAdjust="spacing" textLength="104.2275" x="348.5" y="344.6436">GamingBuilder</text><line style="stroke:#181818;stroke-width:0.5;" x1="320.5" x2="454.7275" y1="355.7969" y2="355.7969"/><line style="stroke:#181818;stroke-width:0.5;" x1="320.5" x2="454.7275" y1="363.7969" y2="363.7969"/></g><!--class OB1--><g class="entity" data-entity="OB1" data-source-line="22" data-uid="ent0005" id="entity_OB1"><rect fill="#F1F1F1" height="48" rx="2.5" ry="2.5" style="stroke:#181818;stroke-width:0.5;" width="122.5898" x="491" y="323.7969"/><ellipse cx="506" cy="339.7969" fill="#ADD1B2" rx="11" ry="11" style="stroke:#181818;stroke-width:1;"/><path d="M508.9688,345.4375 Q508.3906,345.7344 507.75,345.875 Q507.1094,346.0313 506.4063,346.0313 Q503.9063,346.0313 502.5781,344.3906 Q501.2656,342.7344 501.2656,339.6094 Q501.2656,336.4844 502.5781,334.8281 Q503.9063,333.1719 506.4063,333.1719 Q507.1094,333.1719 507.75,333.3281 Q508.4063,333.4844 508.9688,333.7813 L508.9688,336.5 Q508.3438,335.9219 507.75,335.6563 Q507.1563,335.375 506.5313,335.375 Q505.1875,335.375 504.5,336.4531 Q503.8125,337.5156 503.8125,339.6094 Q503.8125,341.7031 504.5,342.7813 Q505.1875,343.8438 506.5313,343.8438 Q507.1563,343.8438 507.75,343.5781 Q508.3438,343.2969 508.9688,342.7188 L508.9688,345.4375 Z " fill="#000000"/><text fill="#000000" font-family="sans-serif" font-size="14" lengthAdjust="spacing" textLength="90.5898" x="520" y="344.6436">OfficeBuilder</text><line style="stroke:#181818;stroke-width:0.5;" x1="492" x2="612.5898" y1="355.7969" y2="355.7969"/><line style="stroke:#181818;stroke-width:0.5;" x1="492" x2="612.5898" y1="363.7969" y2="363.7969"/></g><g class="entity" data-entity="GMN8" data-source-line="29" data-uid="ent0009" id="entity_GMN8"><path d="M649,274.7969 L649,420.9922 A0,0 0 0 0 649,420.9922 L818.1479,420.9922 A0,0 0 0 0 818.1479,420.9922 L818.1479,284.7969 L808.1479,274.7969 L677.97,274.7969 L578.43,159.1769 L669.97,274.7969 L649,274.7969 A0,0 0 0 0 649,274.7969" fill="#FEFFDD" style="stroke:#181818;stroke-width:0.5;"/><path d="M808.1479,274.7969 L808.1479,284.7969 L818.1479,284.7969 L808.1479,274.7969" fill="#FEFFDD" style="stroke:#181818;stroke-width:0.5;"/><text fill="#000000" font-family="sans-serif" font-size="13" lengthAdjust="spacing" textLength="7.8013" x="655" y="291.8638">&#9989;</text><text fill="#000000" font-family="sans-serif" font-size="13" font-weight="bold" lengthAdjust="spacing" textLength="80.8438" x="666.9336" y="291.8638">Avantajlar:</text><text fill="#000000" font-family="sans-serif" font-size="13" lengthAdjust="spacing" textLength="118.8599" x="655" y="306.9966">&#8226; Basit ve anla&#351;&#305;l&#305;r</text><text fill="#000000" font-family="sans-serif" font-size="13" lengthAdjust="spacing" textLength="55.3833" x="655" y="322.1294">&#8226; Az kod</text><text fill="#000000" font-family="sans-serif" font-size="13" lengthAdjust="spacing" textLength="122.751" x="655" y="337.2622">&#8226; Modern yakla&#351;&#305;m</text><text fill="#000000" font-family="sans-serif" font-size="13" lengthAdjust="spacing" textLength="115.064" x="655" y="352.395">&#8226; Client i&#231;in kolay</text><text fill="#000000" font-family="sans-serif" font-size="13" lengthAdjust="spacing" textLength="4.1323" x="655" y="367.5278">&#160;</text><text fill="#000000" font-family="sans-serif" font-size="13" lengthAdjust="spacing" textLength="13" x="655" y="382.6606">&#10060;</text><text fill="#000000" font-family="sans-serif" font-size="13" font-weight="bold" lengthAdjust="spacing" textLength="106.7295" x="672.1323" y="382.6606">Dezavantajlar:</text><text fill="#000000" font-family="sans-serif" font-size="13" lengthAdjust="spacing" textLength="148.1479" x="655" y="397.7935">&#8226; Construction mant&#305;&#287;&#305;</text><text fill="#000000" font-family="sans-serif" font-size="13" lengthAdjust="spacing" textLength="100.9341" x="663.2646" y="412.9263">builder'da sabit</text></g><!--class CB2--><g class="entity" data-entity="CB2" data-source-line="42" data-uid="ent0012" id="entity_CB2"><rect fill="#F1F1F1" height="64.2969" rx="2.5" ry="2.5" style="stroke:#181818;stroke-width:0.5;" width="208.2734" x="873.5" y="315.7969"/><ellipse cx="914.2238" cy="331.7969" fill="#ADD1B2" rx="11" ry="11" style="stroke:#181818;stroke-width:1;"/><path d="M917.1926,337.4375 Q916.6145,337.7344 915.9738,337.875 Q915.3332,338.0313 914.6301,338.0313 Q912.1301,338.0313 910.802,336.3906 Q909.4895,334.7344 909.4895,331.6094 Q909.4895,328.4844 910.802,326.8281 Q912.1301,325.1719 914.6301,325.1719 Q915.3332,325.1719 915.9738,325.3281 Q916.6301,325.4844 917.1926,325.7813 L917.1926,328.5 Q916.5676,327.9219 915.9738,327.6563 Q915.3801,327.375 914.7551,327.375 Q913.4113,327.375 912.7238,328.4531 Q912.0363,329.5156 912.0363,331.6094 Q912.0363,333.7031 912.7238,334.7813 Q913.4113,335.8438 914.7551,335.8438 Q915.3801,335.8438 915.9738,335.5781 Q916.5676,335.2969 917.1926,334.7188 L917.1926,337.4375 Z " fill="#000000"/><text fill="#000000" font-family="sans-serif" font-size="14" lengthAdjust="spacing" textLength="119.1094" x="933.9402" y="336.6436">ComputerBuilder</text><line style="stroke:#181818;stroke-width:0.5;" x1="874.5" x2="1080.7734" y1="347.7969" y2="347.7969"/><line style="stroke:#181818;stroke-width:0.5;" x1="874.5" x2="1080.7734" y1="355.7969" y2="355.7969"/><ellipse cx="884.5" cy="369.4453" fill="#84BE84" rx="3" ry="3" style="stroke:#038048;stroke-width:1;"/><text fill="#000000" font-family="sans-serif" font-size="14" lengthAdjust="spacing" textLength="182.2734" x="893.5" y="372.792">getComputer(): Computer</text></g><!--class GB2--><g class="entity" data-entity="GB2" data-source-line="46" data-uid="ent0013" id="entity_GB2"><rect fill="#F1F1F1" height="48" rx="2.5" ry="2.5" style="stroke:#181818;stroke-width:0.5;" width="136.2275" x="891.5" y="495.7969"/><ellipse cx="906.5" cy="511.7969" fill="#ADD1B2" rx="11" ry="11" style="stroke:#181818;stroke-width:1;"/><path d="M909.4688,517.4375 Q908.8906,517.7344 908.25,517.875 Q907.6094,518.0313 906.9063,518.0313 Q904.4063,518.0313 903.0781,516.3906 Q901.7656,514.7344 901.7656,511.6094 Q901.7656,508.4844 903.0781,506.8281 Q904.4063,505.1719 906.9063,505.1719 Q907.6094,505.1719 908.25,505.3281 Q908.9063,505.4844 909.4688,505.7813 L909.4688,508.5 Q908.8438,507.9219 908.25,507.6563 Q907.6563,507.375 907.0313,507.375 Q905.6875,507.375 905,508.4531 Q904.3125,509.5156 904.3125,511.6094 Q904.3125,513.7031 905,514.7813 Q905.6875,515.8438 907.0313,515.8438 Q907.6563,515.8438 908.25,515.5781 Q908.8438,515.2969 909.4688,514.7188 L909.4688,517.4375 Z " fill="#000000"/><text fill="#000000" font-family="sans-serif" font-size="14" lengthAdjust="spacing" textLength="104.2275" x="920.5" y="516.6436">GamingBuilder</text><line style="stroke:#181818;stroke-width:0.5;" x1="892.5" x2="1026.7275" y1="527.7969" y2="527.7969"/><line style="stroke:#181818;stroke-width:0.5;" x1="892.5" x2="1026.7275" y1="535.7969" y2="535.7969"/></g><!--class OB2--><g class="entity" data-entity="OB2" data-source-line="49" data-uid="ent0014" id="entity_OB2"><rect fill="#F1F1F1" height="48" rx="2.5" ry="2.5" style="stroke:#181818;stroke-width:0.5;" width="122.5898" x="1063" y="495.7969"/><ellipse cx="1078" cy="511.7969" fill="#ADD1B2" rx="11" ry="11" style="stroke:#181818;stroke-width:1;"/><path d="M1080.9688,517.4375 Q1080.3906,517.7344 1079.75,517.875 Q1079.1094,518.0313 1078.4063,518.0313 Q1075.9063,518.0313 1074.5781,516.3906 Q1073.2656,514.7344 1073.2656,511.6094 Q1073.2656,508.4844 1074.5781,506.8281 Q1075.9063,505.1719 1078.4063,505.1719 Q1079.1094,505.1719 1079.75,505.3281 Q1080.4063,505.4844 1080.9688,505.7813 L1080.9688,508.5 Q1080.3438,507.9219 1079.75,507.6563 Q1079.1563,507.375 1078.5313,507.375 Q1077.1875,507.375 1076.5,508.4531 Q1075.8125,509.5156 1075.8125,511.6094 Q1075.8125,513.7031 1076.5,514.7813 Q1077.1875,515.8438 1078.5313,515.8438 Q1079.1563,515.8438 1079.75,515.5781 Q1080.3438,515.2969 1080.9688,514.7188 L1080.9688,517.4375 Z " fill="#000000"/><text fill="#000000" font-family="sans-serif" font-size="14" lengthAdjust="spacing" textLength="90.5898" x="1092" y="516.6436">OfficeBuilder</text><line style="stroke:#181818;stroke-width:0.5;" x1="1064" x2="1184.5898" y1="527.7969" y2="527.7969"/><line style="stroke:#181818;stroke-width:0.5;" x1="1064" x2="1184.5898" y1="535.7969" y2="535.7969"/></g><!--class DIR--><g class="entity" data-entity="DIR" data-source-line="52" data-uid="ent0015" id="entity_DIR"><rect fill="#F1F1F1" height="96.8906" rx="2.5" ry="2.5" style="stroke:#181818;stroke-width:0.5;" width="197.7871" x="985.5" y="78.2969"/><ellipse cx="1051.8701" cy="94.2969" fill="#ADD1B2" rx="11" ry="11" style="stroke:#181818;stroke-width:1;"/><path d="M1054.8389,99.9375 Q1054.2607,100.2344 1053.6201,100.375 Q1052.9795,100.5313 1052.2764,100.5313 Q1049.7764,100.5313 1048.4482,98.8906 Q1047.1357,97.2344 1047.1357,94.1094 Q1047.1357,90.9844 1048.4482,89.3281 Q1049.7764,87.6719 1052.2764,87.6719 Q1052.9795,87.6719 1053.6201,87.8281 Q1054.2764,87.9844 1054.8389,88.2813 L1054.8389,91 Q1054.2139,90.4219 1053.6201,90.1563 Q1053.0264,89.875 1052.4014,89.875 Q1051.0576,89.875 1050.3701,90.9531 Q1049.6826,92.0156 1049.6826,94.1094 Q1049.6826,96.2031 1050.3701,97.2813 Q1051.0576,98.3438 1052.4014,98.3438 Q1053.0264,98.3438 1053.6201,98.0781 Q1054.2139,97.7969 1054.8389,97.2188 L1054.8389,99.9375 Z " fill="#000000"/><text fill="#000000" font-family="sans-serif" font-size="14" lengthAdjust="spacing" textLength="56.5469" x="1072.3701" y="99.1436">Director</text><line style="stroke:#181818;stroke-width:0.5;" x1="986.5" x2="1182.2871" y1="110.2969" y2="110.2969"/><line style="stroke:#181818;stroke-width:0.5;" x1="986.5" x2="1182.2871" y1="118.2969" y2="118.2969"/><ellipse cx="996.5" cy="131.9453" fill="#84BE84" rx="3" ry="3" style="stroke:#038048;stroke-width:1;"/><text fill="#000000" font-family="sans-serif" font-size="14" lengthAdjust="spacing" textLength="139.6514" x="1005.5" y="135.292">buildFullComputer()</text><ellipse cx="996.5" cy="148.2422" fill="#84BE84" rx="3" ry="3" style="stroke:#038048;stroke-width:1;"/><text fill="#000000" font-family="sans-serif" font-size="14" lengthAdjust="spacing" textLength="169.7842" x="1005.5" y="151.5889">buildMinimalComputer()</text><ellipse cx="996.5" cy="164.5391" fill="#84BE84" rx="3" ry="3" style="stroke:#038048;stroke-width:1;"/><text fill="#000000" font-family="sans-serif" font-size="14" lengthAdjust="spacing" textLength="171.7871" x="1005.5" y="167.8857">buildStorageOptimized()</text></g><g class="entity" data-entity="GMN19" data-source-line="63" data-uid="ent0020" id="entity_GMN19"><path d="M1117,259.7969 L1117,436.2578 A0,0 0 0 0 1117,436.2578 L1289.5757,436.2578 A0,0 0 0 0 1289.5757,436.2578 L1289.5757,269.7969 L1279.5757,259.7969 L1160.14,259.7969 L1110.32,175.3169 L1152.14,259.7969 L1117,259.7969 A0,0 0 0 0 1117,259.7969" fill="#FEFFDD" style="stroke:#181818;stroke-width:0.5;"/><path d="M1279.5757,259.7969 L1279.5757,269.7969 L1289.5757,269.7969 L1279.5757,259.7969" fill="#FEFFDD" style="stroke:#181818;stroke-width:0.5;"/><text fill="#000000" font-family="sans-serif" font-size="13" lengthAdjust="spacing" textLength="7.8013" x="1123" y="276.8638">&#9989;</text><text fill="#000000" font-family="sans-serif" font-size="13" font-weight="bold" lengthAdjust="spacing" textLength="80.8438" x="1134.9336" y="276.8638">Avantajlar:</text><text fill="#000000" font-family="sans-serif" font-size="13" lengthAdjust="spacing" textLength="132.3169" x="1123" y="291.9966">&#8226; Farkl&#305; construction</text><text fill="#000000" font-family="sans-serif" font-size="13" lengthAdjust="spacing" textLength="66.0664" x="1131.2646" y="307.1294">stratejileri</text><text fill="#000000" font-family="sans-serif" font-size="13" lengthAdjust="spacing" textLength="148.1479" x="1123" y="322.2622">&#8226; Construction mant&#305;&#287;&#305;</text><text fill="#000000" font-family="sans-serif" font-size="13" lengthAdjust="spacing" textLength="134.9829" x="1131.2646" y="337.395">yeniden kullan&#305;labilir</text><text fill="#000000" font-family="sans-serif" font-size="13" lengthAdjust="spacing" textLength="102.9399" x="1123" y="352.5278">&#8226; GoF standard&#305;</text><text fill="#000000" font-family="sans-serif" font-size="13" lengthAdjust="spacing" textLength="4.1323" x="1123" y="367.6606">&#160;</text><text fill="#000000" font-family="sans-serif" font-size="13" lengthAdjust="spacing" textLength="13" x="1123" y="382.7935">&#10060;</text><text fill="#000000" font-family="sans-serif" font-size="13" font-weight="bold" lengthAdjust="spacing" textLength="106.7295" x="1140.1323" y="382.7935">Dezavantajlar:</text><text fill="#000000" font-family="sans-serif" font-size="13" lengthAdjust="spacing" textLength="130.9902" x="1123" y="397.9263">&#8226; Ekstra karma&#351;&#305;kl&#305;k</text><text fill="#000000" font-family="sans-serif" font-size="13" lengthAdjust="spacing" textLength="151.5757" x="1123" y="413.0591">&#8226; &#199;o&#287;u zaman gereksiz</text><text fill="#000000" font-family="sans-serif" font-size="13" lengthAdjust="spacing" textLength="108.9258" x="1123" y="428.1919">&#8226; Daha fazla kod</text></g><g class="entity" data-entity="CONCLUSION" data-source-line="77" data-uid="ent0022" id="entity_CONCLUSION"><path d="M6,53.7969 L6,199.9922 L287.4507,199.9922 L287.4507,63.7969 L277.4507,53.7969 L6,53.7969" fill="#FEFFDD" style="stroke:#181818;stroke-width:0.5;"/><path d="M277.4507,53.7969 L277.4507,63.7969 L287.4507,63.7969 L277.4507,53.7969" fill="#FEFFDD" style="stroke:#181818;stroke-width:1;"/><text fill="#000000" font-family="sans-serif" font-size="13" font-weight="bold" lengthAdjust="spacing" textLength="49.7085" x="12" y="70.8638">Sonu&#231;:</text><text fill="#000000" font-family="sans-serif" font-size="13" lengthAdjust="spacing" textLength="4.1323" x="12" y="85.9966">&#160;</text><text fill="#000000" font-family="sans-serif" font-size="13" font-weight="bold" lengthAdjust="spacing" textLength="101.4927" x="12" y="101.1294">%90 durumda</text><text fill="#000000" font-family="sans-serif" font-size="13" lengthAdjust="spacing" textLength="154.8257" x="117.625" y="101.1294">&#8594; Basit yakla&#351;&#305;m yeterli</text><text fill="#000000" font-family="sans-serif" font-size="13" font-weight="bold" lengthAdjust="spacing" textLength="101.4927" x="12" y="116.2622">%10 durumda</text><text fill="#000000" font-family="sans-serif" font-size="13" lengthAdjust="spacing" textLength="116.0098" x="117.625" y="116.2622">&#8594; Director gerekli</text><text fill="#000000" font-family="sans-serif" font-size="13" lengthAdjust="spacing" textLength="4.1323" x="12" y="131.395">&#160;</text><text fill="#000000" font-family="sans-serif" font-size="13" font-weight="bold" lengthAdjust="spacing" textLength="202.7378" x="12" y="146.5278">Director gerekli oldu&#287;unda:</text><text fill="#000000" font-family="sans-serif" font-size="13" lengthAdjust="spacing" textLength="184.8501" x="12" y="161.6606">&#8226; &#199;ok karma&#351;&#305;k construction</text><text fill="#000000" font-family="sans-serif" font-size="13" lengthAdjust="spacing" textLength="234.2349" x="12" y="176.7935">&#8226; Birden fazla construction stratejisi</text><text fill="#000000" font-family="sans-serif" font-size="13" lengthAdjust="spacing" textLength="227.0239" x="12" y="191.9263">&#8226; Construction mant&#305;&#287;&#305;n&#305; payla&#351;ma</text></g><!--reverse link CB1 to GB1--><g class="link" data-entity-1="CB1" data-entity-2="GB1" data-source-line="25" data-uid="lnk6" id="link_CB1_GB1"><path codeLine="25" d="M518.0274,173.5524 C484.5174,218.0224 434.82,283.9869 405.03,323.5269" fill="none" id="CB1-backto-GB1" style="stroke:#181818;stroke-width:1;"/><polygon fill="none" points="528.86,159.1769,513.2356,169.9415,522.8193,177.1633,528.86,159.1769" style="stroke:#181818;stroke-width:1;"/></g><!--reverse link CB1 to OB1--><g class="link" data-entity-1="CB1" data-entity-2="OB1" data-source-line="26" data-uid="lnk7" id="link_CB1_OB1"><path codeLine="26" d="M552.5,177.1769 C552.5,221.6469 552.5,283.9869 552.5,323.5269" fill="none" id="CB1-backto-OB1" style="stroke:#181818;stroke-width:1;"/><polygon fill="none" points="552.5,159.1769,546.5,177.1769,558.5,177.1769,552.5,159.1769" style="stroke:#181818;stroke-width:1;"/></g><!--reverse link CB2 to GB2--><g class="link" data-entity-1="CB2" data-entity-2="GB2" data-source-line="58" data-uid="lnk16" id="link_CB2_GB2"><path codeLine="58" d="M972.3056,397.8769 C968.7656,431.3269 965.11,465.7769 961.94,495.7169" fill="none" id="CB2-backto-GB2" style="stroke:#181818;stroke-width:1;"/><polygon fill="none" points="974.2,379.9769,966.339,397.2455,978.2723,398.5084,974.2,379.9769" style="stroke:#181818;stroke-width:1;"/></g><!--reverse link CB2 to OB2--><g class="link" data-entity-1="CB2" data-entity-2="OB2" data-source-line="59" data-uid="lnk17" id="link_CB2_OB2"><path codeLine="59" d="M1016.2348,393.5914 C1045.1648,427.0414 1078.65,465.7769 1104.54,495.7169" fill="none" id="CB2-backto-OB2" style="stroke:#181818;stroke-width:1;"/><polygon fill="none" points="1004.46,379.9769,1011.6966,397.5163,1020.773,389.6664,1004.46,379.9769" style="stroke:#181818;stroke-width:1;"/></g><!--link DIR to CB2--><g class="link" data-entity-1="DIR" data-entity-2="CB2" data-source-line="60" data-uid="lnk18" id="link_DIR_CB2"><path codeLine="60" d="M1056.0131,186.0992 C1035.2431,228.6192 1013.2843,273.5561 995.3843,310.1861" fill="none" id="DIR-CB2" style="stroke:#181818;stroke-width:1;"/><polygon fill="none" points="1061.28,175.3169,1055.0524,178.9524,1056.0131,186.0992,1062.2407,182.4637,1061.28,175.3169" style="stroke:#181818;stroke-width:1;"/><polygon fill="#181818" points="992.75,315.5769,1000.2953,309.2469,994.9453,311.0846,993.1076,305.7345,992.75,315.5769" style="stroke:#181818;stroke-width:1;"/></g><g class="footer" data-source-line="79"><text fill="#888888" font-family="sans-serif" font-size="10" lengthAdjust="spacing" textLength="276.3086" x="511.5957" y="575.0791">Olu&#351;turulma: 15.10.2025 | Versiyon: 1.0 | Kar&#351;&#305;la&#351;t&#305;rma</text></g><!--SRC=[dLNDRXCn4BxlKuo2K65HIXA1L2g4o4zJLVm4KL6fKY-Jh9EQzTgHxIrAQ2Kkm8KJPr0bBhsIPsXuaJu9OsUJEcqZ5QpLIZlpxVYRcM_iXsiHnF2ypmM3Riv5mdIvfx8XQcwKN1_ccV20hkQi3uqP0jwWjKnB664gyC_fT989rDE9f0TIrCxYx7OwqHcQwSI7mDmUAWtr7QWRmur5QRqzGSkW-dYzMbclLMgFlUs8QSELXEfw9OArXr5akIM6L_Slm_Htoc5_GSCHU74JWSYaN59Mc44NU-b0grmcJIM8q9ssNm7276AYFd0vW3uAmw9eIB_WW46fWORRO3-ur-AQzIo5sLVf_HBSsTfeFsflmCS8QFK46WEb9XKq9y85_HAWWMQZMe3SUk1hV-_-9iontdNYts6eRSo8LnXeUn7eEhhJx_CU2z6Tcz2EozFZSjd5MZPq2eD_IKMDwYfhLGQgxq05_uiVdo6EwqVKKNnFIjYCuxddqo-OrUo80SfPrGHr9V3Nnv2g932yKicok09VKt0cBV3pCqvIKm97XNEE-VcDgBJO65UmQIffhCvxriah8ynqCZrr2YrMCGHh2OB1BhVUmMJYiuzE0Ysye1hpz6OnxA5sOcYtjpQQpTk8eHQAOS3i7FMVagZzaoHMe-S9UM1hv-qroRPp8IwvNd6-uf9dkDg_Iv6fb9sXvHaViwG0B2cpDbTcRTdGAGoEb2gNdpdFIgaIw5PIRQDEIPtG2qIou4mMEgdUqqcf-Jy8QiGaJnY9bIg5qfrBNIvuE03RgWtkE4nG9uiVRwldhTJnSgTkvbNe-AU1__ohcfxcC4QY1WEcMMhuEF2ty13fc1iBN4nXg7PVo58SxogPdv_HrWVoGCRntISLI7ATPmd6CLny-LvC-UNCKjxKSi4zkdeLlHWKpyYX7Ewg5PH8Sc9FbV4x5_caGRPBhPeX6boxUizo2jsB3Xe-Gwve7JK9XZXoYMGucy_Ew-RBTxixdTTHr5TK4WqTaTFzGac933U3wmkEOSzTNYCbDztrHT_NBgI_]--></g></svg>