<?xml version="1.0" encoding="UTF-8" standalone="no"?><svg xmlns="http://www.w3.org/2000/svg" xmlns:xlink="http://www.w3.org/1999/xlink" contentScriptType="application/ecmascript" contentStyleType="text/css" height="675px" preserveAspectRatio="none" style="width:1135px;height:675px;" version="1.1" viewBox="0 0 1135 675" width="1135px" zoomAndPan="magnify"><defs/><g><text fill="#000000" font-family="sans-serif" font-size="18" lengthAdjust="spacingAndGlyphs" textLength="417" x="365" y="19.2419">Prototype Pattern - İki Yaklaşımın Karşılaştırması</text><!--MD5=[46d0859cad5690fe65cea651f722c6d5]
cluster Basit Yaklaşım (Registry Yok)--><polygon fill="#E8F4F8" points="218,74.0158,427,74.0158,434,99.0838,652,99.0838,652,517.5158,218,517.5158,218,74.0158" style="stroke: #000000; stroke-width: 1.5;"/><line style="stroke: #000000; stroke-width: 1.5;" x1="218" x2="434" y1="99.0838" y2="99.0838"/><text fill="#000000" font-family="sans-serif" font-size="14" font-weight="bold" lengthAdjust="spacingAndGlyphs" textLength="203" x="222" y="90.9818">Basit Yaklaşım (Registry Yok)</text><!--MD5=[0d1c1df353511a4465c85ae643081649]
cluster Registry Yaklaşımı (Manager Var)--><polygon fill="#FFE8CC" points="676,66.5158,912,66.5158,919,91.5838,1113,91.5838,1113,625.5158,676,625.5158,676,66.5158" style="stroke: #000000; stroke-width: 1.5;"/><line style="stroke: #000000; stroke-width: 1.5;" x1="676" x2="919" y1="91.5838" y2="91.5838"/><text fill="#000000" font-family="sans-serif" font-size="14" font-weight="bold" lengthAdjust="spacingAndGlyphs" textLength="230" x="680" y="83.4818">Registry Yaklaşımı (Manager Var)</text><!--MD5=[45e7afdbce2984f9fc49df1bfeb24871]
class S1--><rect fill="#FEFECE" height="62.9819" id="S1" style="stroke: #A80036; stroke-width: 1.5;" width="168" x="293" y="112.0158"/><ellipse cx="355.25" cy="128.0158" fill="#ADD1B2" rx="11" ry="11" style="stroke: #A80036; stroke-width: 1.0;"/><path d="M358.2188,133.6565 Q357.6406,133.9533 357,134.094 Q356.3594,134.2502 355.6563,134.2502 Q353.1563,134.2502 351.8281,132.6096 Q350.5156,130.9533 350.5156,127.8283 Q350.5156,124.7033 351.8281,123.0471 Q353.1563,121.3908 355.6563,121.3908 Q356.3594,121.3908 357,121.5471 Q357.6563,121.7033 358.2188,122.0002 L358.2188,124.719 Q357.5938,124.1408 357,123.8752 Q356.4063,123.594 355.7813,123.594 Q354.4375,123.594 353.75,124.6721 Q353.0625,125.7346 353.0625,127.8283 Q353.0625,129.9221 353.75,131.0002 Q354.4375,132.0627 355.7813,132.0627 Q356.4063,132.0627 357,131.7971 Q357.5938,131.5158 358.2188,130.9377 L358.2188,133.6565 Z "/><text fill="#000000" font-family="sans-serif" font-size="12" lengthAdjust="spacingAndGlyphs" textLength="35" x="375.75" y="132.6719">Shape</text><line style="stroke: #A80036; stroke-width: 1.5;" x1="294" x2="460" y1="144.0158" y2="144.0158"/><line style="stroke: #A80036; stroke-width: 1.5;" x1="294" x2="460" y1="152.0158" y2="152.0158"/><ellipse cx="304" cy="163.0158" fill="#84BE84" rx="3" ry="3" style="stroke: #038048; stroke-width: 1.0;"/><text fill="#000000" font-family="sans-serif" font-size="11" lengthAdjust="spacingAndGlyphs" textLength="142" x="313" y="167.7748">clone(): unique_ptr&lt;Shape&gt;</text><!--MD5=[926f502e143d9ea62a9e3ce25d7b4f6f]
class C1--><rect fill="#FEFECE" height="48" id="C1" style="stroke: #A80036; stroke-width: 1.5;" width="64" x="234" y="384.0158"/><ellipse cx="249" cy="400.0158" fill="#ADD1B2" rx="11" ry="11" style="stroke: #A80036; stroke-width: 1.0;"/><path d="M251.9688,405.6565 Q251.3906,405.9533 250.75,406.094 Q250.1094,406.2502 249.4063,406.2502 Q246.9063,406.2502 245.5781,404.6096 Q244.2656,402.9533 244.2656,399.8283 Q244.2656,396.7033 245.5781,395.0471 Q246.9063,393.3908 249.4063,393.3908 Q250.1094,393.3908 250.75,393.5471 Q251.4063,393.7033 251.9688,394.0002 L251.9688,396.719 Q251.3438,396.1408 250.75,395.8752 Q250.1563,395.594 249.5313,395.594 Q248.1875,395.594 247.5,396.6721 Q246.8125,397.7346 246.8125,399.8283 Q246.8125,401.9221 247.5,403.0002 Q248.1875,404.0627 249.5313,404.0627 Q250.1563,404.0627 250.75,403.7971 Q251.3438,403.5158 251.9688,402.9377 L251.9688,405.6565 Z "/><text fill="#000000" font-family="sans-serif" font-size="12" lengthAdjust="spacingAndGlyphs" textLength="32" x="263" y="404.6719">Circle</text><line style="stroke: #A80036; stroke-width: 1.5;" x1="235" x2="297" y1="416.0158" y2="416.0158"/><line style="stroke: #A80036; stroke-width: 1.5;" x1="235" x2="297" y1="424.0158" y2="424.0158"/><!--MD5=[3670f29e7b028e692dbc6af1b586dfcf]
class R1--><rect fill="#FEFECE" height="48" id="R1" style="stroke: #A80036; stroke-width: 1.5;" width="87" x="333.5" y="384.0158"/><ellipse cx="348.5" cy="400.0158" fill="#ADD1B2" rx="11" ry="11" style="stroke: #A80036; stroke-width: 1.0;"/><path d="M351.4688,405.6565 Q350.8906,405.9533 350.25,406.094 Q349.6094,406.2502 348.9063,406.2502 Q346.4063,406.2502 345.0781,404.6096 Q343.7656,402.9533 343.7656,399.8283 Q343.7656,396.7033 345.0781,395.0471 Q346.4063,393.3908 348.9063,393.3908 Q349.6094,393.3908 350.25,393.5471 Q350.9063,393.7033 351.4688,394.0002 L351.4688,396.719 Q350.8438,396.1408 350.25,395.8752 Q349.6563,395.594 349.0313,395.594 Q347.6875,395.594 347,396.6721 Q346.3125,397.7346 346.3125,399.8283 Q346.3125,401.9221 347,403.0002 Q347.6875,404.0627 349.0313,404.0627 Q349.6563,404.0627 350.25,403.7971 Q350.8438,403.5158 351.4688,402.9377 L351.4688,405.6565 Z "/><text fill="#000000" font-family="sans-serif" font-size="12" lengthAdjust="spacingAndGlyphs" textLength="55" x="362.5" y="404.6719">Rectangle</text><line style="stroke: #A80036; stroke-width: 1.5;" x1="334.5" x2="419.5" y1="416.0158" y2="416.0158"/><line style="stroke: #A80036; stroke-width: 1.5;" x1="334.5" x2="419.5" y1="424.0158" y2="424.0158"/><path d="M456,314.5158 L456,501.576 A0,0 0 0 0 456,501.576 L636,501.576 A0,0 0 0 0 636,501.576 L636,324.5158 L626,314.5158 L490.4,314.5158 L396.72,175.1458 L482.4,314.5158 L456,314.5158 A0,0 0 0 0 456,314.5158 " fill="#FBFB77" style="stroke: #A80036; stroke-width: 1.0;"/><path d="M626,314.5158 L626,324.5158 L636,324.5158 L626,314.5158 " fill="#FBFB77" style="stroke: #A80036; stroke-width: 1.0;"/><text fill="#000000" font-family="sans-serif" font-size="13" lengthAdjust="spacingAndGlyphs" textLength="11" x="462" y="333.4129">✅</text><text fill="#000000" font-family="sans-serif" font-size="13" font-weight="bold" lengthAdjust="spacingAndGlyphs" textLength="60" x="476" y="333.4129">Faydalar:</text><text fill="#000000" font-family="sans-serif" font-size="13" lengthAdjust="spacingAndGlyphs" textLength="63" x="462" y="351.1189">• Çok basit</text><text fill="#000000" font-family="sans-serif" font-size="13" lengthAdjust="spacingAndGlyphs" textLength="127" x="462" y="368.8249">• Doğrudan klonlama</text><text fill="#000000" font-family="sans-serif" font-size="13" lengthAdjust="spacingAndGlyphs" textLength="48" x="462" y="386.5309">• Az kod</text><text fill="#000000" font-family="sans-serif" font-size="13" lengthAdjust="spacingAndGlyphs" textLength="95" x="462" y="404.2369">• Hızlı geliştirme</text><text fill="#000000" font-family="sans-serif" font-size="13" lengthAdjust="spacingAndGlyphs" textLength="0" x="465" y="421.9429"/><text fill="#000000" font-family="sans-serif" font-size="13" lengthAdjust="spacingAndGlyphs" textLength="10" x="462" y="439.649">❌</text><text fill="#000000" font-family="sans-serif" font-size="13" font-weight="bold" lengthAdjust="spacingAndGlyphs" textLength="58" x="475" y="439.649">Zararlar:</text><text fill="#000000" font-family="sans-serif" font-size="13" lengthAdjust="spacingAndGlyphs" textLength="159" x="462" y="457.355">• Her nesneyi elle yönetme</text><text fill="#000000" font-family="sans-serif" font-size="13" lengthAdjust="spacingAndGlyphs" textLength="127" x="462" y="475.061">• Merkezi kontrol yok</text><text fill="#000000" font-family="sans-serif" font-size="13" lengthAdjust="spacingAndGlyphs" textLength="130" x="462" y="492.767">• Prototip havuzu yok</text><!--MD5=[7e8a06de9db6c7c3e9d5d933905eec0c]
class GC--><rect fill="#FEFECE" height="62.9819" id="GC" style="stroke: #A80036; stroke-width: 1.5;" width="217" x="692.5" y="376.5158"/><ellipse cx="751.75" cy="392.5158" fill="#ADD1B2" rx="11" ry="11" style="stroke: #A80036; stroke-width: 1.0;"/><path d="M754.7188,398.1565 Q754.1406,398.4533 753.5,398.594 Q752.8594,398.7502 752.1563,398.7502 Q749.6563,398.7502 748.3281,397.1096 Q747.0156,395.4533 747.0156,392.3283 Q747.0156,389.2033 748.3281,387.5471 Q749.6563,385.8908 752.1563,385.8908 Q752.8594,385.8908 753.5,386.0471 Q754.1563,386.2033 754.7188,386.5002 L754.7188,389.219 Q754.0938,388.6408 753.5,388.3752 Q752.9063,388.094 752.2813,388.094 Q750.9375,388.094 750.25,389.1721 Q749.5625,390.2346 749.5625,392.3283 Q749.5625,394.4221 750.25,395.5002 Q750.9375,396.5627 752.2813,396.5627 Q752.9063,396.5627 753.5,396.2971 Q754.0938,396.0158 754.7188,395.4377 L754.7188,398.1565 Z "/><text fill="#000000" font-family="sans-serif" font-size="12" lengthAdjust="spacingAndGlyphs" textLength="90" x="772.25" y="397.1719">GameCharacter</text><line style="stroke: #A80036; stroke-width: 1.5;" x1="693.5" x2="908.5" y1="408.5158" y2="408.5158"/><line style="stroke: #A80036; stroke-width: 1.5;" x1="693.5" x2="908.5" y1="416.5158" y2="416.5158"/><ellipse cx="703.5" cy="427.5158" fill="#84BE84" rx="3" ry="3" style="stroke: #038048; stroke-width: 1.0;"/><text fill="#000000" font-family="sans-serif" font-size="11" lengthAdjust="spacingAndGlyphs" textLength="191" x="712.5" y="432.2748">clone(): unique_ptr&lt;GameCharacter&gt;</text><!--MD5=[06e16a454a6c6ad4bfc8baf2f740782c]
class W--><rect fill="#FEFECE" height="48" id="W" style="stroke: #A80036; stroke-width: 1.5;" width="75" x="727.5" y="561.5158"/><ellipse cx="742.5" cy="577.5158" fill="#ADD1B2" rx="11" ry="11" style="stroke: #A80036; stroke-width: 1.0;"/><path d="M745.4688,583.1565 Q744.8906,583.4533 744.25,583.594 Q743.6094,583.7502 742.9063,583.7502 Q740.4063,583.7502 739.0781,582.1096 Q737.7656,580.4533 737.7656,577.3283 Q737.7656,574.2033 739.0781,572.5471 Q740.4063,570.8908 742.9063,570.8908 Q743.6094,570.8908 744.25,571.0471 Q744.9063,571.2033 745.4688,571.5002 L745.4688,574.219 Q744.8438,573.6408 744.25,573.3752 Q743.6563,573.094 743.0313,573.094 Q741.6875,573.094 741,574.1721 Q740.3125,575.2346 740.3125,577.3283 Q740.3125,579.4221 741,580.5002 Q741.6875,581.5627 743.0313,581.5627 Q743.6563,581.5627 744.25,581.2971 Q744.8438,581.0158 745.4688,580.4377 L745.4688,583.1565 Z "/><text fill="#000000" font-family="sans-serif" font-size="12" lengthAdjust="spacingAndGlyphs" textLength="43" x="756.5" y="582.1719">Warrior</text><line style="stroke: #A80036; stroke-width: 1.5;" x1="728.5" x2="801.5" y1="593.5158" y2="593.5158"/><line style="stroke: #A80036; stroke-width: 1.5;" x1="728.5" x2="801.5" y1="601.5158" y2="601.5158"/><!--MD5=[ca86e0a6a0e0c1496e70ac1078033fbc]
class M--><rect fill="#FEFECE" height="48" id="M" style="stroke: #A80036; stroke-width: 1.5;" width="64" x="838" y="561.5158"/><ellipse cx="853" cy="577.5158" fill="#ADD1B2" rx="11" ry="11" style="stroke: #A80036; stroke-width: 1.0;"/><path d="M855.9688,583.1565 Q855.3906,583.4533 854.75,583.594 Q854.1094,583.7502 853.4063,583.7502 Q850.9063,583.7502 849.5781,582.1096 Q848.2656,580.4533 848.2656,577.3283 Q848.2656,574.2033 849.5781,572.5471 Q850.9063,570.8908 853.4063,570.8908 Q854.1094,570.8908 854.75,571.0471 Q855.4063,571.2033 855.9688,571.5002 L855.9688,574.219 Q855.3438,573.6408 854.75,573.3752 Q854.1563,573.094 853.5313,573.094 Q852.1875,573.094 851.5,574.1721 Q850.8125,575.2346 850.8125,577.3283 Q850.8125,579.4221 851.5,580.5002 Q852.1875,581.5627 853.5313,581.5627 Q854.1563,581.5627 854.75,581.2971 Q855.3438,581.0158 855.9688,580.4377 L855.9688,583.1565 Z "/><text fill="#000000" font-family="sans-serif" font-size="12" lengthAdjust="spacingAndGlyphs" textLength="32" x="867" y="582.1719">Mage</text><line style="stroke: #A80036; stroke-width: 1.5;" x1="839" x2="901" y1="593.5158" y2="593.5158"/><line style="stroke: #A80036; stroke-width: 1.5;" x1="839" x2="901" y1="601.5158" y2="601.5158"/><!--MD5=[7d47f147cf53121ff0f5b2a09b7c05fd]
class REG--><rect fill="#FEFECE" height="77.9638" id="REG" style="stroke: #A80036; stroke-width: 1.5;" width="133" x="844.5" y="104.5158"/><ellipse cx="859.5" cy="120.5158" fill="#ADD1B2" rx="11" ry="11" style="stroke: #A80036; stroke-width: 1.0;"/><path d="M862.4688,126.1565 Q861.8906,126.4533 861.25,126.594 Q860.6094,126.7502 859.9063,126.7502 Q857.4063,126.7502 856.0781,125.1096 Q854.7656,123.4533 854.7656,120.3283 Q854.7656,117.2033 856.0781,115.5471 Q857.4063,113.8908 859.9063,113.8908 Q860.6094,113.8908 861.25,114.0471 Q861.9063,114.2033 862.4688,114.5002 L862.4688,117.219 Q861.8438,116.6408 861.25,116.3752 Q860.6563,116.094 860.0313,116.094 Q858.6875,116.094 858,117.1721 Q857.3125,118.2346 857.3125,120.3283 Q857.3125,122.4221 858,123.5002 Q858.6875,124.5627 860.0313,124.5627 Q860.6563,124.5627 861.25,124.2971 Q861.8438,124.0158 862.4688,123.4377 L862.4688,126.1565 Z "/><text fill="#000000" font-family="sans-serif" font-size="12" lengthAdjust="spacingAndGlyphs" textLength="101" x="873.5" y="125.1719">CharacterRegistry</text><line style="stroke: #A80036; stroke-width: 1.5;" x1="845.5" x2="976.5" y1="136.5158" y2="136.5158"/><line style="stroke: #A80036; stroke-width: 1.5;" x1="845.5" x2="976.5" y1="144.5158" y2="144.5158"/><ellipse cx="855.5" cy="155.5158" fill="#84BE84" rx="3" ry="3" style="stroke: #038048; stroke-width: 1.0;"/><text fill="#000000" font-family="sans-serif" font-size="11" lengthAdjust="spacingAndGlyphs" textLength="79" x="864.5" y="160.2748">addPrototype()</text><ellipse cx="855.5" cy="170.4977" fill="#84BE84" rx="3" ry="3" style="stroke: #038048; stroke-width: 1.0;"/><text fill="#000000" font-family="sans-serif" font-size="11" lengthAdjust="spacingAndGlyphs" textLength="89" x="864.5" y="175.2566">createCharacter()</text><path d="M945,314.5158 L945,501.576 A0,0 0 0 0 945,501.576 L1097,501.576 A0,0 0 0 0 1097,501.576 L1097,324.5158 L1087,314.5158 L986.18,314.5158 L926.99,182.6858 L978.18,314.5158 L945,314.5158 A0,0 0 0 0 945,314.5158 " fill="#FBFB77" style="stroke: #A80036; stroke-width: 1.0;"/><path d="M1087,314.5158 L1087,324.5158 L1097,324.5158 L1087,314.5158 " fill="#FBFB77" style="stroke: #A80036; stroke-width: 1.0;"/><text fill="#000000" font-family="sans-serif" font-size="13" lengthAdjust="spacingAndGlyphs" textLength="11" x="951" y="333.4129">✅</text><text fill="#000000" font-family="sans-serif" font-size="13" font-weight="bold" lengthAdjust="spacingAndGlyphs" textLength="60" x="965" y="333.4129">Faydalar:</text><text fill="#000000" font-family="sans-serif" font-size="13" lengthAdjust="spacingAndGlyphs" textLength="108" x="951" y="351.1189">• Merkezi yönetim</text><text fill="#000000" font-family="sans-serif" font-size="13" lengthAdjust="spacingAndGlyphs" textLength="105" x="951" y="368.8249">• Prototip havuzu</text><text fill="#000000" font-family="sans-serif" font-size="13" lengthAdjust="spacingAndGlyphs" textLength="82" x="951" y="386.5309">• İsimle erişim</text><text fill="#000000" font-family="sans-serif" font-size="13" lengthAdjust="spacingAndGlyphs" textLength="88" x="951" y="404.2369">• Ölçeklenebilir</text><text fill="#000000" font-family="sans-serif" font-size="13" lengthAdjust="spacingAndGlyphs" textLength="0" x="954" y="421.9429"/><text fill="#000000" font-family="sans-serif" font-size="13" lengthAdjust="spacingAndGlyphs" textLength="10" x="951" y="439.649">❌</text><text fill="#000000" font-family="sans-serif" font-size="13" font-weight="bold" lengthAdjust="spacingAndGlyphs" textLength="58" x="964" y="439.649">Zararlar:</text><text fill="#000000" font-family="sans-serif" font-size="13" lengthAdjust="spacingAndGlyphs" textLength="131" x="951" y="457.355">• Fazladan karmaşıklık</text><text fill="#000000" font-family="sans-serif" font-size="13" lengthAdjust="spacingAndGlyphs" textLength="113" x="951" y="475.061">• Registry yönetimi</text><text fill="#000000" font-family="sans-serif" font-size="13" lengthAdjust="spacingAndGlyphs" textLength="95" x="951" y="492.767">• Daha fazla kod</text><path d="M6,32.5158 L6,254.988 L202,254.988 L202,42.5158 L192,32.5158 L6,32.5158 " fill="#FBFB77" style="stroke: #A80036; stroke-width: 1.0;"/><path d="M192,32.5158 L192,42.5158 L202,42.5158 L192,32.5158 " fill="#FBFB77" style="stroke: #A80036; stroke-width: 1.0;"/><text fill="#000000" font-family="sans-serif" font-size="13" font-weight="bold" lengthAdjust="spacingAndGlyphs" textLength="126" x="12" y="51.4129">Ne Zaman Hangisi?</text><text fill="#000000" font-family="sans-serif" font-size="13" lengthAdjust="spacingAndGlyphs" textLength="0" x="15" y="69.1189"/><text fill="#000000" font-family="sans-serif" font-size="13" font-weight="bold" lengthAdjust="spacingAndGlyphs" textLength="99" x="12" y="86.8249">Basit Yaklaşım:</text><text fill="#000000" font-family="sans-serif" font-size="13" lengthAdjust="spacingAndGlyphs" textLength="116" x="12" y="104.5309">• Az sayıda prototip</text><text fill="#000000" font-family="sans-serif" font-size="13" lengthAdjust="spacingAndGlyphs" textLength="95" x="12" y="122.2369">• Basit klonlama</text><text fill="#000000" font-family="sans-serif" font-size="13" lengthAdjust="spacingAndGlyphs" textLength="157" x="12" y="139.9429">• Prototip havuzu gereksiz</text><text fill="#000000" font-family="sans-serif" font-size="13" lengthAdjust="spacingAndGlyphs" textLength="0" x="15" y="157.649"/><text fill="#000000" font-family="sans-serif" font-size="13" font-weight="bold" lengthAdjust="spacingAndGlyphs" textLength="124" x="12" y="175.355">Registry Yaklaşımı:</text><text fill="#000000" font-family="sans-serif" font-size="13" lengthAdjust="spacingAndGlyphs" textLength="125" x="12" y="193.061">• Çok sayıda prototip</text><text fill="#000000" font-family="sans-serif" font-size="13" lengthAdjust="spacingAndGlyphs" textLength="111" x="12" y="210.767">• Dinamik yükleme</text><text fill="#000000" font-family="sans-serif" font-size="13" lengthAdjust="spacingAndGlyphs" textLength="151" x="12" y="228.473">• Merkezi yönetim gerekli</text><text fill="#000000" font-family="sans-serif" font-size="13" lengthAdjust="spacingAndGlyphs" textLength="175" x="12" y="246.179">• Oyun/Simülasyon sistemleri</text><!--MD5=[ecc294bf8885557f4ca18ea031513c03]
reverse link S1 to C1--><path d="M356.22,193.6558 C332.21,250.4358 293.72,341.4658 275.79,383.8758 " fill="none" id="S1&lt;-C1" style="stroke: #A80036; stroke-width: 1.0;"/><polygon fill="none" points="349.81,190.8358,364.05,175.1458,362.71,196.2858,349.81,190.8358" style="stroke: #A80036; stroke-width: 1.0;"/><!--MD5=[b503925c69ccd8354c7fc60076cd517b]
reverse link S1 to R1--><path d="M377,195.1558 C377,252.0158 377,341.8358 377,383.8758 " fill="none" id="S1&lt;-R1" style="stroke: #A80036; stroke-width: 1.0;"/><polygon fill="none" points="370,195.1458,377,175.1458,384,195.1458,370,195.1458" style="stroke: #A80036; stroke-width: 1.0;"/><!--MD5=[f73dcd0edc69141ac4c4621faa0a860d]
reverse link GC to W--><path d="M790.63,459.5758 C783.75,493.0958 775.05,535.5058 769.76,561.2958 " fill="none" id="GC&lt;-W" style="stroke: #A80036; stroke-width: 1.0;"/><polygon fill="none" points="783.85,457.7758,794.73,439.5858,797.57,460.5858,783.85,457.7758" style="stroke: #A80036; stroke-width: 1.0;"/><!--MD5=[76cf5645c3c1f5bece32de4c7de938c8]
reverse link GC to M--><path d="M820.5,458.6258 C833.74,492.2958 850.64,535.2658 860.87,561.2958 " fill="none" id="GC&lt;-M" style="stroke: #A80036; stroke-width: 1.0;"/><polygon fill="none" points="813.82,460.7558,813.02,439.5858,826.85,455.6358,813.82,460.7558" style="stroke: #A80036; stroke-width: 1.0;"/><!--MD5=[294f42ef3268767b105fa1b0ec8db6a4]
link REG to GC--><path d="M890.3722,193.7534 C890.3722,193.7534 838.37,317.8458 818.95,364.1758 " fill="none" id="REG-GC" style="stroke: #A80036; stroke-width: 1.0;"/><polygon fill="#A80036" points="813.92,376.1758,821.0836,369.4169,815.8497,371.5632,813.7034,366.3294,813.92,376.1758" style="stroke: #A80036; stroke-width: 1.0;"/><line style="stroke: #A80036; stroke-width: 1.0;" x1="815.8497" x2="818.945" y1="371.5632" y2="364.1908"/><polygon fill="#FFFFFF" points="895.01,182.6858,889.0019,186.6737,890.3722,193.7534,896.3803,189.7656,895.01,182.6858" style="stroke: #A80036; stroke-width: 1.0;"/><text fill="#888888" font-family="sans-serif" font-size="10" lengthAdjust="spacingAndGlyphs" textLength="268" x="439.5" y="662.2058">Oluşturulma: 17.10.2025 | Sürüm: 1.0.0 | Karşılaştırma</text><!--MD5=[92e892d8ac2bc3e2dd21b8399e0e1c6c]
@startuml

title Prototype Pattern - İki Yaklaşımın Karşılaştırması

skinparam backgroundColor #FFFFFF
skinparam shadowing false

package "Basit Yaklaşım (Registry Yok)" #E8F4F8 {
    class "Shape" as S1 {
        +clone(): unique_ptr<Shape>
    }
    
    class "Circle" as C1 {
    }
    
    class "Rectangle" as R1 {
    }
    
    S1 <|- - C1
    S1 <|- - R1
    
    note bottom of S1
      ✅ **Faydalar:**
      • Çok basit
      • Doğrudan klonlama
      • Az kod
      • Hızlı geliştirme
      
      ❌ **Zararlar:**
      • Her nesneyi elle yönetme
      • Merkezi kontrol yok
      • Prototip havuzu yok
    end note
}

package "Registry Yaklaşımı (Manager Var)" #FFE8CC {
    class "GameCharacter" as GC {
        +clone(): unique_ptr<GameCharacter>
    }
    
    class "Warrior" as W {
    }
    
    class "Mage" as M {
    }
    
    class "CharacterRegistry" as REG {
        +addPrototype()
        +createCharacter()
    }
    
    GC <|- - W
    GC <|- - M
    REG o- -> GC
    
    note bottom of REG
      ✅ **Faydalar:**
      • Merkezi yönetim
      • Prototip havuzu
      • İsimle erişim
      • Ölçeklenebilir
      
      ❌ **Zararlar:**
      • Fazladan karmaşıklık
      • Registry yönetimi
      • Daha fazla kod
    end note
}

note "**Ne Zaman Hangisi?**\n\n**Basit Yaklaşım:**\n• Az sayıda prototip\n• Basit klonlama\n• Prototip havuzu gereksiz\n\n**Registry Yaklaşımı:**\n• Çok sayıda prototip\n• Dinamik yükleme\n• Merkezi yönetim gerekli\n• Oyun/Simülasyon sistemleri" as CONCLUSION

footer Oluşturulma: 17.10.2025 | Sürüm: 1.0.0 | Karşılaştırma

@enduml

PlantUML version 1.2020.02(Sun Mar 01 13:22:07 TRT 2020)
(GPL source distribution)
Java Runtime: OpenJDK Runtime Environment
JVM: OpenJDK 64-Bit Server VM
Java Version: 21.0.8+9-Ubuntu-0ubuntu124.04.1
Operating System: Linux
Default Encoding: UTF-8
Language: en
Country: US
--></g></svg>