<?xml version="1.0" encoding="UTF-8" standalone="no"?><svg xmlns="http://www.w3.org/2000/svg" xmlns:xlink="http://www.w3.org/1999/xlink" contentScriptType="application/ecmascript" contentStyleType="text/css" height="563px" preserveAspectRatio="none" style="width:846px;height:563px;" version="1.1" viewBox="0 0 846 563" width="846px" zoomAndPan="magnify"><defs/><g><text fill="#000000" font-family="sans-serif" font-size="18" lengthAdjust="spacingAndGlyphs" textLength="467" x="192.5" y="19.2419">Builder Pattern - Yönlendirici Olmadan (Basit Yaklaşım)</text><!--MD5=[db25027423b3b96a5b12184dc6d389a4]
class Computer--><rect fill="#E8F4F8" height="122.9094" id="Computer" style="stroke: #2C5F7C; stroke-width: 1.5;" width="95" x="6" y="264.5158"/><ellipse cx="24.15" cy="280.5158" fill="#ADD1B2" rx="11" ry="11" style="stroke: #2C5F7C; stroke-width: 1.0;"/><path d="M27.1188,286.1565 Q26.5406,286.4533 25.9,286.594 Q25.2594,286.7502 24.5563,286.7502 Q22.0563,286.7502 20.7281,285.1096 Q19.4156,283.4533 19.4156,280.3283 Q19.4156,277.2033 20.7281,275.5471 Q22.0563,273.8908 24.5563,273.8908 Q25.2594,273.8908 25.9,274.0471 Q26.5563,274.2033 27.1188,274.5002 L27.1188,277.219 Q26.4938,276.6408 25.9,276.3752 Q25.3063,276.094 24.6813,276.094 Q23.3375,276.094 22.65,277.1721 Q21.9625,278.2346 21.9625,280.3283 Q21.9625,282.4221 22.65,283.5002 Q23.3375,284.5627 24.6813,284.5627 Q25.3063,284.5627 25.9,284.2971 Q26.4938,284.0158 27.1188,283.4377 L27.1188,286.1565 Z "/><text fill="#000000" font-family="sans-serif" font-size="12" lengthAdjust="spacingAndGlyphs" textLength="56" x="38.85" y="285.1719">Computer</text><line style="stroke: #2C5F7C; stroke-width: 1.5;" x1="7" x2="100" y1="296.5158" y2="296.5158"/><text fill="#000000" font-family="sans-serif" font-size="11" lengthAdjust="spacingAndGlyphs" textLength="65" x="12" y="312.2748">+CPU: string</text><text fill="#000000" font-family="sans-serif" font-size="11" lengthAdjust="spacingAndGlyphs" textLength="67" x="12" y="327.2566">+RAM: string</text><text fill="#000000" font-family="sans-serif" font-size="11" lengthAdjust="spacingAndGlyphs" textLength="83" x="12" y="342.2385">+storage: string</text><text fill="#000000" font-family="sans-serif" font-size="11" lengthAdjust="spacingAndGlyphs" textLength="66" x="12" y="357.2204">+GPU: string</text><line style="stroke: #2C5F7C; stroke-width: 1.5;" x1="7" x2="100" y1="364.4434" y2="364.4434"/><text fill="#000000" font-family="sans-serif" font-size="11" lengthAdjust="spacingAndGlyphs" textLength="69" x="12" y="380.2023">+show(): void</text><!--MD5=[f525174934fa869d5331376a0721a932]
class ComputerBuilder--><rect fill="#E8F4F8" height="152.8732" id="ComputerBuilder" style="stroke: #2C5F7C; stroke-width: 1.5;" width="199" x="123" y="32.5158"/><ellipse cx="172.25" cy="48.5158" fill="#A9DCDF" rx="11" ry="11" style="stroke: #2C5F7C; stroke-width: 1.0;"/><path d="M172.3594,43.8596 L171.2031,48.9377 L173.5313,48.9377 L172.3594,43.8596 Z M170.875,41.6252 L173.8594,41.6252 L177.2188,54.0158 L174.7656,54.0158 L174,50.9533 L170.7188,50.9533 L169.9688,54.0158 L167.5313,54.0158 L170.875,41.6252 Z "/><text fill="#000000" font-family="sans-serif" font-size="12" font-style="italic" lengthAdjust="spacingAndGlyphs" textLength="92" x="192.75" y="53.1719">ComputerBuilder</text><line style="stroke: #2C5F7C; stroke-width: 1.5;" x1="124" x2="321" y1="64.5158" y2="64.5158"/><text fill="#000000" font-family="sans-serif" font-size="11" lengthAdjust="spacingAndGlyphs" textLength="187" x="129" y="80.2748">#computer: unique_ptr&lt;Computer&gt;</text><line style="stroke: #2C5F7C; stroke-width: 1.5;" x1="124" x2="321" y1="87.4977" y2="87.4977"/><text fill="#000000" font-family="sans-serif" font-size="11" lengthAdjust="spacingAndGlyphs" textLength="103" x="129" y="103.2566">+ComputerBuilder()</text><text fill="#000000" font-family="sans-serif" font-size="11" font-style="italic" lengthAdjust="spacingAndGlyphs" textLength="81" x="129" y="118.2385">+buildCPU(): void</text><text fill="#000000" font-family="sans-serif" font-size="11" font-style="italic" lengthAdjust="spacingAndGlyphs" textLength="83" x="129" y="133.2204">+buildRAM(): void</text><text fill="#000000" font-family="sans-serif" font-size="11" font-style="italic" lengthAdjust="spacingAndGlyphs" textLength="99" x="129" y="148.2023">+buildStorage(): void</text><text fill="#000000" font-family="sans-serif" font-size="11" font-style="italic" lengthAdjust="spacingAndGlyphs" textLength="82" x="129" y="163.1842">+buildGPU(): void</text><text fill="#000000" font-family="sans-serif" font-size="11" lengthAdjust="spacingAndGlyphs" textLength="168" x="129" y="178.1661">+build(): unique_ptr&lt;Computer&gt;</text><!--MD5=[0a4c8d2d4acea110ff40d669ef0d71ac]
class GamingComputerBuilder--><rect fill="#E8F4F8" height="107.9276" id="GamingComputerBuilder" style="stroke: #2C5F7C; stroke-width: 1.5;" width="172" x="136.5" y="272.0158"/><ellipse cx="151.5" cy="288.0158" fill="#ADD1B2" rx="11" ry="11" style="stroke: #2C5F7C; stroke-width: 1.0;"/><path d="M154.4688,293.6565 Q153.8906,293.9533 153.25,294.094 Q152.6094,294.2502 151.9063,294.2502 Q149.4063,294.2502 148.0781,292.6096 Q146.7656,290.9533 146.7656,287.8283 Q146.7656,284.7033 148.0781,283.0471 Q149.4063,281.3908 151.9063,281.3908 Q152.6094,281.3908 153.25,281.5471 Q153.9063,281.7033 154.4688,282.0002 L154.4688,284.719 Q153.8438,284.1408 153.25,283.8752 Q152.6563,283.594 152.0313,283.594 Q150.6875,283.594 150,284.6721 Q149.3125,285.7346 149.3125,287.8283 Q149.3125,289.9221 150,291.0002 Q150.6875,292.0627 152.0313,292.0627 Q152.6563,292.0627 153.25,291.7971 Q153.8438,291.5158 154.4688,290.9377 L154.4688,293.6565 Z "/><text fill="#000000" font-family="sans-serif" font-size="12" lengthAdjust="spacingAndGlyphs" textLength="140" x="165.5" y="292.6719">GamingComputerBuilder</text><line style="stroke: #2C5F7C; stroke-width: 1.5;" x1="137.5" x2="307.5" y1="304.0158" y2="304.0158"/><line style="stroke: #2C5F7C; stroke-width: 1.5;" x1="137.5" x2="307.5" y1="312.0158" y2="312.0158"/><text fill="#000000" font-family="sans-serif" font-size="11" lengthAdjust="spacingAndGlyphs" textLength="90" x="142.5" y="327.7748">+buildCPU(): void</text><text fill="#000000" font-family="sans-serif" font-size="11" lengthAdjust="spacingAndGlyphs" textLength="92" x="142.5" y="342.7566">+buildRAM(): void</text><text fill="#000000" font-family="sans-serif" font-size="11" lengthAdjust="spacingAndGlyphs" textLength="109" x="142.5" y="357.7385">+buildStorage(): void</text><text fill="#000000" font-family="sans-serif" font-size="11" lengthAdjust="spacingAndGlyphs" textLength="91" x="142.5" y="372.7204">+buildGPU(): void</text><!--MD5=[51f2732c748027e0bdd4b44a442c42bf]
class OfficeComputerBuilder--><rect fill="#E8F4F8" height="107.9276" id="OfficeComputerBuilder" style="stroke: #2C5F7C; stroke-width: 1.5;" width="161" x="344" y="272.0158"/><ellipse cx="359" cy="288.0158" fill="#ADD1B2" rx="11" ry="11" style="stroke: #2C5F7C; stroke-width: 1.0;"/><path d="M361.9688,293.6565 Q361.3906,293.9533 360.75,294.094 Q360.1094,294.2502 359.4063,294.2502 Q356.9063,294.2502 355.5781,292.6096 Q354.2656,290.9533 354.2656,287.8283 Q354.2656,284.7033 355.5781,283.0471 Q356.9063,281.3908 359.4063,281.3908 Q360.1094,281.3908 360.75,281.5471 Q361.4063,281.7033 361.9688,282.0002 L361.9688,284.719 Q361.3438,284.1408 360.75,283.8752 Q360.1563,283.594 359.5313,283.594 Q358.1875,283.594 357.5,284.6721 Q356.8125,285.7346 356.8125,287.8283 Q356.8125,289.9221 357.5,291.0002 Q358.1875,292.0627 359.5313,292.0627 Q360.1563,292.0627 360.75,291.7971 Q361.3438,291.5158 361.9688,290.9377 L361.9688,293.6565 Z "/><text fill="#000000" font-family="sans-serif" font-size="12" lengthAdjust="spacingAndGlyphs" textLength="129" x="373" y="292.6719">OfficeComputerBuilder</text><line style="stroke: #2C5F7C; stroke-width: 1.5;" x1="345" x2="504" y1="304.0158" y2="304.0158"/><line style="stroke: #2C5F7C; stroke-width: 1.5;" x1="345" x2="504" y1="312.0158" y2="312.0158"/><text fill="#000000" font-family="sans-serif" font-size="11" lengthAdjust="spacingAndGlyphs" textLength="90" x="350" y="327.7748">+buildCPU(): void</text><text fill="#000000" font-family="sans-serif" font-size="11" lengthAdjust="spacingAndGlyphs" textLength="92" x="350" y="342.7566">+buildRAM(): void</text><text fill="#000000" font-family="sans-serif" font-size="11" lengthAdjust="spacingAndGlyphs" textLength="109" x="350" y="357.7385">+buildStorage(): void</text><text fill="#000000" font-family="sans-serif" font-size="11" lengthAdjust="spacingAndGlyphs" textLength="91" x="350" y="372.7204">+buildGPU(): void</text><path d="M357,33.0158 L357,105.0158 L322.21,109.0158 L357,113.0158 L357,184.664 A0,0 0 0 0 357,184.664 L624,184.664 A0,0 0 0 0 624,184.664 L624,43.0158 L614,33.0158 L357,33.0158 A0,0 0 0 0 357,33.0158 " fill="#FBFB77" style="stroke: #A80036; stroke-width: 1.0;"/><path d="M614,33.0158 L614,43.0158 L624,43.0158 L614,33.0158 " fill="#FBFB77" style="stroke: #A80036; stroke-width: 1.0;"/><text fill="#000000" font-family="sans-serif" font-size="13" font-weight="bold" lengthAdjust="spacingAndGlyphs" textLength="246" x="363" y="51.9129">build() metodu construction'ı yönetir:</text><text fill="#000000" font-family="sans-serif" font-size="13" lengthAdjust="spacingAndGlyphs" textLength="77" x="363" y="69.6189">1. buildCPU()</text><text fill="#000000" font-family="sans-serif" font-size="13" lengthAdjust="spacingAndGlyphs" textLength="79" x="363" y="87.3249">2. buildRAM()</text><text fill="#000000" font-family="sans-serif" font-size="13" lengthAdjust="spacingAndGlyphs" textLength="98" x="363" y="105.0309">3. buildStorage()</text><text fill="#000000" font-family="sans-serif" font-size="13" lengthAdjust="spacingAndGlyphs" textLength="78" x="363" y="122.7369">4. buildGPU()</text><text fill="#000000" font-family="sans-serif" font-size="13" lengthAdjust="spacingAndGlyphs" textLength="113" x="363" y="140.4429">5. return computer</text><text fill="#000000" font-family="sans-serif" font-size="13" lengthAdjust="spacingAndGlyphs" textLength="0" x="366" y="158.149"/><text fill="#000000" font-family="sans-serif" font-size="13" font-weight="bold" lengthAdjust="spacingAndGlyphs" textLength="137" x="363" y="175.855">Director'a gerek yok!</text><path d="M113,448.5158 L113,529.3399 A0,0 0 0 0 113,529.3399 L332,529.3399 A0,0 0 0 0 332,529.3399 L332,458.5158 L322,448.5158 L226.5,448.5158 L222.5,380.1758 L218.5,448.5158 L113,448.5158 A0,0 0 0 0 113,448.5158 " fill="#FBFB77" style="stroke: #A80036; stroke-width: 1.0;"/><path d="M322,448.5158 L322,458.5158 L332,458.5158 L322,448.5158 " fill="#FBFB77" style="stroke: #A80036; stroke-width: 1.0;"/><text fill="#000000" font-family="sans-serif" font-size="13" font-weight="bold" lengthAdjust="spacingAndGlyphs" textLength="108" x="119" y="467.4129">Örnek Kullanım:</text><text fill="#000000" font-family="sans-serif" font-size="13" lengthAdjust="spacingAndGlyphs" textLength="198" x="119" y="485.1189">GamingComputerBuilder builder;</text><text fill="#000000" font-family="sans-serif" font-size="13" lengthAdjust="spacingAndGlyphs" textLength="144" x="119" y="502.8249">auto pc = builder.build();</text><text fill="#000000" font-family="sans-serif" font-size="13" lengthAdjust="spacingAndGlyphs" textLength="68" x="119" y="520.5309">pc-&gt;show();</text><path d="M659,59.5158 L659,158.0459 L834,158.0459 L834,69.5158 L824,59.5158 L659,59.5158 " fill="#FBFB77" style="stroke: #A80036; stroke-width: 1.0;"/><path d="M824,59.5158 L824,69.5158 L834,69.5158 L824,59.5158 " fill="#FBFB77" style="stroke: #A80036; stroke-width: 1.0;"/><text fill="#000000" font-family="sans-serif" font-size="13" font-weight="bold" lengthAdjust="spacingAndGlyphs" textLength="64" x="665" y="78.4129">Faydaları:</text><text fill="#000000" font-family="sans-serif" font-size="13" lengthAdjust="spacingAndGlyphs" textLength="97" x="665" y="96.1189">• Daha basit kod</text><text fill="#000000" font-family="sans-serif" font-size="13" lengthAdjust="spacingAndGlyphs" textLength="82" x="665" y="113.8249">• Daha az sınıf</text><text fill="#000000" font-family="sans-serif" font-size="13" lengthAdjust="spacingAndGlyphs" textLength="154" x="665" y="131.5309">• Client için kolay kullanım</text><text fill="#000000" font-family="sans-serif" font-size="13" lengthAdjust="spacingAndGlyphs" textLength="135" x="665" y="149.2369">• Çağdaş C++ yaklaşımı</text><!--MD5=[853c339bb681e27a313115bc0a24932b]
link ComputerBuilder to Computer--><path d="M162.92,185.8158 C143.78,210.1558 122.78,236.8858 104.33,260.3558 " fill="none" id="ComputerBuilder-&gt;Computer" style="stroke: #2C5F7C; stroke-width: 1.0; stroke-dasharray: 7.0,7.0;"/><polygon fill="#2C5F7C" points="101.15,264.3958,109.8652,259.8084,104.2473,260.4707,103.585,254.8527,101.15,264.3958" style="stroke: #2C5F7C; stroke-width: 1.0;"/><text fill="#000000" font-family="sans-serif" font-size="13" lengthAdjust="spacingAndGlyphs" textLength="57" x="139.5" y="230.4129">«creates»</text><!--MD5=[d6427cb03c080cfc3cb055773e17dd98]
reverse link ComputerBuilder to GamingComputerBuilder--><path d="M222.5,205.8658 C222.5,228.5158 222.5,251.8558 222.5,271.8158 " fill="none" id="ComputerBuilder&lt;-GamingComputerBuilder" style="stroke: #2C5F7C; stroke-width: 1.0;"/><polygon fill="none" points="215.5,205.8158,222.5,185.8158,229.5,205.8158,215.5,205.8158" style="stroke: #2C5F7C; stroke-width: 1.0;"/><!--MD5=[18986240f59ec754e46ac022a50eba92]
reverse link ComputerBuilder to OfficeComputerBuilder--><path d="M307.71,200.7058 C330.48,224.9358 354.34,250.3358 374.52,271.8158 " fill="none" id="ComputerBuilder&lt;-OfficeComputerBuilder" style="stroke: #2C5F7C; stroke-width: 1.0;"/><polygon fill="none" points="302.31,205.1858,293.72,185.8158,312.51,195.5958,302.31,205.1858" style="stroke: #2C5F7C; stroke-width: 1.0;"/><text fill="#888888" font-family="sans-serif" font-size="10" lengthAdjust="spacingAndGlyphs" textLength="363" x="244.5" y="550.2058">Oluşturulma: 15.10.2025 | Sürüm: 1.0.1 | Pattern: Builder (Basitleştirilmiş)</text><!--MD5=[66b9e2c737631c22c72c717dc4243cc4]
@startuml

title Builder Pattern - Yönlendirici Olmadan (Basit Yaklaşım)

skinparam classAttributeIconSize 0
skinparam backgroundColor #FFFFFF
skinparam shadowing false

skinparam class {
    BackgroundColor #E8F4F8
    BorderColor #2C5F7C
    ArrowColor #2C5F7C
}

class Computer {
    +CPU: string
    +RAM: string
    +storage: string
    +GPU: string
    __
    +show(): void
}

abstract class ComputerBuilder {
    #computer: unique_ptr<Computer>
    __
    +ComputerBuilder()
    +{abstract} buildCPU(): void
    +{abstract} buildRAM(): void
    +{abstract} buildStorage(): void
    +{abstract} buildGPU(): void
    +build(): unique_ptr<Computer>
}

class GamingComputerBuilder {
    +buildCPU(): void
    +buildRAM(): void
    +buildStorage(): void
    +buildGPU(): void
}

class OfficeComputerBuilder {
    +buildCPU(): void
    +buildRAM(): void
    +buildStorage(): void
    +buildGPU(): void
}

ComputerBuilder ..> Computer : <<creates>>
ComputerBuilder <|- - GamingComputerBuilder
ComputerBuilder <|- - OfficeComputerBuilder

note right of ComputerBuilder
  **build() metodu construction'ı yönetir:**
  1. buildCPU()
  2. buildRAM()
  3. buildStorage()
  4. buildGPU()
  5. return computer
  
  **Director'a gerek yok!**
end note

note bottom of GamingComputerBuilder
  **Örnek Kullanım:**
  GamingComputerBuilder builder;
  auto pc = builder.build();
  pc->show();
end note

note "**Faydaları:**\n• Daha basit kod\n• Daha az sınıf\n• Client için kolay kullanım\n• Çağdaş C++ yaklaşımı" as N1

footer Oluşturulma: 15.10.2025 | Sürüm: 1.0.1 | Pattern: Builder (Basitleştirilmiş)

@enduml

PlantUML version 1.2020.02(Sun Mar 01 13:22:07 TRT 2020)
(GPL source distribution)
Java Runtime: OpenJDK Runtime Environment
JVM: OpenJDK 64-Bit Server VM
Java Version: 21.0.8+9-Ubuntu-0ubuntu124.04.1
Operating System: Linux
Default Encoding: UTF-8
Language: en
Country: US
--></g></svg>