<svg xmlns="http://www.w3.org/2000/svg" xmlns:xlink="http://www.w3.org/1999/xlink" contentStyleType="text/css" data-diagram-type="CLASS" height="569px" preserveAspectRatio="none" style="width:976px;height:569px;background:#FFFFFF;" version="1.1" viewBox="0 0 976 569" width="976px" zoomAndPan="magnify"><title>Builder Pattern - Director Olmadan (Basit Yakla&#351;&#305;m)</title><defs/><g><g class="title" data-source-line="13"><text fill="#000000" font-family="sans-serif" font-size="14" font-weight="bold" lengthAdjust="spacing" textLength="409.2744" x="276.697" y="22.9951">Builder Pattern - Director Olmadan (Basit Yakla&#351;&#305;m)</text></g><!--class Computer--><g class="entity" data-entity="Computer" data-source-line="26" data-uid="ent0002" id="entity_Computer"><rect fill="#E8F4F8" height="129.4844" rx="2.5" ry="2.5" style="stroke:#2C5F7C;stroke-width:0.5;" width="126.2695" x="7" y="283.2969"/><ellipse cx="33.1028" cy="299.2969" fill="#ADD1B2" rx="11" ry="11" style="stroke:#181818;stroke-width:1;"/><path d="M36.0715,304.9375 Q35.4934,305.2344 34.8528,305.375 Q34.2122,305.5313 33.509,305.5313 Q31.009,305.5313 29.6809,303.8906 Q28.3684,302.2344 28.3684,299.1094 Q28.3684,295.9844 29.6809,294.3281 Q31.009,292.6719 33.509,292.6719 Q34.2122,292.6719 34.8528,292.8281 Q35.509,292.9844 36.0715,293.2813 L36.0715,296 Q35.4465,295.4219 34.8528,295.1563 Q34.259,294.875 33.634,294.875 Q32.2903,294.875 31.6028,295.9531 Q30.9153,297.0156 30.9153,299.1094 Q30.9153,301.2031 31.6028,302.2813 Q32.2903,303.3438 33.634,303.3438 Q34.259,303.3438 34.8528,303.0781 Q35.4465,302.7969 36.0715,302.2188 L36.0715,304.9375 Z " fill="#000000"/><text fill="#000000" font-family="sans-serif" font-size="14" lengthAdjust="spacing" textLength="69.5967" x="49.5701" y="304.1436">Computer</text><line style="stroke:#2C5F7C;stroke-width:0.5;" x1="8" x2="132.2695" y1="315.2969" y2="315.2969"/><text fill="#000000" font-family="sans-serif" font-size="14" lengthAdjust="spacing" textLength="89.5508" x="13" y="332.292">+CPU: string</text><text fill="#000000" font-family="sans-serif" font-size="14" lengthAdjust="spacing" textLength="92.4697" x="13" y="348.5889">+RAM: string</text><text fill="#000000" font-family="sans-serif" font-size="14" lengthAdjust="spacing" textLength="114.2695" x="13" y="364.8857">+storage: string</text><text fill="#000000" font-family="sans-serif" font-size="14" lengthAdjust="spacing" textLength="90.624" x="13" y="381.1826">+GPU: string</text><line style="stroke:#2C5F7C;stroke-width:0.5;" x1="8" x2="132.2695" y1="388.4844" y2="388.4844"/><text fill="#000000" font-family="sans-serif" font-size="14" lengthAdjust="spacing" textLength="97.6309" x="13" y="405.4795">+show(): void</text></g><!--class ComputerBuilder--><g class="entity" data-entity="ComputerBuilder" data-source-line="36" data-uid="ent0003" id="entity_ComputerBuilder"><rect fill="#E8F4F8" height="162.0781" rx="2.5" ry="2.5" style="stroke:#2C5F7C;stroke-width:0.5;" width="268.6143" x="136.5" y="44.2969"/><ellipse cx="207.0024" cy="60.2969" fill="#A9DCDF" rx="11" ry="11" style="stroke:#181818;stroke-width:1;"/><path d="M207.1118,55.6406 L205.9556,60.7188 L208.2837,60.7188 L207.1118,55.6406 Z M205.6274,53.4063 L208.6118,53.4063 L211.9712,65.7969 L209.5181,65.7969 L208.7524,62.7344 L205.4712,62.7344 L204.7212,65.7969 L202.2837,65.7969 L205.6274,53.4063 Z " fill="#000000"/><text fill="#000000" font-family="sans-serif" font-size="14" font-style="italic" lengthAdjust="spacing" textLength="119.1094" x="227.5024" y="65.1436">ComputerBuilder</text><line style="stroke:#2C5F7C;stroke-width:0.5;" x1="137.5" x2="404.1143" y1="76.2969" y2="76.2969"/><text fill="#000000" font-family="sans-serif" font-size="14" lengthAdjust="spacing" textLength="256.6143" x="142.5" y="93.292">#computer: unique_ptr&lt;Computer&gt;</text><line style="stroke:#2C5F7C;stroke-width:0.5;" x1="137.5" x2="404.1143" y1="100.5938" y2="100.5938"/><text fill="#000000" font-family="sans-serif" font-size="14" lengthAdjust="spacing" textLength="141.7637" x="142.5" y="117.5889">+ComputerBuilder()</text><text fill="#000000" font-family="sans-serif" font-size="14" font-style="italic" lengthAdjust="spacing" textLength="124.3389" x="142.5" y="133.8857">+buildCPU(): void</text><text fill="#000000" font-family="sans-serif" font-size="14" font-style="italic" lengthAdjust="spacing" textLength="127.2578" x="142.5" y="150.1826">+buildRAM(): void</text><text fill="#000000" font-family="sans-serif" font-size="14" font-style="italic" lengthAdjust="spacing" textLength="150.6504" x="142.5" y="166.4795">+buildStorage(): void</text><text fill="#000000" font-family="sans-serif" font-size="14" font-style="italic" lengthAdjust="spacing" textLength="125.4121" x="142.5" y="182.7764">+buildGPU(): void</text><text fill="#000000" font-family="sans-serif" font-size="14" lengthAdjust="spacing" textLength="234.4453" x="142.5" y="199.0732">+build(): unique_ptr&lt;Computer&gt;</text></g><!--class GamingComputerBuilder--><g class="entity" data-entity="GamingComputerBuilder" data-source-line="48" data-uid="ent0004" id="entity_GamingComputerBuilder"><rect fill="#E8F4F8" height="113.1875" rx="2.5" ry="2.5" style="stroke:#2C5F7C;stroke-width:0.5;" width="205.8242" x="168" y="291.2969"/><ellipse cx="183" cy="307.2969" fill="#ADD1B2" rx="11" ry="11" style="stroke:#181818;stroke-width:1;"/><path d="M185.9688,312.9375 Q185.3906,313.2344 184.75,313.375 Q184.1094,313.5313 183.4063,313.5313 Q180.9063,313.5313 179.5781,311.8906 Q178.2656,310.2344 178.2656,307.1094 Q178.2656,303.9844 179.5781,302.3281 Q180.9063,300.6719 183.4063,300.6719 Q184.1094,300.6719 184.75,300.8281 Q185.4063,300.9844 185.9688,301.2813 L185.9688,304 Q185.3438,303.4219 184.75,303.1563 Q184.1563,302.875 183.5313,302.875 Q182.1875,302.875 181.5,303.9531 Q180.8125,305.0156 180.8125,307.1094 Q180.8125,309.2031 181.5,310.2813 Q182.1875,311.3438 183.5313,311.3438 Q184.1563,311.3438 184.75,311.0781 Q185.3438,310.7969 185.9688,310.2188 L185.9688,312.9375 Z " fill="#000000"/><text fill="#000000" font-family="sans-serif" font-size="14" lengthAdjust="spacing" textLength="173.8242" x="197" y="312.1436">GamingComputerBuilder</text><line style="stroke:#2C5F7C;stroke-width:0.5;" x1="169" x2="372.8242" y1="323.2969" y2="323.2969"/><line style="stroke:#2C5F7C;stroke-width:0.5;" x1="169" x2="372.8242" y1="331.2969" y2="331.2969"/><text fill="#000000" font-family="sans-serif" font-size="14" lengthAdjust="spacing" textLength="124.3389" x="174" y="348.292">+buildCPU(): void</text><text fill="#000000" font-family="sans-serif" font-size="14" lengthAdjust="spacing" textLength="127.2578" x="174" y="364.5889">+buildRAM(): void</text><text fill="#000000" font-family="sans-serif" font-size="14" lengthAdjust="spacing" textLength="150.6504" x="174" y="380.8857">+buildStorage(): void</text><text fill="#000000" font-family="sans-serif" font-size="14" lengthAdjust="spacing" textLength="125.4121" x="174" y="397.1826">+buildGPU(): void</text></g><!--class OfficeComputerBuilder--><g class="entity" data-entity="OfficeComputerBuilder" data-source-line="55" data-uid="ent0005" id="entity_OfficeComputerBuilder"><rect fill="#E8F4F8" height="113.1875" rx="2.5" ry="2.5" style="stroke:#2C5F7C;stroke-width:0.5;" width="192.1865" x="409" y="291.2969"/><ellipse cx="424" cy="307.2969" fill="#ADD1B2" rx="11" ry="11" style="stroke:#181818;stroke-width:1;"/><path d="M426.9688,312.9375 Q426.3906,313.2344 425.75,313.375 Q425.1094,313.5313 424.4063,313.5313 Q421.9063,313.5313 420.5781,311.8906 Q419.2656,310.2344 419.2656,307.1094 Q419.2656,303.9844 420.5781,302.3281 Q421.9063,300.6719 424.4063,300.6719 Q425.1094,300.6719 425.75,300.8281 Q426.4063,300.9844 426.9688,301.2813 L426.9688,304 Q426.3438,303.4219 425.75,303.1563 Q425.1563,302.875 424.5313,302.875 Q423.1875,302.875 422.5,303.9531 Q421.8125,305.0156 421.8125,307.1094 Q421.8125,309.2031 422.5,310.2813 Q423.1875,311.3438 424.5313,311.3438 Q425.1563,311.3438 425.75,311.0781 Q426.3438,310.7969 426.9688,310.2188 L426.9688,312.9375 Z " fill="#000000"/><text fill="#000000" font-family="sans-serif" font-size="14" lengthAdjust="spacing" textLength="160.1865" x="438" y="312.1436">OfficeComputerBuilder</text><line style="stroke:#2C5F7C;stroke-width:0.5;" x1="410" x2="600.1865" y1="323.2969" y2="323.2969"/><line style="stroke:#2C5F7C;stroke-width:0.5;" x1="410" x2="600.1865" y1="331.2969" y2="331.2969"/><text fill="#000000" font-family="sans-serif" font-size="14" lengthAdjust="spacing" textLength="124.3389" x="415" y="348.292">+buildCPU(): void</text><text fill="#000000" font-family="sans-serif" font-size="14" lengthAdjust="spacing" textLength="127.2578" x="415" y="364.5889">+buildRAM(): void</text><text fill="#000000" font-family="sans-serif" font-size="14" lengthAdjust="spacing" textLength="150.6504" x="415" y="380.8857">+buildStorage(): void</text><text fill="#000000" font-family="sans-serif" font-size="14" lengthAdjust="spacing" textLength="125.4121" x="415" y="397.1826">+buildGPU(): void</text></g><g class="entity" data-entity="GMN9" data-source-line="68" data-uid="ent0010" id="entity_GMN9"><path d="M441,59.7969 L441,121.2969 L405.58,125.2969 L441,129.2969 L441,190.8594 A0,0 0 0 0 441,190.8594 L738.5737,190.8594 A0,0 0 0 0 738.5737,190.8594 L738.5737,69.7969 L728.5737,59.7969 L441,59.7969 A0,0 0 0 0 441,59.7969" fill="#FEFFDD" style="stroke:#181818;stroke-width:0.5;"/><path d="M728.5737,59.7969 L728.5737,69.7969 L738.5737,69.7969 L728.5737,59.7969" fill="#FEFFDD" style="stroke:#181818;stroke-width:0.5;"/><text fill="#000000" font-family="sans-serif" font-size="13" font-weight="bold" lengthAdjust="spacing" textLength="276.5737" x="447" y="76.8638">build() metodu construction'&#305; y&#246;netir:</text><text fill="#000000" font-family="sans-serif" font-size="13" lengthAdjust="spacing" textLength="85.0776" x="447" y="91.9966">1. buildCPU()</text><text fill="#000000" font-family="sans-serif" font-size="13" lengthAdjust="spacing" textLength="87.7881" x="447" y="107.1294">2. buildRAM()</text><text fill="#000000" font-family="sans-serif" font-size="13" lengthAdjust="spacing" textLength="109.5098" x="447" y="122.2622">3. buildStorage()</text><text fill="#000000" font-family="sans-serif" font-size="13" lengthAdjust="spacing" textLength="86.0742" x="447" y="137.395">4. buildGPU()</text><text fill="#000000" font-family="sans-serif" font-size="13" lengthAdjust="spacing" textLength="123.627" x="447" y="152.5278">5. return computer</text><text fill="#000000" font-family="sans-serif" font-size="13" lengthAdjust="spacing" textLength="4.1323" x="447" y="167.6606">&#160;</text><text fill="#000000" font-family="sans-serif" font-size="13" font-weight="bold" lengthAdjust="spacing" textLength="155.5176" x="447" y="182.7935">Director'a gerek yok!</text></g><g class="entity" data-entity="GMN12" data-source-line="79" data-uid="ent0013" id="entity_GMN12"><path d="M153,473.2969 L153,543.8281 A0,0 0 0 0 153,543.8281 L389.23,543.8281 A0,0 0 0 0 389.23,543.8281 L389.23,483.2969 L379.23,473.2969 L275,473.2969 L271,404.4069 L267,473.2969 L153,473.2969 A0,0 0 0 0 153,473.2969" fill="#FEFFDD" style="stroke:#181818;stroke-width:0.5;"/><path d="M379.23,473.2969 L379.23,483.2969 L389.23,483.2969 L379.23,473.2969" fill="#FEFFDD" style="stroke:#181818;stroke-width:0.5;"/><text fill="#000000" font-family="sans-serif" font-size="13" font-weight="bold" lengthAdjust="spacing" textLength="118.1743" x="159" y="490.3638">&#214;rnek Kullan&#305;m:</text><text fill="#000000" font-family="sans-serif" font-size="13" lengthAdjust="spacing" textLength="215.23" x="159" y="505.4966">GamingComputerBuilder builder;</text><text fill="#000000" font-family="sans-serif" font-size="13" lengthAdjust="spacing" textLength="163.8774" x="159" y="520.6294">auto pc = builder.build();</text><text fill="#000000" font-family="sans-serif" font-size="13" lengthAdjust="spacing" textLength="79.1045" x="159" y="535.7622">pc-&gt;show();</text></g><g class="entity" data-entity="N1" data-source-line="85" data-uid="ent0015" id="entity_N1"><path d="M774,82.2969 L774,167.9609 L969.6685,167.9609 L969.6685,92.2969 L959.6685,82.2969 L774,82.2969" fill="#FEFFDD" style="stroke:#181818;stroke-width:0.5;"/><path d="M959.6685,82.2969 L959.6685,92.2969 L969.6685,92.2969 L959.6685,82.2969" fill="#FEFFDD" style="stroke:#181818;stroke-width:1;"/><text fill="#000000" font-family="sans-serif" font-size="13" font-weight="bold" lengthAdjust="spacing" textLength="80.8438" x="780" y="99.3638">Avantajlar:</text><text fill="#000000" font-family="sans-serif" font-size="13" lengthAdjust="spacing" textLength="109.6812" x="780" y="114.4966">&#8226; Daha basit kod</text><text fill="#000000" font-family="sans-serif" font-size="13" lengthAdjust="spacing" textLength="95.8496" x="780" y="129.6294">&#8226; Daha az s&#305;n&#305;f</text><text fill="#000000" font-family="sans-serif" font-size="13" lengthAdjust="spacing" textLength="174.6685" x="780" y="144.7622">&#8226; Client i&#231;in kolay kullan&#305;m</text><text fill="#000000" font-family="sans-serif" font-size="13" lengthAdjust="spacing" textLength="161.3574" x="780" y="159.895">&#8226; Modern C++ yakla&#351;&#305;m&#305;</text></g><!--link ComputerBuilder to Computer--><g class="link" data-entity-1="ComputerBuilder" data-entity-2="Computer" data-source-line="63" data-uid="lnk6" id="link_ComputerBuilder_Computer"><path codeLine="63" d="M197.87,206.5269 C174.85,231.7669 153.8116,254.8523 132.0116,278.7723" fill="none" id="ComputerBuilder-to-Computer" style="stroke:#2C5F7C;stroke-width:1;stroke-dasharray:7.0,7.0;"/><polygon fill="#2C5F7C" points="127.97,283.2069,136.9888,279.2493,131.338,279.5114,131.076,273.8606,127.97,283.2069" style="stroke:#2C5F7C;stroke-width:1;"/><text fill="#000000" font-family="sans-serif" font-size="13" lengthAdjust="spacing" textLength="64.2319" x="172" y="249.3638">&#171;creates&#187;</text></g><!--reverse link ComputerBuilder to GamingComputerBuilder--><g class="link" data-entity-1="ComputerBuilder" data-entity-2="GamingComputerBuilder" data-source-line="64" data-uid="lnk7" id="link_ComputerBuilder_GamingComputerBuilder"><path codeLine="64" d="M271,224.5269 C271,252.5969 271,265.4869 271,291.1169" fill="none" id="ComputerBuilder-backto-GamingComputerBuilder" style="stroke:#2C5F7C;stroke-width:1;"/><polygon fill="none" points="271,206.5269,265,224.5269,277,224.5269,271,206.5269" style="stroke:#2C5F7C;stroke-width:1;"/></g><!--reverse link ComputerBuilder to OfficeComputerBuilder--><g class="link" data-entity-1="ComputerBuilder" data-entity-2="OfficeComputerBuilder" data-source-line="65" data-uid="lnk8" id="link_ComputerBuilder_OfficeComputerBuilder"><path codeLine="65" d="M369.2426,218.8688 C399.0426,246.9388 418.71,265.4869 445.91,291.1169" fill="none" id="ComputerBuilder-backto-OfficeComputerBuilder" style="stroke:#2C5F7C;stroke-width:1;"/><polygon fill="none" points="356.14,206.5269,365.1286,223.2363,373.3565,214.5013,356.14,206.5269" style="stroke:#2C5F7C;stroke-width:1;"/></g><g class="footer" data-source-line="87"><text fill="#888888" font-family="sans-serif" font-size="10" lengthAdjust="spacing" textLength="349.7949" x="306.4368" y="559.1104">Olu&#351;turulma: 15.10.2025 | Versiyon: 1.0 | Pattern: Builder (Simplified)</text></g><!--SRC=[lLLDRzD04BtxLmpj8MsYk4beH9MMY2IGgaAb5HL8I4ZLnbudYzUxPdVTAFsG-1LSAt7XIYuzSKlwH_WbZB_I93Kzuji-Fy-yUJkUsIbPK8PN7kCK1X7ZBbNLCJCZ6PcgonHrZ5Hs60KyeGqKenvqKnwS4cEe4b25rnaJ90-8ImGCY6O69iJdvFvsFWsIhqc4SHLqZg2ZDTE629FWBZ4KwasxNhCRjKOpmIweqamAgDkr-9pog7OK2qsCToDmsOGC5GaMUi9KJuc91q5wFXNpgJUVvjBYI2kF8CZXu4US4wHoCa0l73g_POB1S7QdCIPJTfwbX071fy9bcZsAvKYXZOgSHAAU_KOHSPJ9x4vGWq4iAErObc46tNx2nPFCnQrkOkEdXOtRbgLz9a8Ib-rmedN76CK6aQ57cFkCNLAeBL46nF67IaR2xKcEWJVxoRF4q2FYoZ4JG_08r_HHVBYouiAwwu7UxFLt-tlfEwcmZWnlz9hz5xq4xoWbnwlmZMMLu5H95orwk1ehpTIJGOY5g2nbfNVweGLe9ufBWVUTurL0erbaI5V1mxNFpiypyaYEjxPRS26Pcmhf3916K4bs5HR9WLL1-KsbkZQT36v19DZNY9w7HXtatFPAphK8MzifV9Kdkad_EQnqeQoGW9K_JJXBdNYQTBYU9a5ZgB2GnAEU58wYPj6kEhkiGnAWmSKELOgBAgxat_8VQKP1QV8JpsCE_U_9Ip3_nTdzhOy3GbdhwMsx_T32BJWuGDzmiEbs-n7ruBfQBNQmc5fOhsK9YVUYs71aG7hhtOfbbClP1KD03VvpA-C9vzXYBhNAPQJNxQLkn7F3Nce-F3-trteDiLrxgRNmtBG1koN2SPR_9GWcKlBXLY8mf8hwC97-CyoBanJYGh9o1j8O6SJr5FiJXvfzLm83lCqcTf3AB-x8RAVj8m7NZuJGWPSvQ6Vsn2z3fzfE9yJ-kgIDShbpWRkAVE4ajkgp-FFj1xmc8vAjEL-wInYvp2TR2lOuey80c_t4lUHBJYQBNHEaZ6FfnWkWLwaiRSpvT0E8XdTro_AaZ7lgX4Vtj-XjXDkXjRGluHe-njjo8aKhtfTupdPAQx5ajivO47BcCUfk_mK0]--></g></svg>