<?xml version="1.0" encoding="UTF-8" standalone="no"?><svg xmlns="http://www.w3.org/2000/svg" xmlns:xlink="http://www.w3.org/1999/xlink" contentScriptType="application/ecmascript" contentStyleType="text/css" height="870px" preserveAspectRatio="none" style="width:857px;height:870px;" version="1.1" viewBox="0 0 857 870" width="857px" zoomAndPan="magnify"><defs/><g><text fill="#000000" font-family="sans-serif" font-size="18" lengthAdjust="spacingAndGlyphs" textLength="362" x="246.5" y="19.2419">Bridge: Kumanda &lt;-&gt; Cihaz Sınıf Diyagramı</text><!--MD5=[fc539fa3f3b7db9b31467e896d367b3b]
class Device--><rect fill="#E8F4F8" height="163.5614" id="Device" style="stroke: #2C5F7C; stroke-width: 1.5;" width="126" x="121.5" y="275.5158"/><ellipse cx="143.25" cy="296.86" fill="#B4A7E5" rx="11" ry="11" style="stroke: #2C5F7C; stroke-width: 1.0;"/><path d="M139.1719,292.6256 L139.1719,290.4693 L146.5625,290.4693 L146.5625,292.6256 L144.0938,292.6256 L144.0938,300.7037 L146.5625,300.7037 L146.5625,302.86 L139.1719,302.86 L139.1719,300.7037 L141.6406,300.7037 L141.6406,292.6256 L139.1719,292.6256 Z "/><text fill="#000000" font-family="sans-serif" font-size="12" font-style="italic" lengthAdjust="spacingAndGlyphs" textLength="83" x="156.75" y="293.3439">«Implementor»</text><text fill="#000000" font-family="Arial" font-size="12" font-style="italic" lengthAdjust="spacingAndGlyphs" textLength="34" x="181.25" y="309.6881">Device</text><line style="stroke: #2C5F7C; stroke-width: 1.5;" x1="122.5" x2="246.5" y1="318.2041" y2="318.2041"/><line style="stroke: #2C5F7C; stroke-width: 1.5;" x1="122.5" x2="246.5" y1="326.2041" y2="326.2041"/><text fill="#000000" font-family="sans-serif" font-size="11" font-style="italic" lengthAdjust="spacingAndGlyphs" textLength="85" x="127.5" y="341.963">+isEnabled(): bool</text><text fill="#000000" font-family="sans-serif" font-size="11" font-style="italic" lengthAdjust="spacingAndGlyphs" textLength="69" x="127.5" y="356.9449">+enable(): void</text><text fill="#000000" font-family="sans-serif" font-size="11" font-style="italic" lengthAdjust="spacingAndGlyphs" textLength="72" x="127.5" y="371.9268">+disable(): void</text><text fill="#000000" font-family="sans-serif" font-size="11" font-style="italic" lengthAdjust="spacingAndGlyphs" textLength="82" x="127.5" y="386.9087">+getVolume(): int</text><text fill="#000000" font-family="sans-serif" font-size="11" font-style="italic" lengthAdjust="spacingAndGlyphs" textLength="112" x="127.5" y="401.8905">+setVolume(v: int): void</text><text fill="#000000" font-family="sans-serif" font-size="11" font-style="italic" lengthAdjust="spacingAndGlyphs" textLength="84" x="127.5" y="416.8724">+getChannel(): int</text><text fill="#000000" font-family="sans-serif" font-size="11" font-style="italic" lengthAdjust="spacingAndGlyphs" textLength="114" x="127.5" y="431.8543">+setChannel(c: int): void</text><!--MD5=[9022e2192881f166c529fc3ae75dec7b]
class TV--><rect fill="#E8F4F8" height="208.5071" id="TV" style="stroke: #2C5F7C; stroke-width: 1.5;" width="161" x="6" y="500.5158"/><ellipse cx="21" cy="521.86" fill="#ADD1B2" rx="11" ry="11" style="stroke: #2C5F7C; stroke-width: 1.0;"/><path d="M23.9688,527.5006 Q23.3906,527.7975 22.75,527.9381 Q22.1094,528.0943 21.4063,528.0943 Q18.9063,528.0943 17.5781,526.4537 Q16.2656,524.7975 16.2656,521.6725 Q16.2656,518.5475 17.5781,516.8912 Q18.9063,515.235 21.4063,515.235 Q22.1094,515.235 22.75,515.3912 Q23.4063,515.5475 23.9688,515.8443 L23.9688,518.5631 Q23.3438,517.985 22.75,517.7193 Q22.1563,517.4381 21.5313,517.4381 Q20.1875,517.4381 19.5,518.5162 Q18.8125,519.5787 18.8125,521.6725 Q18.8125,523.7662 19.5,524.8443 Q20.1875,525.9068 21.5313,525.9068 Q22.1563,525.9068 22.75,525.6412 Q23.3438,525.36 23.9688,524.7818 L23.9688,527.5006 Z "/><text fill="#000000" font-family="sans-serif" font-size="12" font-style="italic" lengthAdjust="spacingAndGlyphs" textLength="133" x="33" y="518.3439">«Concrete Implementor»</text><text fill="#000000" font-family="Arial" font-size="12" lengthAdjust="spacingAndGlyphs" textLength="14" x="92.5" y="534.6881">TV</text><line style="stroke: #2C5F7C; stroke-width: 1.5;" x1="7" x2="166" y1="543.2041" y2="543.2041"/><text fill="#000000" font-family="sans-serif" font-size="11" lengthAdjust="spacingAndGlyphs" textLength="53" x="12" y="558.963">-on_: bool</text><text fill="#000000" font-family="sans-serif" font-size="11" lengthAdjust="spacingAndGlyphs" textLength="68" x="12" y="573.9449">-volume_: int</text><text fill="#000000" font-family="sans-serif" font-size="11" lengthAdjust="spacingAndGlyphs" textLength="70" x="12" y="588.9268">-channel_: int</text><line style="stroke: #2C5F7C; stroke-width: 1.5;" x1="7" x2="166" y1="596.1497" y2="596.1497"/><text fill="#000000" font-family="sans-serif" font-size="11" lengthAdjust="spacingAndGlyphs" textLength="92" x="12" y="611.9087">+isEnabled(): bool</text><text fill="#000000" font-family="sans-serif" font-size="11" lengthAdjust="spacingAndGlyphs" textLength="76" x="12" y="626.8905">+enable(): void</text><text fill="#000000" font-family="sans-serif" font-size="11" lengthAdjust="spacingAndGlyphs" textLength="78" x="12" y="641.8724">+disable(): void</text><text fill="#000000" font-family="sans-serif" font-size="11" lengthAdjust="spacingAndGlyphs" textLength="89" x="12" y="656.8543">+getVolume(): int</text><text fill="#000000" font-family="sans-serif" font-size="11" lengthAdjust="spacingAndGlyphs" textLength="122" x="12" y="671.8362">+setVolume(v: int): void</text><text fill="#000000" font-family="sans-serif" font-size="11" lengthAdjust="spacingAndGlyphs" textLength="92" x="12" y="686.8181">+getChannel(): int</text><text fill="#000000" font-family="sans-serif" font-size="11" lengthAdjust="spacingAndGlyphs" textLength="124" x="12" y="701.8">+setChannel(c: int): void</text><!--MD5=[544998c0c6fc2bf1c6762c5d50f2b2bb]
class Radio--><rect fill="#E8F4F8" height="208.5071" id="Radio" style="stroke: #2C5F7C; stroke-width: 1.5;" width="161" x="202" y="500.5158"/><ellipse cx="217" cy="521.86" fill="#ADD1B2" rx="11" ry="11" style="stroke: #2C5F7C; stroke-width: 1.0;"/><path d="M219.9688,527.5006 Q219.3906,527.7975 218.75,527.9381 Q218.1094,528.0943 217.4063,528.0943 Q214.9063,528.0943 213.5781,526.4537 Q212.2656,524.7975 212.2656,521.6725 Q212.2656,518.5475 213.5781,516.8912 Q214.9063,515.235 217.4063,515.235 Q218.1094,515.235 218.75,515.3912 Q219.4063,515.5475 219.9688,515.8443 L219.9688,518.5631 Q219.3438,517.985 218.75,517.7193 Q218.1563,517.4381 217.5313,517.4381 Q216.1875,517.4381 215.5,518.5162 Q214.8125,519.5787 214.8125,521.6725 Q214.8125,523.7662 215.5,524.8443 Q216.1875,525.9068 217.5313,525.9068 Q218.1563,525.9068 218.75,525.6412 Q219.3438,525.36 219.9688,524.7818 L219.9688,527.5006 Z "/><text fill="#000000" font-family="sans-serif" font-size="12" font-style="italic" lengthAdjust="spacingAndGlyphs" textLength="133" x="229" y="518.3439">«Concrete Implementor»</text><text fill="#000000" font-family="Arial" font-size="12" lengthAdjust="spacingAndGlyphs" textLength="31" x="280" y="534.6881">Radio</text><line style="stroke: #2C5F7C; stroke-width: 1.5;" x1="203" x2="362" y1="543.2041" y2="543.2041"/><text fill="#000000" font-family="sans-serif" font-size="11" lengthAdjust="spacingAndGlyphs" textLength="53" x="208" y="558.963">-on_: bool</text><text fill="#000000" font-family="sans-serif" font-size="11" lengthAdjust="spacingAndGlyphs" textLength="68" x="208" y="573.9449">-volume_: int</text><text fill="#000000" font-family="sans-serif" font-size="11" lengthAdjust="spacingAndGlyphs" textLength="70" x="208" y="588.9268">-channel_: int</text><line style="stroke: #2C5F7C; stroke-width: 1.5;" x1="203" x2="362" y1="596.1497" y2="596.1497"/><text fill="#000000" font-family="sans-serif" font-size="11" lengthAdjust="spacingAndGlyphs" textLength="92" x="208" y="611.9087">+isEnabled(): bool</text><text fill="#000000" font-family="sans-serif" font-size="11" lengthAdjust="spacingAndGlyphs" textLength="76" x="208" y="626.8905">+enable(): void</text><text fill="#000000" font-family="sans-serif" font-size="11" lengthAdjust="spacingAndGlyphs" textLength="78" x="208" y="641.8724">+disable(): void</text><text fill="#000000" font-family="sans-serif" font-size="11" lengthAdjust="spacingAndGlyphs" textLength="89" x="208" y="656.8543">+getVolume(): int</text><text fill="#000000" font-family="sans-serif" font-size="11" lengthAdjust="spacingAndGlyphs" textLength="122" x="208" y="671.8362">+setVolume(v: int): void</text><text fill="#000000" font-family="sans-serif" font-size="11" lengthAdjust="spacingAndGlyphs" textLength="92" x="208" y="686.8181">+getChannel(): int</text><text fill="#000000" font-family="sans-serif" font-size="11" lengthAdjust="spacingAndGlyphs" textLength="124" x="208" y="701.8">+setChannel(c: int): void</text><!--MD5=[ee1ef716fcbfa243092ed0dbda08d22c]
class Remote--><rect fill="#E8F4F8" height="163.5614" id="Remote" style="stroke: #2C5F7C; stroke-width: 1.5;" width="125" x="382" y="32.5158"/><ellipse cx="407.8" cy="53.86" fill="#A9DCDF" rx="11" ry="11" style="stroke: #2C5F7C; stroke-width: 1.0;"/><path d="M407.9094,49.2037 L406.7531,54.2818 L409.0813,54.2818 L407.9094,49.2037 Z M406.425,46.9693 L409.4094,46.9693 L412.7688,59.36 L410.3156,59.36 L409.55,56.2975 L406.2688,56.2975 L405.5188,59.36 L403.0813,59.36 L406.425,46.9693 Z "/><text fill="#000000" font-family="sans-serif" font-size="12" font-style="italic" lengthAdjust="spacingAndGlyphs" textLength="73" x="422.2" y="50.3439">«Abstraction»</text><text fill="#000000" font-family="Arial" font-size="12" font-style="italic" lengthAdjust="spacingAndGlyphs" textLength="41" x="438.2" y="66.6881">Remote</text><line style="stroke: #2C5F7C; stroke-width: 1.5;" x1="383" x2="506" y1="75.2041" y2="75.2041"/><text fill="#000000" font-family="sans-serif" font-size="11" lengthAdjust="spacingAndGlyphs" textLength="90" x="388" y="90.963">-device_: Device&amp;</text><line style="stroke: #2C5F7C; stroke-width: 1.5;" x1="383" x2="506" y1="98.186" y2="98.186"/><text fill="#000000" font-family="sans-serif" font-size="11" lengthAdjust="spacingAndGlyphs" textLength="107" x="388" y="113.9449">+Remote(d: Device&amp;)</text><text fill="#000000" font-family="sans-serif" font-size="11" lengthAdjust="spacingAndGlyphs" textLength="109" x="388" y="128.9268">+togglePower(): void</text><text fill="#000000" font-family="sans-serif" font-size="11" lengthAdjust="spacingAndGlyphs" textLength="111" x="388" y="143.9087">+volumeDown(): void</text><text fill="#000000" font-family="sans-serif" font-size="11" lengthAdjust="spacingAndGlyphs" textLength="95" x="388" y="158.8905">+volumeUp(): void</text><text fill="#000000" font-family="sans-serif" font-size="11" lengthAdjust="spacingAndGlyphs" textLength="113" x="388" y="173.8724">+channelDown(): void</text><text fill="#000000" font-family="sans-serif" font-size="11" lengthAdjust="spacingAndGlyphs" textLength="97" x="388" y="188.8543">+channelUp(): void</text><!--MD5=[f3b4edb46d5ed5d4f0f86fafc1fcda61]
class AdvancedRemote--><rect fill="#E8F4F8" height="73.6701" id="AdvancedRemote" style="stroke: #2C5F7C; stroke-width: 1.5;" width="144" x="631.5" y="320.5158"/><ellipse cx="646.5" cy="341.86" fill="#ADD1B2" rx="11" ry="11" style="stroke: #2C5F7C; stroke-width: 1.0;"/><path d="M649.4688,347.5006 Q648.8906,347.7975 648.25,347.9381 Q647.6094,348.0943 646.9063,348.0943 Q644.4063,348.0943 643.0781,346.4537 Q641.7656,344.7975 641.7656,341.6725 Q641.7656,338.5475 643.0781,336.8912 Q644.4063,335.235 646.9063,335.235 Q647.6094,335.235 648.25,335.3912 Q648.9063,335.5475 649.4688,335.8443 L649.4688,338.5631 Q648.8438,337.985 648.25,337.7193 Q647.6563,337.4381 647.0313,337.4381 Q645.6875,337.4381 645,338.5162 Q644.3125,339.5787 644.3125,341.6725 Q644.3125,343.7662 645,344.8443 Q645.6875,345.9068 647.0313,345.9068 Q647.6563,345.9068 648.25,345.6412 Q648.8438,345.36 649.4688,344.7818 L649.4688,347.5006 Z "/><text fill="#000000" font-family="sans-serif" font-size="12" font-style="italic" lengthAdjust="spacingAndGlyphs" textLength="116" x="658.5" y="338.3439">«Refined Abstraction»</text><text fill="#000000" font-family="Arial" font-size="12" lengthAdjust="spacingAndGlyphs" textLength="98" x="667.5" y="354.6881">AdvancedRemote</text><line style="stroke: #2C5F7C; stroke-width: 1.5;" x1="632.5" x2="774.5" y1="363.2041" y2="363.2041"/><line style="stroke: #2C5F7C; stroke-width: 1.5;" x1="632.5" x2="774.5" y1="371.2041" y2="371.2041"/><text fill="#000000" font-family="sans-serif" font-size="11" lengthAdjust="spacingAndGlyphs" textLength="68" x="637.5" y="386.963">+mute(): void</text><path d="M542.5,74.0158 L542.5,110.5158 L507.19,114.5158 L542.5,118.5158 L542.5,154.8399 A0,0 0 0 0 542.5,154.8399 L836.5,154.8399 A0,0 0 0 0 836.5,154.8399 L836.5,84.0158 L826.5,74.0158 L542.5,74.0158 A0,0 0 0 0 542.5,74.0158 " fill="#FFF9E6" style="stroke: #CC8800; stroke-width: 1.0;"/><path d="M826.5,74.0158 L826.5,84.0158 L836.5,84.0158 L826.5,74.0158 " fill="#FFF9E6" style="stroke: #CC8800; stroke-width: 1.0;"/><text fill="#000000" font-family="sans-serif" font-size="13" font-weight="bold" lengthAdjust="spacingAndGlyphs" textLength="133" x="548.5" y="92.9129">Soyutlama (Remote)</text><text fill="#000000" font-family="sans-serif" font-size="13" lengthAdjust="spacingAndGlyphs" textLength="225" x="548.5" y="110.6189">• İstemcinin etkileşime geçtiği katman</text><text fill="#000000" font-family="sans-serif" font-size="13" lengthAdjust="spacingAndGlyphs" textLength="273" x="548.5" y="128.3249">• Tüm işlemleri Device arabirimine delege eder</text><text fill="#000000" font-family="sans-serif" font-size="13" lengthAdjust="spacingAndGlyphs" textLength="219" x="548.5" y="146.0309">• Aynı arayüz ile farklı cihazlarla çalışır</text><path d="M283,317.0158 L283,353.5158 L247.75,357.5158 L283,361.5158 L283,397.8399 A0,0 0 0 0 283,397.8399 L596,397.8399 A0,0 0 0 0 596,397.8399 L596,327.0158 L586,317.0158 L283,317.0158 A0,0 0 0 0 283,317.0158 " fill="#FFF9E6" style="stroke: #CC8800; stroke-width: 1.0;"/><path d="M586,317.0158 L586,327.0158 L596,327.0158 L586,317.0158 " fill="#FFF9E6" style="stroke: #CC8800; stroke-width: 1.0;"/><text fill="#000000" font-family="sans-serif" font-size="13" font-weight="bold" lengthAdjust="spacingAndGlyphs" textLength="156" x="289" y="335.9129">Gerçekleştirme (Device)</text><text fill="#000000" font-family="sans-serif" font-size="13" lengthAdjust="spacingAndGlyphs" textLength="162" x="289" y="353.6189">• TV, Radio gibi cihaz aileleri</text><text fill="#000000" font-family="sans-serif" font-size="13" lengthAdjust="spacingAndGlyphs" textLength="264" x="289" y="371.3249">• Kumanda soyutlamasından bağımsız evrilir</text><text fill="#000000" font-family="sans-serif" font-size="13" lengthAdjust="spacingAndGlyphs" textLength="292" x="289" y="389.0309">• Yeni cihaz eklemek Remote kodunu değiştirmez</text><!--MD5=[c7572c7bd6eed0292325fe9dd4a0294c]
reverse link Device to TV--><path d="M144.72,458.1758 C139.18,472.0458 133.48,486.3258 127.91,500.2658 " fill="none" id="Device&lt;-TV" style="stroke: #2C5F7C; stroke-width: 1.0; stroke-dasharray: 7.0,7.0;"/><polygon fill="none" points="138.22,455.5658,152.14,439.5858,151.23,460.7558,138.22,455.5658" style="stroke: #2C5F7C; stroke-width: 1.0;"/><!--MD5=[9a0f857993869747a6ca3c40851b87dd]
reverse link Device to Radio--><path d="M224.28,458.1758 C229.82,472.0458 235.52,486.3258 241.09,500.2658 " fill="none" id="Device&lt;-Radio" style="stroke: #2C5F7C; stroke-width: 1.0; stroke-dasharray: 7.0,7.0;"/><polygon fill="none" points="217.77,460.7558,216.86,439.5858,230.78,455.5658,217.77,460.7558" style="stroke: #2C5F7C; stroke-width: 1.0;"/><!--MD5=[9515da375d6ff8e3536b31751d6b67cc]
reverse link Remote to AdvancedRemote--><path d="M521.87,194.0158 C522.75,194.8558 523.63,195.6858 524.5,196.5158 C562.88,232.9058 574.07,240.2658 613.5,275.5158 C629.8,290.0858 647.71,306.1858 663.23,320.1658 " fill="none" id="Remote&lt;-AdvancedRemote" style="stroke: #2C5F7C; stroke-width: 1.0;"/><polygon fill="none" points="516.92,198.9658,507.44,180.0158,526.67,188.9158,516.92,198.9658" style="stroke: #2C5F7C; stroke-width: 1.0;"/><!--MD5=[3078aa8dca12b934c89c99d7311fdc4a]
reverse link Remote to Device--><path d="M371.62,179.0058 C338.8,208.0158 299.81,243.0758 265.5,275.5158 C259.72,280.9858 253.77,286.7158 247.84,292.5058 " fill="none" id="Remote&lt;-Device" style="stroke: #2C5F7C; stroke-width: 1.0;"/><polygon fill="#FFFFFF" points="381.59,170.2058,374.4447,171.1776,372.5935,178.1471,379.7388,177.1753,381.59,170.2058" style="stroke: #2C5F7C; stroke-width: 1.0;"/><text fill="#000000" font-family="sans-serif" font-size="13" lengthAdjust="spacingAndGlyphs" textLength="27" x="315.5" y="241.4129">uses</text><rect fill="#DDDDDD" height="109.3396" rx="5" ry="5" style="stroke: #000000; stroke-width: 1.0;" width="447" x="399" y="727.5158"/><text fill="#000000" font-family="sans-serif" font-size="14" font-weight="bold" lengthAdjust="spacingAndGlyphs" textLength="64" x="409" y="749.4818">Stereotip</text><text fill="#000000" font-family="sans-serif" font-size="14" font-weight="bold" lengthAdjust="spacingAndGlyphs" textLength="49" x="601" y="749.4818">Anlamı</text><text fill="#000000" font-family="sans-serif" font-size="14" lengthAdjust="spacingAndGlyphs" textLength="109" x="409" y="768.5497">&lt;&lt;Abstraction&gt;&gt;</text><text fill="#000000" font-family="sans-serif" font-size="14" lengthAdjust="spacingAndGlyphs" textLength="196" x="601" y="768.5497">İstemcinin kullandığı katman</text><text fill="#000000" font-family="sans-serif" font-size="14" lengthAdjust="spacingAndGlyphs" textLength="120" x="409" y="787.6176">&lt;&lt;Implementor&gt;&gt;</text><text fill="#000000" font-family="sans-serif" font-size="14" lengthAdjust="spacingAndGlyphs" textLength="235" x="601" y="787.6176">Soyutlamanın delege ettiği katman</text><text fill="#000000" font-family="sans-serif" font-size="14" lengthAdjust="spacingAndGlyphs" textLength="165" x="409" y="806.6855">&lt;&lt;Refined Abstraction&gt;&gt;</text><text fill="#000000" font-family="sans-serif" font-size="14" lengthAdjust="spacingAndGlyphs" textLength="199" x="601" y="806.6855">Soyutlamanın özelleşmiş türü</text><text fill="#000000" font-family="sans-serif" font-size="14" lengthAdjust="spacingAndGlyphs" textLength="184" x="409" y="825.7534">&lt;&lt;Concrete Implementor&gt;&gt;</text><text fill="#000000" font-family="sans-serif" font-size="14" lengthAdjust="spacingAndGlyphs" textLength="129" x="601" y="825.7534">Cihazın somut türü</text><line style="stroke: #000000; stroke-width: 1.0;" x1="405" x2="840" y1="734.5158" y2="734.5158"/><line style="stroke: #000000; stroke-width: 1.0;" x1="405" x2="840" y1="753.5838" y2="753.5838"/><line style="stroke: #000000; stroke-width: 1.0;" x1="405" x2="840" y1="772.6517" y2="772.6517"/><line style="stroke: #000000; stroke-width: 1.0;" x1="405" x2="840" y1="791.7196" y2="791.7196"/><line style="stroke: #000000; stroke-width: 1.0;" x1="405" x2="840" y1="810.7875" y2="810.7875"/><line style="stroke: #000000; stroke-width: 1.0;" x1="405" x2="840" y1="829.8554" y2="829.8554"/><line style="stroke: #000000; stroke-width: 1.0;" x1="405" x2="405" y1="734.5158" y2="829.8554"/><line style="stroke: #000000; stroke-width: 1.0;" x1="597" x2="597" y1="734.5158" y2="829.8554"/><line style="stroke: #000000; stroke-width: 1.0;" x1="840" x2="840" y1="734.5158" y2="829.8554"/><text fill="#888888" font-family="sans-serif" font-size="10" lengthAdjust="spacingAndGlyphs" textLength="454" x="200.5" y="856.5454">Oluşturulma: 22.10.2025 | Sürüm: 1.0.0 | Pattern: Bridge (Structural) | Modül: Remote-Device</text><!--MD5=[02cb3226f3d875f08972a7439a81eead]
@startuml

title Bridge: Kumanda <-> Cihaz Sınıf Diyagramı

skinparam backgroundColor #FFFFFF
skinparam shadowing false
skinparam classAttributeIconSize 0

skinparam class {
    BackgroundColor #E8F4F8
    BorderColor #2C5F7C
    ArrowColor #2C5F7C
    FontName Arial
    FontSize 12
}

skinparam note {
    BackgroundColor #FFF9E6
    BorderColor #CC8800
}

interface Device <<Implementor>> {
    +{abstract} isEnabled(): bool
    +{abstract} enable(): void
    +{abstract} disable(): void
    +{abstract} getVolume(): int
    +{abstract} setVolume(v: int): void
    +{abstract} getChannel(): int
    +{abstract} setChannel(c: int): void
}

class TV <<Concrete Implementor>> {
    -on_: bool
    -volume_: int
    -channel_: int
    __
    +isEnabled(): bool
    +enable(): void
    +disable(): void
    +getVolume(): int
    +setVolume(v: int): void
    +getChannel(): int
    +setChannel(c: int): void
}

class Radio <<Concrete Implementor>> {
    -on_: bool
    -volume_: int
    -channel_: int
    __
    +isEnabled(): bool
    +enable(): void
    +disable(): void
    +getVolume(): int
    +setVolume(v: int): void
    +getChannel(): int
    +setChannel(c: int): void
}

Device <|.. TV
Device <|.. Radio

abstract class Remote <<Abstraction>> {
    -device_: Device&
    __
    +Remote(d: Device&)
    +togglePower(): void
    +volumeDown(): void
    +volumeUp(): void
    +channelDown(): void
    +channelUp(): void
}

class AdvancedRemote <<Refined Abstraction>> {
    +mute(): void
}

Remote <|- - AdvancedRemote
Remote o- - Device : uses

note right of Remote
  <b>Soyutlama (Remote)</b>
  • İstemcinin etkileşime geçtiği katman
  • Tüm işlemleri Device arabirimine delege eder
  • Aynı arayüz ile farklı cihazlarla çalışır
end note

note right of Device
  <b>Gerçekleştirme (Device)</b>
  • TV, Radio gibi cihaz aileleri
  • Kumanda soyutlamasından bağımsız evrilir
  • Yeni cihaz eklemek Remote kodunu değiştirmez
end note

legend right
  |= Stereotip |= Anlamı |
  | <<Abstraction>> | İstemcinin kullandığı katman |
  | <<Implementor>> | Soyutlamanın delege ettiği katman |
  | <<Refined Abstraction>> | Soyutlamanın özelleşmiş türü |
  | <<Concrete Implementor>> | Cihazın somut türü |
endlegend

footer Oluşturulma: 22.10.2025 | Sürüm: 1.0.0 | Pattern: Bridge (Structural) | Modül: Remote-Device

@enduml

PlantUML version 1.2020.02(Sun Mar 01 13:22:07 TRT 2020)
(GPL source distribution)
Java Runtime: OpenJDK Runtime Environment
JVM: OpenJDK 64-Bit Server VM
Java Version: 21.0.8+9-Ubuntu-0ubuntu124.04.1
Operating System: Linux
Default Encoding: UTF-8
Language: en
Country: US
--></g></svg>