<?xml version="1.0" encoding="UTF-8" standalone="no"?><svg xmlns="http://www.w3.org/2000/svg" xmlns:xlink="http://www.w3.org/1999/xlink" contentScriptType="application/ecmascript" contentStyleType="text/css" height="505px" preserveAspectRatio="none" style="width:975px;height:505px;" version="1.1" viewBox="0 0 975 505" width="975px" zoomAndPan="magnify"><defs/><g><text fill="#000000" font-family="sans-serif" font-size="18" lengthAdjust="spacingAndGlyphs" textLength="556" x="208.5" y="19.2419">Composite Pattern: Dosya Sistemi vs Grafik Editör Karşılaştırması</text><!--MD5=[406f5f3a5c1d5997508b58a951f697ed]
cluster Vaka A: Dosya Sistemi--><polygon fill="#F0F7FA" points="338,49.0158,497,49.0158,504,74.0838,565,74.0838,565,348.5158,338,348.5158,338,49.0158" style="stroke: #2C5F7C; stroke-width: 1.5;"/><line style="stroke: #2C5F7C; stroke-width: 1.5;" x1="338" x2="504" y1="74.0838" y2="74.0838"/><text fill="#000000" font-family="sans-serif" font-size="14" font-weight="bold" lengthAdjust="spacingAndGlyphs" textLength="153" x="342" y="65.9818">Vaka A: Dosya Sistemi</text><!--MD5=[8f8f9a95eb3b96504b7b426860817f5e]
cluster Vaka B: Grafik Editör--><polygon fill="#F7F1FF" points="589,49.0158,738,49.0158,745,74.0838,939,74.0838,939,348.5158,589,348.5158,589,49.0158" style="stroke: #2C5F7C; stroke-width: 1.5;"/><line style="stroke: #2C5F7C; stroke-width: 1.5;" x1="589" x2="745" y1="74.0838" y2="74.0838"/><text fill="#000000" font-family="sans-serif" font-size="14" font-weight="bold" lengthAdjust="spacingAndGlyphs" textLength="143" x="593" y="65.9818">Vaka B: Grafik Editör</text><!--MD5=[3fee75583bb7a64f68d843a3c9534ab3]
class Node--><rect fill="#FFFFFF" height="58.6882" id="Node" style="stroke: #2C5F7C; stroke-width: 1.5;" width="103" x="406.5" y="87.0158"/><ellipse cx="421.5" cy="108.36" fill="#A9DCDF" rx="11" ry="11" style="stroke: #2C5F7C; stroke-width: 1.0;"/><path d="M421.6094,103.7037 L420.4531,108.7818 L422.7813,108.7818 L421.6094,103.7037 Z M420.125,101.4693 L423.1094,101.4693 L426.4688,113.86 L424.0156,113.86 L423.25,110.7975 L419.9688,110.7975 L419.2188,113.86 L416.7813,113.86 L420.125,101.4693 Z "/><text fill="#000000" font-family="sans-serif" font-size="12" font-style="italic" lengthAdjust="spacingAndGlyphs" textLength="75" x="433.5" y="104.8439">«Component»</text><text fill="#000000" font-family="sans-serif" font-size="12" font-style="italic" lengthAdjust="spacingAndGlyphs" textLength="28" x="457" y="121.1881">Node</text><line style="stroke: #2C5F7C; stroke-width: 1.5;" x1="407.5" x2="508.5" y1="129.7041" y2="129.7041"/><line style="stroke: #2C5F7C; stroke-width: 1.5;" x1="407.5" x2="508.5" y1="137.7041" y2="137.7041"/><!--MD5=[63dd87716ef75a5caca5dce59428e94a]
class File--><rect fill="#FFFFFF" height="58.6882" id="File" style="stroke: #2C5F7C; stroke-width: 1.5;" width="63" x="354.5" y="273.5158"/><ellipse cx="369.5" cy="294.86" fill="#ADD1B2" rx="11" ry="11" style="stroke: #2C5F7C; stroke-width: 1.0;"/><path d="M372.4688,300.5006 Q371.8906,300.7975 371.25,300.9381 Q370.6094,301.0943 369.9063,301.0943 Q367.4063,301.0943 366.0781,299.4537 Q364.7656,297.7975 364.7656,294.6725 Q364.7656,291.5475 366.0781,289.8912 Q367.4063,288.235 369.9063,288.235 Q370.6094,288.235 371.25,288.3912 Q371.9063,288.5475 372.4688,288.8443 L372.4688,291.5631 Q371.8438,290.985 371.25,290.7193 Q370.6563,290.4381 370.0313,290.4381 Q368.6875,290.4381 368,291.5162 Q367.3125,292.5787 367.3125,294.6725 Q367.3125,296.7662 368,297.8443 Q368.6875,298.9068 370.0313,298.9068 Q370.6563,298.9068 371.25,298.6412 Q371.8438,298.36 372.4688,297.7818 L372.4688,300.5006 Z "/><text fill="#000000" font-family="sans-serif" font-size="12" font-style="italic" lengthAdjust="spacingAndGlyphs" textLength="35" x="381.5" y="291.3439">«Leaf»</text><text fill="#000000" font-family="sans-serif" font-size="12" lengthAdjust="spacingAndGlyphs" textLength="19" x="389.5" y="307.6881">File</text><line style="stroke: #2C5F7C; stroke-width: 1.5;" x1="355.5" x2="416.5" y1="316.2041" y2="316.2041"/><line style="stroke: #2C5F7C; stroke-width: 1.5;" x1="355.5" x2="416.5" y1="324.2041" y2="324.2041"/><!--MD5=[9bd2b2bc45261200a440e1ecb7c43192]
class Directory--><rect fill="#FFFFFF" height="58.6882" id="Directory" style="stroke: #2C5F7C; stroke-width: 1.5;" width="97" x="452.5" y="273.5158"/><ellipse cx="467.5" cy="294.86" fill="#ADD1B2" rx="11" ry="11" style="stroke: #2C5F7C; stroke-width: 1.0;"/><path d="M470.4688,300.5006 Q469.8906,300.7975 469.25,300.9381 Q468.6094,301.0943 467.9063,301.0943 Q465.4063,301.0943 464.0781,299.4537 Q462.7656,297.7975 462.7656,294.6725 Q462.7656,291.5475 464.0781,289.8912 Q465.4063,288.235 467.9063,288.235 Q468.6094,288.235 469.25,288.3912 Q469.9063,288.5475 470.4688,288.8443 L470.4688,291.5631 Q469.8438,290.985 469.25,290.7193 Q468.6563,290.4381 468.0313,290.4381 Q466.6875,290.4381 466,291.5162 Q465.3125,292.5787 465.3125,294.6725 Q465.3125,296.7662 466,297.8443 Q466.6875,298.9068 468.0313,298.9068 Q468.6563,298.9068 469.25,298.6412 Q469.8438,298.36 470.4688,297.7818 L470.4688,300.5006 Z "/><text fill="#000000" font-family="sans-serif" font-size="12" font-style="italic" lengthAdjust="spacingAndGlyphs" textLength="69" x="479.5" y="291.3439">«Composite»</text><text fill="#000000" font-family="sans-serif" font-size="12" lengthAdjust="spacingAndGlyphs" textLength="52" x="488" y="307.6881">Directory</text><line style="stroke: #2C5F7C; stroke-width: 1.5;" x1="453.5" x2="548.5" y1="316.2041" y2="316.2041"/><line style="stroke: #2C5F7C; stroke-width: 1.5;" x1="453.5" x2="548.5" y1="324.2041" y2="324.2041"/><!--MD5=[7340ddc93ee3d3f5fef34806a115f504]
class Graphic--><rect fill="#FFFFFF" height="58.6882" id="Graphic" style="stroke: #2C5F7C; stroke-width: 1.5;" width="103" x="729.5" y="87.0158"/><ellipse cx="744.5" cy="108.36" fill="#A9DCDF" rx="11" ry="11" style="stroke: #2C5F7C; stroke-width: 1.0;"/><path d="M744.6094,103.7037 L743.4531,108.7818 L745.7813,108.7818 L744.6094,103.7037 Z M743.125,101.4693 L746.1094,101.4693 L749.4688,113.86 L747.0156,113.86 L746.25,110.7975 L742.9688,110.7975 L742.2188,113.86 L739.7813,113.86 L743.125,101.4693 Z "/><text fill="#000000" font-family="sans-serif" font-size="12" font-style="italic" lengthAdjust="spacingAndGlyphs" textLength="75" x="756.5" y="104.8439">«Component»</text><text fill="#000000" font-family="sans-serif" font-size="12" font-style="italic" lengthAdjust="spacingAndGlyphs" textLength="42" x="773" y="121.1881">Graphic</text><line style="stroke: #2C5F7C; stroke-width: 1.5;" x1="730.5" x2="831.5" y1="129.7041" y2="129.7041"/><line style="stroke: #2C5F7C; stroke-width: 1.5;" x1="730.5" x2="831.5" y1="137.7041" y2="137.7041"/><!--MD5=[a7f9118cae7621dd25d25149752faef0]
class Circle--><rect fill="#FFFFFF" height="58.6882" id="Circle" style="stroke: #2C5F7C; stroke-width: 1.5;" width="64" x="605" y="273.5158"/><ellipse cx="620" cy="294.86" fill="#ADD1B2" rx="11" ry="11" style="stroke: #2C5F7C; stroke-width: 1.0;"/><path d="M622.9688,300.5006 Q622.3906,300.7975 621.75,300.9381 Q621.1094,301.0943 620.4063,301.0943 Q617.9063,301.0943 616.5781,299.4537 Q615.2656,297.7975 615.2656,294.6725 Q615.2656,291.5475 616.5781,289.8912 Q617.9063,288.235 620.4063,288.235 Q621.1094,288.235 621.75,288.3912 Q622.4063,288.5475 622.9688,288.8443 L622.9688,291.5631 Q622.3438,290.985 621.75,290.7193 Q621.1563,290.4381 620.5313,290.4381 Q619.1875,290.4381 618.5,291.5162 Q617.8125,292.5787 617.8125,294.6725 Q617.8125,296.7662 618.5,297.8443 Q619.1875,298.9068 620.5313,298.9068 Q621.1563,298.9068 621.75,298.6412 Q622.3438,298.36 622.9688,297.7818 L622.9688,300.5006 Z "/><text fill="#000000" font-family="sans-serif" font-size="12" font-style="italic" lengthAdjust="spacingAndGlyphs" textLength="35" x="632.5" y="291.3439">«Leaf»</text><text fill="#000000" font-family="sans-serif" font-size="12" lengthAdjust="spacingAndGlyphs" textLength="32" x="634" y="307.6881">Circle</text><line style="stroke: #2C5F7C; stroke-width: 1.5;" x1="606" x2="668" y1="316.2041" y2="316.2041"/><line style="stroke: #2C5F7C; stroke-width: 1.5;" x1="606" x2="668" y1="324.2041" y2="324.2041"/><!--MD5=[b5313cd49da22b0744b541f414f8445e]
class Rectangle--><rect fill="#FFFFFF" height="58.6882" id="Rectangle" style="stroke: #2C5F7C; stroke-width: 1.5;" width="87" x="704.5" y="273.5158"/><ellipse cx="719.5" cy="294.86" fill="#ADD1B2" rx="11" ry="11" style="stroke: #2C5F7C; stroke-width: 1.0;"/><path d="M722.4688,300.5006 Q721.8906,300.7975 721.25,300.9381 Q720.6094,301.0943 719.9063,301.0943 Q717.4063,301.0943 716.0781,299.4537 Q714.7656,297.7975 714.7656,294.6725 Q714.7656,291.5475 716.0781,289.8912 Q717.4063,288.235 719.9063,288.235 Q720.6094,288.235 721.25,288.3912 Q721.9063,288.5475 722.4688,288.8443 L722.4688,291.5631 Q721.8438,290.985 721.25,290.7193 Q720.6563,290.4381 720.0313,290.4381 Q718.6875,290.4381 718,291.5162 Q717.3125,292.5787 717.3125,294.6725 Q717.3125,296.7662 718,297.8443 Q718.6875,298.9068 720.0313,298.9068 Q720.6563,298.9068 721.25,298.6412 Q721.8438,298.36 722.4688,297.7818 L722.4688,300.5006 Z "/><text fill="#000000" font-family="sans-serif" font-size="12" font-style="italic" lengthAdjust="spacingAndGlyphs" textLength="35" x="743.5" y="291.3439">«Leaf»</text><text fill="#000000" font-family="sans-serif" font-size="12" lengthAdjust="spacingAndGlyphs" textLength="55" x="733.5" y="307.6881">Rectangle</text><line style="stroke: #2C5F7C; stroke-width: 1.5;" x1="705.5" x2="790.5" y1="316.2041" y2="316.2041"/><line style="stroke: #2C5F7C; stroke-width: 1.5;" x1="705.5" x2="790.5" y1="324.2041" y2="324.2041"/><!--MD5=[41314a0efc36828092cff9ebad2fcafd]
class Group--><rect fill="#FFFFFF" height="58.6882" id="Group" style="stroke: #2C5F7C; stroke-width: 1.5;" width="97" x="826.5" y="273.5158"/><ellipse cx="841.5" cy="294.86" fill="#ADD1B2" rx="11" ry="11" style="stroke: #2C5F7C; stroke-width: 1.0;"/><path d="M844.4688,300.5006 Q843.8906,300.7975 843.25,300.9381 Q842.6094,301.0943 841.9063,301.0943 Q839.4063,301.0943 838.0781,299.4537 Q836.7656,297.7975 836.7656,294.6725 Q836.7656,291.5475 838.0781,289.8912 Q839.4063,288.235 841.9063,288.235 Q842.6094,288.235 843.25,288.3912 Q843.9063,288.5475 844.4688,288.8443 L844.4688,291.5631 Q843.8438,290.985 843.25,290.7193 Q842.6563,290.4381 842.0313,290.4381 Q840.6875,290.4381 840,291.5162 Q839.3125,292.5787 839.3125,294.6725 Q839.3125,296.7662 840,297.8443 Q840.6875,298.9068 842.0313,298.9068 Q842.6563,298.9068 843.25,298.6412 Q843.8438,298.36 844.4688,297.7818 L844.4688,300.5006 Z "/><text fill="#000000" font-family="sans-serif" font-size="12" font-style="italic" lengthAdjust="spacingAndGlyphs" textLength="69" x="853.5" y="291.3439">«Composite»</text><text fill="#000000" font-family="sans-serif" font-size="12" lengthAdjust="spacingAndGlyphs" textLength="35" x="870.5" y="307.6881">Group</text><line style="stroke: #2C5F7C; stroke-width: 1.5;" x1="827.5" x2="922.5" y1="316.2041" y2="316.2041"/><line style="stroke: #2C5F7C; stroke-width: 1.5;" x1="827.5" x2="922.5" y1="324.2041" y2="324.2041"/><path d="M6,58.5158 L6,174.7519 A0,0 0 0 0 6,174.7519 L159,174.7519 L163,253.3758 L167,174.7519 L320,174.7519 A0,0 0 0 0 320,174.7519 L320,68.5158 L310,58.5158 L6,58.5158 A0,0 0 0 0 6,58.5158 " fill="#FFF9E6" style="stroke: #CC8800; stroke-width: 1.0;"/><path d="M310,58.5158 L310,68.5158 L320,68.5158 L310,58.5158 " fill="#FFF9E6" style="stroke: #CC8800; stroke-width: 1.0;"/><text fill="#000000" font-family="sans-serif" font-size="13" font-weight="bold" lengthAdjust="spacingAndGlyphs" textLength="100" x="12" y="77.4129">Ortak Noktalar</text><text fill="#000000" font-family="sans-serif" font-size="13" lengthAdjust="spacingAndGlyphs" textLength="180" x="12" y="95.1189">✓ Tek tip arayüz (Component)</text><text fill="#000000" font-family="sans-serif" font-size="13" lengthAdjust="spacingAndGlyphs" textLength="290" x="12" y="112.8249">✓ Yaprak ve Bileşik nesneler aynı muamele görür</text><text fill="#000000" font-family="sans-serif" font-size="13" lengthAdjust="spacingAndGlyphs" textLength="271" x="12" y="130.5309">✓ Bileşik, bileşenleri kompozisyonla tutar (o--)</text><text fill="#000000" font-family="sans-serif" font-size="13" lengthAdjust="spacingAndGlyphs" textLength="293" x="12" y="148.2369">✓ İstemci tarafında tekdüze kullanım (uniformity)</text><text fill="#000000" font-family="sans-serif" font-size="13" lengthAdjust="spacingAndGlyphs" textLength="209" x="12" y="165.9429">✓ OCP ve SRP'ye uyum, ağaç yapısı</text><path d="M6.5,253.5158 L6.5,352.0459 L319.5,352.0459 L319.5,263.5158 L309.5,253.5158 L6.5,253.5158 " fill="#FFF9E6" style="stroke: #CC8800; stroke-width: 1.0;"/><path d="M309.5,253.5158 L309.5,263.5158 L319.5,263.5158 L309.5,253.5158 " fill="#FFF9E6" style="stroke: #CC8800; stroke-width: 1.0;"/><text fill="#000000" font-family="sans-serif" font-size="13" font-weight="bold" lengthAdjust="spacingAndGlyphs" textLength="47" x="12.5" y="272.4129">Farklar</text><text fill="#000000" font-family="sans-serif" font-size="13" lengthAdjust="spacingAndGlyphs" textLength="289" x="12.5" y="290.1189">• Alan modeli: dosya/dizin boyutu vs grafik çizimi</text><text fill="#000000" font-family="sans-serif" font-size="13" lengthAdjust="spacingAndGlyphs" textLength="204" x="12.5" y="307.8249">• Operasyonlar: size()/ls() vs draw()</text><text fill="#000000" font-family="sans-serif" font-size="13" lengthAdjust="spacingAndGlyphs" textLength="292" x="12.5" y="325.5309">• Ek metrik: Dosya Sistemi toplam boyut hesaplar</text><text fill="#000000" font-family="sans-serif" font-size="13" lengthAdjust="spacingAndGlyphs" textLength="265" x="12.5" y="343.2369">• Kullanım bağlamı: FS gezinti vs sahne çizimi</text><!--MD5=[b9b019db39cfebe0b68c689f41103236]
reverse link Node to File--><path d="M412,166.0658 C412,166.0658 412,273.2958 412,273.2958 " fill="none" id="Node&lt;-File" style="stroke: #2C5F7C; stroke-width: 1.0;"/><polygon fill="none" points="405,166.0658,412,146.0658,419,166.0658,405,166.0658" style="stroke: #2C5F7C; stroke-width: 1.0;"/><!--MD5=[98cd4735d2c0e1bee45c75eb2fa88011]
reverse link Node to Directory--><path d="M471.5,166.0658 C471.5,166.0658 471.5,273.2958 471.5,273.2958 " fill="none" id="Node&lt;-Directory" style="stroke: #2C5F7C; stroke-width: 1.0;"/><polygon fill="none" points="464.5,166.0658,471.5,146.0658,478.5,166.0658,464.5,166.0658" style="stroke: #2C5F7C; stroke-width: 1.0;"/><!--MD5=[cfab5ed95f74cea6db59b0ac52b647c3]
reverse link Directory to Node--><path d="M490.5,260.4658 C490.5,260.4658 490.5,146.2358 490.5,146.2358 " fill="none" id="Directory&lt;-Node" style="stroke: #2C5F7C; stroke-width: 1.0;"/><polygon fill="#FFFFFF" points="490.5,273.4658,494.5,267.4658,490.5,261.4658,486.5,267.4658,490.5,273.4658" style="stroke: #2C5F7C; stroke-width: 1.0;"/><text fill="#000000" font-family="sans-serif" font-size="13" lengthAdjust="spacingAndGlyphs" textLength="48" x="500" y="219.4129">children</text><!--MD5=[2584ea380d9b25beb738f60bc468a397]
reverse link Graphic to Circle--><path d="M709.42,116.5158 C709.42,116.5158 637,116.5158 637,116.5158 C637,116.5158 637,220.8758 637,273.4658 " fill="none" id="Graphic&lt;-Circle" style="stroke: #2C5F7C; stroke-width: 1.0;"/><polygon fill="none" points="709.42,109.5158,729.42,116.5158,709.42,123.5158,709.42,109.5158" style="stroke: #2C5F7C; stroke-width: 1.0;"/><!--MD5=[2b893bbd84c958200b997e4aea9eef60]
reverse link Graphic to Rectangle--><path d="M760.5,166.0658 C760.5,166.0658 760.5,273.2958 760.5,273.2958 " fill="none" id="Graphic&lt;-Rectangle" style="stroke: #2C5F7C; stroke-width: 1.0;"/><polygon fill="none" points="753.5,166.0658,760.5,146.0658,767.5,166.0658,753.5,166.0658" style="stroke: #2C5F7C; stroke-width: 1.0;"/><!--MD5=[1ffd4bcbf37d1eb13275f7886447bada]
reverse link Graphic to Group--><path d="M803.17,166.4358 C803.17,166.4358 803.17,313.5158 803.17,313.5158 C803.17,313.5158 813.48,313.5158 826.29,313.5158 " fill="none" id="Graphic&lt;-Group" style="stroke: #2C5F7C; stroke-width: 1.0;"/><polygon fill="none" points="796.17,166.4358,803.17,146.4358,810.17,166.4358,796.17,166.4358" style="stroke: #2C5F7C; stroke-width: 1.0;"/><!--MD5=[7d9291fa57165462dcc4f8f225c27882]
reverse link Group to Graphic--><path d="M815.99,293.5158 C815.99,293.5158 814.83,293.5158 814.83,293.5158 C814.83,293.5158 814.83,196.5258 814.83,146.1458 " fill="none" id="Group&lt;-Graphic" style="stroke: #2C5F7C; stroke-width: 1.0;"/><polygon fill="#FFFFFF" points="826.43,293.5158,820.43,289.5158,814.43,293.5158,820.43,297.5158,826.43,293.5158" style="stroke: #2C5F7C; stroke-width: 1.0;"/><text fill="#000000" font-family="sans-serif" font-size="13" lengthAdjust="spacingAndGlyphs" textLength="48" x="864" y="219.4129">children</text><rect fill="#DDDDDD" height="90.2717" rx="5" ry="5" style="stroke: #000000; stroke-width: 1.0;" width="352" x="612" y="382.5158"/><text fill="#000000" font-family="sans-serif" font-size="14" font-weight="bold" lengthAdjust="spacingAndGlyphs" textLength="64" x="622" y="404.4818">Stereotip</text><text fill="#000000" font-family="sans-serif" font-size="14" font-weight="bold" lengthAdjust="spacingAndGlyphs" textLength="49" x="740" y="404.4818">Anlamı</text><text fill="#000000" font-family="sans-serif" font-size="14" lengthAdjust="spacingAndGlyphs" textLength="110" x="622" y="423.5497">&lt;&lt;Component&gt;&gt;</text><text fill="#000000" font-family="sans-serif" font-size="14" lengthAdjust="spacingAndGlyphs" textLength="202" x="740" y="423.5497">Ortak arayüz/temel soyutlama</text><text fill="#000000" font-family="sans-serif" font-size="14" lengthAdjust="spacingAndGlyphs" textLength="60" x="622" y="442.6176">&lt;&lt;Leaf&gt;&gt;</text><text fill="#000000" font-family="sans-serif" font-size="14" lengthAdjust="spacingAndGlyphs" textLength="214" x="740" y="442.6176">Son düğüm; alt eleman içermez</text><text fill="#000000" font-family="sans-serif" font-size="14" lengthAdjust="spacingAndGlyphs" textLength="103" x="622" y="461.6855">&lt;&lt;Composite&gt;&gt;</text><text fill="#000000" font-family="sans-serif" font-size="14" lengthAdjust="spacingAndGlyphs" textLength="187" x="740" y="461.6855">Alt elemanları tutan düğüm</text><line style="stroke: #000000; stroke-width: 1.0;" x1="618" x2="958" y1="389.5158" y2="389.5158"/><line style="stroke: #000000; stroke-width: 1.0;" x1="618" x2="958" y1="408.5838" y2="408.5838"/><line style="stroke: #000000; stroke-width: 1.0;" x1="618" x2="958" y1="427.6517" y2="427.6517"/><line style="stroke: #000000; stroke-width: 1.0;" x1="618" x2="958" y1="446.7196" y2="446.7196"/><line style="stroke: #000000; stroke-width: 1.0;" x1="618" x2="958" y1="465.7875" y2="465.7875"/><line style="stroke: #000000; stroke-width: 1.0;" x1="618" x2="618" y1="389.5158" y2="465.7875"/><line style="stroke: #000000; stroke-width: 1.0;" x1="736" x2="736" y1="389.5158" y2="465.7875"/><line style="stroke: #000000; stroke-width: 1.0;" x1="958" x2="958" y1="389.5158" y2="465.7875"/><text fill="#888888" font-family="sans-serif" font-size="10" lengthAdjust="spacingAndGlyphs" textLength="465" x="254" y="492.4775">Oluşturulma: 03.11.2025 | Sürüm: 1.0.0 | Pattern: Composite (Structural) | Modül: Karşılaştırma</text><!--MD5=[a112dad1678a665d7e583084824f9b60]
@startuml
allowmixing

title Composite Pattern: Dosya Sistemi vs Grafik Editör Karşılaştırması

skinparam backgroundColor #FFFFFF
skinparam shadowing false
skinparam classAttributeIconSize 0
skinparam linetype ortho

skinparam package {
    BackgroundColor #E8F4F8
    BorderColor #2C5F7C
    FontStyle bold
}

skinparam class {
    BackgroundColor #FFFFFF
    BorderColor #2C5F7C
    ArrowColor #2C5F7C
}

skinparam note {
    BackgroundColor #FFF9E6
    BorderColor #CC8800
}

package "Vaka A: Dosya Sistemi" #F0F7FA {
    abstract class Node <<Component>>
    class File <<Leaf>>
    class Directory <<Composite>>

    Node <|- - File
    Node <|- - Directory
    Directory o- - Node : children
}

package "Vaka B: Grafik Editör" #F7F1FF {
    abstract class Graphic <<Component>>
    class Circle <<Leaf>>
    class Rectangle <<Leaf>>
    class Group <<Composite>>

    Graphic <|- - Circle
    Graphic <|- - Rectangle
    Graphic <|- - Group
    Group o- - Graphic : children
}

note as Similarities
  <b>Ortak Noktalar</b>
  ✓ Tek tip arayüz (Component)
  ✓ Yaprak ve Bileşik nesneler aynı muamele görür
  ✓ Bileşik, bileşenleri kompozisyonla tutar (o- -)
  ✓ İstemci tarafında tekdüze kullanım (uniformity)
  ✓ OCP ve SRP'ye uyum, ağaç yapısı
end note

note as Differences
  <b>Farklar</b>
  • Alan modeli: dosya/dizin boyutu vs grafik çizimi
  • Operasyonlar: size()/ls() vs draw()
  • Ek metrik: Dosya Sistemi toplam boyut hesaplar
  • Kullanım bağlamı: FS gezinti vs sahne çizimi
end note

Similarities -[hidden]- Differences

legend right
  |= Stereotip |= Anlamı |
  | <<Component>> | Ortak arayüz/temel soyutlama |
  | <<Leaf>> | Son düğüm; alt eleman içermez |
  | <<Composite>> | Alt elemanları tutan düğüm |
endlegend

footer Oluşturulma: 03.11.2025 | Sürüm: 1.0.0 | Pattern: Composite (Structural) | Modül: Karşılaştırma

@enduml

PlantUML version 1.2020.02(Sun Mar 01 13:22:07 TRT 2020)
(GPL source distribution)
Java Runtime: OpenJDK Runtime Environment
JVM: OpenJDK 64-Bit Server VM
Java Version: 21.0.8+9-Ubuntu-0ubuntu124.04.1
Operating System: Linux
Default Encoding: UTF-8
Language: en
Country: US
--></g></svg>