<?xml version="1.0" encoding="UTF-8" standalone="no"?><svg xmlns="http://www.w3.org/2000/svg" xmlns:xlink="http://www.w3.org/1999/xlink" contentScriptType="application/ecmascript" contentStyleType="text/css" height="1216px" preserveAspectRatio="none" style="width:1279px;height:1216px;" version="1.1" viewBox="0 0 1279 1216" width="1279px" zoomAndPan="magnify"><defs/><g><text fill="#000000" font-family="sans-serif" font-size="18" lengthAdjust="spacingAndGlyphs" textLength="348" x="464.5" y="19.2419">USB-C'den 3.5mm Jak'a - Adapter Pattern</text><!--MD5=[74e704d9433af7a7a2a07f3e0db13511]
cluster Analog Ses Sistemi--><polygon fill="#F0F8FF" points="600,65.0158,737,65.0158,744,90.0838,852,90.0838,852,491.0158,600,491.0158,600,65.0158" style="stroke: #4682B4; stroke-width: 1.5;"/><line style="stroke: #4682B4; stroke-width: 1.5;" x1="600" x2="744" y1="90.0838" y2="90.0838"/><text fill="#000000" font-family="sans-serif" font-size="14" font-weight="bold" lengthAdjust="spacingAndGlyphs" textLength="131" x="604" y="81.9818">Analog Ses Sistemi</text><!--MD5=[7866b7c657a1a0c5051e752b0704ea5b]
cluster Modern Telefon--><polygon fill="#F0F8FF" points="296,577.5158,411,577.5158,418,602.5838,550,602.5838,550,780.5158,296,780.5158,296,577.5158" style="stroke: #4682B4; stroke-width: 1.5;"/><line style="stroke: #4682B4; stroke-width: 1.5;" x1="296" x2="418" y1="602.5838" y2="602.5838"/><text fill="#000000" font-family="sans-serif" font-size="14" font-weight="bold" lengthAdjust="spacingAndGlyphs" textLength="109" x="300" y="594.4818">Modern Telefon</text><!--MD5=[e81553c44e5a2340115b653f498b3397]
class AnalogHeadset--><rect fill="#E8F4F8" height="73.6701" id="AnalogHeadset" style="stroke: #2C5F7C; stroke-width: 1.5;" width="221" x="615.5" y="103.0158"/><ellipse cx="681.25" cy="124.36" fill="#B4A7E5" rx="11" ry="11" style="stroke: #2C5F7C; stroke-width: 1.0;"/><path d="M677.1719,120.1256 L677.1719,117.9693 L684.5625,117.9693 L684.5625,120.1256 L682.0938,120.1256 L682.0938,128.2037 L684.5625,128.2037 L684.5625,130.36 L677.1719,130.36 L677.1719,128.2037 L679.6406,128.2037 L679.6406,120.1256 L677.1719,120.1256 Z "/><text fill="#000000" font-family="sans-serif" font-size="12" font-style="italic" lengthAdjust="spacingAndGlyphs" textLength="47" x="718.75" y="120.8439">«Target»</text><text fill="#000000" font-family="sans-serif" font-size="12" font-style="italic" lengthAdjust="spacingAndGlyphs" textLength="81" x="701.75" y="137.1881">AnalogHeadset</text><line style="stroke: #2C5F7C; stroke-width: 1.5;" x1="616.5" x2="835.5" y1="145.7041" y2="145.7041"/><line style="stroke: #2C5F7C; stroke-width: 1.5;" x1="616.5" x2="835.5" y1="153.7041" y2="153.7041"/><text fill="#000000" font-family="sans-serif" font-size="11" lengthAdjust="spacingAndGlyphs" textLength="209" x="621.5" y="169.463">+playAnalog(left: float, right: float): void</text><!--MD5=[38d4d3a1e68f7bf00aaeed8817041c9c]
class StudioHeadphones--><rect fill="#E8F4F8" height="133.5977" id="StudioHeadphones" style="stroke: #2C5F7C; stroke-width: 1.5;" width="221" x="615.5" y="341.0158"/><ellipse cx="668.75" cy="362.36" fill="#ADD1B2" rx="11" ry="11" style="stroke: #2C5F7C; stroke-width: 1.0;"/><path d="M671.7188,368.0006 Q671.1406,368.2975 670.5,368.4381 Q669.8594,368.5943 669.1563,368.5943 Q666.6563,368.5943 665.3281,366.9537 Q664.0156,365.2975 664.0156,362.1725 Q664.0156,359.0475 665.3281,357.3912 Q666.6563,355.735 669.1563,355.735 Q669.8594,355.735 670.5,355.8912 Q671.1563,356.0475 671.7188,356.3443 L671.7188,359.0631 Q671.0938,358.485 670.5,358.2193 Q669.9063,357.9381 669.2813,357.9381 Q667.9375,357.9381 667.25,359.0162 Q666.5625,360.0787 666.5625,362.1725 Q666.5625,364.2662 667.25,365.3443 Q667.9375,366.4068 669.2813,366.4068 Q669.9063,366.4068 670.5,366.1412 Q671.0938,365.86 671.7188,365.2818 L671.7188,368.0006 Z "/><text fill="#000000" font-family="sans-serif" font-size="12" font-style="italic" lengthAdjust="spacingAndGlyphs" textLength="97" x="693.75" y="358.8439">«Concrete Target»</text><text fill="#000000" font-family="sans-serif" font-size="12" lengthAdjust="spacingAndGlyphs" textLength="106" x="689.25" y="375.1881">StudioHeadphones</text><line style="stroke: #2C5F7C; stroke-width: 1.5;" x1="616.5" x2="835.5" y1="383.7041" y2="383.7041"/><text fill="#000000" font-family="sans-serif" font-size="11" lengthAdjust="spacingAndGlyphs" textLength="81" x="621.5" y="399.463">-impedance: int</text><text fill="#000000" font-family="sans-serif" font-size="11" lengthAdjust="spacingAndGlyphs" textLength="86" x="621.5" y="414.4449">-sensitivity: float</text><line style="stroke: #2C5F7C; stroke-width: 1.5;" x1="616.5" x2="835.5" y1="421.6679" y2="421.6679"/><text fill="#000000" font-family="sans-serif" font-size="11" lengthAdjust="spacingAndGlyphs" textLength="112" x="621.5" y="437.4268">+StudioHeadphones()</text><text fill="#000000" font-family="sans-serif" font-size="11" lengthAdjust="spacingAndGlyphs" textLength="209" x="621.5" y="452.4087">+playAnalog(left: float, right: float): void</text><text fill="#000000" font-family="sans-serif" font-size="11" lengthAdjust="spacingAndGlyphs" textLength="107" x="621.5" y="467.3905">+getImpedance(): int</text><!--MD5=[9a5f9255e4f743fba53330ec30d5854f]
class UsbTypeCPhone--><rect fill="#E8F4F8" height="148.5796" id="UsbTypeCPhone" style="stroke: #2C5F7C; stroke-width: 1.5;" width="222" x="312" y="615.5158"/><ellipse cx="372.75" cy="636.86" fill="#ADD1B2" rx="11" ry="11" style="stroke: #2C5F7C; stroke-width: 1.0;"/><path d="M375.7188,642.5006 Q375.1406,642.7975 374.5,642.9381 Q373.8594,643.0943 373.1563,643.0943 Q370.6563,643.0943 369.3281,641.4537 Q368.0156,639.7975 368.0156,636.6725 Q368.0156,633.5475 369.3281,631.8912 Q370.6563,630.235 373.1563,630.235 Q373.8594,630.235 374.5,630.3912 Q375.1563,630.5475 375.7188,630.8443 L375.7188,633.5631 Q375.0938,632.985 374.5,632.7193 Q373.9063,632.4381 373.2813,632.4381 Q371.9375,632.4381 371.25,633.5162 Q370.5625,634.5787 370.5625,636.6725 Q370.5625,638.7662 371.25,639.8443 Q371.9375,640.9068 373.2813,640.9068 Q373.9063,640.9068 374.5,640.6412 Q375.0938,640.36 375.7188,639.7818 L375.7188,642.5006 Z "/><text fill="#000000" font-family="sans-serif" font-size="12" font-style="italic" lengthAdjust="spacingAndGlyphs" textLength="56" x="411.25" y="633.3439">«Adaptee»</text><text fill="#000000" font-family="sans-serif" font-size="12" lengthAdjust="spacingAndGlyphs" textLength="92" x="393.25" y="649.6881">UsbTypeCPhone</text><line style="stroke: #2C5F7C; stroke-width: 1.5;" x1="313" x2="533" y1="658.2041" y2="658.2041"/><text fill="#000000" font-family="sans-serif" font-size="11" lengthAdjust="spacingAndGlyphs" textLength="125" x="318" y="673.963">-dacCalibrated: boolean</text><text fill="#000000" font-family="sans-serif" font-size="11" lengthAdjust="spacingAndGlyphs" textLength="84" x="318" y="688.9449">-sampleRate: int</text><line style="stroke: #2C5F7C; stroke-width: 1.5;" x1="313" x2="533" y1="696.1679" y2="696.1679"/><text fill="#000000" font-family="sans-serif" font-size="11" lengthAdjust="spacingAndGlyphs" textLength="98" x="318" y="711.9268">+UsbTypeCPhone()</text><text fill="#000000" font-family="sans-serif" font-size="11" lengthAdjust="spacingAndGlyphs" textLength="210" x="318" y="726.9087">+streamDigital(track: string): vector&lt;int&gt;</text><text fill="#000000" font-family="sans-serif" font-size="11" lengthAdjust="spacingAndGlyphs" textLength="105" x="318" y="741.8905">+calibrateDac(): void</text><text fill="#000000" font-family="sans-serif" font-size="11" lengthAdjust="spacingAndGlyphs" textLength="110" x="318" y="756.8724">+getSampleRate(): int</text><!--MD5=[6290c17893f34b1b1fde5f6ea340e857]
class UsbToJackAdapter--><rect fill="#E8F4F8" height="208.5071" id="UsbToJackAdapter" style="stroke: #2C5F7C; stroke-width: 1.5;" width="315" x="265.5" y="303.5158"/><ellipse cx="367.25" cy="324.86" fill="#ADD1B2" rx="11" ry="11" style="stroke: #2C5F7C; stroke-width: 1.0;"/><path d="M370.2188,330.5006 Q369.6406,330.7975 369,330.9381 Q368.3594,331.0943 367.6563,331.0943 Q365.1563,331.0943 363.8281,329.4537 Q362.5156,327.7975 362.5156,324.6725 Q362.5156,321.5475 363.8281,319.8912 Q365.1563,318.235 367.6563,318.235 Q368.3594,318.235 369,318.3912 Q369.6563,318.5475 370.2188,318.8443 L370.2188,321.5631 Q369.5938,320.985 369,320.7193 Q368.4063,320.4381 367.7813,320.4381 Q366.4375,320.4381 365.75,321.5162 Q365.0625,322.5787 365.0625,324.6725 Q365.0625,326.7662 365.75,327.8443 Q366.4375,328.9068 367.7813,328.9068 Q368.4063,328.9068 369,328.6412 Q369.5938,328.36 370.2188,327.7818 L370.2188,330.5006 Z "/><text fill="#000000" font-family="sans-serif" font-size="12" font-style="italic" lengthAdjust="spacingAndGlyphs" textLength="55" x="411.75" y="321.3439">«Adapter»</text><text fill="#000000" font-family="sans-serif" font-size="12" lengthAdjust="spacingAndGlyphs" textLength="103" x="387.75" y="337.6881">UsbToJackAdapter</text><line style="stroke: #2C5F7C; stroke-width: 1.5;" x1="266.5" x2="579.5" y1="346.2041" y2="346.2041"/><text fill="#000000" font-family="sans-serif" font-size="11" lengthAdjust="spacingAndGlyphs" textLength="200" x="271.5" y="361.963">-phone: unique_ptr&lt;UsbTypeCPhone&gt;</text><text fill="#000000" font-family="sans-serif" font-size="11" lengthAdjust="spacingAndGlyphs" textLength="77" x="271.5" y="376.9449">-gainLeft: float</text><text fill="#000000" font-family="sans-serif" font-size="11" lengthAdjust="spacingAndGlyphs" textLength="85" x="271.5" y="391.9268">-gainRight: float</text><text fill="#000000" font-family="sans-serif" font-size="11" lengthAdjust="spacingAndGlyphs" textLength="77" x="271.5" y="406.9087">-bufferSize: int</text><line style="stroke: #2C5F7C; stroke-width: 1.5;" x1="266.5" x2="579.5" y1="414.1316" y2="414.1316"/><text fill="#000000" font-family="sans-serif" font-size="11" lengthAdjust="spacingAndGlyphs" textLength="303" x="271.5" y="429.8905">+UsbToJackAdapter(phone: unique_ptr&lt;UsbTypeCPhone&gt;)</text><text fill="#000000" font-family="sans-serif" font-size="11" lengthAdjust="spacingAndGlyphs" textLength="209" x="271.5" y="444.8724">+playAnalog(left: float, right: float): void</text><text fill="#000000" font-family="sans-serif" font-size="11" lengthAdjust="spacingAndGlyphs" textLength="188" x="271.5" y="459.8543">+playFromPhone(track: string): void</text><text fill="#000000" font-family="sans-serif" font-size="11" lengthAdjust="spacingAndGlyphs" textLength="189" x="271.5" y="474.8362">+setGain(left: float, right: float): void</text><text fill="#000000" font-family="sans-serif" font-size="11" lengthAdjust="spacingAndGlyphs" textLength="277" x="271.5" y="489.8181">-convertToStereo(pcm: vector&lt;int&gt;): pair&lt;float, float&gt;</text><text fill="#000000" font-family="sans-serif" font-size="11" lengthAdjust="spacingAndGlyphs" textLength="213" x="271.5" y="504.8">-applyGain(signal: float, gain: float): float</text><path d="M6,305.5158 L6,510.282 A0,0 0 0 0 6,510.282 L230,510.282 A0,0 0 0 0 230,510.282 L230,412.0158 L265.29,408.0158 L230,404.0158 L230,315.5158 L220,305.5158 L6,305.5158 A0,0 0 0 0 6,305.5158 " fill="#FBFB77" style="stroke: #A80036; stroke-width: 1.0;"/><path d="M220,305.5158 L220,315.5158 L230,315.5158 L220,305.5158 " fill="#FBFB77" style="stroke: #A80036; stroke-width: 1.0;"/><text fill="#000000" font-family="sans-serif" font-size="13" font-weight="bold" lengthAdjust="spacingAndGlyphs" textLength="140" x="12" y="324.4129">Adaptasyon Adımları:</text><text fill="#000000" font-family="sans-serif" font-size="13" lengthAdjust="spacingAndGlyphs" textLength="127" x="12" y="342.1189">1. dijital pcm akışını al</text><text fill="#000000" font-family="sans-serif" font-size="13" lengthAdjust="spacingAndGlyphs" textLength="139" x="12" y="359.8249">2. dac kalibrasyonu yap</text><text fill="#000000" font-family="sans-serif" font-size="13" lengthAdjust="spacingAndGlyphs" textLength="188" x="12" y="377.5309">3. sol/sağ kanal kazancını ayarla</text><text fill="#000000" font-family="sans-serif" font-size="13" lengthAdjust="spacingAndGlyphs" textLength="157" x="12" y="395.2369">4. analog sinyale dönüştür</text><text fill="#000000" font-family="sans-serif" font-size="13" lengthAdjust="spacingAndGlyphs" textLength="203" x="12" y="412.9429">5. analogheadset arayüzünü besle</text><text fill="#000000" font-family="sans-serif" font-size="13" lengthAdjust="spacingAndGlyphs" textLength="0" x="15" y="430.649"/><text fill="#000000" font-family="sans-serif" font-size="13" font-weight="bold" lengthAdjust="spacingAndGlyphs" textLength="109" x="12" y="448.355">Teknik Detaylar:</text><ellipse cx="17.5" cy="462.37" fill="#000000" rx="2.5" ry="2.5" style="stroke: #000000; stroke-width: 0.0;"/><text fill="#000000" font-family="sans-serif" font-size="13" lengthAdjust="spacingAndGlyphs" textLength="113" x="24" y="466.061">sample rate: 48kHz</text><ellipse cx="17.5" cy="480.076" fill="#000000" rx="2.5" ry="2.5" style="stroke: #000000; stroke-width: 0.0;"/><text fill="#000000" font-family="sans-serif" font-size="13" lengthAdjust="spacingAndGlyphs" textLength="95" x="24" y="483.767">bit depth: 16-bit</text><ellipse cx="17.5" cy="497.782" fill="#000000" rx="2.5" ry="2.5" style="stroke: #000000; stroke-width: 0.0;"/><text fill="#000000" font-family="sans-serif" font-size="13" lengthAdjust="spacingAndGlyphs" textLength="115" x="24" y="501.473">buffer: 512 samples</text><path d="M1061,55.5158 L1061,224.87 L1259,224.87 L1259,65.5158 L1249,55.5158 L1061,55.5158 " fill="#FBFB77" style="stroke: #A80036; stroke-width: 1.0;"/><path d="M1249,55.5158 L1249,65.5158 L1259,65.5158 L1249,55.5158 " fill="#FBFB77" style="stroke: #A80036; stroke-width: 1.0;"/><text fill="#000000" font-family="sans-serif" font-size="13" font-weight="bold" lengthAdjust="spacingAndGlyphs" textLength="109" x="1067" y="74.4129">Target Interface</text><text fill="#000000" font-family="sans-serif" font-size="13" lengthAdjust="spacingAndGlyphs" textLength="0" x="1070" y="92.1189"/><text fill="#000000" font-family="sans-serif" font-size="13" lengthAdjust="spacingAndGlyphs" textLength="177" x="1067" y="109.8249">analog arayüz eski sistemlerle</text><text fill="#000000" font-family="sans-serif" font-size="13" lengthAdjust="spacingAndGlyphs" textLength="176" x="1067" y="127.5309">uyumludur. adapter olmadan</text><text fill="#000000" font-family="sans-serif" font-size="13" lengthAdjust="spacingAndGlyphs" textLength="165" x="1067" y="145.2369">modern telefon dijital çıktıyı</text><text fill="#000000" font-family="sans-serif" font-size="13" lengthAdjust="spacingAndGlyphs" textLength="116" x="1067" y="162.9429">doğrudan iletemez.</text><text fill="#000000" font-family="sans-serif" font-size="13" lengthAdjust="spacingAndGlyphs" textLength="0" x="1070" y="180.649"/><text fill="#000000" font-family="sans-serif" font-size="13" font-weight="bold" lengthAdjust="spacingAndGlyphs" textLength="48" x="1067" y="198.355">Dikkat:</text><text fill="#000000" font-family="sans-serif" font-size="13" lengthAdjust="spacingAndGlyphs" textLength="105" x="1118" y="198.355">impedans uyumu</text><text fill="#000000" font-family="sans-serif" font-size="13" lengthAdjust="spacingAndGlyphs" textLength="109" x="1067" y="216.061">kontrol edilmelidir</text><path d="M255.5,827.5158 L255.5,979.164 A0,0 0 0 0 255.5,979.164 L590.5,979.164 A0,0 0 0 0 590.5,979.164 L590.5,837.5158 L580.5,827.5158 L427,827.5158 L423,764.6958 L419,827.5158 L255.5,827.5158 A0,0 0 0 0 255.5,827.5158 " fill="#FBFB77" style="stroke: #A80036; stroke-width: 1.0;"/><path d="M580.5,827.5158 L580.5,837.5158 L590.5,837.5158 L580.5,827.5158 " fill="#FBFB77" style="stroke: #A80036; stroke-width: 1.0;"/><text fill="#000000" font-family="sans-serif" font-size="13" font-weight="bold" lengthAdjust="spacingAndGlyphs" textLength="112" x="261.5" y="846.4129">Kullanım Örneği:</text><text fill="#000000" font-family="sans-serif" font-size="13" lengthAdjust="spacingAndGlyphs" textLength="0" x="264.5" y="864.1189"/><text fill="#000000" font-family="sans-serif" font-size="13" lengthAdjust="spacingAndGlyphs" textLength="314" x="261.5" y="881.8249">auto phone = std::make_unique&lt;UsbTypeCPhone&gt;();</text><text fill="#000000" font-family="sans-serif" font-size="13" lengthAdjust="spacingAndGlyphs" textLength="134" x="261.5" y="899.5309">phone-&gt;calibrateDac();</text><text fill="#000000" font-family="sans-serif" font-size="13" lengthAdjust="spacingAndGlyphs" textLength="0" x="264.5" y="917.2369"/><text fill="#000000" font-family="sans-serif" font-size="13" lengthAdjust="spacingAndGlyphs" textLength="278" x="261.5" y="934.9429">UsbToJackAdapter adapter(std::move(phone));</text><text fill="#000000" font-family="sans-serif" font-size="13" lengthAdjust="spacingAndGlyphs" textLength="154" x="261.5" y="952.649">adapter.setGain(0.8f, 0.8f);</text><text fill="#000000" font-family="sans-serif" font-size="13" lengthAdjust="spacingAndGlyphs" textLength="280" x="261.5" y="970.355">adapter.playFromPhone("analog-dreams.aac");</text><path d="M872,108.5158 L872,171.6339 A0,0 0 0 0 872,171.6339 L919.42,171.6339 L781.41,340.9258 L927.42,171.6339 L1026,171.6339 A0,0 0 0 0 1026,171.6339 L1026,118.5158 L1016,108.5158 L872,108.5158 A0,0 0 0 0 872,108.5158 " fill="#FBFB77" style="stroke: #A80036; stroke-width: 1.0;"/><path d="M1016,108.5158 L1016,118.5158 L1026,118.5158 L1016,108.5158 " fill="#FBFB77" style="stroke: #A80036; stroke-width: 1.0;"/><ellipse cx="883.5" cy="123.7219" fill="#000000" rx="2.5" ry="2.5" style="stroke: #000000; stroke-width: 0.0;"/><text fill="#000000" font-family="sans-serif" font-size="13" lengthAdjust="spacingAndGlyphs" textLength="89" x="890" y="127.4129">impedans: 32Ω</text><ellipse cx="883.5" cy="141.4279" fill="#000000" rx="2.5" ry="2.5" style="stroke: #000000; stroke-width: 0.0;"/><text fill="#000000" font-family="sans-serif" font-size="13" lengthAdjust="spacingAndGlyphs" textLength="98" x="890" y="145.1189">hassasiyet: 98dB</text><ellipse cx="883.5" cy="159.1339" fill="#000000" rx="2.5" ry="2.5" style="stroke: #000000; stroke-width: 0.0;"/><text fill="#000000" font-family="sans-serif" font-size="13" lengthAdjust="spacingAndGlyphs" textLength="121" x="890" y="162.8249">frekans: 20Hz-20kHz</text><!--MD5=[09544f3ed3c1c400579870f14b341ed8]
reverse link AnalogHeadset to StudioHeadphones--><path d="M726,197.2758 C726,239.2858 726,296.8158 726,340.9958 " fill="none" id="AnalogHeadset&lt;-StudioHeadphones" style="stroke: #2C5F7C; stroke-width: 1.0; stroke-dasharray: 7.0,7.0;"/><polygon fill="none" points="719,197.1658,726,177.1658,733,197.1658,719,197.1658" style="stroke: #2C5F7C; stroke-width: 1.0;"/><text fill="#000000" font-family="sans-serif" font-size="13" lengthAdjust="spacingAndGlyphs" textLength="46" x="727" y="269.4129">uygular</text><!--MD5=[b41f7efa91abb0fd02c3c4a075fa199b]
reverse link AnalogHeadset to UsbToJackAdapter--><path d="M669.62,190.5058 C633.47,222.2458 585.18,264.6458 540.92,303.4958 " fill="none" id="AnalogHeadset&lt;-UsbToJackAdapter" style="stroke: #2C5F7C; stroke-width: 1.0; stroke-dasharray: 7.0,7.0;"/><polygon fill="none" points="665.17,185.0958,684.82,177.1658,674.41,195.6258,665.17,185.0958" style="stroke: #2C5F7C; stroke-width: 1.0;"/><text fill="#000000" font-family="sans-serif" font-size="13" lengthAdjust="spacingAndGlyphs" textLength="46" x="593" y="269.4129">uygular</text><!--MD5=[9dc3ca62fd9adeee717c595c1bf70558]
reverse link UsbToJackAdapter to UsbTypeCPhone--><path d="M423,526.1958 C423,556.4458 423,588.1558 423,615.4758 " fill="none" id="UsbToJackAdapter&lt;-UsbTypeCPhone" style="stroke: #2C5F7C; stroke-width: 1.0;"/><polygon fill="#2C5F7C" points="423,512.8758,419,518.8758,423,524.8758,427,518.8758,423,512.8758" style="stroke: #2C5F7C; stroke-width: 1.0;"/><text fill="#000000" font-family="sans-serif" font-size="13" lengthAdjust="spacingAndGlyphs" textLength="45" x="424" y="557.4129">sahiplik</text><!--MD5=[4d3f4e2b52eecb7aafbf7e737448da34]
link AnalogHeadset to GMN14--><path d="M766.35,102.7758 C793.97,79.9158 832.68,52.7558 872.5,40.5158 C905.21,30.4558 994.02,29.7458 1026.5,40.5158 C1038.16,44.3858 1049.63,49.7058 1060.65,55.9058 " fill="none" id="AnalogHeadset-GMN14" style="stroke: #2C5F7C; stroke-width: 1.0; stroke-dasharray: 7.0,7.0;"/><rect fill="#DDDDDD" height="185.6113" rx="5" ry="5" style="stroke: #000000; stroke-width: 1.0;" width="300" x="968" y="997.5158"/><text fill="#000000" font-family="sans-serif" font-size="14" font-weight="bold" lengthAdjust="spacingAndGlyphs" textLength="64" x="978" y="1019.4818">Stereotip</text><text fill="#000000" font-family="sans-serif" font-size="14" font-weight="bold" lengthAdjust="spacingAndGlyphs" textLength="64" x="1126" y="1019.4818">Açıklama</text><text fill="#000000" font-family="sans-serif" font-size="14" lengthAdjust="spacingAndGlyphs" textLength="76" x="978" y="1038.5497">&lt;&lt;Target&gt;&gt;</text><text fill="#000000" font-family="sans-serif" font-size="14" lengthAdjust="spacingAndGlyphs" textLength="132" x="1126" y="1038.5497">eski sistem arayüzü</text><text fill="#000000" font-family="sans-serif" font-size="14" lengthAdjust="spacingAndGlyphs" textLength="86" x="978" y="1057.6176">&lt;&lt;Adapter&gt;&gt;</text><text fill="#000000" font-family="sans-serif" font-size="14" lengthAdjust="spacingAndGlyphs" textLength="120" x="1126" y="1057.6176">dönüştürücü sınıf</text><text fill="#000000" font-family="sans-serif" font-size="14" lengthAdjust="spacingAndGlyphs" textLength="88" x="978" y="1076.6855">&lt;&lt;Adaptee&gt;&gt;</text><text fill="#000000" font-family="sans-serif" font-size="14" lengthAdjust="spacingAndGlyphs" textLength="92" x="1126" y="1076.6855">modern cihaz</text><text fill="#000000" font-family="sans-serif" font-size="14" lengthAdjust="spacingAndGlyphs" textLength="140" x="978" y="1095.7534">&lt;&lt;Concrete Target&gt;&gt;</text><text fill="#000000" font-family="sans-serif" font-size="14" lengthAdjust="spacingAndGlyphs" textLength="110" x="1126" y="1095.7534">hedef uygulama</text><line style="stroke: #000000; stroke-width: 1.0;" x1="974" x2="1262" y1="1004.5158" y2="1004.5158"/><line style="stroke: #000000; stroke-width: 1.0;" x1="974" x2="1262" y1="1023.5838" y2="1023.5838"/><line style="stroke: #000000; stroke-width: 1.0;" x1="974" x2="1262" y1="1042.6517" y2="1042.6517"/><line style="stroke: #000000; stroke-width: 1.0;" x1="974" x2="1262" y1="1061.7196" y2="1061.7196"/><line style="stroke: #000000; stroke-width: 1.0;" x1="974" x2="1262" y1="1080.7875" y2="1080.7875"/><line style="stroke: #000000; stroke-width: 1.0;" x1="974" x2="1262" y1="1099.8554" y2="1099.8554"/><line style="stroke: #000000; stroke-width: 1.0;" x1="974" x2="974" y1="1004.5158" y2="1099.8554"/><line style="stroke: #000000; stroke-width: 1.0;" x1="1122" x2="1122" y1="1004.5158" y2="1099.8554"/><line style="stroke: #000000; stroke-width: 1.0;" x1="1262" x2="1262" y1="1004.5158" y2="1099.8554"/><text fill="#000000" font-family="sans-serif" font-size="14" lengthAdjust="spacingAndGlyphs" textLength="0" x="978" y="1116.8214"/><text fill="#000000" font-family="sans-serif" font-size="14" font-weight="bold" lengthAdjust="spacingAndGlyphs" textLength="103" x="974" y="1135.8893">Pattern Amacı:</text><text fill="#000000" font-family="sans-serif" font-size="14" lengthAdjust="spacingAndGlyphs" textLength="183" x="974" y="1154.9572">uyumsuz arayüzleri birlikte</text><text fill="#000000" font-family="sans-serif" font-size="14" lengthAdjust="spacingAndGlyphs" textLength="162" x="974" y="1174.0251">çalışabilir hale getirmek</text><text fill="#888888" font-family="sans-serif" font-size="10" lengthAdjust="spacingAndGlyphs" textLength="340" x="468.5" y="1202.8171">Oluşturulma: 20.10.2025 | Sürüm: 1.0.0 | Pattern: Adapter (Structural)</text><!--MD5=[17d1a99832aeae2cbcef6df8873aca43]
@startuml

title USB-C'den 3.5mm Jak'a - Adapter Pattern

skinparam backgroundColor #FFFFFF
skinparam shadowing false
skinparam classAttributeIconSize 0

skinparam class {
    BackgroundColor #E8F4F8
    BorderColor #2C5F7C
    ArrowColor #2C5F7C
}

skinparam package {
    BackgroundColor #F0F8FF
    BorderColor #4682B4
}


package "Analog Ses Sistemi" {
    interface AnalogHeadset <<Target>> {
        +playAnalog(left: float, right: float): void
    }

    class StudioHeadphones <<Concrete Target>> {
        -impedance: int
        -sensitivity: float
        __
        +StudioHeadphones()
        +playAnalog(left: float, right: float): void
        +getImpedance(): int
    }
}


package "Modern Telefon" {
    class UsbTypeCPhone <<Adaptee>> {
        -dacCalibrated: boolean
        -sampleRate: int
        __
        +UsbTypeCPhone()
        +streamDigital(track: string): vector<int>
        +calibrateDac(): void
        +getSampleRate(): int
    }
}


class UsbToJackAdapter <<Adapter>> {
    -phone: unique_ptr<UsbTypeCPhone>
    -gainLeft: float
    -gainRight: float
    -bufferSize: int
    __
    +UsbToJackAdapter(phone: unique_ptr<UsbTypeCPhone>)
    +playAnalog(left: float, right: float): void
    +playFromPhone(track: string): void
    +setGain(left: float, right: float): void
    -convertToStereo(pcm: vector<int>): pair<float, float>
    -applyGain(signal: float, gain: float): float
}


AnalogHeadset <|.. StudioHeadphones : uygular
AnalogHeadset <|.. UsbToJackAdapter : uygular
UsbToJackAdapter *- - UsbTypeCPhone : sahiplik


note left of UsbToJackAdapter
  **Adaptasyon Adımları:**
  1. dijital pcm akışını al
  2. dac kalibrasyonu yap
  3. sol/sağ kanal kazancını ayarla
  4. analog sinyale dönüştür
  5. analogheadset arayüzünü besle
  
  **Teknik Detaylar:**
  * sample rate: 48kHz
  * bit depth: 16-bit
  * buffer: 512 samples
end note

note right of AnalogHeadset
  **Target Interface**
  
  analog arayüz eski sistemlerle
  uyumludur. adapter olmadan
  modern telefon dijital çıktıyı
  doğrudan iletemez.
  
  **Dikkat:** impedans uyumu
  kontrol edilmelidir
end note

note bottom of UsbTypeCPhone
  **Kullanım Örneği:**
  
  auto phone = std::make_unique<UsbTypeCPhone>();
  phone->calibrateDac();
  
  UsbToJackAdapter adapter(std::move(phone));
  adapter.setGain(0.8f, 0.8f);
  adapter.playFromPhone("analog-dreams.aac");
end note

note top of StudioHeadphones
  * impedans: 32Ω
  * hassasiyet: 98dB
  * frekans: 20Hz-20kHz
end note


legend right
  |= Stereotip |= Açıklama |
  | <<Target>> | eski sistem arayüzü |
  | <<Adapter>> | dönüştürücü sınıf |
  | <<Adaptee>> | modern cihaz |
  | <<Concrete Target>> | hedef uygulama |
  
  **Pattern Amacı:**
  uyumsuz arayüzleri birlikte
  çalışabilir hale getirmek
end legend

footer Oluşturulma: 20.10.2025 | Sürüm: 1.0.0 | Pattern: Adapter (Structural)

@enduml

PlantUML version 1.2020.02(Sun Mar 01 13:22:07 TRT 2020)
(GPL source distribution)
Java Runtime: OpenJDK Runtime Environment
JVM: OpenJDK 64-Bit Server VM
Java Version: 21.0.8+9-Ubuntu-0ubuntu124.04.1
Operating System: Linux
Default Encoding: UTF-8
Language: en
Country: US
--></g></svg>