<?xml version="1.0" encoding="UTF-8" standalone="no"?><svg xmlns="http://www.w3.org/2000/svg" xmlns:xlink="http://www.w3.org/1999/xlink" contentScriptType="application/ecmascript" contentStyleType="text/css" height="880px" preserveAspectRatio="none" style="width:872px;height:880px;" version="1.1" viewBox="0 0 872 880" width="872px" zoomAndPan="magnify"><defs/><g><text fill="#000000" font-family="sans-serif" font-size="18" lengthAdjust="spacingAndGlyphs" textLength="348" x="261" y="19.2419">USB-C'den 3.5mm Jak'a - Adapter Pattern</text><!--MD5=[74e704d9433af7a7a2a07f3e0db13511]
cluster Analog Ses Sistemi--><polygon fill="#FFF2E3" points="22,49.0158,159,49.0158,166,74.0838,246,74.0838,246,378.5158,22,378.5158,22,49.0158" style="stroke: #D47F36; stroke-width: 1.5;"/><line style="stroke: #D47F36; stroke-width: 1.5;" x1="22" x2="166" y1="74.0838" y2="74.0838"/><text fill="#000000" font-family="sans-serif" font-size="14" font-weight="bold" lengthAdjust="spacingAndGlyphs" textLength="131" x="26" y="65.9818">Analog Ses Sistemi</text><!--MD5=[7866b7c657a1a0c5051e752b0704ea5b]
cluster Modern Telefon--><polygon fill="#E9F7FF" points="557,472.5158,672,472.5158,679,497.5838,811,497.5838,811,615.5158,557,615.5158,557,472.5158" style="stroke: #D47F36; stroke-width: 1.5;"/><line style="stroke: #D47F36; stroke-width: 1.5;" x1="557" x2="679" y1="497.5838" y2="497.5838"/><text fill="#000000" font-family="sans-serif" font-size="14" font-weight="bold" lengthAdjust="spacingAndGlyphs" textLength="109" x="561" y="489.4818">Modern Telefon</text><!--MD5=[e81553c44e5a2340115b653f498b3397]
class AnalogHeadset--><rect fill="#FFF7F0" height="73.6701" id="AnalogHeadset" style="stroke: #C26E2B; stroke-width: 1.5;" width="192" x="38" y="87.0158"/><ellipse cx="89.25" cy="108.36" fill="#B4A7E5" rx="11" ry="11" style="stroke: #C26E2B; stroke-width: 1.0;"/><path d="M85.1719,104.1256 L85.1719,101.9693 L92.5625,101.9693 L92.5625,104.1256 L90.0938,104.1256 L90.0938,112.2037 L92.5625,112.2037 L92.5625,114.36 L85.1719,114.36 L85.1719,112.2037 L87.6406,112.2037 L87.6406,104.1256 L85.1719,104.1256 Z "/><text fill="#000000" font-family="sans-serif" font-size="12" font-style="italic" lengthAdjust="spacingAndGlyphs" textLength="47" x="126.75" y="104.8439">«Target»</text><text fill="#000000" font-family="sans-serif" font-size="12" font-style="italic" lengthAdjust="spacingAndGlyphs" textLength="81" x="109.75" y="121.1881">AnalogHeadset</text><line style="stroke: #C26E2B; stroke-width: 1.5;" x1="39" x2="229" y1="129.7041" y2="129.7041"/><line style="stroke: #C26E2B; stroke-width: 1.5;" x1="39" x2="229" y1="137.7041" y2="137.7041"/><text fill="#000000" font-family="sans-serif" font-size="11" lengthAdjust="spacingAndGlyphs" textLength="180" x="44" y="153.463">+playAnalog(left: float, right: float)</text><!--MD5=[38d4d3a1e68f7bf00aaeed8817041c9c]
class StudioHeadphones--><rect fill="#FFF7F0" height="73.6701" id="StudioHeadphones" style="stroke: #C26E2B; stroke-width: 1.5;" width="192" x="38" y="288.5158"/><ellipse cx="77.3" cy="309.86" fill="#ADD1B2" rx="11" ry="11" style="stroke: #C26E2B; stroke-width: 1.0;"/><path d="M80.2688,315.5006 Q79.6906,315.7975 79.05,315.9381 Q78.4094,316.0943 77.7063,316.0943 Q75.2063,316.0943 73.8781,314.4537 Q72.5656,312.7975 72.5656,309.6725 Q72.5656,306.5475 73.8781,304.8912 Q75.2063,303.235 77.7063,303.235 Q78.4094,303.235 79.05,303.3912 Q79.7063,303.5475 80.2688,303.8443 L80.2688,306.5631 Q79.6438,305.985 79.05,305.7193 Q78.4563,305.4381 77.8313,305.4381 Q76.4875,305.4381 75.8,306.5162 Q75.1125,307.5787 75.1125,309.6725 Q75.1125,311.7662 75.8,312.8443 Q76.4875,313.9068 77.8313,313.9068 Q78.4563,313.9068 79.05,313.6412 Q79.6438,313.36 80.2688,312.7818 L80.2688,315.5006 Z "/><text fill="#000000" font-family="sans-serif" font-size="12" font-style="italic" lengthAdjust="spacingAndGlyphs" textLength="97" x="101.2" y="306.3439">«Concrete Target»</text><text fill="#000000" font-family="sans-serif" font-size="12" lengthAdjust="spacingAndGlyphs" textLength="106" x="96.7" y="322.6881">StudioHeadphones</text><line style="stroke: #C26E2B; stroke-width: 1.5;" x1="39" x2="229" y1="331.2041" y2="331.2041"/><line style="stroke: #C26E2B; stroke-width: 1.5;" x1="39" x2="229" y1="339.2041" y2="339.2041"/><text fill="#000000" font-family="sans-serif" font-size="11" lengthAdjust="spacingAndGlyphs" textLength="180" x="44" y="354.963">+playAnalog(left: float, right: float)</text><!--MD5=[9a5f9255e4f743fba53330ec30d5854f]
class UsbTypeCPhone--><rect fill="#FFF7F0" height="88.652" id="UsbTypeCPhone" style="stroke: #C26E2B; stroke-width: 1.5;" width="222" x="573" y="510.5158"/><ellipse cx="633.75" cy="531.86" fill="#ADD1B2" rx="11" ry="11" style="stroke: #C26E2B; stroke-width: 1.0;"/><path d="M636.7188,537.5006 Q636.1406,537.7975 635.5,537.9381 Q634.8594,538.0943 634.1563,538.0943 Q631.6563,538.0943 630.3281,536.4537 Q629.0156,534.7975 629.0156,531.6725 Q629.0156,528.5475 630.3281,526.8912 Q631.6563,525.235 634.1563,525.235 Q634.8594,525.235 635.5,525.3912 Q636.1563,525.5475 636.7188,525.8443 L636.7188,528.5631 Q636.0938,527.985 635.5,527.7193 Q634.9063,527.4381 634.2813,527.4381 Q632.9375,527.4381 632.25,528.5162 Q631.5625,529.5787 631.5625,531.6725 Q631.5625,533.7662 632.25,534.8443 Q632.9375,535.9068 634.2813,535.9068 Q634.9063,535.9068 635.5,535.6412 Q636.0938,535.36 636.7188,534.7818 L636.7188,537.5006 Z "/><text fill="#000000" font-family="sans-serif" font-size="12" font-style="italic" lengthAdjust="spacingAndGlyphs" textLength="56" x="672.25" y="528.3439">«Adaptee»</text><text fill="#000000" font-family="sans-serif" font-size="12" lengthAdjust="spacingAndGlyphs" textLength="92" x="654.25" y="544.6881">UsbTypeCPhone</text><line style="stroke: #C26E2B; stroke-width: 1.5;" x1="574" x2="794" y1="553.2041" y2="553.2041"/><line style="stroke: #C26E2B; stroke-width: 1.5;" x1="574" x2="794" y1="561.2041" y2="561.2041"/><text fill="#000000" font-family="sans-serif" font-size="11" lengthAdjust="spacingAndGlyphs" textLength="210" x="579" y="576.963">+streamDigital(track: string): vector&lt;int&gt;</text><text fill="#000000" font-family="sans-serif" font-size="11" lengthAdjust="spacingAndGlyphs" textLength="105" x="579" y="591.9449">+calibrateDac(): void</text><!--MD5=[6290c17893f34b1b1fde5f6ea340e857]
class UsbToJackAdapter--><rect fill="#FFF7F0" height="163.5614" id="UsbToJackAdapter" style="stroke: #C26E2B; stroke-width: 1.5;" width="312" x="528" y="243.5158"/><ellipse cx="628.25" cy="264.86" fill="#ADD1B2" rx="11" ry="11" style="stroke: #C26E2B; stroke-width: 1.0;"/><path d="M631.2188,270.5006 Q630.6406,270.7975 630,270.9381 Q629.3594,271.0943 628.6563,271.0943 Q626.1563,271.0943 624.8281,269.4537 Q623.5156,267.7975 623.5156,264.6725 Q623.5156,261.5475 624.8281,259.8912 Q626.1563,258.235 628.6563,258.235 Q629.3594,258.235 630,258.3912 Q630.6563,258.5475 631.2188,258.8443 L631.2188,261.5631 Q630.5938,260.985 630,260.7193 Q629.4063,260.4381 628.7813,260.4381 Q627.4375,260.4381 626.75,261.5162 Q626.0625,262.5787 626.0625,264.6725 Q626.0625,266.7662 626.75,267.8443 Q627.4375,268.9068 628.7813,268.9068 Q629.4063,268.9068 630,268.6412 Q630.5938,268.36 631.2188,267.7818 L631.2188,270.5006 Z "/><text fill="#000000" font-family="sans-serif" font-size="12" font-style="italic" lengthAdjust="spacingAndGlyphs" textLength="55" x="672.75" y="261.3439">«Adapter»</text><text fill="#000000" font-family="sans-serif" font-size="12" lengthAdjust="spacingAndGlyphs" textLength="103" x="648.75" y="277.6881">UsbToJackAdapter</text><line style="stroke: #C26E2B; stroke-width: 1.5;" x1="529" x2="839" y1="286.2041" y2="286.2041"/><text fill="#000000" font-family="sans-serif" font-size="11" lengthAdjust="spacingAndGlyphs" textLength="200" x="534" y="301.963">-phone: unique_ptr&lt;UsbTypeCPhone&gt;</text><text fill="#000000" font-family="sans-serif" font-size="11" lengthAdjust="spacingAndGlyphs" textLength="77" x="534" y="316.9449">-gainLeft: float</text><text fill="#000000" font-family="sans-serif" font-size="11" lengthAdjust="spacingAndGlyphs" textLength="85" x="534" y="331.9268">-gainRight: float</text><line style="stroke: #C26E2B; stroke-width: 1.5;" x1="529" x2="839" y1="339.1497" y2="339.1497"/><text fill="#000000" font-family="sans-serif" font-size="11" lengthAdjust="spacingAndGlyphs" textLength="300" x="534" y="354.9087">+UsbToJackAdapter(unique_ptr&lt;UsbTypeCPhone&gt; phone)</text><text fill="#000000" font-family="sans-serif" font-size="11" lengthAdjust="spacingAndGlyphs" textLength="180" x="534" y="369.8905">+playAnalog(left: float, right: float)</text><text fill="#000000" font-family="sans-serif" font-size="11" lengthAdjust="spacingAndGlyphs" textLength="159" x="534" y="384.8724">+playFromPhone(track: string)</text><text fill="#000000" font-family="sans-serif" font-size="11" lengthAdjust="spacingAndGlyphs" textLength="277" x="534" y="399.8543">-convertToStereo(pcm: vector&lt;int&gt;): pair&lt;float, float&gt;</text><path d="M265.5,276.0158 L265.5,374.5459 A0,0 0 0 0 265.5,374.5459 L492.5,374.5459 A0,0 0 0 0 492.5,374.5459 L492.5,329.5158 L527.89,325.5158 L492.5,321.5158 L492.5,286.0158 L482.5,276.0158 L265.5,276.0158 A0,0 0 0 0 265.5,276.0158 " fill="#FBFB77" style="stroke: #A80036; stroke-width: 1.0;"/><path d="M482.5,276.0158 L482.5,286.0158 L492.5,286.0158 L482.5,276.0158 " fill="#FBFB77" style="stroke: #A80036; stroke-width: 1.0;"/><text fill="#000000" font-family="sans-serif" font-size="13" font-weight="bold" lengthAdjust="spacingAndGlyphs" textLength="136" x="271.5" y="294.9129">Adaptasyon Adımları</text><text fill="#000000" font-family="sans-serif" font-size="13" lengthAdjust="spacingAndGlyphs" textLength="130" x="271.5" y="312.6189">1. Dijital PCM akışını al</text><text fill="#000000" font-family="sans-serif" font-size="13" lengthAdjust="spacingAndGlyphs" textLength="143" x="271.5" y="330.3249">2. DAC kalibrasyonu yap</text><text fill="#000000" font-family="sans-serif" font-size="13" lengthAdjust="spacingAndGlyphs" textLength="189" x="271.5" y="348.0309">3. Sol/sağ kanal kazancını ayarla</text><text fill="#000000" font-family="sans-serif" font-size="13" lengthAdjust="spacingAndGlyphs" textLength="206" x="271.5" y="365.7369">4. AnalogHeadset arayüzünü besle</text><path d="M265.5,83.5158 L265.5,120.0158 L230.1,124.0158 L265.5,128.0158 L265.5,164.3399 A0,0 0 0 0 265.5,164.3399 L464.5,164.3399 A0,0 0 0 0 464.5,164.3399 L464.5,93.5158 L454.5,83.5158 L265.5,83.5158 A0,0 0 0 0 265.5,83.5158 " fill="#FBFB77" style="stroke: #A80036; stroke-width: 1.0;"/><path d="M454.5,83.5158 L454.5,93.5158 L464.5,93.5158 L454.5,83.5158 " fill="#FBFB77" style="stroke: #A80036; stroke-width: 1.0;"/><text fill="#000000" font-family="sans-serif" font-size="13" lengthAdjust="spacingAndGlyphs" textLength="178" x="271.5" y="102.4129">Analog arayüz eski sistemlerle</text><text fill="#000000" font-family="sans-serif" font-size="13" lengthAdjust="spacingAndGlyphs" textLength="177" x="271.5" y="120.1189">uyumludur. Adapter olmadan</text><text fill="#000000" font-family="sans-serif" font-size="13" lengthAdjust="spacingAndGlyphs" textLength="165" x="271.5" y="137.8249">modern telefon dijital çıktıyı</text><text fill="#000000" font-family="sans-serif" font-size="13" lengthAdjust="spacingAndGlyphs" textLength="116" x="271.5" y="155.5309">doğrudan iletemez.</text><path d="M516.5,662.5158 L516.5,743.3399 A0,0 0 0 0 516.5,743.3399 L851.5,743.3399 A0,0 0 0 0 851.5,743.3399 L851.5,672.5158 L841.5,662.5158 L688,662.5158 L684,599.8158 L680,662.5158 L516.5,662.5158 A0,0 0 0 0 516.5,662.5158 " fill="#FBFB77" style="stroke: #A80036; stroke-width: 1.0;"/><path d="M841.5,662.5158 L841.5,672.5158 L851.5,672.5158 L841.5,662.5158 " fill="#FBFB77" style="stroke: #A80036; stroke-width: 1.0;"/><text fill="#000000" font-family="sans-serif" font-size="13" font-weight="bold" lengthAdjust="spacingAndGlyphs" textLength="108" x="522.5" y="681.4129">Kullanım Örneği</text><text fill="#000000" font-family="sans-serif" font-size="13" lengthAdjust="spacingAndGlyphs" textLength="314" x="522.5" y="699.1189">auto phone = std::make_unique&lt;UsbTypeCPhone&gt;();</text><text fill="#000000" font-family="sans-serif" font-size="13" lengthAdjust="spacingAndGlyphs" textLength="278" x="522.5" y="716.8249">UsbToJackAdapter adapter(std::move(phone));</text><text fill="#000000" font-family="sans-serif" font-size="13" lengthAdjust="spacingAndGlyphs" textLength="280" x="522.5" y="734.5309">adapter.playFromPhone("analog-dreams.aac");</text><!--MD5=[09544f3ed3c1c400579870f14b341ed8]
reverse link AnalogHeadset to StudioHeadphones--><path d="M134,181.2258 C134,215.5558 134,258.4558 134,288.3158 " fill="none" id="AnalogHeadset&lt;-StudioHeadphones" style="stroke: #C26E2B; stroke-width: 1.0; stroke-dasharray: 7.0,7.0;"/><polygon fill="none" points="127,181.1458,134,161.1458,141,181.1458,127,181.1458" style="stroke: #C26E2B; stroke-width: 1.0;"/><text fill="#000000" font-family="sans-serif" font-size="13" lengthAdjust="spacingAndGlyphs" textLength="71" x="135" y="209.4129">implements</text><!--MD5=[b41f7efa91abb0fd02c3c4a075fa199b]
reverse link AnalogHeadset to UsbToJackAdapter--><path d="M249.25,164.7558 C367.16,201.9258 402.02,202.3458 510,243.5158 C515.92,245.7758 521.91,248.1358 527.94,250.5858 " fill="none" id="AnalogHeadset&lt;-UsbToJackAdapter" style="stroke: #C26E2B; stroke-width: 1.0; stroke-dasharray: 7.0,7.0;"/><polygon fill="none" points="246.92,171.3558,230,158.5958,251.18,158.0158,246.92,171.3558" style="stroke: #C26E2B; stroke-width: 1.0;"/><text fill="#000000" font-family="sans-serif" font-size="13" lengthAdjust="spacingAndGlyphs" textLength="71" x="422" y="209.4129">implements</text><!--MD5=[9dc3ca62fd9adeee717c595c1bf70558]
reverse link UsbToJackAdapter to UsbTypeCPhone--><path d="M684,420.8258 C684,451.8558 684,484.8658 684,510.2558 " fill="none" id="UsbToJackAdapter&lt;-UsbTypeCPhone" style="stroke: #C26E2B; stroke-width: 1.0;"/><polygon fill="#C26E2B" points="684,407.6858,680,413.6858,684,419.6858,688,413.6858,684,407.6858" style="stroke: #C26E2B; stroke-width: 1.0;"/><text fill="#000000" font-family="sans-serif" font-size="13" lengthAdjust="spacingAndGlyphs" textLength="75" x="685" y="452.4129">composition</text><rect fill="#DDDDDD" height="86.2717" rx="5" ry="5" style="stroke: #000000; stroke-width: 1.0;" width="233" x="628" y="761.5158"/><line style="stroke: none; stroke-width: 1.0;" x1="634" x2="701" y1="776.0498" y2="776.0498"/><line style="stroke: none; stroke-width: 1.0;" x1="634" x2="701" y1="778.0498" y2="778.0498"/><text fill="#000000" font-family="sans-serif" font-size="14" lengthAdjust="spacingAndGlyphs" textLength="79" x="705" y="780.9818">Stereotipler</text><line style="stroke: none; stroke-width: 1.0;" x1="788" x2="855" y1="776.0498" y2="776.0498"/><line style="stroke: none; stroke-width: 1.0;" x1="788" x2="855" y1="778.0498" y2="778.0498"/><text fill="#000000" font-family="sans-serif" font-size="14" font-weight="bold" lengthAdjust="spacingAndGlyphs" textLength="77" x="634" y="800.5497">&lt;&lt;Target&gt;&gt;</text><text fill="#000000" font-family="sans-serif" font-size="14" lengthAdjust="spacingAndGlyphs" textLength="140" x="715" y="800.5497">: Eski sistem arayüzü</text><text fill="#000000" font-family="sans-serif" font-size="14" font-weight="bold" lengthAdjust="spacingAndGlyphs" textLength="88" x="634" y="819.6176">&lt;&lt;Adapter&gt;&gt;</text><text fill="#000000" font-family="sans-serif" font-size="14" lengthAdjust="spacingAndGlyphs" textLength="129" x="726" y="819.6176">: Dönüştürücü sınıf</text><text fill="#000000" font-family="sans-serif" font-size="14" font-weight="bold" lengthAdjust="spacingAndGlyphs" textLength="90" x="634" y="838.6855">&lt;&lt;Adaptee&gt;&gt;</text><text fill="#000000" font-family="sans-serif" font-size="14" lengthAdjust="spacingAndGlyphs" textLength="100" x="728" y="838.6855">: Modern cihaz</text><text fill="#888888" font-family="sans-serif" font-size="10" lengthAdjust="spacingAndGlyphs" textLength="284" x="293" y="867.4775">Oluşturulma: 20.10.2025 | Sürüm: 1.0.0 | Pattern: Adapter</text><!--MD5=[0ee53a11dc221a2ba1e9d4e83ec9e15b]
@startuml

title USB-C'den 3.5mm Jak'a - Adapter Pattern

skinparam backgroundColor #FFFFFF
skinparam shadowing false
skinparam classAttributeIconSize 0

skinparam class {
    BackgroundColor #FFF7F0
    BorderColor #C26E2B
    ArrowColor #C26E2B
}

skinparam package {
    BackgroundColor #FFF2E3
    BorderColor #D47F36
}


package "Analog Ses Sistemi" {
    interface AnalogHeadset <<Target>> {
        + playAnalog(left: float, right: float)
    }

    class StudioHeadphones <<Concrete Target>> {
        + playAnalog(left: float, right: float)
    }
}


package "Modern Telefon" #E9F7FF {
    class UsbTypeCPhone <<Adaptee>> {
        + streamDigital(track: string): vector<int>
        + calibrateDac(): void
    }
}


class UsbToJackAdapter <<Adapter>> {
    - phone: unique_ptr<UsbTypeCPhone>
    - gainLeft: float
    - gainRight: float
    + UsbToJackAdapter(unique_ptr<UsbTypeCPhone> phone)
    + playAnalog(left: float, right: float)
    + playFromPhone(track: string)
    - convertToStereo(pcm: vector<int>): pair<float, float>
}


AnalogHeadset <|.. StudioHeadphones : implements
AnalogHeadset <|.. UsbToJackAdapter : implements
UsbToJackAdapter *- - UsbTypeCPhone : composition


note left of UsbToJackAdapter
  **Adaptasyon Adımları**
  1. Dijital PCM akışını al
  2. DAC kalibrasyonu yap
  3. Sol/sağ kanal kazancını ayarla
  4. AnalogHeadset arayüzünü besle
end note

note right of AnalogHeadset
  Analog arayüz eski sistemlerle
  uyumludur. Adapter olmadan
  modern telefon dijital çıktıyı
  doğrudan iletemez.
end note

note bottom of UsbTypeCPhone
  **Kullanım Örneği**
  auto phone = std::make_unique<UsbTypeCPhone>();
  UsbToJackAdapter adapter(std::move(phone));
  adapter.playFromPhone("analog-dreams.aac");
end note

legend right
  == Stereotipler ==
  <b><<Target>></b> : Eski sistem arayüzü
  <b><<Adapter>></b> : Dönüştürücü sınıf
  <b><<Adaptee>></b> : Modern cihaz
end legend

footer Oluşturulma: 20.10.2025 | Sürüm: 1.0.0 | Pattern: Adapter

@enduml

PlantUML version 1.2020.02(Sun Mar 01 13:22:07 TRT 2020)
(GPL source distribution)
Java Runtime: OpenJDK Runtime Environment
JVM: OpenJDK 64-Bit Server VM
Java Version: 21.0.8+9-Ubuntu-0ubuntu124.04.1
Operating System: Linux
Default Encoding: UTF-8
Language: en
Country: US
--></g></svg>