<?xml version="1.0" encoding="UTF-8" standalone="no"?><svg xmlns="http://www.w3.org/2000/svg" xmlns:xlink="http://www.w3.org/1999/xlink" contentScriptType="application/ecmascript" contentStyleType="text/css" height="612px" preserveAspectRatio="none" style="width:1756px;height:612px;" version="1.1" viewBox="0 0 1756 612" width="1756px" zoomAndPan="magnify"><defs><filter height="300%" id="f1b6swnz4athvr" width="300%" x="-1" y="-1"><feGaussianBlur result="blurOut" stdDeviation="2.0"/><feColorMatrix in="blurOut" result="blurOut2" type="matrix" values="0 0 0 0 0 0 0 0 0 0 0 0 0 0 0 0 0 0 .4 0"/><feOffset dx="4.0" dy="4.0" in="blurOut2" result="blurOut3"/><feBlend in="SourceGraphic" in2="blurOut3" mode="normal"/></filter></defs><g><text fill="#000000" font-family="sans-serif" font-size="18" lengthAdjust="spacingAndGlyphs" textLength="421" x="671" y="19.2419">Factory Pattern Karşılaştırması - Basit vs Gelişmiş</text><!--MD5=[8c2d6001594a7f3157ad719627693872]
cluster Basit Factory (Shape)--><polygon fill="#FFEBEE" filter="url(#f1b6swnz4athvr)" points="22,79.5158,174,79.5158,181,104.5838,491,104.5838,491,485.0158,22,485.0158,22,79.5158" style="stroke: #000000; stroke-width: 1.5;"/><line style="stroke: #000000; stroke-width: 1.5;" x1="22" x2="181" y1="104.5838" y2="104.5838"/><text fill="#000000" font-family="sans-serif" font-size="14" font-weight="bold" lengthAdjust="spacingAndGlyphs" textLength="146" x="26" y="96.4818">Basit Factory (Shape)</text><!--MD5=[d19728aa0043a47dc651b5acb38e6822]
cluster Gelişmiş Factory (Vehicle)--><polygon fill="#E8F5E9" filter="url(#f1b6swnz4athvr)" points="705,79.5158,888,79.5158,895,104.5838,1152,104.5838,1152,485.0158,705,485.0158,705,79.5158" style="stroke: #000000; stroke-width: 1.5;"/><line style="stroke: #000000; stroke-width: 1.5;" x1="705" x2="895" y1="104.5838" y2="104.5838"/><text fill="#000000" font-family="sans-serif" font-size="14" font-weight="bold" lengthAdjust="spacingAndGlyphs" textLength="177" x="709" y="96.4818">Gelişmiş Factory (Vehicle)</text><!--MD5=[6f2751dc95cdd3c7ed6bb6a70136758f]
entity SF--><rect fill="#E8F4F8" filter="url(#f1b6swnz4athvr)" height="39.0679" style="stroke: #2C5F7C; stroke-width: 1.5;" width="110" x="38" y="430.0158"/><rect fill="#E8F4F8" height="5" style="stroke: #2C5F7C; stroke-width: 1.5;" width="10" x="33" y="435.0158"/><rect fill="#E8F4F8" height="5" style="stroke: #2C5F7C; stroke-width: 1.5;" width="10" x="33" y="459.0838"/><text fill="#000000" font-family="sans-serif" font-size="14" lengthAdjust="spacingAndGlyphs" textLength="90" x="48" y="454.9818">ShapeFactory</text><!--MD5=[dee3e9b654f3d7f76e059372c4786d0b]
entity SI--><rect fill="#E8F4F8" filter="url(#f1b6swnz4athvr)" height="39.0679" style="stroke: #2C5F7C; stroke-width: 1.5;" width="127" x="201.5" y="117.5158"/><rect fill="#E8F4F8" height="5" style="stroke: #2C5F7C; stroke-width: 1.5;" width="10" x="196.5" y="122.5158"/><rect fill="#E8F4F8" height="5" style="stroke: #2C5F7C; stroke-width: 1.5;" width="10" x="196.5" y="146.5838"/><text fill="#000000" font-family="sans-serif" font-size="14" lengthAdjust="spacingAndGlyphs" textLength="107" x="211.5" y="142.4818">Shape Interface</text><!--MD5=[55b6f7fe569c88e778889e4a7d46dc6f]
entity C1--><rect fill="#E8F4F8" filter="url(#f1b6swnz4athvr)" height="39.0679" style="stroke: #2C5F7C; stroke-width: 1.5;" width="58" x="183" y="430.0158"/><rect fill="#E8F4F8" height="5" style="stroke: #2C5F7C; stroke-width: 1.5;" width="10" x="178" y="435.0158"/><rect fill="#E8F4F8" height="5" style="stroke: #2C5F7C; stroke-width: 1.5;" width="10" x="178" y="459.0838"/><text fill="#000000" font-family="sans-serif" font-size="14" lengthAdjust="spacingAndGlyphs" textLength="38" x="193" y="454.9818">Circle</text><!--MD5=[423859321b02fb764742e96c7e691a59]
entity R1--><rect fill="#E8F4F8" filter="url(#f1b6swnz4athvr)" height="39.0679" style="stroke: #2C5F7C; stroke-width: 1.5;" width="87" x="276.5" y="430.0158"/><rect fill="#E8F4F8" height="5" style="stroke: #2C5F7C; stroke-width: 1.5;" width="10" x="271.5" y="435.0158"/><rect fill="#E8F4F8" height="5" style="stroke: #2C5F7C; stroke-width: 1.5;" width="10" x="271.5" y="459.0838"/><text fill="#000000" font-family="sans-serif" font-size="14" lengthAdjust="spacingAndGlyphs" textLength="67" x="286.5" y="454.9818">Rectangle</text><!--MD5=[6f87405281d5563a1d3129702a057d25]
entity T1--><rect fill="#E8F4F8" filter="url(#f1b6swnz4athvr)" height="39.0679" style="stroke: #2C5F7C; stroke-width: 1.5;" width="76" x="399" y="430.0158"/><rect fill="#E8F4F8" height="5" style="stroke: #2C5F7C; stroke-width: 1.5;" width="10" x="394" y="435.0158"/><rect fill="#E8F4F8" height="5" style="stroke: #2C5F7C; stroke-width: 1.5;" width="10" x="394" y="459.0838"/><text fill="#000000" font-family="sans-serif" font-size="14" lengthAdjust="spacingAndGlyphs" textLength="56" x="409" y="454.9818">Triangle</text><!--MD5=[6bc182e3f1347384293745d1dad6e0fa]
entity VF--><rect fill="#E8F4F8" filter="url(#f1b6swnz4athvr)" height="39.0679" style="stroke: #2C5F7C; stroke-width: 1.5;" width="116" x="721" y="430.0158"/><rect fill="#E8F4F8" height="5" style="stroke: #2C5F7C; stroke-width: 1.5;" width="10" x="716" y="435.0158"/><rect fill="#E8F4F8" height="5" style="stroke: #2C5F7C; stroke-width: 1.5;" width="10" x="716" y="459.0838"/><text fill="#000000" font-family="sans-serif" font-size="14" lengthAdjust="spacingAndGlyphs" textLength="96" x="731" y="454.9818">VehicleFactory</text><!--MD5=[5c9f6a9900cac971c70fae464a37b47f]
entity VA--><rect fill="#E8F4F8" filter="url(#f1b6swnz4athvr)" height="39.0679" style="stroke: #2C5F7C; stroke-width: 1.5;" width="128" x="916" y="117.5158"/><rect fill="#E8F4F8" height="5" style="stroke: #2C5F7C; stroke-width: 1.5;" width="10" x="911" y="122.5158"/><rect fill="#E8F4F8" height="5" style="stroke: #2C5F7C; stroke-width: 1.5;" width="10" x="911" y="146.5838"/><text fill="#000000" font-family="sans-serif" font-size="14" lengthAdjust="spacingAndGlyphs" textLength="108" x="926" y="142.4818">Vehicle Abstract</text><!--MD5=[c0ad99fc81bccfa61a131dcf147aff2d]
entity VTE--><rect fill="#E8F4F8" filter="url(#f1b6swnz4athvr)" height="39.0679" style="stroke: #2C5F7C; stroke-width: 1.5;" width="143" x="721.5" y="117.5158"/><rect fill="#E8F4F8" height="5" style="stroke: #2C5F7C; stroke-width: 1.5;" width="10" x="716.5" y="122.5158"/><rect fill="#E8F4F8" height="5" style="stroke: #2C5F7C; stroke-width: 1.5;" width="10" x="716.5" y="146.5838"/><text fill="#000000" font-family="sans-serif" font-size="14" lengthAdjust="spacingAndGlyphs" textLength="123" x="731.5" y="142.4818">VehicleType Enum</text><!--MD5=[2324993324a80522a7091d42b9118e29]
entity C2--><rect fill="#E8F4F8" filter="url(#f1b6swnz4athvr)" height="39.0679" style="stroke: #2C5F7C; stroke-width: 1.5;" width="43" x="872.5" y="430.0158"/><rect fill="#E8F4F8" height="5" style="stroke: #2C5F7C; stroke-width: 1.5;" width="10" x="867.5" y="435.0158"/><rect fill="#E8F4F8" height="5" style="stroke: #2C5F7C; stroke-width: 1.5;" width="10" x="867.5" y="459.0838"/><text fill="#000000" font-family="sans-serif" font-size="14" lengthAdjust="spacingAndGlyphs" textLength="23" x="882.5" y="454.9818">Car</text><!--MD5=[337636605fd75d21901d5b457bca3a06]
entity M2--><rect fill="#E8F4F8" filter="url(#f1b6swnz4athvr)" height="39.0679" style="stroke: #2C5F7C; stroke-width: 1.5;" width="93" x="950.5" y="430.0158"/><rect fill="#E8F4F8" height="5" style="stroke: #2C5F7C; stroke-width: 1.5;" width="10" x="945.5" y="435.0158"/><rect fill="#E8F4F8" height="5" style="stroke: #2C5F7C; stroke-width: 1.5;" width="10" x="945.5" y="459.0838"/><text fill="#000000" font-family="sans-serif" font-size="14" lengthAdjust="spacingAndGlyphs" textLength="73" x="960.5" y="454.9818">Motorcycle</text><!--MD5=[79c55d55872b2d2338533f8bcd4a021e]
entity T2--><rect fill="#E8F4F8" filter="url(#f1b6swnz4athvr)" height="39.0679" style="stroke: #2C5F7C; stroke-width: 1.5;" width="57" x="1078.5" y="430.0158"/><rect fill="#E8F4F8" height="5" style="stroke: #2C5F7C; stroke-width: 1.5;" width="10" x="1073.5" y="435.0158"/><rect fill="#E8F4F8" height="5" style="stroke: #2C5F7C; stroke-width: 1.5;" width="10" x="1073.5" y="459.0838"/><text fill="#000000" font-family="sans-serif" font-size="14" lengthAdjust="spacingAndGlyphs" textLength="37" x="1088.5" y="454.9818">Truck</text><path d="M510,391.5158 L510,507.7519 L686,507.7519 L686,401.5158 L676,391.5158 L510,391.5158 " fill="#FFF9E6" filter="url(#f1b6swnz4athvr)" style="stroke: #CC8800; stroke-width: 1.0;"/><path d="M676,391.5158 L676,401.5158 L686,401.5158 L676,391.5158 " fill="#FFF9E6" style="stroke: #CC8800; stroke-width: 1.0;"/><text fill="#000000" font-family="sans-serif" font-size="13" font-weight="bold" lengthAdjust="spacingAndGlyphs" textLength="95" x="516" y="410.4129">Basit Yaklaşım</text><text fill="#000000" font-family="sans-serif" font-size="13" lengthAdjust="spacingAndGlyphs" textLength="155" x="516" y="428.1189">✗ String tabanlı tür seçimi</text><text fill="#000000" font-family="sans-serif" font-size="13" lengthAdjust="spacingAndGlyphs" textLength="85" x="516" y="445.8249">✗ if-else zinciri</text><text fill="#000000" font-family="sans-serif" font-size="13" lengthAdjust="spacingAndGlyphs" textLength="117" x="516" y="463.5309">✗ Tür güvenliği yok</text><text fill="#000000" font-family="sans-serif" font-size="13" lengthAdjust="spacingAndGlyphs" textLength="108" x="516" y="481.2369">✓ Basit ve anlaşılır</text><text fill="#000000" font-family="sans-serif" font-size="13" lengthAdjust="spacingAndGlyphs" textLength="123" x="516" y="498.9429">✓ Hızlı prototürleme</text><path d="M1170.5,409.0158 L1170.5,489.8399 L1363.5,489.8399 L1363.5,419.0158 L1353.5,409.0158 L1170.5,409.0158 " fill="#FFF9E6" filter="url(#f1b6swnz4athvr)" style="stroke: #CC8800; stroke-width: 1.0;"/><path d="M1353.5,409.0158 L1353.5,419.0158 L1363.5,419.0158 L1353.5,409.0158 " fill="#FFF9E6" style="stroke: #CC8800; stroke-width: 1.0;"/><text fill="#000000" font-family="sans-serif" font-size="13" font-weight="bold" lengthAdjust="spacingAndGlyphs" textLength="116" x="1176.5" y="427.9129">Gelişmiş Yaklaşım</text><text fill="#000000" font-family="sans-serif" font-size="13" lengthAdjust="spacingAndGlyphs" textLength="172" x="1176.5" y="445.6189">✓ Enum tabanlı tür güvenliği</text><text fill="#000000" font-family="sans-serif" font-size="13" lengthAdjust="spacingAndGlyphs" textLength="150" x="1176.5" y="463.3249">✓ String alternatifi de var</text><text fill="#000000" font-family="sans-serif" font-size="13" lengthAdjust="spacingAndGlyphs" textLength="155" x="1176.5" y="481.0309">✓ Çağdaş C++ standartları</text><path d="M1283.5,32.5158 L1283.5,241.282 A0,0 0 0 0 1283.5,241.282 L1510,241.282 L1514,320.4858 L1518,241.282 L1744.5,241.282 A0,0 0 0 0 1744.5,241.282 L1744.5,42.5158 L1734.5,32.5158 L1283.5,32.5158 A0,0 0 0 0 1283.5,32.5158 " fill="#FFF9E6" filter="url(#f1b6swnz4athvr)" style="stroke: #CC8800; stroke-width: 1.0;"/><path d="M1734.5,32.5158 L1734.5,42.5158 L1744.5,42.5158 L1734.5,32.5158 " fill="#FFF9E6" style="stroke: #CC8800; stroke-width: 1.0;"/><text fill="#000000" font-family="sans-serif" font-size="13" font-weight="bold" lengthAdjust="spacingAndGlyphs" textLength="145" x="1289.5" y="51.4129">Özellik Karşılaştırması</text><text fill="#000000" font-family="sans-serif" font-size="13" lengthAdjust="spacingAndGlyphs" textLength="440" x="1289.5" y="69.1189">═══════════════════════════════════════════════════════</text><text fill="#000000" font-family="sans-serif" font-size="13" font-weight="bold" lengthAdjust="spacingAndGlyphs" textLength="44" x="1292.5" y="88.8249">Özellik</text><text fill="#000000" font-family="sans-serif" font-size="13" font-weight="bold" lengthAdjust="spacingAndGlyphs" textLength="85" x="1460.5" y="88.8249">Basit Factory</text><text fill="#000000" font-family="sans-serif" font-size="13" font-weight="bold" lengthAdjust="spacingAndGlyphs" textLength="106" x="1580.5" y="88.8249">Gelişmiş Factory</text><text fill="#000000" font-family="sans-serif" font-size="13" lengthAdjust="spacingAndGlyphs" textLength="168" x="1289.5" y="106.5309">═════════════════════</text><text fill="#000000" font-family="sans-serif" font-size="13" lengthAdjust="spacingAndGlyphs" textLength="120" x="1457.5" y="106.5309">═══════════════</text><text fill="#000000" font-family="sans-serif" font-size="13" lengthAdjust="spacingAndGlyphs" textLength="144" x="1577.5" y="106.5309">══════════════════</text><text fill="#000000" font-family="sans-serif" font-size="13" lengthAdjust="spacingAndGlyphs" textLength="79" x="1292.5" y="124.2369">Tür Güvenliği</text><text fill="#000000" font-family="sans-serif" font-size="13" lengthAdjust="spacingAndGlyphs" textLength="28" x="1460.5" y="124.2369">Zayıf</text><text fill="#000000" font-family="sans-serif" font-size="13" lengthAdjust="spacingAndGlyphs" textLength="80" x="1580.5" y="124.2369">Güçlü (enum)</text><text fill="#000000" font-family="sans-serif" font-size="13" lengthAdjust="spacingAndGlyphs" textLength="99" x="1292.5" y="141.9429">Kod Karmaşıklığı</text><text fill="#000000" font-family="sans-serif" font-size="13" lengthAdjust="spacingAndGlyphs" textLength="38" x="1460.5" y="141.9429">Düşük</text><text fill="#000000" font-family="sans-serif" font-size="13" lengthAdjust="spacingAndGlyphs" textLength="27" x="1580.5" y="141.9429">Orta</text><text fill="#000000" font-family="sans-serif" font-size="13" lengthAdjust="spacingAndGlyphs" textLength="90" x="1292.5" y="159.649">Bakım Kolaylığı</text><text fill="#000000" font-family="sans-serif" font-size="13" lengthAdjust="spacingAndGlyphs" textLength="27" x="1460.5" y="159.649">Orta</text><text fill="#000000" font-family="sans-serif" font-size="13" lengthAdjust="spacingAndGlyphs" textLength="42" x="1580.5" y="159.649">Yüksek</text><text fill="#000000" font-family="sans-serif" font-size="13" lengthAdjust="spacingAndGlyphs" textLength="48" x="1292.5" y="177.355">Başarım</text><text fill="#000000" font-family="sans-serif" font-size="13" lengthAdjust="spacingAndGlyphs" textLength="14" x="1460.5" y="177.355">İyi</text><text fill="#000000" font-family="sans-serif" font-size="13" lengthAdjust="spacingAndGlyphs" textLength="40" x="1580.5" y="177.355">Çok İyi</text><text fill="#000000" font-family="sans-serif" font-size="13" lengthAdjust="spacingAndGlyphs" textLength="117" x="1292.5" y="195.061">Çağdaş C++ Uyumu</text><text fill="#000000" font-family="sans-serif" font-size="13" lengthAdjust="spacingAndGlyphs" textLength="38" x="1460.5" y="195.061">Düşük</text><text fill="#000000" font-family="sans-serif" font-size="13" lengthAdjust="spacingAndGlyphs" textLength="42" x="1580.5" y="195.061">Yüksek</text><text fill="#000000" font-family="sans-serif" font-size="13" lengthAdjust="spacingAndGlyphs" textLength="96" x="1292.5" y="212.767">Genişletilebilirlik</text><text fill="#000000" font-family="sans-serif" font-size="13" lengthAdjust="spacingAndGlyphs" textLength="27" x="1460.5" y="212.767">Orta</text><text fill="#000000" font-family="sans-serif" font-size="13" lengthAdjust="spacingAndGlyphs" textLength="42" x="1580.5" y="212.767">Yüksek</text><line style="stroke: #000000; stroke-width: 1.0;" x1="1289.5" x2="1721.5" y1="74.9279" y2="74.9279"/><line style="stroke: #000000; stroke-width: 1.0;" x1="1289.5" x2="1721.5" y1="92.6339" y2="92.6339"/><line style="stroke: #000000; stroke-width: 1.0;" x1="1289.5" x2="1721.5" y1="110.3399" y2="110.3399"/><line style="stroke: #000000; stroke-width: 1.0;" x1="1289.5" x2="1721.5" y1="128.0459" y2="128.0459"/><line style="stroke: #000000; stroke-width: 1.0;" x1="1289.5" x2="1721.5" y1="145.7519" y2="145.7519"/><line style="stroke: #000000; stroke-width: 1.0;" x1="1289.5" x2="1721.5" y1="163.458" y2="163.458"/><line style="stroke: #000000; stroke-width: 1.0;" x1="1289.5" x2="1721.5" y1="181.164" y2="181.164"/><line style="stroke: #000000; stroke-width: 1.0;" x1="1289.5" x2="1721.5" y1="198.87" y2="198.87"/><line style="stroke: #000000; stroke-width: 1.0;" x1="1289.5" x2="1721.5" y1="216.576" y2="216.576"/><line style="stroke: #000000; stroke-width: 1.0;" x1="1289.5" x2="1289.5" y1="74.9279" y2="216.576"/><line style="stroke: #000000; stroke-width: 1.0;" x1="1457.5" x2="1457.5" y1="74.9279" y2="216.576"/><line style="stroke: #000000; stroke-width: 1.0;" x1="1577.5" x2="1577.5" y1="74.9279" y2="216.576"/><line style="stroke: #000000; stroke-width: 1.0;" x1="1721.5" x2="1721.5" y1="74.9279" y2="216.576"/><text fill="#000000" font-family="sans-serif" font-size="13" lengthAdjust="spacingAndGlyphs" textLength="440" x="1289.5" y="232.473">═══════════════════════════════════════════════════════</text><path d="M1399,320.5158 L1399,578.4001 L1629,578.4001 L1629,330.5158 L1619,320.5158 L1399,320.5158 " fill="#FFF9E6" filter="url(#f1b6swnz4athvr)" style="stroke: #CC8800; stroke-width: 1.0;"/><path d="M1619,320.5158 L1619,330.5158 L1629,330.5158 L1619,320.5158 " fill="#FFF9E6" style="stroke: #CC8800; stroke-width: 1.0;"/><text fill="#000000" font-family="sans-serif" font-size="13" font-weight="bold" lengthAdjust="spacingAndGlyphs" textLength="209" x="1405" y="339.4129">Ne Zaman Hangisi Kullanılmalı?</text><text fill="#000000" font-family="sans-serif" font-size="13" lengthAdjust="spacingAndGlyphs" textLength="0" x="1408" y="357.1189"/><text fill="#000000" font-family="sans-serif" font-size="13" font-weight="bold" lengthAdjust="spacingAndGlyphs" textLength="170" x="1405" y="374.8249">Basit Factory Tercih Edilir:</text><text fill="#000000" font-family="sans-serif" font-size="13" lengthAdjust="spacingAndGlyphs" textLength="129" x="1405" y="392.5309">• Küçük, basit projeler</text><text fill="#000000" font-family="sans-serif" font-size="13" lengthAdjust="spacingAndGlyphs" textLength="115" x="1405" y="410.2369">• Hızlı prototipleme</text><text fill="#000000" font-family="sans-serif" font-size="13" lengthAdjust="spacingAndGlyphs" textLength="147" x="1405" y="427.9429">• Öğrenme amaçlı kodlar</text><text fill="#000000" font-family="sans-serif" font-size="13" lengthAdjust="spacingAndGlyphs" textLength="144" x="1405" y="445.649">• Eski kod entegrasyonu</text><text fill="#000000" font-family="sans-serif" font-size="13" lengthAdjust="spacingAndGlyphs" textLength="0" x="1408" y="463.355"/><text fill="#000000" font-family="sans-serif" font-size="13" font-weight="bold" lengthAdjust="spacingAndGlyphs" textLength="191" x="1405" y="481.061">Gelişmiş Factory Tercih Edilir:</text><text fill="#000000" font-family="sans-serif" font-size="13" lengthAdjust="spacingAndGlyphs" textLength="172" x="1405" y="498.767">• Üretim (production) kodları</text><text fill="#000000" font-family="sans-serif" font-size="13" lengthAdjust="spacingAndGlyphs" textLength="135" x="1405" y="516.473">• Büyük ölçekli projeler</text><text fill="#000000" font-family="sans-serif" font-size="13" lengthAdjust="spacingAndGlyphs" textLength="130" x="1405" y="534.179">• Tür güvenliği önemli</text><text fill="#000000" font-family="sans-serif" font-size="13" lengthAdjust="spacingAndGlyphs" textLength="192" x="1405" y="551.8851">• Çağdaş C++ standartları gerekli</text><text fill="#000000" font-family="sans-serif" font-size="13" lengthAdjust="spacingAndGlyphs" textLength="100" x="1405" y="569.5911">• Takım çalışması</text><!--MD5=[8680e3c12a2539867715ef6b9b67f34a]
reverse link SI to SF--><path d="M251.26,161.3458 C235.68,187.8958 209.65,232.6158 188,271.5158 C156.11,328.8058 119.83,397.4058 102.8,429.8158 " fill="none" id="SI&lt;-SF" style="stroke: #A80036; stroke-width: 1.0; stroke-dasharray: 7.0,7.0;"/><polygon fill="#A80036" points="253.85,156.9258,245.8341,162.6482,251.3112,161.2333,252.7261,166.7104,253.85,156.9258" style="stroke: #A80036; stroke-width: 1.0;"/><text fill="#000000" font-family="sans-serif" font-size="13" lengthAdjust="spacingAndGlyphs" textLength="43" x="189" y="286.4129">creates</text><!--MD5=[e051698956efe4cc282726f077218507]
reverse link SI to C1--><path d="M258.35,176.9758 C246.85,244.3458 223.67,380.1758 215.19,429.8058 " fill="none" id="SI&lt;-C1" style="stroke: #A80036; stroke-width: 1.0;"/><polygon fill="none" points="251.5,175.5058,261.76,156.9758,265.3,177.8658,251.5,175.5058" style="stroke: #A80036; stroke-width: 1.0;"/><!--MD5=[76a41a44b63416e3350ed455383c8a3d]
reverse link SI to R1--><path d="M271.9,176.9758 C283.83,244.3458 307.89,380.1758 316.69,429.8058 " fill="none" id="SI&lt;-R1" style="stroke: #A80036; stroke-width: 1.0;"/><polygon fill="none" points="264.95,177.8858,268.36,156.9758,278.74,175.4458,264.95,177.8858" style="stroke: #A80036; stroke-width: 1.0;"/><!--MD5=[d195758a30f55a20f23a0d6e8564bf43]
reverse link SI to T1--><path d="M289.75,173.3258 C314.47,209.3958 352.75,267.4658 381,320.5158 C401.06,358.1958 420.01,404.5658 429.89,429.8658 " fill="none" id="SI&lt;-T1" style="stroke: #A80036; stroke-width: 1.0;"/><polygon fill="none" points="283.81,177.0458,278.18,156.6158,295.32,169.0758,283.81,177.0458" style="stroke: #A80036; stroke-width: 1.0;"/><!--MD5=[01349bb6da489875c30f66cfdbea612d]
reverse link VA to VF--><path d="M963.32,160.9758 C938.71,195.1558 891.63,261.7158 855,320.5158 C831.08,358.9058 804.35,404.6258 789.83,429.7058 " fill="none" id="VA&lt;-VF" style="stroke: #A80036; stroke-width: 1.0; stroke-dasharray: 7.0,7.0;"/><polygon fill="#A80036" points="966.5,156.5758,957.9891,161.5322,963.5736,160.63,964.4758,166.2144,966.5,156.5758" style="stroke: #A80036; stroke-width: 1.0;"/><text fill="#000000" font-family="sans-serif" font-size="13" lengthAdjust="spacingAndGlyphs" textLength="43" x="886" y="286.4129">creates</text><!--MD5=[ba318a0444c3603dbedd6e2ac87c4de2]
reverse link VTE to VF--><path d="M791.91,162.1258 C789.22,221.9358 782.26,376.1858 779.84,429.8058 " fill="none" id="VTE&lt;-VF" style="stroke: #A80036; stroke-width: 1.0;"/><polygon fill="#A80036" points="792.15,156.9758,787.7432,165.7838,791.9217,161.9706,795.7348,166.1491,792.15,156.9758" style="stroke: #A80036; stroke-width: 1.0;"/><text fill="#000000" font-family="sans-serif" font-size="13" lengthAdjust="spacingAndGlyphs" textLength="27" x="788" y="286.4129">uses</text><!--MD5=[69b6a04a925d4ed3c1b0755c23f2e0ed]
reverse link VA to C2--><path d="M969.33,176.5358 C950.71,243.7558 912.96,380.0658 899.18,429.8058 " fill="none" id="VA&lt;-C2" style="stroke: #A80036; stroke-width: 1.0;"/><polygon fill="none" points="962.67,174.3758,974.75,156.9758,976.16,178.1158,962.67,174.3758" style="stroke: #A80036; stroke-width: 1.0;"/><!--MD5=[9afc93d7a6b6c5cfbf89d10adee5a9ad]
reverse link VA to M2--><path d="M982.13,176.9758 C985.82,244.3458 993.26,380.1758 995.98,429.8058 " fill="none" id="VA&lt;-M2" style="stroke: #A80036; stroke-width: 1.0;"/><polygon fill="none" points="975.14,177.3258,981.04,156.9758,989.12,176.5558,975.14,177.3258" style="stroke: #A80036; stroke-width: 1.0;"/><!--MD5=[8b90d6707d7d5fa187342f2029fc8b64]
reverse link VA to T2--><path d="M997.34,174.9558 C1014.31,211.5858 1040.53,269.4658 1061,320.5158 C1076.38,358.8758 1092.23,404.6058 1100.72,429.7058 " fill="none" id="VA&lt;-T2" style="stroke: #A80036; stroke-width: 1.0;"/><polygon fill="none" points="990.96,177.8258,988.85,156.7358,1003.65,171.9058,990.96,177.8258" style="stroke: #A80036; stroke-width: 1.0;"/><!--MD5=[b526b0623e2a08c109675205b2950428]
link SF to GMN25--><path d="M96.64,429.9058 C104.66,392.9958 127.71,313.9558 182.5,281.0158 C237.92,247.6958 415.76,251.8858 473.5,281.0158 C518.96,303.9558 551.94,352.1958 572.48,391.2058 " fill="none" id="SF-GMN25" style="stroke: #A80036; stroke-width: 1.0; stroke-dasharray: 7.0,7.0;"/><!--MD5=[46f424cf275efb626a04f715e2b4e9d1]
link VF to GMN28--><path d="M783.09,429.8758 C791.97,392.9058 816.86,313.7758 872.5,281.0158 C922.67,251.4758 1082.13,255.5758 1134.5,281.0158 C1188.73,307.3558 1227.38,367.8358 1248.46,408.6958 " fill="none" id="VF-GMN28" style="stroke: #A80036; stroke-width: 1.0; stroke-dasharray: 7.0,7.0;"/><text fill="#888888" font-family="sans-serif" font-size="10" lengthAdjust="spacingAndGlyphs" textLength="373" x="695" y="599.2058">Oluşturulma: 15.10.2025 | Sürüm: 1.0.0 | Analiz: Factory Pattern Comparison</text><!--MD5=[324664b9683704c8df4cb86999b0e6cb]
@startuml

title Factory Pattern Karşılaştırması - Basit vs Gelişmiş

skinparam component {
    BackgroundColor #E8F4F8
    BorderColor #2C5F7C
}

skinparam note {
    BackgroundColor #FFF9E6
    BorderColor #CC8800
}

package "Basit Factory (Shape)" #FFEBEE {
    component [ShapeFactory] as SF
    component [Shape Interface] as SI
    component [Circle] as C1
    component [Rectangle] as R1
    component [Triangle] as T1
    
    SI <.. SF : creates
    SI <|- - C1
    SI <|- - R1
    SI <|- - T1
}

package "Gelişmiş Factory (Vehicle)" #E8F5E9 {
    component [VehicleFactory] as VF
    component [Vehicle Abstract] as VA
    component [VehicleType Enum] as VTE
    component [Car] as C2
    component [Motorcycle] as M2
    component [Truck] as T2
    
    VA <.. VF : creates
    VTE <- - VF : uses
    VA <|- - C2
    VA <|- - M2
    VA <|- - T2
}

note right of SF
  **Basit Yaklaşım**
  ✗ String tabanlı tür seçimi
  ✗ if-else zinciri
  ✗ Tür güvenliği yok
  ✓ Basit ve anlaşılır
  ✓ Hızlı prototürleme
end note

note right of VF
  **Gelişmiş Yaklaşım**
  ✓ Enum tabanlı tür güvenliği
  ✓ String alternatifi de var
  ✓ Çağdaş C++ standartları
end note

note as ComparisonTable
  **Özellik Karşılaştırması**
  ═══════════════════════════════════════════════════════
  | Özellik              | Basit Factory | Gelişmiş Factory |
  |═════════════════════|═══════════════|══════════════════|
  | Tür Güvenliği        | Zayıf         | Güçlü (enum)     |
  | Kod Karmaşıklığı     | Düşük         | Orta             |
  | Bakım Kolaylığı      | Orta          | Yüksek           |
  | Başarım              | İyi           | Çok İyi          |
  | Çağdaş C++ Uyumu     | Düşük         | Yüksek           |
  | Genişletilebilirlik  | Orta          | Yüksek           |
  ═══════════════════════════════════════════════════════
end note


note as BestPractices
  **Ne Zaman Hangisi Kullanılmalı?**
  
  **Basit Factory Tercih Edilir:**
  • Küçük, basit projeler
  • Hızlı prototipleme
  • Öğrenme amaçlı kodlar
  • Eski kod entegrasyonu
  
  **Gelişmiş Factory Tercih Edilir:**
  • Üretim (production) kodları
  • Büyük ölçekli projeler
  • Tür güvenliği önemli
  • Çağdaş C++ standartları gerekli
  • Takım çalışması
end note

ComparisonTable -[hidden]- BestPractices

footer Oluşturulma: 15.10.2025 | Sürüm: 1.0.0 | Analiz: Factory Pattern Comparison

@enduml

PlantUML version 1.2020.02(Sun Mar 01 13:22:07 TRT 2020)
(GPL source distribution)
Java Runtime: OpenJDK Runtime Environment
JVM: OpenJDK 64-Bit Server VM
Java Version: 21.0.8+9-Ubuntu-0ubuntu124.04.1
Operating System: Linux
Default Encoding: UTF-8
Language: en
Country: US
--></g></svg>