<?xml version="1.0" encoding="UTF-8" standalone="no"?><svg xmlns="http://www.w3.org/2000/svg" xmlns:xlink="http://www.w3.org/1999/xlink" contentScriptType="application/ecmascript" contentStyleType="text/css" height="622px" preserveAspectRatio="none" style="width:1033px;height:622px;" version="1.1" viewBox="0 0 1033 622" width="1033px" zoomAndPan="magnify"><defs/><g><text fill="#000000" font-family="sans-serif" font-size="18" lengthAdjust="spacingAndGlyphs" textLength="326" x="352.5" y="19.2419">Adapter Senaryolarının Karşılaştırması</text><!--MD5=[ab680ab7d3fd95731172b29744f814ca]
cluster Bulut Akışı--><polygon fill="#F5F7FA" points="22,49.0158,103,49.0158,110,74.0838,218,74.0838,218,469.5158,22,469.5158,22,49.0158" style="stroke: #2D6AA6; stroke-width: 1.5;"/><line style="stroke: #2D6AA6; stroke-width: 1.5;" x1="22" x2="110" y1="74.0838" y2="74.0838"/><text fill="#000000" font-family="sans-serif" font-size="14" font-weight="bold" lengthAdjust="spacingAndGlyphs" textLength="75" x="26" y="65.9818">Bulut Akışı</text><!--MD5=[5e856b943c925ec8e687eda2b6b3a2e4]
cluster USB'den Jak'a--><polygon fill="#FFF5EC" points="493,49.0158,595,49.0158,602,74.0838,668,74.0838,668,469.5158,493,469.5158,493,49.0158" style="stroke: #2D6AA6; stroke-width: 1.5;"/><line style="stroke: #2D6AA6; stroke-width: 1.5;" x1="493" x2="602" y1="74.0838" y2="74.0838"/><text fill="#000000" font-family="sans-serif" font-size="14" font-weight="bold" lengthAdjust="spacingAndGlyphs" textLength="96" x="497" y="65.9818">USB'den Jak'a</text><!--MD5=[d1f247606e25a773fe1415c0390605b8]
class MediaPlayer--><rect fill="#FFFFFF" height="58.6882" id="MediaPlayer" style="stroke: #2D6AA6; stroke-width: 1.5;" width="99" x="51.5" y="87.0158"/><ellipse cx="66.5" cy="108.36" fill="#B4A7E5" rx="11" ry="11" style="stroke: #2D6AA6; stroke-width: 1.0;"/><path d="M62.4219,104.1256 L62.4219,101.9693 L69.8125,101.9693 L69.8125,104.1256 L67.3438,104.1256 L67.3438,112.2037 L69.8125,112.2037 L69.8125,114.36 L62.4219,114.36 L62.4219,112.2037 L64.8906,112.2037 L64.8906,104.1256 L62.4219,104.1256 Z "/><text fill="#000000" font-family="sans-serif" font-size="12" font-style="italic" lengthAdjust="spacingAndGlyphs" textLength="47" x="90.5" y="104.8439">«Target»</text><text fill="#000000" font-family="sans-serif" font-size="12" font-style="italic" lengthAdjust="spacingAndGlyphs" textLength="67" x="80.5" y="121.1881">MediaPlayer</text><line style="stroke: #2D6AA6; stroke-width: 1.5;" x1="52.5" x2="149.5" y1="129.7041" y2="129.7041"/><line style="stroke: #2D6AA6; stroke-width: 1.5;" x1="52.5" x2="149.5" y1="137.7041" y2="137.7041"/><!--MD5=[066904f1b295e232033ee39b7e0366f4]
class StreamingAdapter--><rect fill="#FFFFFF" height="58.6882" id="StreamingAdapter" style="stroke: #2D6AA6; stroke-width: 1.5;" width="135" x="38.5" y="245.5158"/><ellipse cx="53.5" cy="266.86" fill="#ADD1B2" rx="11" ry="11" style="stroke: #2D6AA6; stroke-width: 1.0;"/><path d="M56.4688,272.5006 Q55.8906,272.7975 55.25,272.9381 Q54.6094,273.0943 53.9063,273.0943 Q51.4063,273.0943 50.0781,271.4537 Q48.7656,269.7975 48.7656,266.6725 Q48.7656,263.5475 50.0781,261.8912 Q51.4063,260.235 53.9063,260.235 Q54.6094,260.235 55.25,260.3912 Q55.9063,260.5475 56.4688,260.8443 L56.4688,263.5631 Q55.8438,262.985 55.25,262.7193 Q54.6563,262.4381 54.0313,262.4381 Q52.6875,262.4381 52,263.5162 Q51.3125,264.5787 51.3125,266.6725 Q51.3125,268.7662 52,269.8443 Q52.6875,270.9068 54.0313,270.9068 Q54.6563,270.9068 55.25,270.6412 Q55.8438,270.36 56.4688,269.7818 L56.4688,272.5006 Z "/><text fill="#000000" font-family="sans-serif" font-size="12" font-style="italic" lengthAdjust="spacingAndGlyphs" textLength="55" x="91.5" y="263.3439">«Adapter»</text><text fill="#000000" font-family="sans-serif" font-size="12" lengthAdjust="spacingAndGlyphs" textLength="103" x="67.5" y="279.6881">StreamingAdapter</text><line style="stroke: #2D6AA6; stroke-width: 1.5;" x1="39.5" x2="172.5" y1="288.2041" y2="288.2041"/><line style="stroke: #2D6AA6; stroke-width: 1.5;" x1="39.5" x2="172.5" y1="296.2041" y2="296.2041"/><!--MD5=[9a9440a6654fe5c96532af07f58f2a8a]
class CloudStreamingService--><rect fill="#FFFFFF" height="58.6882" id="CloudStreamingService" style="stroke: #2D6AA6; stroke-width: 1.5;" width="163" x="38.5" y="394.5158"/><ellipse cx="53.5" cy="415.86" fill="#ADD1B2" rx="11" ry="11" style="stroke: #2D6AA6; stroke-width: 1.0;"/><path d="M56.4688,421.5006 Q55.8906,421.7975 55.25,421.9381 Q54.6094,422.0943 53.9063,422.0943 Q51.4063,422.0943 50.0781,420.4537 Q48.7656,418.7975 48.7656,415.6725 Q48.7656,412.5475 50.0781,410.8912 Q51.4063,409.235 53.9063,409.235 Q54.6094,409.235 55.25,409.3912 Q55.9063,409.5475 56.4688,409.8443 L56.4688,412.5631 Q55.8438,411.985 55.25,411.7193 Q54.6563,411.4381 54.0313,411.4381 Q52.6875,411.4381 52,412.5162 Q51.3125,413.5787 51.3125,415.6725 Q51.3125,417.7662 52,418.8443 Q52.6875,419.9068 54.0313,419.9068 Q54.6563,419.9068 55.25,419.6412 Q55.8438,419.36 56.4688,418.7818 L56.4688,421.5006 Z "/><text fill="#000000" font-family="sans-serif" font-size="12" font-style="italic" lengthAdjust="spacingAndGlyphs" textLength="56" x="105" y="412.3439">«Adaptee»</text><text fill="#000000" font-family="sans-serif" font-size="12" lengthAdjust="spacingAndGlyphs" textLength="131" x="67.5" y="428.6881">CloudStreamingService</text><line style="stroke: #2D6AA6; stroke-width: 1.5;" x1="39.5" x2="200.5" y1="437.2041" y2="437.2041"/><line style="stroke: #2D6AA6; stroke-width: 1.5;" x1="39.5" x2="200.5" y1="445.2041" y2="445.2041"/><!--MD5=[e81553c44e5a2340115b653f498b3397]
class AnalogHeadset--><rect fill="#FFFFFF" height="58.6882" id="AnalogHeadset" style="stroke: #2D6AA6; stroke-width: 1.5;" width="113" x="513.5" y="87.0158"/><ellipse cx="528.5" cy="108.36" fill="#B4A7E5" rx="11" ry="11" style="stroke: #2D6AA6; stroke-width: 1.0;"/><path d="M524.4219,104.1256 L524.4219,101.9693 L531.8125,101.9693 L531.8125,104.1256 L529.3438,104.1256 L529.3438,112.2037 L531.8125,112.2037 L531.8125,114.36 L524.4219,114.36 L524.4219,112.2037 L526.8906,112.2037 L526.8906,104.1256 L524.4219,104.1256 Z "/><text fill="#000000" font-family="sans-serif" font-size="12" font-style="italic" lengthAdjust="spacingAndGlyphs" textLength="47" x="559.5" y="104.8439">«Target»</text><text fill="#000000" font-family="sans-serif" font-size="12" font-style="italic" lengthAdjust="spacingAndGlyphs" textLength="81" x="542.5" y="121.1881">AnalogHeadset</text><line style="stroke: #2D6AA6; stroke-width: 1.5;" x1="514.5" x2="625.5" y1="129.7041" y2="129.7041"/><line style="stroke: #2D6AA6; stroke-width: 1.5;" x1="514.5" x2="625.5" y1="137.7041" y2="137.7041"/><!--MD5=[6290c17893f34b1b1fde5f6ea340e857]
class UsbToJackAdapter--><rect fill="#FFFFFF" height="58.6882" id="UsbToJackAdapter" style="stroke: #2D6AA6; stroke-width: 1.5;" width="135" x="509.5" y="245.5158"/><ellipse cx="524.5" cy="266.86" fill="#ADD1B2" rx="11" ry="11" style="stroke: #2D6AA6; stroke-width: 1.0;"/><path d="M527.4688,272.5006 Q526.8906,272.7975 526.25,272.9381 Q525.6094,273.0943 524.9063,273.0943 Q522.4063,273.0943 521.0781,271.4537 Q519.7656,269.7975 519.7656,266.6725 Q519.7656,263.5475 521.0781,261.8912 Q522.4063,260.235 524.9063,260.235 Q525.6094,260.235 526.25,260.3912 Q526.9063,260.5475 527.4688,260.8443 L527.4688,263.5631 Q526.8438,262.985 526.25,262.7193 Q525.6563,262.4381 525.0313,262.4381 Q523.6875,262.4381 523,263.5162 Q522.3125,264.5787 522.3125,266.6725 Q522.3125,268.7662 523,269.8443 Q523.6875,270.9068 525.0313,270.9068 Q525.6563,270.9068 526.25,270.6412 Q526.8438,270.36 527.4688,269.7818 L527.4688,272.5006 Z "/><text fill="#000000" font-family="sans-serif" font-size="12" font-style="italic" lengthAdjust="spacingAndGlyphs" textLength="55" x="562.5" y="263.3439">«Adapter»</text><text fill="#000000" font-family="sans-serif" font-size="12" lengthAdjust="spacingAndGlyphs" textLength="103" x="538.5" y="279.6881">UsbToJackAdapter</text><line style="stroke: #2D6AA6; stroke-width: 1.5;" x1="510.5" x2="643.5" y1="288.2041" y2="288.2041"/><line style="stroke: #2D6AA6; stroke-width: 1.5;" x1="510.5" x2="643.5" y1="296.2041" y2="296.2041"/><!--MD5=[9a5f9255e4f743fba53330ec30d5854f]
class UsbTypeCPhone--><rect fill="#FFFFFF" height="58.6882" id="UsbTypeCPhone" style="stroke: #2D6AA6; stroke-width: 1.5;" width="124" x="509" y="394.5158"/><ellipse cx="524" cy="415.86" fill="#ADD1B2" rx="11" ry="11" style="stroke: #2D6AA6; stroke-width: 1.0;"/><path d="M526.9688,421.5006 Q526.3906,421.7975 525.75,421.9381 Q525.1094,422.0943 524.4063,422.0943 Q521.9063,422.0943 520.5781,420.4537 Q519.2656,418.7975 519.2656,415.6725 Q519.2656,412.5475 520.5781,410.8912 Q521.9063,409.235 524.4063,409.235 Q525.1094,409.235 525.75,409.3912 Q526.4063,409.5475 526.9688,409.8443 L526.9688,412.5631 Q526.3438,411.985 525.75,411.7193 Q525.1563,411.4381 524.5313,411.4381 Q523.1875,411.4381 522.5,412.5162 Q521.8125,413.5787 521.8125,415.6725 Q521.8125,417.7662 522.5,418.8443 Q523.1875,419.9068 524.5313,419.9068 Q525.1563,419.9068 525.75,419.6412 Q526.3438,419.36 526.9688,418.7818 L526.9688,421.5006 Z "/><text fill="#000000" font-family="sans-serif" font-size="12" font-style="italic" lengthAdjust="spacingAndGlyphs" textLength="56" x="556" y="412.3439">«Adaptee»</text><text fill="#000000" font-family="sans-serif" font-size="12" lengthAdjust="spacingAndGlyphs" textLength="92" x="538" y="428.6881">UsbTypeCPhone</text><line style="stroke: #2D6AA6; stroke-width: 1.5;" x1="510" x2="632" y1="437.2041" y2="437.2041"/><line style="stroke: #2D6AA6; stroke-width: 1.5;" x1="510" x2="632" y1="445.2041" y2="445.2041"/><path d="M236.5,383.5158 L236.5,464.3399 L473.5,464.3399 L473.5,393.5158 L463.5,383.5158 L236.5,383.5158 " fill="#FBFB77" style="stroke: #A80036; stroke-width: 1.0;"/><path d="M463.5,383.5158 L463.5,393.5158 L473.5,393.5158 L463.5,383.5158 " fill="#FBFB77" style="stroke: #A80036; stroke-width: 1.0;"/><text fill="#000000" font-family="sans-serif" font-size="13" font-weight="bold" lengthAdjust="spacingAndGlyphs" textLength="71" x="242.5" y="402.4129">Bulut Akışı</text><ellipse cx="248" cy="416.4279" fill="#000000" rx="2.5" ry="2.5" style="stroke: #000000; stroke-width: 0.0;"/><text fill="#000000" font-family="sans-serif" font-size="13" lengthAdjust="spacingAndGlyphs" textLength="198" x="254.5" y="420.1189">Bölge seçimi ve kimlik doğrulama</text><ellipse cx="248" cy="434.1339" fill="#000000" rx="2.5" ry="2.5" style="stroke: #000000; stroke-width: 0.0;"/><text fill="#000000" font-family="sans-serif" font-size="13" lengthAdjust="spacingAndGlyphs" textLength="204" x="254.5" y="437.8249">Ağ gecikmesi ve bağlantı tekrarları</text><ellipse cx="248" cy="451.8399" fill="#000000" rx="2.5" ry="2.5" style="stroke: #000000; stroke-width: 0.0;"/><text fill="#000000" font-family="sans-serif" font-size="13" lengthAdjust="spacingAndGlyphs" textLength="150" x="254.5" y="455.5309">Üçüncü parti API çağrıları</text><path d="M684.5,383.5158 L684.5,464.3399 L885.5,464.3399 L885.5,393.5158 L875.5,383.5158 L684.5,383.5158 " fill="#FBFB77" style="stroke: #A80036; stroke-width: 1.0;"/><path d="M875.5,383.5158 L875.5,393.5158 L885.5,393.5158 L875.5,383.5158 " fill="#FBFB77" style="stroke: #A80036; stroke-width: 1.0;"/><text fill="#000000" font-family="sans-serif" font-size="13" font-weight="bold" lengthAdjust="spacingAndGlyphs" textLength="138" x="690.5" y="402.4129">Donanım Uyarlaması</text><ellipse cx="696" cy="416.4279" fill="#000000" rx="2.5" ry="2.5" style="stroke: #000000; stroke-width: 0.0;"/><text fill="#000000" font-family="sans-serif" font-size="13" lengthAdjust="spacingAndGlyphs" textLength="152" x="702.5" y="420.1189">Dijital -&gt; analog dönüşüm</text><ellipse cx="696" cy="434.1339" fill="#000000" rx="2.5" ry="2.5" style="stroke: #000000; stroke-width: 0.0;"/><text fill="#000000" font-family="sans-serif" font-size="13" lengthAdjust="spacingAndGlyphs" textLength="147" x="702.5" y="437.8249">Fiziksel port uyumluluğu</text><ellipse cx="696" cy="451.8399" fill="#000000" rx="2.5" ry="2.5" style="stroke: #000000; stroke-width: 0.0;"/><text fill="#000000" font-family="sans-serif" font-size="13" lengthAdjust="spacingAndGlyphs" textLength="168" x="702.5" y="455.5309">Gerçek zamanlı sinyal işleme</text><!--MD5=[8b68a7dd210cf0d48257c138d58cca59]
entity SharedInsights--><rect fill="#EEF2F6" height="100.2717" style="stroke: #000000; stroke-width: 1.5;" width="329" x="683.5" y="66.5158"/><text fill="#000000" font-family="sans-serif" font-size="14" lengthAdjust="spacingAndGlyphs" textLength="262" x="699.5" y="110.5497">* İstemci arayüzünü değişmeden tutar</text><text fill="#000000" font-family="sans-serif" font-size="14" lengthAdjust="spacingAndGlyphs" textLength="287" x="699.5" y="129.6176">* Adapter ekstra kurulum adımlarını gizler</text><text fill="#000000" font-family="sans-serif" font-size="14" lengthAdjust="spacingAndGlyphs" textLength="297" x="699.5" y="148.6855">* Uygulama tarafında tek tip kullanım sunar</text><line style="stroke: #000000; stroke-width: 1.0;" x1="684.5" x2="799" y1="86.0498" y2="86.0498"/><line style="stroke: #000000; stroke-width: 1.0;" x1="684.5" x2="799" y1="88.0498" y2="88.0498"/><text fill="#000000" font-family="sans-serif" font-size="14" lengthAdjust="spacingAndGlyphs" textLength="98" x="799" y="90.9818">Ortak Noktalar</text><line style="stroke: #000000; stroke-width: 1.0;" x1="897" x2="1011.5" y1="86.0498" y2="86.0498"/><line style="stroke: #000000; stroke-width: 1.0;" x1="897" x2="1011.5" y1="88.0498" y2="88.0498"/><!--MD5=[1dccfa93bbc02455c4edd003e7c8b634]
reverse link MediaPlayer to StreamingAdapter--><path d="M84.5,166.3258 C84.5,166.3258 84.5,245.3358 84.5,245.3358 " fill="none" id="MediaPlayer&lt;-StreamingAdapter" style="stroke: #2D6AA6; stroke-width: 1.0; stroke-dasharray: 7.0,7.0;"/><polygon fill="none" points="77.5,166.3258,84.5,146.3258,91.5,166.3258,77.5,166.3258" style="stroke: #2D6AA6; stroke-width: 1.0;"/><!--MD5=[8abaf583822d4ee8e256a1388180225d]
link StreamingAdapter to MediaPlayer--><path d="M117.5,245.2058 C117.5,245.2058 117.5,151.1958 117.5,151.1958 " fill="none" id="StreamingAdapter-&gt;MediaPlayer" style="stroke: #2D6AA6; stroke-width: 1.0; stroke-dasharray: 7.0,7.0;"/><polygon fill="#2D6AA6" points="117.5,146.1958,113.5,155.1958,117.5,151.1958,121.5,155.1958,117.5,146.1958" style="stroke: #2D6AA6; stroke-width: 1.0;"/><text fill="#000000" font-family="sans-serif" font-size="13" lengthAdjust="spacingAndGlyphs" textLength="77" x="115" y="211.4129">hedef arayüz</text><!--MD5=[2e12126de447958dcfe9d3bdb54adb74]
reverse link StreamingAdapter to CloudStreamingService--><path d="M72.25,317.8058 C72.25,317.8058 72.25,394.2758 72.25,394.2758 " fill="none" id="StreamingAdapter&lt;-CloudStreamingService" style="stroke: #2D6AA6; stroke-width: 1.0;"/><polygon fill="#2D6AA6" points="72.25,304.8058,68.25,310.8058,72.25,316.8058,76.25,310.8058,72.25,304.8058" style="stroke: #2D6AA6; stroke-width: 1.0;"/><!--MD5=[83eafc94f2b97e4046432ddff00a7909]
link CloudStreamingService to StreamingAdapter--><path d="M106,394.2258 C106,394.2258 106,309.7558 106,309.7558 " fill="none" id="CloudStreamingService-&gt;StreamingAdapter" style="stroke: #2D6AA6; stroke-width: 1.0; stroke-dasharray: 7.0,7.0;"/><polygon fill="#2D6AA6" points="106,304.7558,102,313.7558,106,309.7558,110,313.7558,106,304.7558" style="stroke: #2D6AA6; stroke-width: 1.0;"/><text fill="#000000" font-family="sans-serif" font-size="13" lengthAdjust="spacingAndGlyphs" textLength="99" x="102" y="349.4129">adaptee çağrıları</text><!--MD5=[b41f7efa91abb0fd02c3c4a075fa199b]
reverse link AnalogHeadset to UsbToJackAdapter--><path d="M551.17,166.3258 C551.17,166.3258 551.17,245.3358 551.17,245.3358 " fill="none" id="AnalogHeadset&lt;-UsbToJackAdapter" style="stroke: #2D6AA6; stroke-width: 1.0; stroke-dasharray: 7.0,7.0;"/><polygon fill="none" points="544.17,166.3258,551.17,146.3258,558.17,166.3258,544.17,166.3258" style="stroke: #2D6AA6; stroke-width: 1.0;"/><!--MD5=[c4feb245a7e3cd7152dea88f0d5cb8a1]
link UsbToJackAdapter to AnalogHeadset--><path d="M588.83,245.2058 C588.83,245.2058 588.83,151.1958 588.83,151.1958 " fill="none" id="UsbToJackAdapter-&gt;AnalogHeadset" style="stroke: #2D6AA6; stroke-width: 1.0; stroke-dasharray: 7.0,7.0;"/><polygon fill="#2D6AA6" points="588.83,146.1958,584.83,155.1958,588.83,151.1958,592.83,155.1958,588.83,146.1958" style="stroke: #2D6AA6; stroke-width: 1.0;"/><text fill="#000000" font-family="sans-serif" font-size="13" lengthAdjust="spacingAndGlyphs" textLength="77" x="574" y="211.4129">hedef arayüz</text><!--MD5=[9dc3ca62fd9adeee717c595c1bf70558]
reverse link UsbToJackAdapter to UsbTypeCPhone--><path d="M550.67,317.8058 C550.67,317.8058 550.67,394.2758 550.67,394.2758 " fill="none" id="UsbToJackAdapter&lt;-UsbTypeCPhone" style="stroke: #2D6AA6; stroke-width: 1.0;"/><polygon fill="#2D6AA6" points="550.67,304.8058,546.67,310.8058,550.67,316.8058,554.67,310.8058,550.67,304.8058" style="stroke: #2D6AA6; stroke-width: 1.0;"/><!--MD5=[b214a3e41ecff6cc5f2702c1516c0c18]
link UsbTypeCPhone to UsbToJackAdapter--><path d="M591.83,394.2258 C591.83,394.2258 591.83,309.7558 591.83,309.7558 " fill="none" id="UsbTypeCPhone-&gt;UsbToJackAdapter" style="stroke: #2D6AA6; stroke-width: 1.0; stroke-dasharray: 7.0,7.0;"/><polygon fill="#2D6AA6" points="591.83,304.7558,587.83,313.7558,591.83,309.7558,595.83,313.7558,591.83,304.7558" style="stroke: #2D6AA6; stroke-width: 1.0;"/><text fill="#000000" font-family="sans-serif" font-size="13" lengthAdjust="spacingAndGlyphs" textLength="99" x="552" y="349.4129">adaptee çağrıları</text><!--MD5=[b57ebd8f3f8792f920be960f47b24312]
link StreamingAdapter to GMN18--><path d="M139.75,304.7958 C139.75,338.7258 139.75,389.5158 139.75,389.5158 C139.75,389.5158 186.46,389.5158 236.36,389.5158 " fill="none" id="StreamingAdapter-GMN18" style="stroke: #2D6AA6; stroke-width: 1.0; stroke-dasharray: 7.0,7.0;"/><!--MD5=[1892e6269bbe21c706fd01e1d282b0fc]
link UsbToJackAdapter to GMN21--><path d="M638.75,304.7958 C638.75,338.7258 638.75,389.5158 638.75,389.5158 C638.75,389.5158 658.89,389.5158 684.22,389.5158 " fill="none" id="UsbToJackAdapter-GMN21" style="stroke: #2D6AA6; stroke-width: 1.0; stroke-dasharray: 7.0,7.0;"/><rect fill="#DDDDDD" height="86.2717" rx="5" ry="5" style="stroke: #000000; stroke-width: 1.0;" width="287" x="735" y="503.5158"/><line style="stroke: none; stroke-width: 1.0;" x1="741" x2="835" y1="518.0498" y2="518.0498"/><line style="stroke: none; stroke-width: 1.0;" x1="741" x2="835" y1="520.0498" y2="520.0498"/><text fill="#000000" font-family="sans-serif" font-size="14" lengthAdjust="spacingAndGlyphs" textLength="79" x="839" y="522.9818">Stereotipler</text><line style="stroke: none; stroke-width: 1.0;" x1="922" x2="1016" y1="518.0498" y2="518.0498"/><line style="stroke: none; stroke-width: 1.0;" x1="922" x2="1016" y1="520.0498" y2="520.0498"/><text fill="#000000" font-family="sans-serif" font-size="14" font-weight="bold" lengthAdjust="spacingAndGlyphs" textLength="77" x="741" y="542.5497">&lt;&lt;Target&gt;&gt;</text><text fill="#000000" font-family="sans-serif" font-size="14" lengthAdjust="spacingAndGlyphs" textLength="194" x="822" y="542.5497">: İstemcinin beklediği arayüz</text><text fill="#000000" font-family="sans-serif" font-size="14" font-weight="bold" lengthAdjust="spacingAndGlyphs" textLength="88" x="741" y="561.6176">&lt;&lt;Adapter&gt;&gt;</text><text fill="#000000" font-family="sans-serif" font-size="14" lengthAdjust="spacingAndGlyphs" textLength="150" x="833" y="561.6176">: Dönüştürücü katman</text><text fill="#000000" font-family="sans-serif" font-size="14" font-weight="bold" lengthAdjust="spacingAndGlyphs" textLength="90" x="741" y="580.6855">&lt;&lt;Adaptee&gt;&gt;</text><text fill="#000000" font-family="sans-serif" font-size="14" lengthAdjust="spacingAndGlyphs" textLength="163" x="835" y="580.6855">: Uyum sağlanan kaynak</text><text fill="#888888" font-family="sans-serif" font-size="10" lengthAdjust="spacingAndGlyphs" textLength="284" x="373.5" y="609.4775">Oluşturulma: 20.10.2025 | Sürüm: 1.0.0 | Pattern: Adapter</text><!--MD5=[59e6992f635a89f72dca61ea2aa4f755]
@startuml
allowmixing

title Adapter Senaryolarının Karşılaştırması

skinparam backgroundColor #FFFFFF
skinparam shadowing false
skinparam classAttributeIconSize 0
skinparam linetype ortho

skinparam package {
    BackgroundColor #F5F7FA
    BorderColor #2D6AA6
}

skinparam class {
    BackgroundColor #FFFFFF
    BorderColor #2D6AA6
    ArrowColor #2D6AA6
}


package "Bulut Akışı" {
    interface MediaPlayer <<Target>>
    class StreamingAdapter <<Adapter>>
    class CloudStreamingService <<Adaptee>>

    MediaPlayer <|.. StreamingAdapter
    StreamingAdapter *- - CloudStreamingService
}


package "USB'den Jak'a" #FFF5EC {
    interface AnalogHeadset <<Target>>
    class UsbToJackAdapter <<Adapter>>
    class UsbTypeCPhone <<Adaptee>>

    AnalogHeadset <|.. UsbToJackAdapter
    UsbToJackAdapter *- - UsbTypeCPhone
}


StreamingAdapter ..> MediaPlayer : hedef arayüz
UsbToJackAdapter ..> AnalogHeadset : hedef arayüz
CloudStreamingService ..> StreamingAdapter : adaptee çağrıları
UsbTypeCPhone ..> UsbToJackAdapter : adaptee çağrıları


note bottom of StreamingAdapter
  **Bulut Akışı**
  * Bölge seçimi ve kimlik doğrulama
  * Ağ gecikmesi ve bağlantı tekrarları
  * Üçüncü parti API çağrıları
end note

note bottom of UsbToJackAdapter
  **Donanım Uyarlaması**
  * Dijital -> analog dönüşüm
  * Fiziksel port uyumluluğu
  * Gerçek zamanlı sinyal işleme
end note

rectangle "== Ortak Noktalar ==\n* İstemci arayüzünü değişmeden tutar\n* Adapter ekstra kurulum adımlarını gizler\n* Uygulama tarafında tek tip kullanım sunar" as SharedInsights #EEF2F6

legend right
  == Stereotipler ==
  <b><<Target>></b> : İstemcinin beklediği arayüz
  <b><<Adapter>></b> : Dönüştürücü katman
  <b><<Adaptee>></b> : Uyum sağlanan kaynak
end legend

footer Oluşturulma: 20.10.2025 | Sürüm: 1.0.0 | Pattern: Adapter

@enduml

PlantUML version 1.2020.02(Sun Mar 01 13:22:07 TRT 2020)
(GPL source distribution)
Java Runtime: OpenJDK Runtime Environment
JVM: OpenJDK 64-Bit Server VM
Java Version: 21.0.8+9-Ubuntu-0ubuntu124.04.1
Operating System: Linux
Default Encoding: UTF-8
Language: en
Country: US
--></g></svg>