<?xml version="1.0" encoding="UTF-8" standalone="no"?><svg xmlns="http://www.w3.org/2000/svg" xmlns:xlink="http://www.w3.org/1999/xlink" contentScriptType="application/ecmascript" contentStyleType="text/css" height="997px" preserveAspectRatio="none" style="width:1227px;height:997px;" version="1.1" viewBox="0 0 1227 997" width="1227px" zoomAndPan="magnify"><defs/><g><text fill="#000000" font-family="sans-serif" font-size="18" lengthAdjust="spacingAndGlyphs" textLength="583" x="321" y="19.2419">Adapter Pattern: Bulut Servis vs Donanım Dönüşümü Karşılaştırması</text><!--MD5=[136f4d91437503176bbfb0c41ecd9f99]
cluster Senaryo 1: Bulut Akış Entegrasyonu--><polygon fill="#E8F4F8" points="22,284.5158,275,284.5158,282,309.5838,482,309.5838,482,748.5158,22,748.5158,22,284.5158" style="stroke: #2C5F7C; stroke-width: 1.5;"/><line style="stroke: #2C5F7C; stroke-width: 1.5;" x1="22" x2="282" y1="309.5838" y2="309.5838"/><text fill="#000000" font-family="sans-serif" font-size="14" font-weight="bold" lengthAdjust="spacingAndGlyphs" textLength="247" x="26" y="301.4818">Senaryo 1: Bulut Akış Entegrasyonu</text><!--MD5=[d7d3b1f018f163f819a2f8ae89e6037b]
cluster Senaryo 2: USB-C'den 3.5mm Jack'e Dönüşüm--><polygon fill="#FFF5EC" points="506,284.5158,828,284.5158,835,309.5838,988,309.5838,988,741.0158,506,741.0158,506,284.5158" style="stroke: #2C5F7C; stroke-width: 1.5;"/><line style="stroke: #2C5F7C; stroke-width: 1.5;" x1="506" x2="835" y1="309.5838" y2="309.5838"/><text fill="#000000" font-family="sans-serif" font-size="14" font-weight="bold" lengthAdjust="spacingAndGlyphs" textLength="316" x="510" y="301.4818">Senaryo 2: USB-C'den 3.5mm Jack'e Dönüşüm</text><!--MD5=[d1f247606e25a773fe1415c0390605b8]
class MediaPlayer--><rect fill="#FFFFFF" height="103.6339" id="MediaPlayer" style="stroke: #2C5F7C; stroke-width: 1.5;" width="159" x="37.5" y="606.0158"/><rect fill="#E8F4F8" height="42.6882" style="stroke: #2C5F7C; stroke-width: 1.5;" width="159" x="37.5" y="606.0158"/><ellipse cx="79.5" cy="627.36" fill="#B4A7E5" rx="11" ry="11" style="stroke: #2C5F7C; stroke-width: 1.0;"/><path d="M75.4219,623.1256 L75.4219,620.9693 L82.8125,620.9693 L82.8125,623.1256 L80.3438,623.1256 L80.3438,631.2037 L82.8125,631.2037 L82.8125,633.36 L75.4219,633.36 L75.4219,631.2037 L77.8906,631.2037 L77.8906,623.1256 L75.4219,623.1256 Z "/><text fill="#000000" font-family="sans-serif" font-size="12" font-style="italic" lengthAdjust="spacingAndGlyphs" textLength="47" x="109.5" y="623.8439">«Target»</text><text fill="#000000" font-family="sans-serif" font-size="12" font-style="italic" lengthAdjust="spacingAndGlyphs" textLength="67" x="99.5" y="640.1881">MediaPlayer</text><line style="stroke: #2C5F7C; stroke-width: 1.5;" x1="38.5" x2="195.5" y1="648.7041" y2="648.7041"/><line style="stroke: #2C5F7C; stroke-width: 1.5;" x1="38.5" x2="195.5" y1="656.7041" y2="656.7041"/><text fill="#000000" font-family="sans-serif" font-size="11" lengthAdjust="spacingAndGlyphs" textLength="147" x="43.5" y="672.463">+play(fileName: String): void</text><text fill="#000000" font-family="sans-serif" font-size="11" lengthAdjust="spacingAndGlyphs" textLength="72" x="43.5" y="687.4449">+pause(): void</text><text fill="#000000" font-family="sans-serif" font-size="11" lengthAdjust="spacingAndGlyphs" textLength="64" x="43.5" y="702.4268">+stop(): void</text><!--MD5=[066904f1b295e232033ee39b7e0366f4]
class StreamingAdapter--><rect fill="#FFFFFF" height="163.5614" id="StreamingAdapter" style="stroke: #2C5F7C; stroke-width: 1.5;" width="284" x="123" y="322.5158"/><rect fill="#E8F4F8" height="42.6882" style="stroke: #2C5F7C; stroke-width: 1.5;" width="284" x="123" y="322.5158"/><ellipse cx="209.25" cy="343.86" fill="#ADD1B2" rx="11" ry="11" style="stroke: #2C5F7C; stroke-width: 1.0;"/><path d="M212.2188,349.5006 Q211.6406,349.7975 211,349.9381 Q210.3594,350.0943 209.6563,350.0943 Q207.1563,350.0943 205.8281,348.4537 Q204.5156,346.7975 204.5156,343.6725 Q204.5156,340.5475 205.8281,338.8912 Q207.1563,337.235 209.6563,337.235 Q210.3594,337.235 211,337.3912 Q211.6563,337.5475 212.2188,337.8443 L212.2188,340.5631 Q211.5938,339.985 211,339.7193 Q210.4063,339.4381 209.7813,339.4381 Q208.4375,339.4381 207.75,340.5162 Q207.0625,341.5787 207.0625,343.6725 Q207.0625,345.7662 207.75,346.8443 Q208.4375,347.9068 209.7813,347.9068 Q210.4063,347.9068 211,347.6412 Q211.5938,347.36 212.2188,346.7818 L212.2188,349.5006 Z "/><text fill="#000000" font-family="sans-serif" font-size="12" font-style="italic" lengthAdjust="spacingAndGlyphs" textLength="55" x="253.75" y="340.3439">«Adapter»</text><text fill="#000000" font-family="sans-serif" font-size="12" lengthAdjust="spacingAndGlyphs" textLength="103" x="229.75" y="356.6881">StreamingAdapter</text><line style="stroke: #2C5F7C; stroke-width: 1.5;" x1="124" x2="406" y1="365.2041" y2="365.2041"/><text fill="#000000" font-family="sans-serif" font-size="11" lengthAdjust="spacingAndGlyphs" textLength="198" x="129" y="380.963">-cloudService: CloudStreamingService</text><line style="stroke: #2C5F7C; stroke-width: 1.5;" x1="124" x2="406" y1="388.186" y2="388.186"/><text fill="#000000" font-family="sans-serif" font-size="11" lengthAdjust="spacingAndGlyphs" textLength="272" x="129" y="403.9449">+StreamingAdapter(service: CloudStreamingService)</text><text fill="#000000" font-family="sans-serif" font-size="11" lengthAdjust="spacingAndGlyphs" textLength="147" x="129" y="418.9268">+play(fileName: String): void</text><text fill="#000000" font-family="sans-serif" font-size="11" lengthAdjust="spacingAndGlyphs" textLength="72" x="129" y="433.9087">+pause(): void</text><text fill="#000000" font-family="sans-serif" font-size="11" lengthAdjust="spacingAndGlyphs" textLength="64" x="129" y="448.8905">+stop(): void</text><text fill="#000000" font-family="sans-serif" font-size="11" lengthAdjust="spacingAndGlyphs" textLength="148" x="129" y="463.8724">-authenticateUser(): boolean</text><text fill="#000000" font-family="sans-serif" font-size="11" lengthAdjust="spacingAndGlyphs" textLength="114" x="129" y="478.8543">-selectRegion(): String</text><!--MD5=[9a9440a6654fe5c96532af07f58f2a8a]
class CloudStreamingService--><rect fill="#FFFFFF" height="148.5796" id="CloudStreamingService" style="stroke: #2C5F7C; stroke-width: 1.5;" width="234" x="232" y="583.5158"/><rect fill="#E8F4F8" height="42.6882" style="stroke: #2C5F7C; stroke-width: 1.5;" width="234" x="232" y="583.5158"/><ellipse cx="279.25" cy="604.86" fill="#ADD1B2" rx="11" ry="11" style="stroke: #2C5F7C; stroke-width: 1.0;"/><path d="M282.2188,610.5006 Q281.6406,610.7975 281,610.9381 Q280.3594,611.0943 279.6563,611.0943 Q277.1563,611.0943 275.8281,609.4537 Q274.5156,607.7975 274.5156,604.6725 Q274.5156,601.5475 275.8281,599.8912 Q277.1563,598.235 279.6563,598.235 Q280.3594,598.235 281,598.3912 Q281.6563,598.5475 282.2188,598.8443 L282.2188,601.5631 Q281.5938,600.985 281,600.7193 Q280.4063,600.4381 279.7813,600.4381 Q278.4375,600.4381 277.75,601.5162 Q277.0625,602.5787 277.0625,604.6725 Q277.0625,606.7662 277.75,607.8443 Q278.4375,608.9068 279.7813,608.9068 Q280.4063,608.9068 281,608.6412 Q281.5938,608.36 282.2188,607.7818 L282.2188,610.5006 Z "/><text fill="#000000" font-family="sans-serif" font-size="12" font-style="italic" lengthAdjust="spacingAndGlyphs" textLength="56" x="337.25" y="601.3439">«Adaptee»</text><text fill="#000000" font-family="sans-serif" font-size="12" lengthAdjust="spacingAndGlyphs" textLength="131" x="299.75" y="617.6881">CloudStreamingService</text><line style="stroke: #2C5F7C; stroke-width: 1.5;" x1="233" x2="465" y1="626.2041" y2="626.2041"/><text fill="#000000" font-family="sans-serif" font-size="11" lengthAdjust="spacingAndGlyphs" textLength="77" x="238" y="641.963">-apiKey: String</text><text fill="#000000" font-family="sans-serif" font-size="11" lengthAdjust="spacingAndGlyphs" textLength="77" x="238" y="656.9449">-region: String</text><line style="stroke: #2C5F7C; stroke-width: 1.5;" x1="233" x2="465" y1="664.1679" y2="664.1679"/><text fill="#000000" font-family="sans-serif" font-size="11" lengthAdjust="spacingAndGlyphs" textLength="222" x="238" y="679.9268">+streamContent(contentId: String): Stream</text><text fill="#000000" font-family="sans-serif" font-size="11" lengthAdjust="spacingAndGlyphs" textLength="194" x="238" y="694.9087">+pauseStream(streamId: String): void</text><text fill="#000000" font-family="sans-serif" font-size="11" lengthAdjust="spacingAndGlyphs" textLength="186" x="238" y="709.8905">+stopStream(streamId: String): void</text><text fill="#000000" font-family="sans-serif" font-size="11" lengthAdjust="spacingAndGlyphs" textLength="210" x="238" y="724.8724">+authenticate(credentials: String): Token</text><!--MD5=[e81553c44e5a2340115b653f498b3397]
class AnalogHeadset--><rect fill="#FFFFFF" height="103.6339" id="AnalogHeadset" style="stroke: #2C5F7C; stroke-width: 1.5;" width="212" x="522" y="606.0158"/><rect fill="#E8F4F8" height="42.6882" style="stroke: #2C5F7C; stroke-width: 1.5;" width="212" x="522" y="606.0158"/><ellipse cx="583.25" cy="627.36" fill="#B4A7E5" rx="11" ry="11" style="stroke: #2C5F7C; stroke-width: 1.0;"/><path d="M579.1719,623.1256 L579.1719,620.9693 L586.5625,620.9693 L586.5625,623.1256 L584.0938,623.1256 L584.0938,631.2037 L586.5625,631.2037 L586.5625,633.36 L579.1719,633.36 L579.1719,631.2037 L581.6406,631.2037 L581.6406,623.1256 L579.1719,623.1256 Z "/><text fill="#000000" font-family="sans-serif" font-size="12" font-style="italic" lengthAdjust="spacingAndGlyphs" textLength="47" x="620.75" y="623.8439">«Target»</text><text fill="#000000" font-family="sans-serif" font-size="12" font-style="italic" lengthAdjust="spacingAndGlyphs" textLength="81" x="603.75" y="640.1881">AnalogHeadset</text><line style="stroke: #2C5F7C; stroke-width: 1.5;" x1="523" x2="733" y1="648.7041" y2="648.7041"/><line style="stroke: #2C5F7C; stroke-width: 1.5;" x1="523" x2="733" y1="656.7041" y2="656.7041"/><text fill="#000000" font-family="sans-serif" font-size="11" lengthAdjust="spacingAndGlyphs" textLength="200" x="528" y="672.463">+playAudio(signal: AnalogSignal): void</text><text fill="#000000" font-family="sans-serif" font-size="11" lengthAdjust="spacingAndGlyphs" textLength="157" x="528" y="687.4449">+adjustVolume(level: int): void</text><text fill="#000000" font-family="sans-serif" font-size="11" lengthAdjust="spacingAndGlyphs" textLength="68" x="528" y="702.4268">+mute(): void</text><!--MD5=[6290c17893f34b1b1fde5f6ea340e857]
class UsbToJackAdapter--><rect fill="#FFFFFF" height="163.5614" id="UsbToJackAdapter" style="stroke: #2C5F7C; stroke-width: 1.5;" width="281" x="625.5" y="322.5158"/><rect fill="#E8F4F8" height="42.6882" style="stroke: #2C5F7C; stroke-width: 1.5;" width="281" x="625.5" y="322.5158"/><ellipse cx="710.25" cy="343.86" fill="#ADD1B2" rx="11" ry="11" style="stroke: #2C5F7C; stroke-width: 1.0;"/><path d="M713.2188,349.5006 Q712.6406,349.7975 712,349.9381 Q711.3594,350.0943 710.6563,350.0943 Q708.1563,350.0943 706.8281,348.4537 Q705.5156,346.7975 705.5156,343.6725 Q705.5156,340.5475 706.8281,338.8912 Q708.1563,337.235 710.6563,337.235 Q711.3594,337.235 712,337.3912 Q712.6563,337.5475 713.2188,337.8443 L713.2188,340.5631 Q712.5938,339.985 712,339.7193 Q711.4063,339.4381 710.7813,339.4381 Q709.4375,339.4381 708.75,340.5162 Q708.0625,341.5787 708.0625,343.6725 Q708.0625,345.7662 708.75,346.8443 Q709.4375,347.9068 710.7813,347.9068 Q711.4063,347.9068 712,347.6412 Q712.5938,347.36 713.2188,346.7818 L713.2188,349.5006 Z "/><text fill="#000000" font-family="sans-serif" font-size="12" font-style="italic" lengthAdjust="spacingAndGlyphs" textLength="55" x="754.75" y="340.3439">«Adapter»</text><text fill="#000000" font-family="sans-serif" font-size="12" lengthAdjust="spacingAndGlyphs" textLength="103" x="730.75" y="356.6881">UsbToJackAdapter</text><line style="stroke: #2C5F7C; stroke-width: 1.5;" x1="626.5" x2="905.5" y1="365.2041" y2="365.2041"/><text fill="#000000" font-family="sans-serif" font-size="11" lengthAdjust="spacingAndGlyphs" textLength="149" x="631.5" y="380.963">-usbPhone: UsbTypeCPhone</text><text fill="#000000" font-family="sans-serif" font-size="11" lengthAdjust="spacingAndGlyphs" textLength="218" x="631.5" y="395.9449">-dacConverter: DigitalToAnalogConverter</text><line style="stroke: #2C5F7C; stroke-width: 1.5;" x1="626.5" x2="905.5" y1="403.1679" y2="403.1679"/><text fill="#000000" font-family="sans-serif" font-size="11" lengthAdjust="spacingAndGlyphs" textLength="233" x="631.5" y="418.9268">+UsbToJackAdapter(phone: UsbTypeCPhone)</text><text fill="#000000" font-family="sans-serif" font-size="11" lengthAdjust="spacingAndGlyphs" textLength="200" x="631.5" y="433.9087">+playAudio(signal: AnalogSignal): void</text><text fill="#000000" font-family="sans-serif" font-size="11" lengthAdjust="spacingAndGlyphs" textLength="157" x="631.5" y="448.8905">+adjustVolume(level: int): void</text><text fill="#000000" font-family="sans-serif" font-size="11" lengthAdjust="spacingAndGlyphs" textLength="68" x="631.5" y="463.8724">+mute(): void</text><text fill="#000000" font-family="sans-serif" font-size="11" lengthAdjust="spacingAndGlyphs" textLength="269" x="631.5" y="478.8543">-convertDigitalToAnalog(data: byte[]): AnalogSignal</text><!--MD5=[9a5f9255e4f743fba53330ec30d5854f]
class UsbTypeCPhone--><rect fill="#FFFFFF" height="133.5977" id="UsbTypeCPhone" style="stroke: #2C5F7C; stroke-width: 1.5;" width="203" x="769.5" y="591.0158"/><rect fill="#E8F4F8" height="42.6882" style="stroke: #2C5F7C; stroke-width: 1.5;" width="203" x="769.5" y="591.0158"/><ellipse cx="820.75" cy="612.36" fill="#ADD1B2" rx="11" ry="11" style="stroke: #2C5F7C; stroke-width: 1.0;"/><path d="M823.7188,618.0006 Q823.1406,618.2975 822.5,618.4381 Q821.8594,618.5943 821.1563,618.5943 Q818.6563,618.5943 817.3281,616.9537 Q816.0156,615.2975 816.0156,612.1725 Q816.0156,609.0475 817.3281,607.3912 Q818.6563,605.735 821.1563,605.735 Q821.8594,605.735 822.5,605.8912 Q823.1563,606.0475 823.7188,606.3443 L823.7188,609.0631 Q823.0938,608.485 822.5,608.2193 Q821.9063,607.9381 821.2813,607.9381 Q819.9375,607.9381 819.25,609.0162 Q818.5625,610.0787 818.5625,612.1725 Q818.5625,614.2662 819.25,615.3443 Q819.9375,616.4068 821.2813,616.4068 Q821.9063,616.4068 822.5,616.1412 Q823.0938,615.86 823.7188,615.2818 L823.7188,618.0006 Z "/><text fill="#000000" font-family="sans-serif" font-size="12" font-style="italic" lengthAdjust="spacingAndGlyphs" textLength="56" x="859.25" y="608.8439">«Adaptee»</text><text fill="#000000" font-family="sans-serif" font-size="12" lengthAdjust="spacingAndGlyphs" textLength="92" x="841.25" y="625.1881">UsbTypeCPhone</text><line style="stroke: #2C5F7C; stroke-width: 1.5;" x1="770.5" x2="971.5" y1="633.7041" y2="633.7041"/><text fill="#000000" font-family="sans-serif" font-size="11" lengthAdjust="spacingAndGlyphs" textLength="104" x="775.5" y="649.463">-usbPort: UsbTypeC</text><line style="stroke: #2C5F7C; stroke-width: 1.5;" x1="770.5" x2="971.5" y1="656.686" y2="656.686"/><text fill="#000000" font-family="sans-serif" font-size="11" lengthAdjust="spacingAndGlyphs" textLength="191" x="775.5" y="672.4449">+sendDigitalAudio(data: byte[]): void</text><text fill="#000000" font-family="sans-serif" font-size="11" lengthAdjust="spacingAndGlyphs" textLength="140" x="775.5" y="687.4268">+setVolume(level: int): void</text><text fill="#000000" font-family="sans-serif" font-size="11" lengthAdjust="spacingAndGlyphs" textLength="99" x="775.5" y="702.4087">+muteAudio(): void</text><text fill="#000000" font-family="sans-serif" font-size="11" lengthAdjust="spacingAndGlyphs" textLength="173" x="775.5" y="717.3905">+getAudioFormat(): AudioFormat</text><path d="M147,77.0158 L147,193.2519 A0,0 0 0 0 147,193.2519 L261,193.2519 L265,322.4458 L269,193.2519 L383,193.2519 A0,0 0 0 0 383,193.2519 L383,87.0158 L373,77.0158 L147,77.0158 A0,0 0 0 0 147,77.0158 " fill="#FFF9E6" style="stroke: #CCA300; stroke-width: 1.0;"/><path d="M373,77.0158 L373,87.0158 L383,87.0158 L373,77.0158 " fill="#FFF9E6" style="stroke: #CCA300; stroke-width: 1.0;"/><text fill="#000000" font-family="sans-serif" font-size="13" font-weight="bold" lengthAdjust="spacingAndGlyphs" textLength="196" x="153" y="95.9129">Yazılım Katmanı Adaptasyonu</text><text fill="#000000" font-family="sans-serif" font-size="13" lengthAdjust="spacingAndGlyphs" textLength="161" x="153" y="113.6189">• API çağrılarını dönüştürür</text><text fill="#000000" font-family="sans-serif" font-size="13" lengthAdjust="spacingAndGlyphs" textLength="145" x="153" y="131.3249">• Kimlik doğrulama ekler</text><text fill="#000000" font-family="sans-serif" font-size="13" lengthAdjust="spacingAndGlyphs" textLength="119" x="153" y="149.0309">• Bölge seçimi yapar</text><text fill="#000000" font-family="sans-serif" font-size="13" lengthAdjust="spacingAndGlyphs" textLength="129" x="153" y="166.7369">• Ağ hatalarını yönetir</text><text fill="#000000" font-family="sans-serif" font-size="13" lengthAdjust="spacingAndGlyphs" textLength="215" x="153" y="184.4429">• Asenkron işlemleri senkronize eder</text><path d="M650.5,77.0158 L650.5,193.2519 A0,0 0 0 0 650.5,193.2519 L762,193.2519 L766,322.4458 L770,193.2519 L881.5,193.2519 A0,0 0 0 0 881.5,193.2519 L881.5,87.0158 L871.5,77.0158 L650.5,77.0158 A0,0 0 0 0 650.5,77.0158 " fill="#FFF9E6" style="stroke: #CCA300; stroke-width: 1.0;"/><path d="M871.5,77.0158 L871.5,87.0158 L881.5,87.0158 L871.5,77.0158 " fill="#FFF9E6" style="stroke: #CCA300; stroke-width: 1.0;"/><text fill="#000000" font-family="sans-serif" font-size="13" font-weight="bold" lengthAdjust="spacingAndGlyphs" textLength="210" x="656.5" y="95.9129">Donanım Katmanı Adaptasyonu</text><text fill="#000000" font-family="sans-serif" font-size="13" lengthAdjust="spacingAndGlyphs" textLength="196" x="656.5" y="113.6189">• Dijital → Analog dönüşüm (DAC)</text><text fill="#000000" font-family="sans-serif" font-size="13" lengthAdjust="spacingAndGlyphs" textLength="155" x="656.5" y="131.3249">• Fiziksel port uyumluluğu</text><text fill="#000000" font-family="sans-serif" font-size="13" lengthAdjust="spacingAndGlyphs" textLength="176" x="656.5" y="149.0309">• Gerçek zamanlı sinyal işleme</text><text fill="#000000" font-family="sans-serif" font-size="13" lengthAdjust="spacingAndGlyphs" textLength="123" x="656.5" y="166.7369">• Voltaj seviyesi ayarı</text><text fill="#000000" font-family="sans-serif" font-size="13" lengthAdjust="spacingAndGlyphs" textLength="135" x="656.5" y="184.4429">• Empedans eşleştirme</text><path d="M917,32.5158 L917,237.282 L1207,237.282 L1207,42.5158 L1197,32.5158 L917,32.5158 " fill="#FFF9E6" style="stroke: #CCA300; stroke-width: 1.0;"/><path d="M1197,32.5158 L1197,42.5158 L1207,42.5158 L1197,32.5158 " fill="#FFF9E6" style="stroke: #CCA300; stroke-width: 1.0;"/><text fill="#000000" font-family="sans-serif" font-size="13" font-weight="bold" lengthAdjust="spacingAndGlyphs" textLength="251" x="923" y="51.4129">== Adapter Pattern Ortak Özellikleri ==</text><text fill="#000000" font-family="sans-serif" font-size="13" lengthAdjust="spacingAndGlyphs" textLength="0" x="926" y="69.1189"/><text fill="#000000" font-family="sans-serif" font-size="13" lengthAdjust="spacingAndGlyphs" textLength="196" x="923" y="86.8249">✓ İstemci kodu değişmeden kalır</text><text fill="#000000" font-family="sans-serif" font-size="13" lengthAdjust="spacingAndGlyphs" textLength="188" x="923" y="104.5309">✓ Uyumsuz arayüzleri birleştirir</text><text fill="#000000" font-family="sans-serif" font-size="13" lengthAdjust="spacingAndGlyphs" textLength="174" x="923" y="122.2369">✓ Tek Sorumluluk İlkesi (SRP)</text><text fill="#000000" font-family="sans-serif" font-size="13" lengthAdjust="spacingAndGlyphs" textLength="149" x="923" y="139.9429">✓ Açık/Kapalı İlkesi (OCP)</text><text fill="#000000" font-family="sans-serif" font-size="13" lengthAdjust="spacingAndGlyphs" textLength="220" x="923" y="157.649">✓ Eski kod ile yeni kod entegrasyonu</text><text fill="#000000" font-family="sans-serif" font-size="13" lengthAdjust="spacingAndGlyphs" textLength="0" x="926" y="175.355"/><text fill="#000000" font-family="sans-serif" font-size="13" font-weight="bold" lengthAdjust="spacingAndGlyphs" textLength="75" x="923" y="193.061">Farklılıklar:</text><text fill="#000000" font-family="sans-serif" font-size="13" lengthAdjust="spacingAndGlyphs" textLength="208" x="923" y="210.767">• Bulut: Yazılım katmanı, ağ iletişimi</text><text fill="#000000" font-family="sans-serif" font-size="13" lengthAdjust="spacingAndGlyphs" textLength="269" x="923" y="228.473">• Donanım: Fiziksel katman, sinyal dönüşümü</text><!--MD5=[1dccfa93bbc02455c4edd003e7c8b634]
reverse link MediaPlayer to StreamingAdapter--><path d="M172,585.7958 C172,585.7958 172,486.6158 172,486.6158 " fill="none" id="MediaPlayer&lt;-StreamingAdapter" style="stroke: #2C5F7C; stroke-width: 1.0; stroke-dasharray: 7.0,7.0;"/><polygon fill="none" points="179,585.7958,172,605.7958,165,585.7958,179,585.7958" style="stroke: #2C5F7C; stroke-width: 1.0;"/><text fill="#000000" font-family="sans-serif" font-size="13" lengthAdjust="spacingAndGlyphs" textLength="46" x="222" y="540.4129">uygular</text><!--MD5=[8abaf583822d4ee8e256a1388180225d]
link StreamingAdapter to MediaPlayer--><path d="M147.5,486.8158 C147.5,486.8158 147.5,600.9758 147.5,600.9758 " fill="none" id="StreamingAdapter-&gt;MediaPlayer" style="stroke: #2C5F7C; stroke-width: 1.0; stroke-dasharray: 7.0,7.0;"/><polygon fill="#2C5F7C" points="147.5,605.9758,151.5,596.9758,147.5,600.9758,143.5,596.9758,147.5,605.9758" style="stroke: #2C5F7C; stroke-width: 1.0;"/><text fill="#000000" font-family="sans-serif" font-size="13" lengthAdjust="spacingAndGlyphs" textLength="85" x="95" y="531.4129">hedef arayüzü</text><text fill="#000000" font-family="sans-serif" font-size="13" lengthAdjust="spacingAndGlyphs" textLength="46" x="114.5" y="549.1189">uygular</text><!--MD5=[7445108135b25dee27db0677f2dc969b]
link StreamingAdapter to CloudStreamingService--><path d="M290.33,498.8158 C290.33,498.8158 290.33,570.4058 290.33,570.4058 " fill="none" id="StreamingAdapter-CloudStreamingService" style="stroke: #2C5F7C; stroke-width: 1.0;"/><polygon fill="#2C5F7C" points="290.33,583.4058,294.33,574.4058,290.33,578.4058,286.33,574.4058,290.33,583.4058" style="stroke: #2C5F7C; stroke-width: 1.0;"/><line style="stroke: #2C5F7C; stroke-width: 1.0;" x1="290.33" x2="290.33" y1="578.4058" y2="570.4058"/><polygon fill="#FFFFFF" points="290.33,486.8158,286.33,492.8158,290.33,498.8158,294.33,492.8158,290.33,486.8158" style="stroke: #2C5F7C; stroke-width: 1.0;"/><text fill="#000000" font-family="sans-serif" font-size="13" lengthAdjust="spacingAndGlyphs" textLength="44" x="310" y="540.4129">kullanır</text><!--MD5=[2e12126de447958dcfe9d3bdb54adb74]
reverse link StreamingAdapter to CloudStreamingService--><path d="M348.67,491.8158 C348.67,491.8158 348.67,583.4058 348.67,583.4058 " fill="none" id="StreamingAdapter&lt;-CloudStreamingService" style="stroke: #2C5F7C; stroke-width: 1.0; stroke-dasharray: 7.0,7.0;"/><polygon fill="#2C5F7C" points="348.67,486.8158,344.67,495.8158,348.67,491.8158,352.67,495.8158,348.67,486.8158" style="stroke: #2C5F7C; stroke-width: 1.0;"/><text fill="#000000" font-family="sans-serif" font-size="13" lengthAdjust="spacingAndGlyphs" textLength="49" x="396" y="531.4129">adaptee</text><text fill="#000000" font-family="sans-serif" font-size="13" lengthAdjust="spacingAndGlyphs" textLength="47" x="397" y="549.1189">çağrıları</text><!--MD5=[b41f7efa91abb0fd02c3c4a075fa199b]
reverse link AnalogHeadset to UsbToJackAdapter--><path d="M697.83,585.7958 C697.83,585.7958 697.83,486.6158 697.83,486.6158 " fill="none" id="AnalogHeadset&lt;-UsbToJackAdapter" style="stroke: #2C5F7C; stroke-width: 1.0; stroke-dasharray: 7.0,7.0;"/><polygon fill="none" points="704.83,585.7958,697.83,605.7958,690.83,585.7958,704.83,585.7958" style="stroke: #2C5F7C; stroke-width: 1.0;"/><text fill="#000000" font-family="sans-serif" font-size="13" lengthAdjust="spacingAndGlyphs" textLength="46" x="723" y="540.4129">uygular</text><!--MD5=[c4feb245a7e3cd7152dea88f0d5cb8a1]
link UsbToJackAdapter to AnalogHeadset--><path d="M661.67,486.8158 C661.67,486.8158 661.67,600.9758 661.67,600.9758 " fill="none" id="UsbToJackAdapter-&gt;AnalogHeadset" style="stroke: #2C5F7C; stroke-width: 1.0; stroke-dasharray: 7.0,7.0;"/><polygon fill="#2C5F7C" points="661.67,605.9758,665.67,596.9758,661.67,600.9758,657.67,596.9758,661.67,605.9758" style="stroke: #2C5F7C; stroke-width: 1.0;"/><text fill="#000000" font-family="sans-serif" font-size="13" lengthAdjust="spacingAndGlyphs" textLength="85" x="596" y="531.4129">hedef arayüzü</text><text fill="#000000" font-family="sans-serif" font-size="13" lengthAdjust="spacingAndGlyphs" textLength="46" x="615.5" y="549.1189">uygular</text><!--MD5=[ae3e47929f032fdd124661cc6dd30066]
link UsbToJackAdapter to UsbTypeCPhone--><path d="M815.17,498.8158 C815.17,498.8158 815.17,577.9158 815.17,577.9158 " fill="none" id="UsbToJackAdapter-UsbTypeCPhone" style="stroke: #2C5F7C; stroke-width: 1.0;"/><polygon fill="#2C5F7C" points="815.17,590.9158,819.17,581.9158,815.17,585.9158,811.17,581.9158,815.17,590.9158" style="stroke: #2C5F7C; stroke-width: 1.0;"/><line style="stroke: #2C5F7C; stroke-width: 1.0;" x1="815.17" x2="815.17" y1="585.9158" y2="577.9158"/><polygon fill="#FFFFFF" points="815.17,486.8158,811.17,492.8158,815.17,498.8158,819.17,492.8158,815.17,486.8158" style="stroke: #2C5F7C; stroke-width: 1.0;"/><text fill="#000000" font-family="sans-serif" font-size="13" lengthAdjust="spacingAndGlyphs" textLength="44" x="811" y="540.4129">kullanır</text><!--MD5=[9dc3ca62fd9adeee717c595c1bf70558]
reverse link UsbToJackAdapter to UsbTypeCPhone--><path d="M860.83,491.8158 C860.83,491.8158 860.83,590.9158 860.83,590.9158 " fill="none" id="UsbToJackAdapter&lt;-UsbTypeCPhone" style="stroke: #2C5F7C; stroke-width: 1.0; stroke-dasharray: 7.0,7.0;"/><polygon fill="#2C5F7C" points="860.83,486.8158,856.83,495.8158,860.83,491.8158,864.83,495.8158,860.83,486.8158" style="stroke: #2C5F7C; stroke-width: 1.0;"/><text fill="#000000" font-family="sans-serif" font-size="13" lengthAdjust="spacingAndGlyphs" textLength="49" x="897" y="531.4129">adaptee</text><text fill="#000000" font-family="sans-serif" font-size="13" lengthAdjust="spacingAndGlyphs" textLength="47" x="898" y="549.1189">çağrıları</text><rect fill="#DDDDDD" height="181.6113" rx="5" ry="5" style="stroke: #000000; stroke-width: 1.0;" width="344" x="872" y="782.5158"/><text fill="#000000" font-family="sans-serif" font-size="14" font-weight="bold" lengthAdjust="spacingAndGlyphs" textLength="122" x="878" y="802.4818">== Stereotipler ==</text><text fill="#000000" font-family="sans-serif" font-size="14" lengthAdjust="spacingAndGlyphs" textLength="282" x="878" y="821.5497">&lt;&lt;Target&gt;&gt;   : İstemcinin beklediği arayüz</text><text fill="#000000" font-family="sans-serif" font-size="14" lengthAdjust="spacingAndGlyphs" textLength="332" x="878" y="840.6176">&lt;&lt;Adapter&gt;&gt;  : Dönüştürücü katman (sarmalayıcı)</text><text fill="#000000" font-family="sans-serif" font-size="14" lengthAdjust="spacingAndGlyphs" textLength="310" x="878" y="859.6855">&lt;&lt;Adaptee&gt;&gt;  : Uyum sağlanan mevcut sistem</text><text fill="#000000" font-family="sans-serif" font-size="14" lengthAdjust="spacingAndGlyphs" textLength="0" x="882" y="878.7534"/><text fill="#000000" font-family="sans-serif" font-size="14" font-weight="bold" lengthAdjust="spacingAndGlyphs" textLength="122" x="878" y="897.8214">== İlişki Türleri ==</text><text fill="#000000" font-family="sans-serif" font-size="14" lengthAdjust="spacingAndGlyphs" textLength="196" x="878" y="916.8893">&lt;|..         : Arayüz uygulaması</text><text fill="#000000" font-family="sans-serif" font-size="14" lengthAdjust="spacingAndGlyphs" textLength="168" x="878" y="935.9572">o--&gt;         : Bileşim (has-a)</text><text fill="#000000" font-family="sans-serif" font-size="14" lengthAdjust="spacingAndGlyphs" textLength="130" x="878" y="955.0251">.&gt;           : Bağımlılık</text><text fill="#888888" font-family="sans-serif" font-size="10" lengthAdjust="spacingAndGlyphs" textLength="465" x="380" y="983.8171">Oluşturulma: 20.10.2025 | Sürüm: 1.0.0 | Pattern: Adapter (Structural) | Modül: Design Patterns</text><!--MD5=[f99356a01480857b7b4c6dd18b6967c2]
@startuml
allowmixing


title Adapter Pattern: Bulut Servis vs Donanım Dönüşümü Karşılaştırması

skinparam backgroundColor #FFFFFF
skinparam shadowing false
skinparam classAttributeIconSize 0
skinparam linetype ortho

skinparam package {
    BackgroundColor #E8F4F8
    BorderColor #2C5F7C
    FontStyle bold
}

skinparam class {
    BackgroundColor #FFFFFF
    BorderColor #2C5F7C
    ArrowColor #2C5F7C
    HeaderBackgroundColor #E8F4F8
}

skinparam interface {
    BackgroundColor #FFE8CC
    BorderColor #CC8800
}

skinparam note {
    BackgroundColor #FFF9E6
    BorderColor #CCA300
}

package "Senaryo 1: Bulut Akış Entegrasyonu" #E8F4F8 {
    
    interface MediaPlayer <<Target>> {
        +play(fileName: String): void
        +pause(): void
        +stop(): void
    }
    
    class StreamingAdapter <<Adapter>> {
        -cloudService: CloudStreamingService
        __
        +StreamingAdapter(service: CloudStreamingService)
        +play(fileName: String): void
        +pause(): void
        +stop(): void
        -authenticateUser(): boolean
        -selectRegion(): String
    }
    
    class CloudStreamingService <<Adaptee>> {
        -apiKey: String
        -region: String
        __
        +streamContent(contentId: String): Stream
        +pauseStream(streamId: String): void
        +stopStream(streamId: String): void
        +authenticate(credentials: String): Token
    }
    
    MediaPlayer <|.. StreamingAdapter : uygular
    StreamingAdapter o- -> CloudStreamingService : kullanır
}

package "Senaryo 2: USB-C'den 3.5mm Jack'e Dönüşüm" #FFF5EC {
    
    interface AnalogHeadset <<Target>> {
        +playAudio(signal: AnalogSignal): void
        +adjustVolume(level: int): void
        +mute(): void
    }
    
    class UsbToJackAdapter <<Adapter>> {
        -usbPhone: UsbTypeCPhone
        -dacConverter: DigitalToAnalogConverter
        __
        +UsbToJackAdapter(phone: UsbTypeCPhone)
        +playAudio(signal: AnalogSignal): void
        +adjustVolume(level: int): void
        +mute(): void
        -convertDigitalToAnalog(data: byte[]): AnalogSignal
    }
    
    class UsbTypeCPhone <<Adaptee>> {
        -usbPort: UsbTypeC
        __
        +sendDigitalAudio(data: byte[]): void
        +setVolume(level: int): void
        +muteAudio(): void
        +getAudioFormat(): AudioFormat
    }
    
    AnalogHeadset <|.. UsbToJackAdapter : uygular
    UsbToJackAdapter o- -> UsbTypeCPhone : kullanır
}

note top of StreamingAdapter
  **Yazılım Katmanı Adaptasyonu**
  • API çağrılarını dönüştürür
  • Kimlik doğrulama ekler
  • Bölge seçimi yapar
  • Ağ hatalarını yönetir
  • Asenkron işlemleri senkronize eder
end note

note top of UsbToJackAdapter
  **Donanım Katmanı Adaptasyonu**
  • Dijital → Analog dönüşüm (DAC)
  • Fiziksel port uyumluluğu
  • Gerçek zamanlı sinyal işleme
  • Voltaj seviyesi ayarı
  • Empedans eşleştirme
end note

note as CommonFeatures
  <b>== Adapter Pattern Ortak Özellikleri ==</b>
  
  ✓ İstemci kodu değişmeden kalır
  ✓ Uyumsuz arayüzleri birleştirir
  ✓ Tek Sorumluluk İlkesi (SRP)
  ✓ Açık/Kapalı İlkesi (OCP)
  ✓ Eski kod ile yeni kod entegrasyonu
  
  <b>Farklılıklar:</b>
  • Bulut: Yazılım katmanı, ağ iletişimi
  • Donanım: Fiziksel katman, sinyal dönüşümü
end note

StreamingAdapter .down.> MediaPlayer : "hedef arayüzü\nuygular"
UsbToJackAdapter .down.> AnalogHeadset : "hedef arayüzü\nuygular"

CloudStreamingService .up.> StreamingAdapter : "adaptee\nçağrıları"
UsbTypeCPhone .up.> UsbToJackAdapter : "adaptee\nçağrıları"

legend right
    <b>== Stereotipler ==</b>
    <<Target>>   : İstemcinin beklediği arayüz
    <<Adapter>>  : Dönüştürücü katman (sarmalayıcı)
    <<Adaptee>>  : Uyum sağlanan mevcut sistem
  
    <b>== İlişki Türleri ==</b>
    <|..         : Arayüz uygulaması
    o- ->         : Bileşim (has-a)
    .>           : Bağımlılık
end legend

footer Oluşturulma: 20.10.2025 | Sürüm: 1.0.0 | Pattern: Adapter (Structural) | Modül: Design Patterns

@enduml

PlantUML version 1.2020.02(Sun Mar 01 13:22:07 TRT 2020)
(GPL source distribution)
Java Runtime: OpenJDK Runtime Environment
JVM: OpenJDK 64-Bit Server VM
Java Version: 21.0.8+9-Ubuntu-0ubuntu124.04.1
Operating System: Linux
Default Encoding: UTF-8
Language: en
Country: US
--></g></svg>