<?xml version="1.0" encoding="UTF-8" standalone="no"?><svg xmlns="http://www.w3.org/2000/svg" xmlns:xlink="http://www.w3.org/1999/xlink" contentScriptType="application/ecmascript" contentStyleType="text/css" height="997px" preserveAspectRatio="none" style="width:1231px;height:997px;" version="1.1" viewBox="0 0 1231 997" width="1231px" zoomAndPan="magnify"><defs/><g><text fill="#000000" font-family="sans-serif" font-size="18" lengthAdjust="spacingAndGlyphs" textLength="583" x="323" y="19.2419">Adapter Pattern: Bulut Servis vs Donanım Dönüşümü Karşılaştırması</text><!--MD5=[136f4d91437503176bbfb0c41ecd9f99]
cluster Senaryo 1: Bulut Akış Entegrasyonu--><polygon fill="#E8F4F8" points="22,284.5158,275,284.5158,282,309.5838,482,309.5838,482,748.5158,22,748.5158,22,284.5158" style="stroke: #2C5F7C; stroke-width: 1.5;"/><line style="stroke: #2C5F7C; stroke-width: 1.5;" x1="22" x2="282" y1="309.5838" y2="309.5838"/><text fill="#000000" font-family="sans-serif" font-size="14" font-weight="bold" lengthAdjust="spacingAndGlyphs" textLength="247" x="26" y="301.4818">Senaryo 1: Bulut Akış Entegrasyonu</text><!--MD5=[d7d3b1f018f163f819a2f8ae89e6037b]
cluster Senaryo 2: USB-C'den 3.5mm Jack'e Dönüşüm--><polygon fill="#FFF5EC" points="506,284.5158,828,284.5158,835,309.5838,988,309.5838,988,741.0158,506,741.0158,506,284.5158" style="stroke: #2C5F7C; stroke-width: 1.5;"/><line style="stroke: #2C5F7C; stroke-width: 1.5;" x1="506" x2="835" y1="309.5838" y2="309.5838"/><text fill="#000000" font-family="sans-serif" font-size="14" font-weight="bold" lengthAdjust="spacingAndGlyphs" textLength="316" x="510" y="301.4818">Senaryo 2: USB-C'den 3.5mm Jack'e Dönüşüm</text><!--MD5=[d1f247606e25a773fe1415c0390605b8]
class MediaPlayer--><rect fill="#FFFFFF" height="103.6339" id="MediaPlayer" style="stroke: #2C5F7C; stroke-width: 1.5;" width="159" x="37.5" y="606.0158"/><rect fill="#E8F4F8" height="42.6882" style="stroke: #2C5F7C; stroke-width: 1.5;" width="159" x="37.5" y="606.0158"/><ellipse cx="79.5" cy="627.36" fill="#B4A7E5" rx="11" ry="11" style="stroke: #2C5F7C; stroke-width: 1.0;"/><path d="M75.4219,623.1256 L75.4219,620.9693 L82.8125,620.9693 L82.8125,623.1256 L80.3438,623.1256 L80.3438,631.2037 L82.8125,631.2037 L82.8125,633.36 L75.4219,633.36 L75.4219,631.2037 L77.8906,631.2037 L77.8906,623.1256 L75.4219,623.1256 Z "/><text fill="#000000" font-family="sans-serif" font-size="12" font-style="italic" lengthAdjust="spacingAndGlyphs" textLength="47" x="109.5" y="623.8439">«Target»</text><text fill="#000000" font-family="sans-serif" font-size="12" font-style="italic" lengthAdjust="spacingAndGlyphs" textLength="67" x="99.5" y="640.1881">MediaPlayer</text><line style="stroke: #2C5F7C; stroke-width: 1.5;" x1="38.5" x2="195.5" y1="648.7041" y2="648.7041"/><line style="stroke: #2C5F7C; stroke-width: 1.5;" x1="38.5" x2="195.5" y1="656.7041" y2="656.7041"/><text fill="#000000" font-family="sans-serif" font-size="11" lengthAdjust="spacingAndGlyphs" textLength="147" x="43.5" y="672.463">+play(fileName: String): void</text><text fill="#000000" font-family="sans-serif" font-size="11" lengthAdjust="spacingAndGlyphs" textLength="72" x="43.5" y="687.4449">+pause(): void</text><text fill="#000000" font-family="sans-serif" font-size="11" lengthAdjust="spacingAndGlyphs" textLength="64" x="43.5" y="702.4268">+stop(): void</text><!--MD5=[066904f1b295e232033ee39b7e0366f4]
class StreamingAdapter--><rect fill="#FFFFFF" height="163.5614" id="StreamingAdapter" style="stroke: #2C5F7C; stroke-width: 1.5;" width="284" x="128" y="322.5158"/><rect fill="#E8F4F8" height="42.6882" style="stroke: #2C5F7C; stroke-width: 1.5;" width="284" x="128" y="322.5158"/><ellipse cx="214.25" cy="343.86" fill="#ADD1B2" rx="11" ry="11" style="stroke: #2C5F7C; stroke-width: 1.0;"/><path d="M217.2188,349.5006 Q216.6406,349.7975 216,349.9381 Q215.3594,350.0943 214.6563,350.0943 Q212.1563,350.0943 210.8281,348.4537 Q209.5156,346.7975 209.5156,343.6725 Q209.5156,340.5475 210.8281,338.8912 Q212.1563,337.235 214.6563,337.235 Q215.3594,337.235 216,337.3912 Q216.6563,337.5475 217.2188,337.8443 L217.2188,340.5631 Q216.5938,339.985 216,339.7193 Q215.4063,339.4381 214.7813,339.4381 Q213.4375,339.4381 212.75,340.5162 Q212.0625,341.5787 212.0625,343.6725 Q212.0625,345.7662 212.75,346.8443 Q213.4375,347.9068 214.7813,347.9068 Q215.4063,347.9068 216,347.6412 Q216.5938,347.36 217.2188,346.7818 L217.2188,349.5006 Z "/><text fill="#000000" font-family="sans-serif" font-size="12" font-style="italic" lengthAdjust="spacingAndGlyphs" textLength="55" x="258.75" y="340.3439">«Adapter»</text><text fill="#000000" font-family="sans-serif" font-size="12" lengthAdjust="spacingAndGlyphs" textLength="103" x="234.75" y="356.6881">StreamingAdapter</text><line style="stroke: #2C5F7C; stroke-width: 1.5;" x1="129" x2="411" y1="365.2041" y2="365.2041"/><text fill="#000000" font-family="sans-serif" font-size="11" lengthAdjust="spacingAndGlyphs" textLength="198" x="134" y="380.963">-cloudService: CloudStreamingService</text><line style="stroke: #2C5F7C; stroke-width: 1.5;" x1="129" x2="411" y1="388.186" y2="388.186"/><text fill="#000000" font-family="sans-serif" font-size="11" lengthAdjust="spacingAndGlyphs" textLength="272" x="134" y="403.9449">+StreamingAdapter(service: CloudStreamingService)</text><text fill="#000000" font-family="sans-serif" font-size="11" lengthAdjust="spacingAndGlyphs" textLength="147" x="134" y="418.9268">+play(fileName: String): void</text><text fill="#000000" font-family="sans-serif" font-size="11" lengthAdjust="spacingAndGlyphs" textLength="72" x="134" y="433.9087">+pause(): void</text><text fill="#000000" font-family="sans-serif" font-size="11" lengthAdjust="spacingAndGlyphs" textLength="64" x="134" y="448.8905">+stop(): void</text><text fill="#000000" font-family="sans-serif" font-size="11" lengthAdjust="spacingAndGlyphs" textLength="148" x="134" y="463.8724">-authenticateUser(): boolean</text><text fill="#000000" font-family="sans-serif" font-size="11" lengthAdjust="spacingAndGlyphs" textLength="114" x="134" y="478.8543">-selectRegion(): String</text><!--MD5=[9a9440a6654fe5c96532af07f58f2a8a]
class CloudStreamingService--><rect fill="#FFFFFF" height="148.5796" id="CloudStreamingService" style="stroke: #2C5F7C; stroke-width: 1.5;" width="234" x="232" y="583.5158"/><rect fill="#E8F4F8" height="42.6882" style="stroke: #2C5F7C; stroke-width: 1.5;" width="234" x="232" y="583.5158"/><ellipse cx="279.25" cy="604.86" fill="#ADD1B2" rx="11" ry="11" style="stroke: #2C5F7C; stroke-width: 1.0;"/><path d="M282.2188,610.5006 Q281.6406,610.7975 281,610.9381 Q280.3594,611.0943 279.6563,611.0943 Q277.1563,611.0943 275.8281,609.4537 Q274.5156,607.7975 274.5156,604.6725 Q274.5156,601.5475 275.8281,599.8912 Q277.1563,598.235 279.6563,598.235 Q280.3594,598.235 281,598.3912 Q281.6563,598.5475 282.2188,598.8443 L282.2188,601.5631 Q281.5938,600.985 281,600.7193 Q280.4063,600.4381 279.7813,600.4381 Q278.4375,600.4381 277.75,601.5162 Q277.0625,602.5787 277.0625,604.6725 Q277.0625,606.7662 277.75,607.8443 Q278.4375,608.9068 279.7813,608.9068 Q280.4063,608.9068 281,608.6412 Q281.5938,608.36 282.2188,607.7818 L282.2188,610.5006 Z "/><text fill="#000000" font-family="sans-serif" font-size="12" font-style="italic" lengthAdjust="spacingAndGlyphs" textLength="56" x="337.25" y="601.3439">«Adaptee»</text><text fill="#000000" font-family="sans-serif" font-size="12" lengthAdjust="spacingAndGlyphs" textLength="131" x="299.75" y="617.6881">CloudStreamingService</text><line style="stroke: #2C5F7C; stroke-width: 1.5;" x1="233" x2="465" y1="626.2041" y2="626.2041"/><text fill="#000000" font-family="sans-serif" font-size="11" lengthAdjust="spacingAndGlyphs" textLength="77" x="238" y="641.963">-apiKey: String</text><text fill="#000000" font-family="sans-serif" font-size="11" lengthAdjust="spacingAndGlyphs" textLength="77" x="238" y="656.9449">-region: String</text><line style="stroke: #2C5F7C; stroke-width: 1.5;" x1="233" x2="465" y1="664.1679" y2="664.1679"/><text fill="#000000" font-family="sans-serif" font-size="11" lengthAdjust="spacingAndGlyphs" textLength="222" x="238" y="679.9268">+streamContent(contentId: String): Stream</text><text fill="#000000" font-family="sans-serif" font-size="11" lengthAdjust="spacingAndGlyphs" textLength="194" x="238" y="694.9087">+pauseStream(streamId: String): void</text><text fill="#000000" font-family="sans-serif" font-size="11" lengthAdjust="spacingAndGlyphs" textLength="186" x="238" y="709.8905">+stopStream(streamId: String): void</text><text fill="#000000" font-family="sans-serif" font-size="11" lengthAdjust="spacingAndGlyphs" textLength="210" x="238" y="724.8724">+authenticate(credentials: String): Token</text><!--MD5=[e81553c44e5a2340115b653f498b3397]
class AnalogHeadset--><rect fill="#FFFFFF" height="103.6339" id="AnalogHeadset" style="stroke: #2C5F7C; stroke-width: 1.5;" width="212" x="522" y="606.0158"/><rect fill="#E8F4F8" height="42.6882" style="stroke: #2C5F7C; stroke-width: 1.5;" width="212" x="522" y="606.0158"/><ellipse cx="583.25" cy="627.36" fill="#B4A7E5" rx="11" ry="11" style="stroke: #2C5F7C; stroke-width: 1.0;"/><path d="M579.1719,623.1256 L579.1719,620.9693 L586.5625,620.9693 L586.5625,623.1256 L584.0938,623.1256 L584.0938,631.2037 L586.5625,631.2037 L586.5625,633.36 L579.1719,633.36 L579.1719,631.2037 L581.6406,631.2037 L581.6406,623.1256 L579.1719,623.1256 Z "/><text fill="#000000" font-family="sans-serif" font-size="12" font-style="italic" lengthAdjust="spacingAndGlyphs" textLength="47" x="620.75" y="623.8439">«Target»</text><text fill="#000000" font-family="sans-serif" font-size="12" font-style="italic" lengthAdjust="spacingAndGlyphs" textLength="81" x="603.75" y="640.1881">AnalogHeadset</text><line style="stroke: #2C5F7C; stroke-width: 1.5;" x1="523" x2="733" y1="648.7041" y2="648.7041"/><line style="stroke: #2C5F7C; stroke-width: 1.5;" x1="523" x2="733" y1="656.7041" y2="656.7041"/><text fill="#000000" font-family="sans-serif" font-size="11" lengthAdjust="spacingAndGlyphs" textLength="200" x="528" y="672.463">+playAudio(signal: AnalogSignal): void</text><text fill="#000000" font-family="sans-serif" font-size="11" lengthAdjust="spacingAndGlyphs" textLength="157" x="528" y="687.4449">+adjustVolume(level: int): void</text><text fill="#000000" font-family="sans-serif" font-size="11" lengthAdjust="spacingAndGlyphs" textLength="68" x="528" y="702.4268">+mute(): void</text><!--MD5=[6290c17893f34b1b1fde5f6ea340e857]
class UsbToJackAdapter--><rect fill="#FFFFFF" height="163.5614" id="UsbToJackAdapter" style="stroke: #2C5F7C; stroke-width: 1.5;" width="281" x="629.5" y="322.5158"/><rect fill="#E8F4F8" height="42.6882" style="stroke: #2C5F7C; stroke-width: 1.5;" width="281" x="629.5" y="322.5158"/><ellipse cx="714.25" cy="343.86" fill="#ADD1B2" rx="11" ry="11" style="stroke: #2C5F7C; stroke-width: 1.0;"/><path d="M717.2188,349.5006 Q716.6406,349.7975 716,349.9381 Q715.3594,350.0943 714.6563,350.0943 Q712.1563,350.0943 710.8281,348.4537 Q709.5156,346.7975 709.5156,343.6725 Q709.5156,340.5475 710.8281,338.8912 Q712.1563,337.235 714.6563,337.235 Q715.3594,337.235 716,337.3912 Q716.6563,337.5475 717.2188,337.8443 L717.2188,340.5631 Q716.5938,339.985 716,339.7193 Q715.4063,339.4381 714.7813,339.4381 Q713.4375,339.4381 712.75,340.5162 Q712.0625,341.5787 712.0625,343.6725 Q712.0625,345.7662 712.75,346.8443 Q713.4375,347.9068 714.7813,347.9068 Q715.4063,347.9068 716,347.6412 Q716.5938,347.36 717.2188,346.7818 L717.2188,349.5006 Z "/><text fill="#000000" font-family="sans-serif" font-size="12" font-style="italic" lengthAdjust="spacingAndGlyphs" textLength="55" x="758.75" y="340.3439">«Adapter»</text><text fill="#000000" font-family="sans-serif" font-size="12" lengthAdjust="spacingAndGlyphs" textLength="103" x="734.75" y="356.6881">UsbToJackAdapter</text><line style="stroke: #2C5F7C; stroke-width: 1.5;" x1="630.5" x2="909.5" y1="365.2041" y2="365.2041"/><text fill="#000000" font-family="sans-serif" font-size="11" lengthAdjust="spacingAndGlyphs" textLength="149" x="635.5" y="380.963">-usbPhone: UsbTypeCPhone</text><text fill="#000000" font-family="sans-serif" font-size="11" lengthAdjust="spacingAndGlyphs" textLength="218" x="635.5" y="395.9449">-dacConverter: DigitalToAnalogConverter</text><line style="stroke: #2C5F7C; stroke-width: 1.5;" x1="630.5" x2="909.5" y1="403.1679" y2="403.1679"/><text fill="#000000" font-family="sans-serif" font-size="11" lengthAdjust="spacingAndGlyphs" textLength="233" x="635.5" y="418.9268">+UsbToJackAdapter(phone: UsbTypeCPhone)</text><text fill="#000000" font-family="sans-serif" font-size="11" lengthAdjust="spacingAndGlyphs" textLength="200" x="635.5" y="433.9087">+playAudio(signal: AnalogSignal): void</text><text fill="#000000" font-family="sans-serif" font-size="11" lengthAdjust="spacingAndGlyphs" textLength="157" x="635.5" y="448.8905">+adjustVolume(level: int): void</text><text fill="#000000" font-family="sans-serif" font-size="11" lengthAdjust="spacingAndGlyphs" textLength="68" x="635.5" y="463.8724">+mute(): void</text><text fill="#000000" font-family="sans-serif" font-size="11" lengthAdjust="spacingAndGlyphs" textLength="269" x="635.5" y="478.8543">-convertDigitalToAnalog(data: byte[]): AnalogSignal</text><!--MD5=[9a5f9255e4f743fba53330ec30d5854f]
class UsbTypeCPhone--><rect fill="#FFFFFF" height="133.5977" id="UsbTypeCPhone" style="stroke: #2C5F7C; stroke-width: 1.5;" width="203" x="769.5" y="591.0158"/><rect fill="#E8F4F8" height="42.6882" style="stroke: #2C5F7C; stroke-width: 1.5;" width="203" x="769.5" y="591.0158"/><ellipse cx="820.75" cy="612.36" fill="#ADD1B2" rx="11" ry="11" style="stroke: #2C5F7C; stroke-width: 1.0;"/><path d="M823.7188,618.0006 Q823.1406,618.2975 822.5,618.4381 Q821.8594,618.5943 821.1563,618.5943 Q818.6563,618.5943 817.3281,616.9537 Q816.0156,615.2975 816.0156,612.1725 Q816.0156,609.0475 817.3281,607.3912 Q818.6563,605.735 821.1563,605.735 Q821.8594,605.735 822.5,605.8912 Q823.1563,606.0475 823.7188,606.3443 L823.7188,609.0631 Q823.0938,608.485 822.5,608.2193 Q821.9063,607.9381 821.2813,607.9381 Q819.9375,607.9381 819.25,609.0162 Q818.5625,610.0787 818.5625,612.1725 Q818.5625,614.2662 819.25,615.3443 Q819.9375,616.4068 821.2813,616.4068 Q821.9063,616.4068 822.5,616.1412 Q823.0938,615.86 823.7188,615.2818 L823.7188,618.0006 Z "/><text fill="#000000" font-family="sans-serif" font-size="12" font-style="italic" lengthAdjust="spacingAndGlyphs" textLength="56" x="859.25" y="608.8439">«Adaptee»</text><text fill="#000000" font-family="sans-serif" font-size="12" lengthAdjust="spacingAndGlyphs" textLength="92" x="841.25" y="625.1881">UsbTypeCPhone</text><line style="stroke: #2C5F7C; stroke-width: 1.5;" x1="770.5" x2="971.5" y1="633.7041" y2="633.7041"/><text fill="#000000" font-family="sans-serif" font-size="11" lengthAdjust="spacingAndGlyphs" textLength="104" x="775.5" y="649.463">-usbPort: UsbTypeC</text><line style="stroke: #2C5F7C; stroke-width: 1.5;" x1="770.5" x2="971.5" y1="656.686" y2="656.686"/><text fill="#000000" font-family="sans-serif" font-size="11" lengthAdjust="spacingAndGlyphs" textLength="191" x="775.5" y="672.4449">+sendDigitalAudio(data: byte[]): void</text><text fill="#000000" font-family="sans-serif" font-size="11" lengthAdjust="spacingAndGlyphs" textLength="140" x="775.5" y="687.4268">+setVolume(level: int): void</text><text fill="#000000" font-family="sans-serif" font-size="11" lengthAdjust="spacingAndGlyphs" textLength="99" x="775.5" y="702.4087">+muteAudio(): void</text><text fill="#000000" font-family="sans-serif" font-size="11" lengthAdjust="spacingAndGlyphs" textLength="173" x="775.5" y="717.3905">+getAudioFormat(): AudioFormat</text><path d="M152,77.0158 L152,193.2519 A0,0 0 0 0 152,193.2519 L266,193.2519 L270,322.4458 L274,193.2519 L388,193.2519 A0,0 0 0 0 388,193.2519 L388,87.0158 L378,77.0158 L152,77.0158 A0,0 0 0 0 152,77.0158 " fill="#FFF9E6" style="stroke: #CCA300; stroke-width: 1.0;"/><path d="M378,77.0158 L378,87.0158 L388,87.0158 L378,77.0158 " fill="#FFF9E6" style="stroke: #CCA300; stroke-width: 1.0;"/><text fill="#000000" font-family="sans-serif" font-size="13" font-weight="bold" lengthAdjust="spacingAndGlyphs" textLength="196" x="158" y="95.9129">Yazılım Katmanı Adaptasyonu</text><text fill="#000000" font-family="sans-serif" font-size="13" lengthAdjust="spacingAndGlyphs" textLength="161" x="158" y="113.6189">• API çağrılarını dönüştürür</text><text fill="#000000" font-family="sans-serif" font-size="13" lengthAdjust="spacingAndGlyphs" textLength="145" x="158" y="131.3249">• Kimlik doğrulama ekler</text><text fill="#000000" font-family="sans-serif" font-size="13" lengthAdjust="spacingAndGlyphs" textLength="119" x="158" y="149.0309">• Bölge seçimi yapar</text><text fill="#000000" font-family="sans-serif" font-size="13" lengthAdjust="spacingAndGlyphs" textLength="129" x="158" y="166.7369">• Ağ hatalarını yönetir</text><text fill="#000000" font-family="sans-serif" font-size="13" lengthAdjust="spacingAndGlyphs" textLength="215" x="158" y="184.4429">• Asenkron işlemleri senkronize eder</text><path d="M654.5,77.0158 L654.5,193.2519 A0,0 0 0 0 654.5,193.2519 L766,193.2519 L770,322.4458 L774,193.2519 L885.5,193.2519 A0,0 0 0 0 885.5,193.2519 L885.5,87.0158 L875.5,77.0158 L654.5,77.0158 A0,0 0 0 0 654.5,77.0158 " fill="#FFF9E6" style="stroke: #CCA300; stroke-width: 1.0;"/><path d="M875.5,77.0158 L875.5,87.0158 L885.5,87.0158 L875.5,77.0158 " fill="#FFF9E6" style="stroke: #CCA300; stroke-width: 1.0;"/><text fill="#000000" font-family="sans-serif" font-size="13" font-weight="bold" lengthAdjust="spacingAndGlyphs" textLength="210" x="660.5" y="95.9129">Donanım Katmanı Adaptasyonu</text><text fill="#000000" font-family="sans-serif" font-size="13" lengthAdjust="spacingAndGlyphs" textLength="196" x="660.5" y="113.6189">• Dijital → Analog dönüşüm (DAC)</text><text fill="#000000" font-family="sans-serif" font-size="13" lengthAdjust="spacingAndGlyphs" textLength="155" x="660.5" y="131.3249">• Fiziksel port uyumluluğu</text><text fill="#000000" font-family="sans-serif" font-size="13" lengthAdjust="spacingAndGlyphs" textLength="176" x="660.5" y="149.0309">• Gerçek zamanlı sinyal işleme</text><text fill="#000000" font-family="sans-serif" font-size="13" lengthAdjust="spacingAndGlyphs" textLength="123" x="660.5" y="166.7369">• Voltaj seviyesi ayarı</text><text fill="#000000" font-family="sans-serif" font-size="13" lengthAdjust="spacingAndGlyphs" textLength="135" x="660.5" y="184.4429">• Empedans eşleştirme</text><path d="M921,32.5158 L921,237.282 L1211,237.282 L1211,42.5158 L1201,32.5158 L921,32.5158 " fill="#FFF9E6" style="stroke: #CCA300; stroke-width: 1.0;"/><path d="M1201,32.5158 L1201,42.5158 L1211,42.5158 L1201,32.5158 " fill="#FFF9E6" style="stroke: #CCA300; stroke-width: 1.0;"/><text fill="#000000" font-family="sans-serif" font-size="13" font-weight="bold" lengthAdjust="spacingAndGlyphs" textLength="251" x="927" y="51.4129">== Adapter Pattern Ortak Özellikleri ==</text><text fill="#000000" font-family="sans-serif" font-size="13" lengthAdjust="spacingAndGlyphs" textLength="0" x="930" y="69.1189"/><text fill="#000000" font-family="sans-serif" font-size="13" lengthAdjust="spacingAndGlyphs" textLength="196" x="927" y="86.8249">✓ İstemci kodu değişmeden kalır</text><text fill="#000000" font-family="sans-serif" font-size="13" lengthAdjust="spacingAndGlyphs" textLength="188" x="927" y="104.5309">✓ Uyumsuz arayüzleri birleştirir</text><text fill="#000000" font-family="sans-serif" font-size="13" lengthAdjust="spacingAndGlyphs" textLength="174" x="927" y="122.2369">✓ Tek Sorumluluk İlkesi (SRP)</text><text fill="#000000" font-family="sans-serif" font-size="13" lengthAdjust="spacingAndGlyphs" textLength="149" x="927" y="139.9429">✓ Açık/Kapalı İlkesi (OCP)</text><text fill="#000000" font-family="sans-serif" font-size="13" lengthAdjust="spacingAndGlyphs" textLength="220" x="927" y="157.649">✓ Eski kod ile yeni kod entegrasyonu</text><text fill="#000000" font-family="sans-serif" font-size="13" lengthAdjust="spacingAndGlyphs" textLength="0" x="930" y="175.355"/><text fill="#000000" font-family="sans-serif" font-size="13" font-weight="bold" lengthAdjust="spacingAndGlyphs" textLength="75" x="927" y="193.061">Farklılıklar:</text><text fill="#000000" font-family="sans-serif" font-size="13" lengthAdjust="spacingAndGlyphs" textLength="208" x="927" y="210.767">• Bulut: Yazılım katmanı, ağ iletişimi</text><text fill="#000000" font-family="sans-serif" font-size="13" lengthAdjust="spacingAndGlyphs" textLength="269" x="927" y="228.473">• Donanım: Fiziksel katman, sinyal dönüşümü</text><!--MD5=[1dccfa93bbc02455c4edd003e7c8b634]
reverse link MediaPlayer to StreamingAdapter--><path d="M173.67,585.7958 C173.67,585.7958 173.67,486.6158 173.67,486.6158 " fill="none" id="MediaPlayer&lt;-StreamingAdapter" style="stroke: #2C5F7C; stroke-width: 1.0; stroke-dasharray: 7.0,7.0;"/><polygon fill="none" points="180.67,585.7958,173.67,605.7958,166.67,585.7958,180.67,585.7958" style="stroke: #2C5F7C; stroke-width: 1.0;"/><text fill="#000000" font-family="sans-serif" font-size="13" lengthAdjust="spacingAndGlyphs" textLength="71" x="218" y="540.4129">implements</text><!--MD5=[8abaf583822d4ee8e256a1388180225d]
link StreamingAdapter to MediaPlayer--><path d="M150.83,486.8158 C150.83,486.8158 150.83,600.9758 150.83,600.9758 " fill="none" id="StreamingAdapter-&gt;MediaPlayer" style="stroke: #2C5F7C; stroke-width: 1.0; stroke-dasharray: 7.0,7.0;"/><polygon fill="#2C5F7C" points="150.83,605.9758,154.83,596.9758,150.83,600.9758,146.83,596.9758,150.83,605.9758" style="stroke: #2C5F7C; stroke-width: 1.0;"/><text fill="#000000" font-family="sans-serif" font-size="13" lengthAdjust="spacingAndGlyphs" textLength="85" x="91" y="531.4129">hedef arayüzü</text><text fill="#000000" font-family="sans-serif" font-size="13" lengthAdjust="spacingAndGlyphs" textLength="46" x="110.5" y="549.1189">uygular</text><!--MD5=[7445108135b25dee27db0677f2dc969b]
link StreamingAdapter to CloudStreamingService--><path d="M292,498.8158 C292,498.8158 292,570.4058 292,570.4058 " fill="none" id="StreamingAdapter-CloudStreamingService" style="stroke: #2C5F7C; stroke-width: 1.0;"/><polygon fill="#2C5F7C" points="292,583.4058,296,574.4058,292,578.4058,288,574.4058,292,583.4058" style="stroke: #2C5F7C; stroke-width: 1.0;"/><line style="stroke: #2C5F7C; stroke-width: 1.0;" x1="292" x2="292" y1="578.4058" y2="570.4058"/><polygon fill="#FFFFFF" points="292,486.8158,288,492.8158,292,498.8158,296,492.8158,292,486.8158" style="stroke: #2C5F7C; stroke-width: 1.0;"/><text fill="#000000" font-family="sans-serif" font-size="13" lengthAdjust="spacingAndGlyphs" textLength="27" x="331" y="540.4129">uses</text><!--MD5=[2e12126de447958dcfe9d3bdb54adb74]
reverse link StreamingAdapter to CloudStreamingService--><path d="M352,491.8158 C352,491.8158 352,583.4058 352,583.4058 " fill="none" id="StreamingAdapter&lt;-CloudStreamingService" style="stroke: #2C5F7C; stroke-width: 1.0; stroke-dasharray: 7.0,7.0;"/><polygon fill="#2C5F7C" points="352,486.8158,348,495.8158,352,491.8158,356,495.8158,352,486.8158" style="stroke: #2C5F7C; stroke-width: 1.0;"/><text fill="#000000" font-family="sans-serif" font-size="13" lengthAdjust="spacingAndGlyphs" textLength="49" x="400" y="531.4129">adaptee</text><text fill="#000000" font-family="sans-serif" font-size="13" lengthAdjust="spacingAndGlyphs" textLength="47" x="401" y="549.1189">çağrıları</text><!--MD5=[b41f7efa91abb0fd02c3c4a075fa199b]
reverse link AnalogHeadset to UsbToJackAdapter--><path d="M699.17,585.7958 C699.17,585.7958 699.17,486.6158 699.17,486.6158 " fill="none" id="AnalogHeadset&lt;-UsbToJackAdapter" style="stroke: #2C5F7C; stroke-width: 1.0; stroke-dasharray: 7.0,7.0;"/><polygon fill="none" points="706.17,585.7958,699.17,605.7958,692.17,585.7958,706.17,585.7958" style="stroke: #2C5F7C; stroke-width: 1.0;"/><text fill="#000000" font-family="sans-serif" font-size="13" lengthAdjust="spacingAndGlyphs" textLength="71" x="715" y="540.4129">implements</text><!--MD5=[c4feb245a7e3cd7152dea88f0d5cb8a1]
link UsbToJackAdapter to AnalogHeadset--><path d="M664.33,486.8158 C664.33,486.8158 664.33,600.9758 664.33,600.9758 " fill="none" id="UsbToJackAdapter-&gt;AnalogHeadset" style="stroke: #2C5F7C; stroke-width: 1.0; stroke-dasharray: 7.0,7.0;"/><polygon fill="#2C5F7C" points="664.33,605.9758,668.33,596.9758,664.33,600.9758,660.33,596.9758,664.33,605.9758" style="stroke: #2C5F7C; stroke-width: 1.0;"/><text fill="#000000" font-family="sans-serif" font-size="13" lengthAdjust="spacingAndGlyphs" textLength="85" x="588" y="531.4129">hedef arayüzü</text><text fill="#000000" font-family="sans-serif" font-size="13" lengthAdjust="spacingAndGlyphs" textLength="46" x="607.5" y="549.1189">uygular</text><!--MD5=[ae3e47929f032fdd124661cc6dd30066]
link UsbToJackAdapter to UsbTypeCPhone--><path d="M816.5,498.8158 C816.5,498.8158 816.5,577.9158 816.5,577.9158 " fill="none" id="UsbToJackAdapter-UsbTypeCPhone" style="stroke: #2C5F7C; stroke-width: 1.0;"/><polygon fill="#2C5F7C" points="816.5,590.9158,820.5,581.9158,816.5,585.9158,812.5,581.9158,816.5,590.9158" style="stroke: #2C5F7C; stroke-width: 1.0;"/><line style="stroke: #2C5F7C; stroke-width: 1.0;" x1="816.5" x2="816.5" y1="585.9158" y2="577.9158"/><polygon fill="#FFFFFF" points="816.5,486.8158,812.5,492.8158,816.5,498.8158,820.5,492.8158,816.5,486.8158" style="stroke: #2C5F7C; stroke-width: 1.0;"/><text fill="#000000" font-family="sans-serif" font-size="13" lengthAdjust="spacingAndGlyphs" textLength="27" x="828" y="540.4129">uses</text><!--MD5=[9dc3ca62fd9adeee717c595c1bf70558]
reverse link UsbToJackAdapter to UsbTypeCPhone--><path d="M863.5,491.8158 C863.5,491.8158 863.5,590.9158 863.5,590.9158 " fill="none" id="UsbToJackAdapter&lt;-UsbTypeCPhone" style="stroke: #2C5F7C; stroke-width: 1.0; stroke-dasharray: 7.0,7.0;"/><polygon fill="#2C5F7C" points="863.5,486.8158,859.5,495.8158,863.5,491.8158,867.5,495.8158,863.5,486.8158" style="stroke: #2C5F7C; stroke-width: 1.0;"/><text fill="#000000" font-family="sans-serif" font-size="13" lengthAdjust="spacingAndGlyphs" textLength="49" x="897" y="531.4129">adaptee</text><text fill="#000000" font-family="sans-serif" font-size="13" lengthAdjust="spacingAndGlyphs" textLength="47" x="898" y="549.1189">çağrıları</text><rect fill="#DDDDDD" height="181.6113" rx="5" ry="5" style="stroke: #000000; stroke-width: 1.0;" width="325" x="895" y="782.5158"/><text fill="#000000" font-family="sans-serif" font-size="14" font-weight="bold" lengthAdjust="spacingAndGlyphs" textLength="122" x="901" y="802.4818">== Stereotipler ==</text><text fill="#000000" font-family="sans-serif" font-size="14" lengthAdjust="spacingAndGlyphs" textLength="282" x="901" y="821.5497">&lt;&lt;Target&gt;&gt;   : İstemcinin beklediği arayüz</text><text fill="#000000" font-family="sans-serif" font-size="14" lengthAdjust="spacingAndGlyphs" textLength="313" x="901" y="840.6176">&lt;&lt;Adapter&gt;&gt;  : Dönüştürücü katman (wrapper)</text><text fill="#000000" font-family="sans-serif" font-size="14" lengthAdjust="spacingAndGlyphs" textLength="310" x="901" y="859.6855">&lt;&lt;Adaptee&gt;&gt;  : Uyum sağlanan mevcut sistem</text><text fill="#000000" font-family="sans-serif" font-size="14" lengthAdjust="spacingAndGlyphs" textLength="0" x="905" y="878.7534"/><text fill="#000000" font-family="sans-serif" font-size="14" font-weight="bold" lengthAdjust="spacingAndGlyphs" textLength="122" x="901" y="897.8214">== İlişki Türleri ==</text><text fill="#000000" font-family="sans-serif" font-size="14" lengthAdjust="spacingAndGlyphs" textLength="240" x="901" y="916.8893">&lt;|..         : Interface implementation</text><text fill="#000000" font-family="sans-serif" font-size="14" lengthAdjust="spacingAndGlyphs" textLength="203" x="901" y="935.9572">o--&gt;         : Composition (has-a)</text><text fill="#000000" font-family="sans-serif" font-size="14" lengthAdjust="spacingAndGlyphs" textLength="148" x="901" y="955.0251">.&gt;           : Dependency</text><text fill="#888888" font-family="sans-serif" font-size="10" lengthAdjust="spacingAndGlyphs" textLength="465" x="382" y="983.8171">Oluşturulma: 20.10.2025 | Sürüm: 1.0.0 | Pattern: Adapter (Structural) | Modül: Design Patterns</text><!--MD5=[c6a22e88ba1689885f72e7fe9b5792a2]
@startuml
allowmixing


title Adapter Pattern: Bulut Servis vs Donanım Dönüşümü Karşılaştırması

skinparam backgroundColor #FFFFFF
skinparam shadowing false
skinparam classAttributeIconSize 0
skinparam linetype ortho

skinparam package {
    BackgroundColor #E8F4F8
    BorderColor #2C5F7C
    FontStyle bold
}

skinparam class {
    BackgroundColor #FFFFFF
    BorderColor #2C5F7C
    ArrowColor #2C5F7C
    HeaderBackgroundColor #E8F4F8
}

skinparam interface {
    BackgroundColor #FFE8CC
    BorderColor #CC8800
}

skinparam note {
    BackgroundColor #FFF9E6
    BorderColor #CCA300
}

package "Senaryo 1: Bulut Akış Entegrasyonu" #E8F4F8 {
    
    interface MediaPlayer <<Target>> {
        +play(fileName: String): void
        +pause(): void
        +stop(): void
    }
    
    class StreamingAdapter <<Adapter>> {
        -cloudService: CloudStreamingService
        __
        +StreamingAdapter(service: CloudStreamingService)
        +play(fileName: String): void
        +pause(): void
        +stop(): void
        -authenticateUser(): boolean
        -selectRegion(): String
    }
    
    class CloudStreamingService <<Adaptee>> {
        -apiKey: String
        -region: String
        __
        +streamContent(contentId: String): Stream
        +pauseStream(streamId: String): void
        +stopStream(streamId: String): void
        +authenticate(credentials: String): Token
    }
    
    MediaPlayer <|.. StreamingAdapter : implements
    StreamingAdapter o- -> CloudStreamingService : uses
}

package "Senaryo 2: USB-C'den 3.5mm Jack'e Dönüşüm" #FFF5EC {
    
    interface AnalogHeadset <<Target>> {
        +playAudio(signal: AnalogSignal): void
        +adjustVolume(level: int): void
        +mute(): void
    }
    
    class UsbToJackAdapter <<Adapter>> {
        -usbPhone: UsbTypeCPhone
        -dacConverter: DigitalToAnalogConverter
        __
        +UsbToJackAdapter(phone: UsbTypeCPhone)
        +playAudio(signal: AnalogSignal): void
        +adjustVolume(level: int): void
        +mute(): void
        -convertDigitalToAnalog(data: byte[]): AnalogSignal
    }
    
    class UsbTypeCPhone <<Adaptee>> {
        -usbPort: UsbTypeC
        __
        +sendDigitalAudio(data: byte[]): void
        +setVolume(level: int): void
        +muteAudio(): void
        +getAudioFormat(): AudioFormat
    }
    
    AnalogHeadset <|.. UsbToJackAdapter : implements
    UsbToJackAdapter o- -> UsbTypeCPhone : uses
}

note top of StreamingAdapter
  **Yazılım Katmanı Adaptasyonu**
  • API çağrılarını dönüştürür
  • Kimlik doğrulama ekler
  • Bölge seçimi yapar
  • Ağ hatalarını yönetir
  • Asenkron işlemleri senkronize eder
end note

note top of UsbToJackAdapter
  **Donanım Katmanı Adaptasyonu**
  • Dijital → Analog dönüşüm (DAC)
  • Fiziksel port uyumluluğu
  • Gerçek zamanlı sinyal işleme
  • Voltaj seviyesi ayarı
  • Empedans eşleştirme
end note

note as CommonFeatures
  <b>== Adapter Pattern Ortak Özellikleri ==</b>
  
  ✓ İstemci kodu değişmeden kalır
  ✓ Uyumsuz arayüzleri birleştirir
  ✓ Tek Sorumluluk İlkesi (SRP)
  ✓ Açık/Kapalı İlkesi (OCP)
  ✓ Eski kod ile yeni kod entegrasyonu
  
  <b>Farklılıklar:</b>
  • Bulut: Yazılım katmanı, ağ iletişimi
  • Donanım: Fiziksel katman, sinyal dönüşümü
end note

StreamingAdapter .down.> MediaPlayer : "hedef arayüzü\nuygular"
UsbToJackAdapter .down.> AnalogHeadset : "hedef arayüzü\nuygular"

CloudStreamingService .up.> StreamingAdapter : "adaptee\nçağrıları"
UsbTypeCPhone .up.> UsbToJackAdapter : "adaptee\nçağrıları"

legend right
  <b>== Stereotipler ==</b>
  <<Target>>   : İstemcinin beklediği arayüz
  <<Adapter>>  : Dönüştürücü katman (wrapper)
  <<Adaptee>>  : Uyum sağlanan mevcut sistem
  
  <b>== İlişki Türleri ==</b>
  <|..         : Interface implementation
  o- ->         : Composition (has-a)
  .>           : Dependency
end legend

footer Oluşturulma: 20.10.2025 | Sürüm: 1.0.0 | Pattern: Adapter (Structural) | Modül: Design Patterns

@enduml

PlantUML version 1.2020.02(Sun Mar 01 13:22:07 TRT 2020)
(GPL source distribution)
Java Runtime: OpenJDK Runtime Environment
JVM: OpenJDK 64-Bit Server VM
Java Version: 21.0.8+9-Ubuntu-0ubuntu124.04.1
Operating System: Linux
Default Encoding: UTF-8
Language: en
Country: US
--></g></svg>