<svg xmlns="http://www.w3.org/2000/svg" xmlns:xlink="http://www.w3.org/1999/xlink" contentStyleType="text/css" data-diagram-type="CLASS" height="690px" preserveAspectRatio="none" style="width:1128px;height:690px;background:#FFFFFF;" version="1.1" viewBox="0 0 1128 690" width="1128px" zoomAndPan="magnify"><title>Builder Pattern - Y&#246;nlendirici &#304;le (Klasik Yakla&#351;&#305;m)</title><defs/><g><g class="title" data-source-line="13"><text fill="#000000" font-family="sans-serif" font-size="14" font-weight="bold" lengthAdjust="spacing" textLength="395.4727" x="359.4441" y="22.9951">Builder Pattern - Y&#246;nlendirici &#304;le (Klasik Yakla&#351;&#305;m)</text></g><!--class Computer--><g class="entity" data-entity="Computer" data-source-line="26" data-uid="ent0002" id="entity_Computer"><rect fill="#E8F4F8" height="129.4844" rx="2.5" ry="2.5" style="stroke:#2C5F7C;stroke-width:0.5;" width="126.2695" x="7" y="535.2969"/><ellipse cx="33.1028" cy="551.2969" fill="#ADD1B2" rx="11" ry="11" style="stroke:#181818;stroke-width:1;"/><path d="M36.0715,556.9375 Q35.4934,557.2344 34.8528,557.375 Q34.2122,557.5313 33.509,557.5313 Q31.009,557.5313 29.6809,555.8906 Q28.3684,554.2344 28.3684,551.1094 Q28.3684,547.9844 29.6809,546.3281 Q31.009,544.6719 33.509,544.6719 Q34.2122,544.6719 34.8528,544.8281 Q35.509,544.9844 36.0715,545.2813 L36.0715,548 Q35.4465,547.4219 34.8528,547.1563 Q34.259,546.875 33.634,546.875 Q32.2903,546.875 31.6028,547.9531 Q30.9153,549.0156 30.9153,551.1094 Q30.9153,553.2031 31.6028,554.2813 Q32.2903,555.3438 33.634,555.3438 Q34.259,555.3438 34.8528,555.0781 Q35.4465,554.7969 36.0715,554.2188 L36.0715,556.9375 Z " fill="#000000"/><text fill="#000000" font-family="sans-serif" font-size="14" lengthAdjust="spacing" textLength="69.5967" x="49.5701" y="556.1436">Computer</text><line style="stroke:#2C5F7C;stroke-width:0.5;" x1="8" x2="132.2695" y1="567.2969" y2="567.2969"/><text fill="#000000" font-family="sans-serif" font-size="14" lengthAdjust="spacing" textLength="89.5508" x="13" y="584.292">+CPU: string</text><text fill="#000000" font-family="sans-serif" font-size="14" lengthAdjust="spacing" textLength="92.4697" x="13" y="600.5889">+RAM: string</text><text fill="#000000" font-family="sans-serif" font-size="14" lengthAdjust="spacing" textLength="114.2695" x="13" y="616.8857">+storage: string</text><text fill="#000000" font-family="sans-serif" font-size="14" lengthAdjust="spacing" textLength="90.624" x="13" y="633.1826">+GPU: string</text><line style="stroke:#2C5F7C;stroke-width:0.5;" x1="8" x2="132.2695" y1="640.4844" y2="640.4844"/><text fill="#000000" font-family="sans-serif" font-size="14" lengthAdjust="spacing" textLength="97.6309" x="13" y="657.4795">+show(): void</text></g><!--class ComputerBuilder--><g class="entity" data-entity="ComputerBuilder" data-source-line="36" data-uid="ent0003" id="entity_ComputerBuilder"><rect fill="#E8F4F8" height="162.0781" rx="2.5" ry="2.5" style="stroke:#2C5F7C;stroke-width:0.5;" width="304.6055" x="118.5" y="296.2969"/><ellipse cx="206.998" cy="312.2969" fill="#A9DCDF" rx="11" ry="11" style="stroke:#181818;stroke-width:1;"/><path d="M207.1074,307.6406 L205.9512,312.7188 L208.2793,312.7188 L207.1074,307.6406 Z M205.623,305.4063 L208.6074,305.4063 L211.9668,317.7969 L209.5137,317.7969 L208.748,314.7344 L205.4668,314.7344 L204.7168,317.7969 L202.2793,317.7969 L205.623,305.4063 Z " fill="#000000"/><text fill="#000000" font-family="sans-serif" font-size="14" font-style="italic" lengthAdjust="spacing" textLength="119.1094" x="227.498" y="317.1436">ComputerBuilder</text><line style="stroke:#2C5F7C;stroke-width:0.5;" x1="119.5" x2="422.1055" y1="328.2969" y2="328.2969"/><text fill="#000000" font-family="sans-serif" font-size="14" lengthAdjust="spacing" textLength="256.6143" x="124.5" y="345.292">#computer: unique_ptr&lt;Computer&gt;</text><line style="stroke:#2C5F7C;stroke-width:0.5;" x1="119.5" x2="422.1055" y1="352.5938" y2="352.5938"/><text fill="#000000" font-family="sans-serif" font-size="14" lengthAdjust="spacing" textLength="141.7637" x="124.5" y="369.5889">+ComputerBuilder()</text><text fill="#000000" font-family="sans-serif" font-size="14" font-style="italic" lengthAdjust="spacing" textLength="124.3389" x="124.5" y="385.8857">+buildCPU(): void</text><text fill="#000000" font-family="sans-serif" font-size="14" font-style="italic" lengthAdjust="spacing" textLength="127.2578" x="124.5" y="402.1826">+buildRAM(): void</text><text fill="#000000" font-family="sans-serif" font-size="14" font-style="italic" lengthAdjust="spacing" textLength="150.6504" x="124.5" y="418.4795">+buildStorage(): void</text><text fill="#000000" font-family="sans-serif" font-size="14" font-style="italic" lengthAdjust="spacing" textLength="125.4121" x="124.5" y="434.7764">+buildGPU(): void</text><text fill="#000000" font-family="sans-serif" font-size="14" lengthAdjust="spacing" textLength="292.6055" x="124.5" y="451.0732">+getComputer(): unique_ptr&lt;Computer&gt;</text></g><!--class GamingComputerBuilder--><g class="entity" data-entity="GamingComputerBuilder" data-source-line="48" data-uid="ent0004" id="entity_GamingComputerBuilder"><rect fill="#E8F4F8" height="113.1875" rx="2.5" ry="2.5" style="stroke:#2C5F7C;stroke-width:0.5;" width="205.8242" x="168" y="543.2969"/><ellipse cx="183" cy="559.2969" fill="#ADD1B2" rx="11" ry="11" style="stroke:#181818;stroke-width:1;"/><path d="M185.9688,564.9375 Q185.3906,565.2344 184.75,565.375 Q184.1094,565.5313 183.4063,565.5313 Q180.9063,565.5313 179.5781,563.8906 Q178.2656,562.2344 178.2656,559.1094 Q178.2656,555.9844 179.5781,554.3281 Q180.9063,552.6719 183.4063,552.6719 Q184.1094,552.6719 184.75,552.8281 Q185.4063,552.9844 185.9688,553.2813 L185.9688,556 Q185.3438,555.4219 184.75,555.1563 Q184.1563,554.875 183.5313,554.875 Q182.1875,554.875 181.5,555.9531 Q180.8125,557.0156 180.8125,559.1094 Q180.8125,561.2031 181.5,562.2813 Q182.1875,563.3438 183.5313,563.3438 Q184.1563,563.3438 184.75,563.0781 Q185.3438,562.7969 185.9688,562.2188 L185.9688,564.9375 Z " fill="#000000"/><text fill="#000000" font-family="sans-serif" font-size="14" lengthAdjust="spacing" textLength="173.8242" x="197" y="564.1436">GamingComputerBuilder</text><line style="stroke:#2C5F7C;stroke-width:0.5;" x1="169" x2="372.8242" y1="575.2969" y2="575.2969"/><line style="stroke:#2C5F7C;stroke-width:0.5;" x1="169" x2="372.8242" y1="583.2969" y2="583.2969"/><text fill="#000000" font-family="sans-serif" font-size="14" lengthAdjust="spacing" textLength="124.3389" x="174" y="600.292">+buildCPU(): void</text><text fill="#000000" font-family="sans-serif" font-size="14" lengthAdjust="spacing" textLength="127.2578" x="174" y="616.5889">+buildRAM(): void</text><text fill="#000000" font-family="sans-serif" font-size="14" lengthAdjust="spacing" textLength="150.6504" x="174" y="632.8857">+buildStorage(): void</text><text fill="#000000" font-family="sans-serif" font-size="14" lengthAdjust="spacing" textLength="125.4121" x="174" y="649.1826">+buildGPU(): void</text></g><!--class OfficeComputerBuilder--><g class="entity" data-entity="OfficeComputerBuilder" data-source-line="55" data-uid="ent0005" id="entity_OfficeComputerBuilder"><rect fill="#E8F4F8" height="113.1875" rx="2.5" ry="2.5" style="stroke:#2C5F7C;stroke-width:0.5;" width="192.1865" x="409" y="543.2969"/><ellipse cx="424" cy="559.2969" fill="#ADD1B2" rx="11" ry="11" style="stroke:#181818;stroke-width:1;"/><path d="M426.9688,564.9375 Q426.3906,565.2344 425.75,565.375 Q425.1094,565.5313 424.4063,565.5313 Q421.9063,565.5313 420.5781,563.8906 Q419.2656,562.2344 419.2656,559.1094 Q419.2656,555.9844 420.5781,554.3281 Q421.9063,552.6719 424.4063,552.6719 Q425.1094,552.6719 425.75,552.8281 Q426.4063,552.9844 426.9688,553.2813 L426.9688,556 Q426.3438,555.4219 425.75,555.1563 Q425.1563,554.875 424.5313,554.875 Q423.1875,554.875 422.5,555.9531 Q421.8125,557.0156 421.8125,559.1094 Q421.8125,561.2031 422.5,562.2813 Q423.1875,563.3438 424.5313,563.3438 Q425.1563,563.3438 425.75,563.0781 Q426.3438,562.7969 426.9688,562.2188 L426.9688,564.9375 Z " fill="#000000"/><text fill="#000000" font-family="sans-serif" font-size="14" lengthAdjust="spacing" textLength="160.1865" x="438" y="564.1436">OfficeComputerBuilder</text><line style="stroke:#2C5F7C;stroke-width:0.5;" x1="410" x2="600.1865" y1="575.2969" y2="575.2969"/><line style="stroke:#2C5F7C;stroke-width:0.5;" x1="410" x2="600.1865" y1="583.2969" y2="583.2969"/><text fill="#000000" font-family="sans-serif" font-size="14" lengthAdjust="spacing" textLength="124.3389" x="415" y="600.292">+buildCPU(): void</text><text fill="#000000" font-family="sans-serif" font-size="14" lengthAdjust="spacing" textLength="127.2578" x="415" y="616.5889">+buildRAM(): void</text><text fill="#000000" font-family="sans-serif" font-size="14" lengthAdjust="spacing" textLength="150.6504" x="415" y="632.8857">+buildStorage(): void</text><text fill="#000000" font-family="sans-serif" font-size="14" lengthAdjust="spacing" textLength="125.4121" x="415" y="649.1826">+buildGPU(): void</text></g><!--class ComputerDirector--><g class="entity" data-entity="ComputerDirector" data-source-line="63" data-uid="ent0006" id="entity_ComputerDirector"><rect fill="#E8F4F8" height="129.4844" rx="2.5" ry="2.5" style="stroke:#2C5F7C;stroke-width:0.5;" width="372.8828" x="248.5" y="66.7969"/><ellipse cx="367.6196" cy="82.7969" fill="#ADD1B2" rx="11" ry="11" style="stroke:#181818;stroke-width:1;"/><path d="M370.5884,88.4375 Q370.0103,88.7344 369.3696,88.875 Q368.729,89.0313 368.0259,89.0313 Q365.5259,89.0313 364.1978,87.3906 Q362.8853,85.7344 362.8853,82.6094 Q362.8853,79.4844 364.1978,77.8281 Q365.5259,76.1719 368.0259,76.1719 Q368.729,76.1719 369.3696,76.3281 Q370.0259,76.4844 370.5884,76.7813 L370.5884,79.5 Q369.9634,78.9219 369.3696,78.6563 Q368.7759,78.375 368.1509,78.375 Q366.8071,78.375 366.1196,79.4531 Q365.4321,80.5156 365.4321,82.6094 Q365.4321,84.7031 366.1196,85.7813 Q366.8071,86.8438 368.1509,86.8438 Q368.7759,86.8438 369.3696,86.5781 Q369.9634,86.2969 370.5884,85.7188 L370.5884,88.4375 Z " fill="#000000"/><text fill="#000000" font-family="sans-serif" font-size="14" lengthAdjust="spacing" textLength="126.1436" x="388.1196" y="87.6436">ComputerDirector</text><line style="stroke:#2C5F7C;stroke-width:0.5;" x1="249.5" x2="620.3828" y1="98.7969" y2="98.7969"/><text fill="#000000" font-family="sans-serif" font-size="14" lengthAdjust="spacing" textLength="189.123" x="254.5" y="115.792">-builder: ComputerBuilder*</text><line style="stroke:#2C5F7C;stroke-width:0.5;" x1="249.5" x2="620.3828" y1="123.0938" y2="123.0938"/><text fill="#000000" font-family="sans-serif" font-size="14" lengthAdjust="spacing" textLength="316.4287" x="254.5" y="140.0889">+setBuilder(builder: ComputerBuilder*): void</text><text fill="#000000" font-family="sans-serif" font-size="14" lengthAdjust="spacing" textLength="328.7471" x="254.5" y="156.3857">+buildFullComputer(): unique_ptr&lt;Computer&gt;</text><text fill="#000000" font-family="sans-serif" font-size="14" lengthAdjust="spacing" textLength="358.8799" x="254.5" y="172.6826">+buildMinimalComputer(): unique_ptr&lt;Computer&gt;</text><text fill="#000000" font-family="sans-serif" font-size="14" lengthAdjust="spacing" textLength="360.8828" x="254.5" y="188.9795">+buildStorageOptimized(): unique_ptr&lt;Computer&gt;</text></g><g class="entity" data-entity="GMN11" data-source-line="79" data-uid="ent0012" id="entity_GMN11"><path d="M656.5,43.2969 L656.5,127.2969 L621.56,131.2969 L656.5,135.2969 L656.5,219.7578 A0,0 0 0 0 656.5,219.7578 L865.6382,219.7578 A0,0 0 0 0 865.6382,219.7578 L865.6382,53.2969 L855.6382,43.2969 L656.5,43.2969 A0,0 0 0 0 656.5,43.2969" fill="#FEFFDD" style="stroke:#181818;stroke-width:0.5;"/><path d="M855.6382,43.2969 L855.6382,53.2969 L865.6382,53.2969 L855.6382,43.2969" fill="#FEFFDD" style="stroke:#181818;stroke-width:0.5;"/><text fill="#000000" font-family="sans-serif" font-size="13" font-weight="bold" lengthAdjust="spacing" textLength="181.7651" x="662.5" y="60.3638">Director farkl&#305; olu&#351;turma</text><text fill="#000000" font-family="sans-serif" font-size="13" font-weight="bold" lengthAdjust="spacing" textLength="155.3716" x="662.5" y="75.4966">y&#246;ntemlerini y&#246;netir:</text><text fill="#000000" font-family="sans-serif" font-size="13" lengthAdjust="spacing" textLength="4.1323" x="662.5" y="90.6294">&#160;</text><text fill="#000000" font-family="sans-serif" font-size="13" lengthAdjust="spacing" textLength="141.4766" x="662.5" y="105.7622">&#8226; buildFullComputer()</text><text fill="#000000" font-family="sans-serif" font-size="13" lengthAdjust="spacing" textLength="111.4395" x="670.7646" y="120.895">&#8594; T&#252;m bile&#351;enler</text><text fill="#000000" font-family="sans-serif" font-size="13" lengthAdjust="spacing" textLength="4.1323" x="662.5" y="136.0278">&#160;</text><text fill="#000000" font-family="sans-serif" font-size="13" lengthAdjust="spacing" textLength="169.457" x="662.5" y="151.1606">&#8226; buildMinimalComputer()</text><text fill="#000000" font-family="sans-serif" font-size="13" lengthAdjust="spacing" textLength="141.502" x="670.7646" y="166.2935">&#8594; Sadece CPU + RAM</text><text fill="#000000" font-family="sans-serif" font-size="13" lengthAdjust="spacing" textLength="4.1323" x="662.5" y="181.4263">&#160;</text><text fill="#000000" font-family="sans-serif" font-size="13" lengthAdjust="spacing" textLength="171.3169" x="662.5" y="196.5591">&#8226; buildStorageOptimized()</text><text fill="#000000" font-family="sans-serif" font-size="13" lengthAdjust="spacing" textLength="179.8735" x="670.7646" y="211.6919">&#8594; CPU + RAM + 2x Storage</text></g><g class="entity" data-entity="GMN14" data-source-line="93" data-uid="ent0015" id="entity_GMN14"><path d="M459,319.2969 L459,435.2266 A0,0 0 0 0 459,435.2266 L736.8833,435.2266 A0,0 0 0 0 736.8833,435.2266 L736.8833,329.2969 L726.8833,319.2969 L563.81,319.2969 L477.61,196.0869 L555.81,319.2969 L459,319.2969 A0,0 0 0 0 459,319.2969" fill="#FEFFDD" style="stroke:#181818;stroke-width:0.5;"/><path d="M726.8833,319.2969 L726.8833,329.2969 L736.8833,329.2969 L726.8833,319.2969" fill="#FEFFDD" style="stroke:#181818;stroke-width:0.5;"/><text fill="#000000" font-family="sans-serif" font-size="13" font-weight="bold" lengthAdjust="spacing" textLength="118.1743" x="465" y="336.3638">&#214;rnek Kullan&#305;m:</text><text fill="#000000" font-family="sans-serif" font-size="13" lengthAdjust="spacing" textLength="176.395" x="465" y="351.4966">ComputerDirector director;</text><text fill="#000000" font-family="sans-serif" font-size="13" lengthAdjust="spacing" textLength="215.23" x="465" y="366.6294">GamingComputerBuilder builder;</text><text fill="#000000" font-family="sans-serif" font-size="13" lengthAdjust="spacing" textLength="4.1323" x="465" y="381.7622">&#160;</text><text fill="#000000" font-family="sans-serif" font-size="13" lengthAdjust="spacing" textLength="190.6963" x="465" y="396.895">director.setBuilder(&amp;builder);</text><text fill="#000000" font-family="sans-serif" font-size="13" lengthAdjust="spacing" textLength="256.8833" x="465" y="412.0278">auto pc = director.buildFullComputer();</text><text fill="#000000" font-family="sans-serif" font-size="13" lengthAdjust="spacing" textLength="79.1045" x="465" y="427.1606">pc-&gt;show();</text></g><g class="entity" data-entity="N1" data-source-line="102" data-uid="ent0017" id="entity_N1"><path d="M901,58.2969 L901,204.4922 L1121.3608,204.4922 L1121.3608,68.2969 L1111.3608,58.2969 L901,58.2969" fill="#FEFFDD" style="stroke:#181818;stroke-width:0.5;"/><path d="M1111.3608,58.2969 L1111.3608,68.2969 L1121.3608,68.2969 L1111.3608,58.2969" fill="#FEFFDD" style="stroke:#181818;stroke-width:1;"/><text fill="#000000" font-family="sans-serif" font-size="13" font-weight="bold" lengthAdjust="spacing" textLength="149.7666" x="907" y="75.3638">Ne Zaman Kullan&#305;l&#305;r:</text><text fill="#000000" font-family="sans-serif" font-size="13" lengthAdjust="spacing" textLength="199.3608" x="907" y="90.4966">&#8226; Karma&#351;&#305;k olu&#351;turma ad&#305;mlar&#305;</text><text fill="#000000" font-family="sans-serif" font-size="13" lengthAdjust="spacing" textLength="173.1831" x="907" y="105.6294">&#8226; Farkl&#305; olu&#351;turma vakalar&#305;</text><text fill="#000000" font-family="sans-serif" font-size="13" lengthAdjust="spacing" textLength="145.3931" x="907" y="120.7622">&#8226; Olu&#351;turma mant&#305;&#287;&#305;n&#305;</text><text fill="#000000" font-family="sans-serif" font-size="13" lengthAdjust="spacing" textLength="115.9907" x="915.2646" y="135.895">yeniden kullanma</text><text fill="#000000" font-family="sans-serif" font-size="13" lengthAdjust="spacing" textLength="4.1323" x="907" y="151.0278">&#160;</text><text fill="#000000" font-family="sans-serif" font-size="13" font-weight="bold" lengthAdjust="spacing" textLength="44.9922" x="907" y="166.1606">Zarar:</text><text fill="#000000" font-family="sans-serif" font-size="13" lengthAdjust="spacing" textLength="148.3701" x="907" y="181.2935">&#8226; Fazladan karma&#351;&#305;kl&#305;k</text><text fill="#000000" font-family="sans-serif" font-size="13" lengthAdjust="spacing" textLength="166.8735" x="907" y="196.4263">&#8226; &#199;o&#287;u durumda gereksiz</text></g><!--link ComputerBuilder to Computer--><g class="link" data-entity-1="ComputerBuilder" data-entity-2="Computer" data-source-line="73" data-uid="lnk7" id="link_ComputerBuilder_Computer"><path codeLine="73" d="M197.87,458.5269 C174.85,483.7669 153.8116,506.8523 132.0116,530.7723" fill="none" id="ComputerBuilder-to-Computer" style="stroke:#2C5F7C;stroke-width:1;stroke-dasharray:7.0,7.0;"/><polygon fill="#2C5F7C" points="127.97,535.2069,136.9888,531.2493,131.338,531.5114,131.076,525.8606,127.97,535.2069" style="stroke:#2C5F7C;stroke-width:1;"/><text fill="#000000" font-family="sans-serif" font-size="13" lengthAdjust="spacing" textLength="64.2319" x="172" y="501.3638">&#171;creates&#187;</text></g><!--reverse link ComputerBuilder to GamingComputerBuilder--><g class="link" data-entity-1="ComputerBuilder" data-entity-2="GamingComputerBuilder" data-source-line="74" data-uid="lnk8" id="link_ComputerBuilder_GamingComputerBuilder"><path codeLine="74" d="M271,476.5269 C271,504.5969 271,517.4869 271,543.1169" fill="none" id="ComputerBuilder-backto-GamingComputerBuilder" style="stroke:#2C5F7C;stroke-width:1;"/><polygon fill="none" points="271,458.5269,265,476.5269,277,476.5269,271,458.5269" style="stroke:#2C5F7C;stroke-width:1;"/></g><!--reverse link ComputerBuilder to OfficeComputerBuilder--><g class="link" data-entity-1="ComputerBuilder" data-entity-2="OfficeComputerBuilder" data-source-line="75" data-uid="lnk9" id="link_ComputerBuilder_OfficeComputerBuilder"><path codeLine="75" d="M369.2426,470.8688 C399.0426,498.9388 418.71,517.4869 445.91,543.1169" fill="none" id="ComputerBuilder-backto-OfficeComputerBuilder" style="stroke:#2C5F7C;stroke-width:1;"/><polygon fill="none" points="356.14,458.5269,365.1286,475.2363,373.3565,466.5013,356.14,458.5269" style="stroke:#2C5F7C;stroke-width:1;"/></g><!--link ComputerDirector to ComputerBuilder--><g class="link" data-entity-1="ComputerDirector" data-entity-2="ComputerBuilder" data-source-line="76" data-uid="lnk10" id="link_ComputerDirector_ComputerBuilder"><path codeLine="76" d="M385.4346,206.0454 C364.8346,236.6854 349.988,258.7878 328.128,291.2978" fill="none" id="ComputerDirector-ComputerBuilder" style="stroke:#2C5F7C;stroke-width:1;"/><polygon fill="none" points="392.13,196.0869,385.4628,198.8344,385.4346,206.0454,392.1018,203.2979,392.13,196.0869" style="stroke:#2C5F7C;stroke-width:1;"/><polygon fill="#2C5F7C" points="324.78,296.2769,333.1213,291.0403,327.57,292.1277,326.4826,286.5763,324.78,296.2769" style="stroke:#2C5F7C;stroke-width:1;"/><text fill="#000000" font-family="sans-serif" font-size="13" lengthAdjust="spacing" textLength="29.7832" x="354" y="262.3638">uses</text></g><g class="footer" data-source-line="104"><text fill="#888888" font-family="sans-serif" font-size="10" lengthAdjust="spacing" textLength="373.5107" x="370.425" y="680.0635">Olu&#351;turulma: 15.10.2025 | Versiyon: 1.0.01 | Pattern: Builder (Classic GoF)</text></g><!--SRC=[lLRDRjj64BxpAGO9K5aqf4X6ZGQoArHMAoCm4XjrMo210MD5hgGjoLrbTsbNJWBqrDvxw5L0dw2wvDIRv1V9atIMIrBYZntqKi4mfDblPxxvPZYSPmq7NFXcma8AuvY5FfMjMwPdBPz9wcaXs_Cu2XFCM38wWHCBWWkYDPKSMl1w_P67bEC5vZ4mZeAGA1R0Wk2N- -Lc5INtIQndGiBW1GoKOaeJhXExJpI5xc6xssaVT0uE4ziDbOe93jrs1tzR65MUP7Djp2Sn-6n1ff94EQ6v9THWlCH8RLPyivfiLeQRSLNuf5nFnGXOD0zfHBacQY5up6EOhZygTCfak-YpucL2P11Y14zmfMNi9Ipn6wRsCqQLZ3DOe0UgqPS3ZMUEevb6gJudv-Pl1EsTMPAlSq6RZgC2nkV4AE3XgHfeBTaurlG5ShXaTnGwEv0nyOAf537tXoB48ZmT9PyTX9eHNzmoFiLSGaKh_k6TOn8zAJlwxldeoz5pUoOaffBQ3uQ7ew-6YNqWfRWjcZyuJWCkfF1Hgcs171jfAA8v9YBJaFl3YnzxHamaPmtV3ruM3GeRbKnfqNXQkdPzdO9dudQlsOCRmNnBP30sfK8cQJKSaXcAXB9YMLvFlTJSWvYpjp6zdcjvd67xXPWb3tjDQtwN1VfW7pxCD6TM2y3C7mTSMYKU1vsMmqofpXYQWzfq4gM6WdkIwhnlLLgoKnAXpFKwxTUdLf_FmqbKc2CX6_nyCc4U_T-3D-3RT4O-sC4vm99ffHEsL-uejzYWL6Tzyk25AhjH78QVBU8M_X97KaJ-ourKc7CSmH7E5__nJi71nUwNWHb-JhaqxNP_-v3tuFWOUmedfUhtAz3ZzwrMVNVLGsjxmQdKGxHQ_SfZZUaegXo72snmoQOp3M9IgIKguhgvespmYp2-N-fOHiHr4uIPzff6fTdVIqxnxzElVq5DsHAvF_ts1_om_WUdDgftlwJSQ5YyLQbUVl6I-DIZW1qF-u0TNhfOBM9-Cx-2_mz-WHJfuAi8Z2AfBcEXjOWU56Rzf-GqW3FCYk0Z4Tc4A_fdsyKH7jRFZhJpZop_V1lPUJQ-I25DWy7bGi3SWw-tq1fv3NBkjVhs5N1Kpks9wxwYy8P4XESPO75DrQwuaV2CO87D2pZOAJWG7nCDYToiB6fKwGcu8G7PGPnlJp2MtgmsosI2N7601UNCfno2X414hlWLTzqt-2RUyXYHkv3uo3B82M70m1wkVnUR9Iv8iOmZdy2KIXeeTlS4Y89NNSUP266Ukun374QajxD_mNluoMnVk0BrpFxLxdJHbEudlNnXsHkQISSyipar_mK0]--></g></svg>