<?xml version="1.0" encoding="UTF-8" standalone="no"?><svg xmlns="http://www.w3.org/2000/svg" xmlns:xlink="http://www.w3.org/1999/xlink" contentScriptType="application/ecmascript" contentStyleType="text/css" height="705px" preserveAspectRatio="none" style="width:965px;height:705px;" version="1.1" viewBox="0 0 965 705" width="965px" zoomAndPan="magnify"><defs/><g><text fill="#000000" font-family="sans-serif" font-size="18" lengthAdjust="spacingAndGlyphs" textLength="417" x="277.5" y="19.2419">Builder Pattern - Yönlendirici İle (Klasik Yaklaşım)</text><!--MD5=[db25027423b3b96a5b12184dc6d389a4]
class Computer--><rect fill="#E8F4F8" height="122.9094" id="Computer" style="stroke: #2C5F7C; stroke-width: 1.5;" width="95" x="6" y="548.5158"/><ellipse cx="24.15" cy="564.5158" fill="#ADD1B2" rx="11" ry="11" style="stroke: #2C5F7C; stroke-width: 1.0;"/><path d="M27.1188,570.1565 Q26.5406,570.4533 25.9,570.594 Q25.2594,570.7502 24.5563,570.7502 Q22.0563,570.7502 20.7281,569.1096 Q19.4156,567.4533 19.4156,564.3283 Q19.4156,561.2033 20.7281,559.5471 Q22.0563,557.8908 24.5563,557.8908 Q25.2594,557.8908 25.9,558.0471 Q26.5563,558.2033 27.1188,558.5002 L27.1188,561.219 Q26.4938,560.6408 25.9,560.3752 Q25.3063,560.094 24.6813,560.094 Q23.3375,560.094 22.65,561.1721 Q21.9625,562.2346 21.9625,564.3283 Q21.9625,566.4221 22.65,567.5002 Q23.3375,568.5627 24.6813,568.5627 Q25.3063,568.5627 25.9,568.2971 Q26.4938,568.0158 27.1188,567.4377 L27.1188,570.1565 Z "/><text fill="#000000" font-family="sans-serif" font-size="12" lengthAdjust="spacingAndGlyphs" textLength="56" x="38.85" y="569.1719">Computer</text><line style="stroke: #2C5F7C; stroke-width: 1.5;" x1="7" x2="100" y1="580.5158" y2="580.5158"/><text fill="#000000" font-family="sans-serif" font-size="11" lengthAdjust="spacingAndGlyphs" textLength="65" x="12" y="596.2748">+CPU: string</text><text fill="#000000" font-family="sans-serif" font-size="11" lengthAdjust="spacingAndGlyphs" textLength="67" x="12" y="611.2566">+RAM: string</text><text fill="#000000" font-family="sans-serif" font-size="11" lengthAdjust="spacingAndGlyphs" textLength="83" x="12" y="626.2385">+storage: string</text><text fill="#000000" font-family="sans-serif" font-size="11" lengthAdjust="spacingAndGlyphs" textLength="66" x="12" y="641.2204">+GPU: string</text><line style="stroke: #2C5F7C; stroke-width: 1.5;" x1="7" x2="100" y1="648.4434" y2="648.4434"/><text fill="#000000" font-family="sans-serif" font-size="11" lengthAdjust="spacingAndGlyphs" textLength="69" x="12" y="664.2023">+show(): void</text><!--MD5=[f525174934fa869d5331376a0721a932]
class ComputerBuilder--><rect fill="#E8F4F8" height="152.8732" id="ComputerBuilder" style="stroke: #2C5F7C; stroke-width: 1.5;" width="223" x="111" y="316.5158"/><ellipse cx="172.25" cy="332.5158" fill="#A9DCDF" rx="11" ry="11" style="stroke: #2C5F7C; stroke-width: 1.0;"/><path d="M172.3594,327.8596 L171.2031,332.9377 L173.5313,332.9377 L172.3594,327.8596 Z M170.875,325.6252 L173.8594,325.6252 L177.2188,338.0158 L174.7656,338.0158 L174,334.9533 L170.7188,334.9533 L169.9688,338.0158 L167.5313,338.0158 L170.875,325.6252 Z "/><text fill="#000000" font-family="sans-serif" font-size="12" font-style="italic" lengthAdjust="spacingAndGlyphs" textLength="92" x="192.75" y="337.1719">ComputerBuilder</text><line style="stroke: #2C5F7C; stroke-width: 1.5;" x1="112" x2="333" y1="348.5158" y2="348.5158"/><text fill="#000000" font-family="sans-serif" font-size="11" lengthAdjust="spacingAndGlyphs" textLength="187" x="117" y="364.2748">#computer: unique_ptr&lt;Computer&gt;</text><line style="stroke: #2C5F7C; stroke-width: 1.5;" x1="112" x2="333" y1="371.4977" y2="371.4977"/><text fill="#000000" font-family="sans-serif" font-size="11" lengthAdjust="spacingAndGlyphs" textLength="103" x="117" y="387.2566">+ComputerBuilder()</text><text fill="#000000" font-family="sans-serif" font-size="11" font-style="italic" lengthAdjust="spacingAndGlyphs" textLength="81" x="117" y="402.2385">+buildCPU(): void</text><text fill="#000000" font-family="sans-serif" font-size="11" font-style="italic" lengthAdjust="spacingAndGlyphs" textLength="83" x="117" y="417.2204">+buildRAM(): void</text><text fill="#000000" font-family="sans-serif" font-size="11" font-style="italic" lengthAdjust="spacingAndGlyphs" textLength="99" x="117" y="432.2023">+buildStorage(): void</text><text fill="#000000" font-family="sans-serif" font-size="11" font-style="italic" lengthAdjust="spacingAndGlyphs" textLength="82" x="117" y="447.1842">+buildGPU(): void</text><text fill="#000000" font-family="sans-serif" font-size="11" lengthAdjust="spacingAndGlyphs" textLength="211" x="117" y="462.1661">+getComputer(): unique_ptr&lt;Computer&gt;</text><!--MD5=[0a4c8d2d4acea110ff40d669ef0d71ac]
class GamingComputerBuilder--><rect fill="#E8F4F8" height="107.9276" id="GamingComputerBuilder" style="stroke: #2C5F7C; stroke-width: 1.5;" width="172" x="136.5" y="556.0158"/><ellipse cx="151.5" cy="572.0158" fill="#ADD1B2" rx="11" ry="11" style="stroke: #2C5F7C; stroke-width: 1.0;"/><path d="M154.4688,577.6565 Q153.8906,577.9533 153.25,578.094 Q152.6094,578.2502 151.9063,578.2502 Q149.4063,578.2502 148.0781,576.6096 Q146.7656,574.9533 146.7656,571.8283 Q146.7656,568.7033 148.0781,567.0471 Q149.4063,565.3908 151.9063,565.3908 Q152.6094,565.3908 153.25,565.5471 Q153.9063,565.7033 154.4688,566.0002 L154.4688,568.719 Q153.8438,568.1408 153.25,567.8752 Q152.6563,567.594 152.0313,567.594 Q150.6875,567.594 150,568.6721 Q149.3125,569.7346 149.3125,571.8283 Q149.3125,573.9221 150,575.0002 Q150.6875,576.0627 152.0313,576.0627 Q152.6563,576.0627 153.25,575.7971 Q153.8438,575.5158 154.4688,574.9377 L154.4688,577.6565 Z "/><text fill="#000000" font-family="sans-serif" font-size="12" lengthAdjust="spacingAndGlyphs" textLength="140" x="165.5" y="576.6719">GamingComputerBuilder</text><line style="stroke: #2C5F7C; stroke-width: 1.5;" x1="137.5" x2="307.5" y1="588.0158" y2="588.0158"/><line style="stroke: #2C5F7C; stroke-width: 1.5;" x1="137.5" x2="307.5" y1="596.0158" y2="596.0158"/><text fill="#000000" font-family="sans-serif" font-size="11" lengthAdjust="spacingAndGlyphs" textLength="90" x="142.5" y="611.7748">+buildCPU(): void</text><text fill="#000000" font-family="sans-serif" font-size="11" lengthAdjust="spacingAndGlyphs" textLength="92" x="142.5" y="626.7566">+buildRAM(): void</text><text fill="#000000" font-family="sans-serif" font-size="11" lengthAdjust="spacingAndGlyphs" textLength="109" x="142.5" y="641.7385">+buildStorage(): void</text><text fill="#000000" font-family="sans-serif" font-size="11" lengthAdjust="spacingAndGlyphs" textLength="91" x="142.5" y="656.7204">+buildGPU(): void</text><!--MD5=[51f2732c748027e0bdd4b44a442c42bf]
class OfficeComputerBuilder--><rect fill="#E8F4F8" height="107.9276" id="OfficeComputerBuilder" style="stroke: #2C5F7C; stroke-width: 1.5;" width="161" x="344" y="556.0158"/><ellipse cx="359" cy="572.0158" fill="#ADD1B2" rx="11" ry="11" style="stroke: #2C5F7C; stroke-width: 1.0;"/><path d="M361.9688,577.6565 Q361.3906,577.9533 360.75,578.094 Q360.1094,578.2502 359.4063,578.2502 Q356.9063,578.2502 355.5781,576.6096 Q354.2656,574.9533 354.2656,571.8283 Q354.2656,568.7033 355.5781,567.0471 Q356.9063,565.3908 359.4063,565.3908 Q360.1094,565.3908 360.75,565.5471 Q361.4063,565.7033 361.9688,566.0002 L361.9688,568.719 Q361.3438,568.1408 360.75,567.8752 Q360.1563,567.594 359.5313,567.594 Q358.1875,567.594 357.5,568.6721 Q356.8125,569.7346 356.8125,571.8283 Q356.8125,573.9221 357.5,575.0002 Q358.1875,576.0627 359.5313,576.0627 Q360.1563,576.0627 360.75,575.7971 Q361.3438,575.5158 361.9688,574.9377 L361.9688,577.6565 Z "/><text fill="#000000" font-family="sans-serif" font-size="12" lengthAdjust="spacingAndGlyphs" textLength="129" x="373" y="576.6719">OfficeComputerBuilder</text><line style="stroke: #2C5F7C; stroke-width: 1.5;" x1="345" x2="504" y1="588.0158" y2="588.0158"/><line style="stroke: #2C5F7C; stroke-width: 1.5;" x1="345" x2="504" y1="596.0158" y2="596.0158"/><text fill="#000000" font-family="sans-serif" font-size="11" lengthAdjust="spacingAndGlyphs" textLength="90" x="350" y="611.7748">+buildCPU(): void</text><text fill="#000000" font-family="sans-serif" font-size="11" lengthAdjust="spacingAndGlyphs" textLength="92" x="350" y="626.7566">+buildRAM(): void</text><text fill="#000000" font-family="sans-serif" font-size="11" lengthAdjust="spacingAndGlyphs" textLength="109" x="350" y="641.7385">+buildStorage(): void</text><text fill="#000000" font-family="sans-serif" font-size="11" lengthAdjust="spacingAndGlyphs" textLength="91" x="350" y="656.7204">+buildGPU(): void</text><!--MD5=[73d67a2dfe7f687ae9fc74bd1a6ee2e8]
class ComputerDirector--><rect fill="#E8F4F8" height="122.9094" id="ComputerDirector" style="stroke: #2C5F7C; stroke-width: 1.5;" width="275" x="222" y="73.5158"/><ellipse cx="304.25" cy="89.5158" fill="#ADD1B2" rx="11" ry="11" style="stroke: #2C5F7C; stroke-width: 1.0;"/><path d="M307.2188,95.1565 Q306.6406,95.4533 306,95.594 Q305.3594,95.7502 304.6563,95.7502 Q302.1563,95.7502 300.8281,94.1096 Q299.5156,92.4533 299.5156,89.3283 Q299.5156,86.2033 300.8281,84.5471 Q302.1563,82.8908 304.6563,82.8908 Q305.3594,82.8908 306,83.0471 Q306.6563,83.2033 307.2188,83.5002 L307.2188,86.219 Q306.5938,85.6408 306,85.3752 Q305.4063,85.094 304.7813,85.094 Q303.4375,85.094 302.75,86.1721 Q302.0625,87.2346 302.0625,89.3283 Q302.0625,91.4221 302.75,92.5002 Q303.4375,93.5627 304.7813,93.5627 Q305.4063,93.5627 306,93.2971 Q306.5938,93.0158 307.2188,92.4377 L307.2188,95.1565 Z "/><text fill="#000000" font-family="sans-serif" font-size="12" lengthAdjust="spacingAndGlyphs" textLength="102" x="324.75" y="94.1719">ComputerDirector</text><line style="stroke: #2C5F7C; stroke-width: 1.5;" x1="223" x2="496" y1="105.5158" y2="105.5158"/><text fill="#000000" font-family="sans-serif" font-size="11" lengthAdjust="spacingAndGlyphs" textLength="145" x="228" y="121.2748">-builder: ComputerBuilder*</text><line style="stroke: #2C5F7C; stroke-width: 1.5;" x1="223" x2="496" y1="128.4977" y2="128.4977"/><text fill="#000000" font-family="sans-serif" font-size="11" lengthAdjust="spacingAndGlyphs" textLength="235" x="228" y="144.2566">+setBuilder(builder: ComputerBuilder*): void</text><text fill="#000000" font-family="sans-serif" font-size="11" lengthAdjust="spacingAndGlyphs" textLength="240" x="228" y="159.2385">+buildFullComputer(): unique_ptr&lt;Computer&gt;</text><text fill="#000000" font-family="sans-serif" font-size="11" lengthAdjust="spacingAndGlyphs" textLength="263" x="228" y="174.2204">+buildMinimalComputer(): unique_ptr&lt;Computer&gt;</text><text fill="#000000" font-family="sans-serif" font-size="11" lengthAdjust="spacingAndGlyphs" textLength="263" x="228" y="189.2023">+buildStorageOptimized(): unique_ptr&lt;Computer&gt;</text><path d="M532.5,32.5158 L532.5,131.0158 L497.18,135.0158 L532.5,139.0158 L532.5,237.282 A0,0 0 0 0 532.5,237.282 L718.5,237.282 A0,0 0 0 0 718.5,237.282 L718.5,42.5158 L708.5,32.5158 L532.5,32.5158 A0,0 0 0 0 532.5,32.5158 " fill="#FBFB77" style="stroke: #A80036; stroke-width: 1.0;"/><path d="M708.5,32.5158 L708.5,42.5158 L718.5,42.5158 L708.5,32.5158 " fill="#FBFB77" style="stroke: #A80036; stroke-width: 1.0;"/><text fill="#000000" font-family="sans-serif" font-size="13" font-weight="bold" lengthAdjust="spacingAndGlyphs" textLength="165" x="538.5" y="51.4129">Director farklı oluşturma</text><text fill="#000000" font-family="sans-serif" font-size="13" font-weight="bold" lengthAdjust="spacingAndGlyphs" textLength="141" x="538.5" y="69.1189">yöntemlerini yönetir:</text><text fill="#000000" font-family="sans-serif" font-size="13" lengthAdjust="spacingAndGlyphs" textLength="0" x="541.5" y="86.8249"/><text fill="#000000" font-family="sans-serif" font-size="13" lengthAdjust="spacingAndGlyphs" textLength="128" x="538.5" y="104.5309">• buildFullComputer()</text><text fill="#000000" font-family="sans-serif" font-size="13" lengthAdjust="spacingAndGlyphs" textLength="100" x="544.5" y="122.2369">→ Tüm bileşenler</text><text fill="#000000" font-family="sans-serif" font-size="13" lengthAdjust="spacingAndGlyphs" textLength="0" x="541.5" y="139.9429"/><text fill="#000000" font-family="sans-serif" font-size="13" lengthAdjust="spacingAndGlyphs" textLength="155" x="538.5" y="157.649">• buildMinimalComputer()</text><text fill="#000000" font-family="sans-serif" font-size="13" lengthAdjust="spacingAndGlyphs" textLength="125" x="544.5" y="175.355">→ Sadece CPU + RAM</text><text fill="#000000" font-family="sans-serif" font-size="13" lengthAdjust="spacingAndGlyphs" textLength="0" x="541.5" y="193.061"/><text fill="#000000" font-family="sans-serif" font-size="13" lengthAdjust="spacingAndGlyphs" textLength="155" x="538.5" y="210.767">• buildStorageOptimized()</text><text fill="#000000" font-family="sans-serif" font-size="13" lengthAdjust="spacingAndGlyphs" textLength="157" x="544.5" y="228.473">→ CPU + RAM + 2x Storage</text><path d="M369.5,326.0158 L369.5,459.958 A0,0 0 0 0 369.5,459.958 L621.5,459.958 A0,0 0 0 0 621.5,459.958 L621.5,336.0158 L611.5,326.0158 L464.4,326.0158 L391.73,196.6858 L456.4,326.0158 L369.5,326.0158 A0,0 0 0 0 369.5,326.0158 " fill="#FBFB77" style="stroke: #A80036; stroke-width: 1.0;"/><path d="M611.5,326.0158 L611.5,336.0158 L621.5,336.0158 L611.5,326.0158 " fill="#FBFB77" style="stroke: #A80036; stroke-width: 1.0;"/><text fill="#000000" font-family="sans-serif" font-size="13" font-weight="bold" lengthAdjust="spacingAndGlyphs" textLength="108" x="375.5" y="344.9129">Örnek Kullanım:</text><text fill="#000000" font-family="sans-serif" font-size="13" lengthAdjust="spacingAndGlyphs" textLength="162" x="375.5" y="362.6189">ComputerDirector director;</text><text fill="#000000" font-family="sans-serif" font-size="13" lengthAdjust="spacingAndGlyphs" textLength="198" x="375.5" y="380.3249">GamingComputerBuilder builder;</text><text fill="#000000" font-family="sans-serif" font-size="13" lengthAdjust="spacingAndGlyphs" textLength="0" x="378.5" y="398.0309"/><text fill="#000000" font-family="sans-serif" font-size="13" lengthAdjust="spacingAndGlyphs" textLength="173" x="375.5" y="415.7369">director.setBuilder(&amp;builder);</text><text fill="#000000" font-family="sans-serif" font-size="13" lengthAdjust="spacingAndGlyphs" textLength="231" x="375.5" y="433.4429">auto pc = director.buildFullComputer();</text><text fill="#000000" font-family="sans-serif" font-size="13" lengthAdjust="spacingAndGlyphs" textLength="68" x="375.5" y="451.149">pc-&gt;show();</text><path d="M753.5,50.5158 L753.5,219.87 L953.5,219.87 L953.5,60.5158 L943.5,50.5158 L753.5,50.5158 " fill="#FBFB77" style="stroke: #A80036; stroke-width: 1.0;"/><path d="M943.5,50.5158 L943.5,60.5158 L953.5,60.5158 L943.5,50.5158 " fill="#FBFB77" style="stroke: #A80036; stroke-width: 1.0;"/><text fill="#000000" font-family="sans-serif" font-size="13" font-weight="bold" lengthAdjust="spacingAndGlyphs" textLength="136" x="759.5" y="69.4129">Ne Zaman Kullanılır:</text><text fill="#000000" font-family="sans-serif" font-size="13" lengthAdjust="spacingAndGlyphs" textLength="179" x="759.5" y="87.1189">• Karmaşık oluşturma adımları</text><text fill="#000000" font-family="sans-serif" font-size="13" lengthAdjust="spacingAndGlyphs" textLength="154" x="759.5" y="104.8249">• Farklı oluşturma vakaları</text><text fill="#000000" font-family="sans-serif" font-size="13" lengthAdjust="spacingAndGlyphs" textLength="132" x="759.5" y="122.5309">• Oluşturma mantığını</text><text fill="#000000" font-family="sans-serif" font-size="13" lengthAdjust="spacingAndGlyphs" textLength="106" x="765.5" y="140.2369">yeniden kullanma</text><text fill="#000000" font-family="sans-serif" font-size="13" lengthAdjust="spacingAndGlyphs" textLength="0" x="762.5" y="157.9429"/><text fill="#000000" font-family="sans-serif" font-size="13" font-weight="bold" lengthAdjust="spacingAndGlyphs" textLength="40" x="759.5" y="175.649">Zarar:</text><text fill="#000000" font-family="sans-serif" font-size="13" lengthAdjust="spacingAndGlyphs" textLength="131" x="759.5" y="193.355">• Fazladan karmaşıklık</text><text fill="#000000" font-family="sans-serif" font-size="13" lengthAdjust="spacingAndGlyphs" textLength="151" x="759.5" y="211.061">• Çoğu durumda gereksiz</text><!--MD5=[853c339bb681e27a313115bc0a24932b]
link ComputerBuilder to Computer--><path d="M162.92,469.8158 C143.78,494.1558 122.78,520.8858 104.33,544.3558 " fill="none" id="ComputerBuilder-&gt;Computer" style="stroke: #2C5F7C; stroke-width: 1.0; stroke-dasharray: 7.0,7.0;"/><polygon fill="#2C5F7C" points="101.15,548.3958,109.8652,543.8084,104.2473,544.4707,103.585,538.8527,101.15,548.3958" style="stroke: #2C5F7C; stroke-width: 1.0;"/><text fill="#000000" font-family="sans-serif" font-size="13" lengthAdjust="spacingAndGlyphs" textLength="57" x="139.5" y="514.4129">«creates»</text><!--MD5=[d6427cb03c080cfc3cb055773e17dd98]
reverse link ComputerBuilder to GamingComputerBuilder--><path d="M222.5,489.8658 C222.5,512.5158 222.5,535.8558 222.5,555.8158 " fill="none" id="ComputerBuilder&lt;-GamingComputerBuilder" style="stroke: #2C5F7C; stroke-width: 1.0;"/><polygon fill="none" points="215.5,489.8158,222.5,469.8158,229.5,489.8158,215.5,489.8158" style="stroke: #2C5F7C; stroke-width: 1.0;"/><!--MD5=[18986240f59ec754e46ac022a50eba92]
reverse link ComputerBuilder to OfficeComputerBuilder--><path d="M307.71,484.7058 C330.48,508.9358 354.34,534.3358 374.52,555.8158 " fill="none" id="ComputerBuilder&lt;-OfficeComputerBuilder" style="stroke: #2C5F7C; stroke-width: 1.0;"/><polygon fill="none" points="302.31,489.1858,293.72,469.8158,312.51,479.5958,302.31,489.1858" style="stroke: #2C5F7C; stroke-width: 1.0;"/><!--MD5=[b2137f2e09f4f98835ac0025b57745fd]
link ComputerDirector to ComputerBuilder--><path d="M321.3597,207.2616 C321.3597,207.2616 286.15,273.0858 269.39,304.3958 " fill="none" id="ComputerDirector-ComputerBuilder" style="stroke: #2C5F7C; stroke-width: 1.0;"/><polygon fill="#2C5F7C" points="263.07,316.1958,270.848,310.1541,265.4326,311.7893,263.7975,306.3739,263.07,316.1958" style="stroke: #2C5F7C; stroke-width: 1.0;"/><line style="stroke: #2C5F7C; stroke-width: 1.0;" x1="265.4326" x2="269.21" y1="311.7893" y2="304.7358"/><polygon fill="#FFFFFF" points="327.03,196.6858,320.6696,200.0836,321.3597,207.2616,327.7201,203.8639,327.03,196.6858" style="stroke: #2C5F7C; stroke-width: 1.0;"/><text fill="#000000" font-family="sans-serif" font-size="13" lengthAdjust="spacingAndGlyphs" textLength="27" x="288.5" y="282.4129">uses</text><text fill="#888888" font-family="sans-serif" font-size="10" lengthAdjust="spacingAndGlyphs" textLength="344" x="314" y="692.2058">Oluşturulma: 15.10.2025 | Sürüm: 1.0.1 | Pattern: Builder (Classic GoF)</text><!--MD5=[aec4639bfac57c8de89c00dfcb214498]
@startuml

title Builder Pattern - Yönlendirici İle (Klasik Yaklaşım)

skinparam classAttributeIconSize 0
skinparam backgroundColor #FFFFFF
skinparam shadowing false

skinparam class {
    BackgroundColor #E8F4F8
    BorderColor #2C5F7C
    ArrowColor #2C5F7C
}

class Computer {
    +CPU: string
    +RAM: string
    +storage: string
    +GPU: string
    __
    +show(): void
}

abstract class ComputerBuilder {
    #computer: unique_ptr<Computer>
    __
    +ComputerBuilder()
    +{abstract} buildCPU(): void
    +{abstract} buildRAM(): void
    +{abstract} buildStorage(): void
    +{abstract} buildGPU(): void
    +getComputer(): unique_ptr<Computer>
}

class GamingComputerBuilder {
    +buildCPU(): void
    +buildRAM(): void
    +buildStorage(): void
    +buildGPU(): void
}

class OfficeComputerBuilder {
    +buildCPU(): void
    +buildRAM(): void
    +buildStorage(): void
    +buildGPU(): void
}

class ComputerDirector {
    -builder: ComputerBuilder*
    __
    +setBuilder(builder: ComputerBuilder*): void
    +buildFullComputer(): unique_ptr<Computer>
    +buildMinimalComputer(): unique_ptr<Computer>
    +buildStorageOptimized(): unique_ptr<Computer>
}

ComputerBuilder ..> Computer : <<creates>>
ComputerBuilder <|- - GamingComputerBuilder
ComputerBuilder <|- - OfficeComputerBuilder
ComputerDirector o- -> ComputerBuilder : uses

note right of ComputerDirector
  **Director farklı oluşturma**
  **yöntemlerini yönetir:**
  
  • buildFullComputer()
    → Tüm bileşenler
  
  • buildMinimalComputer()
    → Sadece CPU + RAM
  
  • buildStorageOptimized()
    → CPU + RAM + 2x Storage
end note

note bottom of ComputerDirector
  **Örnek Kullanım:**
  ComputerDirector director;
  GamingComputerBuilder builder;
  
  director.setBuilder(&builder);
  auto pc = director.buildFullComputer();
  pc->show();
end note

note "**Ne Zaman Kullanılır:**\n• Karmaşık oluşturma adımları\n• Farklı oluşturma vakaları\n• Oluşturma mantığını\n  yeniden kullanma\n\n**Zarar:**\n• Fazladan karmaşıklık\n• Çoğu durumda gereksiz" as N1

footer Oluşturulma: 15.10.2025 | Sürüm: 1.0.1 | Pattern: Builder (Classic GoF)

@enduml

PlantUML version 1.2020.02(Sun Mar 01 13:22:07 TRT 2020)
(GPL source distribution)
Java Runtime: OpenJDK Runtime Environment
JVM: OpenJDK 64-Bit Server VM
Java Version: 21.0.8+9-Ubuntu-0ubuntu124.04.1
Operating System: Linux
Default Encoding: UTF-8
Language: en
Country: US
--></g></svg>