<?xml version="1.0" encoding="UTF-8" standalone="no"?><svg xmlns="http://www.w3.org/2000/svg" xmlns:xlink="http://www.w3.org/1999/xlink" contentScriptType="application/ecmascript" contentStyleType="text/css" height="638px" preserveAspectRatio="none" style="width:1292px;height:638px;" version="1.1" viewBox="0 0 1292 638" width="1292px" zoomAndPan="magnify"><defs/><g><text fill="#000000" font-family="sans-serif" font-size="18" lengthAdjust="spacingAndGlyphs" textLength="513" x="388.5" y="19.2419">Bridge Pattern: Şekil-Renk vs Kumanda-Cihaz Karşılaştırması</text><!--MD5=[01e72e3afb7a4b8b79a2790f929903a4]
cluster Vaka A: Şekil <-> Renk--><polygon fill="#F0F7FA" points="341,48.5158,500,48.5158,507,73.5838,842,73.5838,842,461.5158,341,461.5158,341,48.5158" style="stroke: #2C5F7C; stroke-width: 1.5;"/><line style="stroke: #2C5F7C; stroke-width: 1.5;" x1="341" x2="507" y1="73.5838" y2="73.5838"/><text fill="#000000" font-family="sans-serif" font-size="14" font-weight="bold" lengthAdjust="spacingAndGlyphs" textLength="153" x="345" y="65.4818">Vaka A: Şekil &lt;-&gt; Renk</text><!--MD5=[238048b8ee1e7c5ede69a6205662297c]
cluster Vaka B: Kumanda <-> Cihaz--><polygon fill="#F7F1FF" points="866,48.5158,1059,48.5158,1066,73.5838,1256,73.5838,1256,461.5158,866,461.5158,866,48.5158" style="stroke: #2C5F7C; stroke-width: 1.5;"/><line style="stroke: #2C5F7C; stroke-width: 1.5;" x1="866" x2="1066" y1="73.5838" y2="73.5838"/><text fill="#000000" font-family="sans-serif" font-size="14" font-weight="bold" lengthAdjust="spacingAndGlyphs" textLength="187" x="870" y="65.4818">Vaka B: Kumanda &lt;-&gt; Cihaz</text><!--MD5=[18eee71c88ab61f27581b8cbdd3ef5ee]
class Color--><rect fill="#FFFFFF" height="58.6882" id="Color" style="stroke: #2C5F7C; stroke-width: 1.5;" width="111" x="356.5" y="255.5158"/><ellipse cx="371.5" cy="276.86" fill="#B4A7E5" rx="11" ry="11" style="stroke: #2C5F7C; stroke-width: 1.0;"/><path d="M367.4219,272.6256 L367.4219,270.4693 L374.8125,270.4693 L374.8125,272.6256 L372.3438,272.6256 L372.3438,280.7037 L374.8125,280.7037 L374.8125,282.86 L367.4219,282.86 L367.4219,280.7037 L369.8906,280.7037 L369.8906,272.6256 L367.4219,272.6256 Z "/><text fill="#000000" font-family="sans-serif" font-size="12" font-style="italic" lengthAdjust="spacingAndGlyphs" textLength="83" x="383.5" y="273.3439">«Implementor»</text><text fill="#000000" font-family="sans-serif" font-size="12" font-style="italic" lengthAdjust="spacingAndGlyphs" textLength="29" x="410.5" y="289.6881">Color</text><line style="stroke: #2C5F7C; stroke-width: 1.5;" x1="357.5" x2="466.5" y1="298.2041" y2="298.2041"/><line style="stroke: #2C5F7C; stroke-width: 1.5;" x1="357.5" x2="466.5" y1="306.2041" y2="306.2041"/><!--MD5=[08be530975453a47bdc5b5370100f2fc]
class Red--><rect fill="#FFFFFF" height="58.6882" id="Red" style="stroke: #2C5F7C; stroke-width: 1.5;" width="161" x="357.5" y="386.5158"/><ellipse cx="372.5" cy="407.86" fill="#ADD1B2" rx="11" ry="11" style="stroke: #2C5F7C; stroke-width: 1.0;"/><path d="M375.4688,413.5006 Q374.8906,413.7975 374.25,413.9381 Q373.6094,414.0943 372.9063,414.0943 Q370.4063,414.0943 369.0781,412.4537 Q367.7656,410.7975 367.7656,407.6725 Q367.7656,404.5475 369.0781,402.8912 Q370.4063,401.235 372.9063,401.235 Q373.6094,401.235 374.25,401.3912 Q374.9063,401.5475 375.4688,401.8443 L375.4688,404.5631 Q374.8438,403.985 374.25,403.7193 Q373.6563,403.4381 373.0313,403.4381 Q371.6875,403.4381 371,404.5162 Q370.3125,405.5787 370.3125,407.6725 Q370.3125,409.7662 371,410.8443 Q371.6875,411.9068 373.0313,411.9068 Q373.6563,411.9068 374.25,411.6412 Q374.8438,411.36 375.4688,410.7818 L375.4688,413.5006 Z "/><text fill="#000000" font-family="sans-serif" font-size="12" font-style="italic" lengthAdjust="spacingAndGlyphs" textLength="133" x="384.5" y="404.3439">«Concrete Implementor»</text><text fill="#000000" font-family="sans-serif" font-size="12" lengthAdjust="spacingAndGlyphs" textLength="21" x="440.5" y="420.6881">Red</text><line style="stroke: #2C5F7C; stroke-width: 1.5;" x1="358.5" x2="517.5" y1="429.2041" y2="429.2041"/><line style="stroke: #2C5F7C; stroke-width: 1.5;" x1="358.5" x2="517.5" y1="437.2041" y2="437.2041"/><!--MD5=[e5fcaaf7dd279fcaa419853012f8d36f]
class Blue--><rect fill="#FFFFFF" height="58.6882" id="Blue" style="stroke: #2C5F7C; stroke-width: 1.5;" width="161" x="553.5" y="386.5158"/><ellipse cx="568.5" cy="407.86" fill="#ADD1B2" rx="11" ry="11" style="stroke: #2C5F7C; stroke-width: 1.0;"/><path d="M571.4688,413.5006 Q570.8906,413.7975 570.25,413.9381 Q569.6094,414.0943 568.9063,414.0943 Q566.4063,414.0943 565.0781,412.4537 Q563.7656,410.7975 563.7656,407.6725 Q563.7656,404.5475 565.0781,402.8912 Q566.4063,401.235 568.9063,401.235 Q569.6094,401.235 570.25,401.3912 Q570.9063,401.5475 571.4688,401.8443 L571.4688,404.5631 Q570.8438,403.985 570.25,403.7193 Q569.6563,403.4381 569.0313,403.4381 Q567.6875,403.4381 567,404.5162 Q566.3125,405.5787 566.3125,407.6725 Q566.3125,409.7662 567,410.8443 Q567.6875,411.9068 569.0313,411.9068 Q569.6563,411.9068 570.25,411.6412 Q570.8438,411.36 571.4688,410.7818 L571.4688,413.5006 Z "/><text fill="#000000" font-family="sans-serif" font-size="12" font-style="italic" lengthAdjust="spacingAndGlyphs" textLength="133" x="580.5" y="404.3439">«Concrete Implementor»</text><text fill="#000000" font-family="sans-serif" font-size="12" lengthAdjust="spacingAndGlyphs" textLength="25" x="634.5" y="420.6881">Blue</text><line style="stroke: #2C5F7C; stroke-width: 1.5;" x1="554.5" x2="713.5" y1="429.2041" y2="429.2041"/><line style="stroke: #2C5F7C; stroke-width: 1.5;" x1="554.5" x2="713.5" y1="437.2041" y2="437.2041"/><!--MD5=[426e75666daf533f17226ff4c87e20fd]
class Shape--><rect fill="#FFFFFF" height="58.6882" id="Shape" style="stroke: #2C5F7C; stroke-width: 1.5;" width="101" x="524.5" y="86.5158"/><ellipse cx="539.5" cy="107.86" fill="#A9DCDF" rx="11" ry="11" style="stroke: #2C5F7C; stroke-width: 1.0;"/><path d="M539.6094,103.2037 L538.4531,108.2818 L540.7813,108.2818 L539.6094,103.2037 Z M538.125,100.9693 L541.1094,100.9693 L544.4688,113.36 L542.0156,113.36 L541.25,110.2975 L537.9688,110.2975 L537.2188,113.36 L534.7813,113.36 L538.125,100.9693 Z "/><text fill="#000000" font-family="sans-serif" font-size="12" font-style="italic" lengthAdjust="spacingAndGlyphs" textLength="73" x="551.5" y="104.3439">«Abstraction»</text><text fill="#000000" font-family="sans-serif" font-size="12" font-style="italic" lengthAdjust="spacingAndGlyphs" textLength="33" x="571.5" y="120.6881">Shape</text><line style="stroke: #2C5F7C; stroke-width: 1.5;" x1="525.5" x2="624.5" y1="129.2041" y2="129.2041"/><line style="stroke: #2C5F7C; stroke-width: 1.5;" x1="525.5" x2="624.5" y1="137.2041" y2="137.2041"/><!--MD5=[a7f9118cae7621dd25d25149752faef0]
class Circle--><rect fill="#FFFFFF" height="58.6882" id="Circle" style="stroke: #2C5F7C; stroke-width: 1.5;" width="144" x="503" y="255.5158"/><ellipse cx="518" cy="276.86" fill="#ADD1B2" rx="11" ry="11" style="stroke: #2C5F7C; stroke-width: 1.0;"/><path d="M520.9688,282.5006 Q520.3906,282.7975 519.75,282.9381 Q519.1094,283.0943 518.4063,283.0943 Q515.9063,283.0943 514.5781,281.4537 Q513.2656,279.7975 513.2656,276.6725 Q513.2656,273.5475 514.5781,271.8912 Q515.9063,270.235 518.4063,270.235 Q519.1094,270.235 519.75,270.3912 Q520.4063,270.5475 520.9688,270.8443 L520.9688,273.5631 Q520.3438,272.985 519.75,272.7193 Q519.1563,272.4381 518.5313,272.4381 Q517.1875,272.4381 516.5,273.5162 Q515.8125,274.5787 515.8125,276.6725 Q515.8125,278.7662 516.5,279.8443 Q517.1875,280.9068 518.5313,280.9068 Q519.1563,280.9068 519.75,280.6412 Q520.3438,280.36 520.9688,279.7818 L520.9688,282.5006 Z "/><text fill="#000000" font-family="sans-serif" font-size="12" font-style="italic" lengthAdjust="spacingAndGlyphs" textLength="116" x="530" y="273.3439">«Refined Abstraction»</text><text fill="#000000" font-family="sans-serif" font-size="12" lengthAdjust="spacingAndGlyphs" textLength="32" x="572" y="289.6881">Circle</text><line style="stroke: #2C5F7C; stroke-width: 1.5;" x1="504" x2="646" y1="298.2041" y2="298.2041"/><line style="stroke: #2C5F7C; stroke-width: 1.5;" x1="504" x2="646" y1="306.2041" y2="306.2041"/><!--MD5=[5655ee3e2a0d028d03fe20f829576392]
class Square--><rect fill="#FFFFFF" height="58.6882" id="Square" style="stroke: #2C5F7C; stroke-width: 1.5;" width="144" x="682" y="255.5158"/><ellipse cx="697" cy="276.86" fill="#ADD1B2" rx="11" ry="11" style="stroke: #2C5F7C; stroke-width: 1.0;"/><path d="M699.9688,282.5006 Q699.3906,282.7975 698.75,282.9381 Q698.1094,283.0943 697.4063,283.0943 Q694.9063,283.0943 693.5781,281.4537 Q692.2656,279.7975 692.2656,276.6725 Q692.2656,273.5475 693.5781,271.8912 Q694.9063,270.235 697.4063,270.235 Q698.1094,270.235 698.75,270.3912 Q699.4063,270.5475 699.9688,270.8443 L699.9688,273.5631 Q699.3438,272.985 698.75,272.7193 Q698.1563,272.4381 697.5313,272.4381 Q696.1875,272.4381 695.5,273.5162 Q694.8125,274.5787 694.8125,276.6725 Q694.8125,278.7662 695.5,279.8443 Q696.1875,280.9068 697.5313,280.9068 Q698.1563,280.9068 698.75,280.6412 Q699.3438,280.36 699.9688,279.7818 L699.9688,282.5006 Z "/><text fill="#000000" font-family="sans-serif" font-size="12" font-style="italic" lengthAdjust="spacingAndGlyphs" textLength="116" x="709" y="273.3439">«Refined Abstraction»</text><text fill="#000000" font-family="sans-serif" font-size="12" lengthAdjust="spacingAndGlyphs" textLength="40" x="747" y="289.6881">Square</text><line style="stroke: #2C5F7C; stroke-width: 1.5;" x1="683" x2="825" y1="298.2041" y2="298.2041"/><line style="stroke: #2C5F7C; stroke-width: 1.5;" x1="683" x2="825" y1="306.2041" y2="306.2041"/><!--MD5=[fc539fa3f3b7db9b31467e896d367b3b]
class Device--><rect fill="#FFFFFF" height="58.6882" id="Device" style="stroke: #2C5F7C; stroke-width: 1.5;" width="111" x="928.5" y="255.5158"/><ellipse cx="943.5" cy="276.86" fill="#B4A7E5" rx="11" ry="11" style="stroke: #2C5F7C; stroke-width: 1.0;"/><path d="M939.4219,272.6256 L939.4219,270.4693 L946.8125,270.4693 L946.8125,272.6256 L944.3438,272.6256 L944.3438,280.7037 L946.8125,280.7037 L946.8125,282.86 L939.4219,282.86 L939.4219,280.7037 L941.8906,280.7037 L941.8906,272.6256 L939.4219,272.6256 Z "/><text fill="#000000" font-family="sans-serif" font-size="12" font-style="italic" lengthAdjust="spacingAndGlyphs" textLength="83" x="955.5" y="273.3439">«Implementor»</text><text fill="#000000" font-family="sans-serif" font-size="12" font-style="italic" lengthAdjust="spacingAndGlyphs" textLength="34" x="980" y="289.6881">Device</text><line style="stroke: #2C5F7C; stroke-width: 1.5;" x1="929.5" x2="1038.5" y1="298.2041" y2="298.2041"/><line style="stroke: #2C5F7C; stroke-width: 1.5;" x1="929.5" x2="1038.5" y1="306.2041" y2="306.2041"/><!--MD5=[9022e2192881f166c529fc3ae75dec7b]
class TV--><rect fill="#FFFFFF" height="58.6882" id="TV" style="stroke: #2C5F7C; stroke-width: 1.5;" width="161" x="882.5" y="386.5158"/><ellipse cx="897.5" cy="407.86" fill="#ADD1B2" rx="11" ry="11" style="stroke: #2C5F7C; stroke-width: 1.0;"/><path d="M900.4688,413.5006 Q899.8906,413.7975 899.25,413.9381 Q898.6094,414.0943 897.9063,414.0943 Q895.4063,414.0943 894.0781,412.4537 Q892.7656,410.7975 892.7656,407.6725 Q892.7656,404.5475 894.0781,402.8912 Q895.4063,401.235 897.9063,401.235 Q898.6094,401.235 899.25,401.3912 Q899.9063,401.5475 900.4688,401.8443 L900.4688,404.5631 Q899.8438,403.985 899.25,403.7193 Q898.6563,403.4381 898.0313,403.4381 Q896.6875,403.4381 896,404.5162 Q895.3125,405.5787 895.3125,407.6725 Q895.3125,409.7662 896,410.8443 Q896.6875,411.9068 898.0313,411.9068 Q898.6563,411.9068 899.25,411.6412 Q899.8438,411.36 900.4688,410.7818 L900.4688,413.5006 Z "/><text fill="#000000" font-family="sans-serif" font-size="12" font-style="italic" lengthAdjust="spacingAndGlyphs" textLength="133" x="909.5" y="404.3439">«Concrete Implementor»</text><text fill="#000000" font-family="sans-serif" font-size="12" lengthAdjust="spacingAndGlyphs" textLength="14" x="969" y="420.6881">TV</text><line style="stroke: #2C5F7C; stroke-width: 1.5;" x1="883.5" x2="1042.5" y1="429.2041" y2="429.2041"/><line style="stroke: #2C5F7C; stroke-width: 1.5;" x1="883.5" x2="1042.5" y1="437.2041" y2="437.2041"/><!--MD5=[544998c0c6fc2bf1c6762c5d50f2b2bb]
class Radio--><rect fill="#FFFFFF" height="58.6882" id="Radio" style="stroke: #2C5F7C; stroke-width: 1.5;" width="161" x="1078.5" y="386.5158"/><ellipse cx="1093.5" cy="407.86" fill="#ADD1B2" rx="11" ry="11" style="stroke: #2C5F7C; stroke-width: 1.0;"/><path d="M1096.4688,413.5006 Q1095.8906,413.7975 1095.25,413.9381 Q1094.6094,414.0943 1093.9063,414.0943 Q1091.4063,414.0943 1090.0781,412.4537 Q1088.7656,410.7975 1088.7656,407.6725 Q1088.7656,404.5475 1090.0781,402.8912 Q1091.4063,401.235 1093.9063,401.235 Q1094.6094,401.235 1095.25,401.3912 Q1095.9063,401.5475 1096.4688,401.8443 L1096.4688,404.5631 Q1095.8438,403.985 1095.25,403.7193 Q1094.6563,403.4381 1094.0313,403.4381 Q1092.6875,403.4381 1092,404.5162 Q1091.3125,405.5787 1091.3125,407.6725 Q1091.3125,409.7662 1092,410.8443 Q1092.6875,411.9068 1094.0313,411.9068 Q1094.6563,411.9068 1095.25,411.6412 Q1095.8438,411.36 1096.4688,410.7818 L1096.4688,413.5006 Z "/><text fill="#000000" font-family="sans-serif" font-size="12" font-style="italic" lengthAdjust="spacingAndGlyphs" textLength="133" x="1105.5" y="404.3439">«Concrete Implementor»</text><text fill="#000000" font-family="sans-serif" font-size="12" lengthAdjust="spacingAndGlyphs" textLength="31" x="1156.5" y="420.6881">Radio</text><line style="stroke: #2C5F7C; stroke-width: 1.5;" x1="1079.5" x2="1238.5" y1="429.2041" y2="429.2041"/><line style="stroke: #2C5F7C; stroke-width: 1.5;" x1="1079.5" x2="1238.5" y1="437.2041" y2="437.2041"/><!--MD5=[ee1ef716fcbfa243092ed0dbda08d22c]
class Remote--><rect fill="#FFFFFF" height="58.6882" id="Remote" style="stroke: #2C5F7C; stroke-width: 1.5;" width="101" x="982.5" y="86.5158"/><ellipse cx="997.5" cy="107.86" fill="#A9DCDF" rx="11" ry="11" style="stroke: #2C5F7C; stroke-width: 1.0;"/><path d="M997.6094,103.2037 L996.4531,108.2818 L998.7813,108.2818 L997.6094,103.2037 Z M996.125,100.9693 L999.1094,100.9693 L1002.4688,113.36 L1000.0156,113.36 L999.25,110.2975 L995.9688,110.2975 L995.2188,113.36 L992.7813,113.36 L996.125,100.9693 Z "/><text fill="#000000" font-family="sans-serif" font-size="12" font-style="italic" lengthAdjust="spacingAndGlyphs" textLength="73" x="1009.5" y="104.3439">«Abstraction»</text><text fill="#000000" font-family="sans-serif" font-size="12" font-style="italic" lengthAdjust="spacingAndGlyphs" textLength="41" x="1025.5" y="120.6881">Remote</text><line style="stroke: #2C5F7C; stroke-width: 1.5;" x1="983.5" x2="1082.5" y1="129.2041" y2="129.2041"/><line style="stroke: #2C5F7C; stroke-width: 1.5;" x1="983.5" x2="1082.5" y1="137.2041" y2="137.2041"/><!--MD5=[f3b4edb46d5ed5d4f0f86fafc1fcda61]
class AdvancedRemote--><rect fill="#FFFFFF" height="58.6882" id="AdvancedRemote" style="stroke: #2C5F7C; stroke-width: 1.5;" width="144" x="1075" y="255.5158"/><ellipse cx="1090" cy="276.86" fill="#ADD1B2" rx="11" ry="11" style="stroke: #2C5F7C; stroke-width: 1.0;"/><path d="M1092.9688,282.5006 Q1092.3906,282.7975 1091.75,282.9381 Q1091.1094,283.0943 1090.4063,283.0943 Q1087.9063,283.0943 1086.5781,281.4537 Q1085.2656,279.7975 1085.2656,276.6725 Q1085.2656,273.5475 1086.5781,271.8912 Q1087.9063,270.235 1090.4063,270.235 Q1091.1094,270.235 1091.75,270.3912 Q1092.4063,270.5475 1092.9688,270.8443 L1092.9688,273.5631 Q1092.3438,272.985 1091.75,272.7193 Q1091.1563,272.4381 1090.5313,272.4381 Q1089.1875,272.4381 1088.5,273.5162 Q1087.8125,274.5787 1087.8125,276.6725 Q1087.8125,278.7662 1088.5,279.8443 Q1089.1875,280.9068 1090.5313,280.9068 Q1091.1563,280.9068 1091.75,280.6412 Q1092.3438,280.36 1092.9688,279.7818 L1092.9688,282.5006 Z "/><text fill="#000000" font-family="sans-serif" font-size="12" font-style="italic" lengthAdjust="spacingAndGlyphs" textLength="116" x="1102" y="273.3439">«Refined Abstraction»</text><text fill="#000000" font-family="sans-serif" font-size="12" lengthAdjust="spacingAndGlyphs" textLength="98" x="1111" y="289.6881">AdvancedRemote</text><line style="stroke: #2C5F7C; stroke-width: 1.5;" x1="1076" x2="1218" y1="298.2041" y2="298.2041"/><line style="stroke: #2C5F7C; stroke-width: 1.5;" x1="1076" x2="1218" y1="306.2041" y2="306.2041"/><path d="M47.5,66.5158 L47.5,165.0459 A0,0 0 0 0 47.5,165.0459 L160,165.0459 L164,244.3858 L168,165.0459 L280.5,165.0459 A0,0 0 0 0 280.5,165.0459 L280.5,76.5158 L270.5,66.5158 L47.5,66.5158 A0,0 0 0 0 47.5,66.5158 " fill="#FFF9E6" style="stroke: #CC8800; stroke-width: 1.0;"/><path d="M270.5,66.5158 L270.5,76.5158 L280.5,76.5158 L270.5,66.5158 " fill="#FFF9E6" style="stroke: #CC8800; stroke-width: 1.0;"/><text fill="#000000" font-family="sans-serif" font-size="13" font-weight="bold" lengthAdjust="spacingAndGlyphs" textLength="100" x="53.5" y="85.4129">Ortak Noktalar</text><text fill="#000000" font-family="sans-serif" font-size="13" lengthAdjust="spacingAndGlyphs" textLength="212" x="53.5" y="103.1189">✓ Abstraction - Implementor ayrımı</text><text fill="#000000" font-family="sans-serif" font-size="13" lengthAdjust="spacingAndGlyphs" textLength="172" x="53.5" y="120.8249">✓ Kompozisyonla köprü (o--)</text><text fill="#000000" font-family="sans-serif" font-size="13" lengthAdjust="spacingAndGlyphs" textLength="212" x="53.5" y="138.5309">✓ Her iki hiyerarşi bağımsız genişler</text><text fill="#000000" font-family="sans-serif" font-size="13" lengthAdjust="spacingAndGlyphs" textLength="124" x="53.5" y="156.2369">✓ OCP ve SRP ilkeleri</text><path d="M6,244.5158 L6,325.3399 L322,325.3399 L322,254.5158 L312,244.5158 L6,244.5158 " fill="#FFF9E6" style="stroke: #CC8800; stroke-width: 1.0;"/><path d="M312,244.5158 L312,254.5158 L322,254.5158 L312,244.5158 " fill="#FFF9E6" style="stroke: #CC8800; stroke-width: 1.0;"/><text fill="#000000" font-family="sans-serif" font-size="13" font-weight="bold" lengthAdjust="spacingAndGlyphs" textLength="47" x="12" y="263.4129">Farklar</text><text fill="#000000" font-family="sans-serif" font-size="13" lengthAdjust="spacingAndGlyphs" textLength="253" x="12" y="281.1189">• Alan modeli: şekil/renk vs cihaz/kumanda</text><text fill="#000000" font-family="sans-serif" font-size="13" lengthAdjust="spacingAndGlyphs" textLength="282" x="12" y="298.8249">• İşlemler: draw() çağrıları vs kontrol/cihaz API'si</text><text fill="#000000" font-family="sans-serif" font-size="13" lengthAdjust="spacingAndGlyphs" textLength="295" x="12" y="316.5309">• Kullanım bağlamı: UI çizimi vs donanım kontrolü</text><!--MD5=[fab54b5999e935266d298ad54749f91a]
reverse link Color to Red--><path d="M430.83,334.7458 C430.83,334.7458 430.83,386.4058 430.83,386.4058 " fill="none" id="Color&lt;-Red" style="stroke: #2C5F7C; stroke-width: 1.0; stroke-dasharray: 7.0,7.0;"/><polygon fill="none" points="423.83,334.7458,430.83,314.7458,437.83,334.7458,423.83,334.7458" style="stroke: #2C5F7C; stroke-width: 1.0;"/><!--MD5=[43364a787a1aa71eb994c83faab9e0a3]
reverse link Color to Blue--><path d="M394.17,319.9258 C394.17,319.9258 394.17,320.5158 394.17,320.5158 C394.17,320.5158 600.25,320.5158 600.25,320.5158 C600.25,320.5158 600.25,358.2858 600.25,386.3258 " fill="none" id="Color&lt;-Blue" style="stroke: #2C5F7C; stroke-width: 1.0; stroke-dasharray: 7.0,7.0;"/><polygon fill="none" points="387.17,334.6558,394.17,314.6558,401.17,334.6558,387.17,334.6558" style="stroke: #2C5F7C; stroke-width: 1.0;"/><!--MD5=[d637a7d0c5b779627461b5a6979d5756]
reverse link Shape to Circle--><path d="M575,165.8358 C575,165.8358 575,255.4858 575,255.4858 " fill="none" id="Shape&lt;-Circle" style="stroke: #2C5F7C; stroke-width: 1.0;"/><polygon fill="none" points="568,165.8358,575,145.8358,582,165.8358,568,165.8358" style="stroke: #2C5F7C; stroke-width: 1.0;"/><!--MD5=[d4ca5a4026589bf67f913f07d54add2c]
reverse link Shape to Square--><path d="M645.82,116.5158 C645.82,116.5158 754,116.5158 754,116.5158 C754,116.5158 754,206.9058 754,255.2758 " fill="none" id="Shape&lt;-Square" style="stroke: #2C5F7C; stroke-width: 1.0;"/><polygon fill="none" points="645.82,123.5158,625.82,116.5158,645.82,109.5158,645.82,123.5158" style="stroke: #2C5F7C; stroke-width: 1.0;"/><!--MD5=[bde6043779e280ce1f5099abd907daaf]
reverse link Shape to Color--><path d="M511.32,116.5158 C511.32,116.5158 412,116.5158 412,116.5158 C412,116.5158 412,206.9058 412,255.2758 " fill="none" id="Shape&lt;-Color" style="stroke: #2C5F7C; stroke-width: 1.0;"/><polygon fill="#FFFFFF" points="524.32,116.5158,518.32,112.5158,512.32,116.5158,518.32,120.5158,524.32,116.5158" style="stroke: #2C5F7C; stroke-width: 1.0;"/><text fill="#000000" font-family="sans-serif" font-size="13" lengthAdjust="spacingAndGlyphs" textLength="27" x="477" y="210.4129">uses</text><!--MD5=[c7572c7bd6eed0292325fe9dd4a0294c]
reverse link Device to TV--><path d="M984,334.7458 C984,334.7458 984,386.4058 984,386.4058 " fill="none" id="Device&lt;-TV" style="stroke: #2C5F7C; stroke-width: 1.0; stroke-dasharray: 7.0,7.0;"/><polygon fill="none" points="977,334.7458,984,314.7458,991,334.7458,977,334.7458" style="stroke: #2C5F7C; stroke-width: 1.0;"/><!--MD5=[9a0f857993869747a6ca3c40851b87dd]
reverse link Device to Radio--><path d="M1057.31,285.5158 C1057.31,285.5158 1059.25,285.5158 1059.25,285.5158 C1059.25,285.5158 1059.25,416.5158 1059.25,416.5158 C1059.25,416.5158 1067.14,416.5158 1078.48,416.5158 " fill="none" id="Device&lt;-Radio" style="stroke: #2C5F7C; stroke-width: 1.0; stroke-dasharray: 7.0,7.0;"/><polygon fill="none" points="1059.87,292.5158,1039.87,285.5158,1059.87,278.5158,1059.87,292.5158" style="stroke: #2C5F7C; stroke-width: 1.0;"/><!--MD5=[9515da375d6ff8e3536b31751d6b67cc]
reverse link Remote to AdvancedRemote--><path d="M1079.25,165.8358 C1079.25,165.8358 1079.25,255.4858 1079.25,255.4858 " fill="none" id="Remote&lt;-AdvancedRemote" style="stroke: #2C5F7C; stroke-width: 1.0;"/><polygon fill="none" points="1072.25,165.8358,1079.25,145.8358,1086.25,165.8358,1072.25,165.8358" style="stroke: #2C5F7C; stroke-width: 1.0;"/><!--MD5=[3078aa8dca12b934c89c99d7311fdc4a]
reverse link Remote to Device--><path d="M1011,158.8358 C1011,158.8358 1011,255.4858 1011,255.4858 " fill="none" id="Remote&lt;-Device" style="stroke: #2C5F7C; stroke-width: 1.0;"/><polygon fill="#FFFFFF" points="1011,145.8358,1007,151.8358,1011,157.8358,1015,151.8358,1011,145.8358" style="stroke: #2C5F7C; stroke-width: 1.0;"/><text fill="#000000" font-family="sans-serif" font-size="13" lengthAdjust="spacingAndGlyphs" textLength="27" x="1017" y="210.4129">uses</text><rect fill="#DDDDDD" height="109.3396" rx="5" ry="5" style="stroke: #000000; stroke-width: 1.0;" width="448" x="833" y="495.5158"/><text fill="#000000" font-family="sans-serif" font-size="14" font-weight="bold" lengthAdjust="spacingAndGlyphs" textLength="64" x="843" y="517.4818">Stereotip</text><text fill="#000000" font-family="sans-serif" font-size="14" font-weight="bold" lengthAdjust="spacingAndGlyphs" textLength="49" x="1035" y="517.4818">Anlamı</text><text fill="#000000" font-family="sans-serif" font-size="14" lengthAdjust="spacingAndGlyphs" textLength="109" x="843" y="536.5497">&lt;&lt;Abstraction&gt;&gt;</text><text fill="#000000" font-family="sans-serif" font-size="14" lengthAdjust="spacingAndGlyphs" textLength="236" x="1035" y="536.5497">İstemcinin kullandığı soyut katman</text><text fill="#000000" font-family="sans-serif" font-size="14" lengthAdjust="spacingAndGlyphs" textLength="120" x="843" y="555.6176">&lt;&lt;Implementor&gt;&gt;</text><text fill="#000000" font-family="sans-serif" font-size="14" lengthAdjust="spacingAndGlyphs" textLength="236" x="1035" y="555.6176">Abstraction'ın delege ettiği katman</text><text fill="#000000" font-family="sans-serif" font-size="14" lengthAdjust="spacingAndGlyphs" textLength="165" x="843" y="574.6855">&lt;&lt;Refined Abstraction&gt;&gt;</text><text fill="#000000" font-family="sans-serif" font-size="14" lengthAdjust="spacingAndGlyphs" textLength="120" x="1035" y="574.6855">Abstraction türevi</text><text fill="#000000" font-family="sans-serif" font-size="14" lengthAdjust="spacingAndGlyphs" textLength="184" x="843" y="593.7534">&lt;&lt;Concrete Implementor&gt;&gt;</text><text fill="#000000" font-family="sans-serif" font-size="14" lengthAdjust="spacingAndGlyphs" textLength="131" x="1035" y="593.7534">Implementor türevi</text><line style="stroke: #000000; stroke-width: 1.0;" x1="839" x2="1275" y1="502.5158" y2="502.5158"/><line style="stroke: #000000; stroke-width: 1.0;" x1="839" x2="1275" y1="521.5838" y2="521.5838"/><line style="stroke: #000000; stroke-width: 1.0;" x1="839" x2="1275" y1="540.6517" y2="540.6517"/><line style="stroke: #000000; stroke-width: 1.0;" x1="839" x2="1275" y1="559.7196" y2="559.7196"/><line style="stroke: #000000; stroke-width: 1.0;" x1="839" x2="1275" y1="578.7875" y2="578.7875"/><line style="stroke: #000000; stroke-width: 1.0;" x1="839" x2="1275" y1="597.8554" y2="597.8554"/><line style="stroke: #000000; stroke-width: 1.0;" x1="839" x2="839" y1="502.5158" y2="597.8554"/><line style="stroke: #000000; stroke-width: 1.0;" x1="1031" x2="1031" y1="502.5158" y2="597.8554"/><line style="stroke: #000000; stroke-width: 1.0;" x1="1275" x2="1275" y1="502.5158" y2="597.8554"/><text fill="#888888" font-family="sans-serif" font-size="10" lengthAdjust="spacingAndGlyphs" textLength="446" x="422" y="624.5454">Oluşturulma: 22.10.2025 | Sürüm: 1.0.0 | Pattern: Bridge (Structural) | Modül: Karşılaştırma</text><!--MD5=[21eb695d0cfcc4df654f6142e3bc9f42]
@startuml
allowmixing

title Bridge Pattern: Şekil-Renk vs Kumanda-Cihaz Karşılaştırması

skinparam backgroundColor #FFFFFF
skinparam shadowing false
skinparam classAttributeIconSize 0
skinparam linetype ortho

skinparam package {
    BackgroundColor #E8F4F8
    BorderColor #2C5F7C
    FontStyle bold
}

skinparam class {
    BackgroundColor #FFFFFF
    BorderColor #2C5F7C
    ArrowColor #2C5F7C
}

skinparam interface {
    BackgroundColor #FFE8CC
    BorderColor #CC8800
}

skinparam note {
    BackgroundColor #FFF9E6
    BorderColor #CC8800
}

package "Vaka A: Şekil <-> Renk" #F0F7FA {
    interface Color <<Implementor>>
    class Red <<Concrete Implementor>>
    class Blue <<Concrete Implementor>>
    Color <|.. Red
    Color <|.. Blue

    abstract class Shape <<Abstraction>>
    class Circle <<Refined Abstraction>>
    class Square <<Refined Abstraction>>
    Shape <|- - Circle
    Shape <|- - Square
    Shape o- - Color : uses
}

package "Vaka B: Kumanda <-> Cihaz" #F7F1FF {
    interface Device <<Implementor>>
    class TV <<Concrete Implementor>>
    class Radio <<Concrete Implementor>>
    Device <|.. TV
    Device <|.. Radio

    abstract class Remote <<Abstraction>>
    class AdvancedRemote <<Refined Abstraction>>
    Remote <|- - AdvancedRemote
    Remote o- - Device : uses
}

note as Similarities
  <b>Ortak Noktalar</b>
  ✓ Abstraction - Implementor ayrımı
  ✓ Kompozisyonla köprü (o- -)
  ✓ Her iki hiyerarşi bağımsız genişler
  ✓ OCP ve SRP ilkeleri
end note

note as Differences
  <b>Farklar</b>
  • Alan modeli: şekil/renk vs cihaz/kumanda
  • İşlemler: draw() çağrıları vs kontrol/cihaz API'si
  • Kullanım bağlamı: UI çizimi vs donanım kontrolü
end note

Similarities -[hidden]- Differences

legend right
  |= Stereotip |= Anlamı |
  | <<Abstraction>> | İstemcinin kullandığı soyut katman |
  | <<Implementor>> | Abstraction'ın delege ettiği katman |
  | <<Refined Abstraction>> | Abstraction türevi |
  | <<Concrete Implementor>> | Implementor türevi |
endlegend

footer Oluşturulma: 22.10.2025 | Sürüm: 1.0.0 | Pattern: Bridge (Structural) | Modül: Karşılaştırma

@enduml

PlantUML version 1.2020.02(Sun Mar 01 13:22:07 TRT 2020)
(GPL source distribution)
Java Runtime: OpenJDK Runtime Environment
JVM: OpenJDK 64-Bit Server VM
Java Version: 21.0.8+9-Ubuntu-0ubuntu124.04.1
Operating System: Linux
Default Encoding: UTF-8
Language: en
Country: US
--></g></svg>